%TF.GenerationSoftware,KiCad,Pcbnew,10.0.4*%
%TF.CreationDate,2026-07-20T19:50:36-07:00*%
%TF.ProjectId,esp32c6_daikin,65737033-3263-4365-9f64-61696b696e2e,rev?*%
%TF.SameCoordinates,Original*%
%TF.FileFunction,Soldermask,Top*%
%TF.FilePolarity,Negative*%
%FSLAX46Y46*%
G04 Gerber Fmt 4.6, Leading zero omitted, Abs format (unit mm)*
G04 Created by KiCad (PCBNEW 10.0.4) date 2026-07-20 19:50:36*
%MOMM*%
%LPD*%
G01*
G04 APERTURE LIST*
G04 APERTURE END LIST*
G36*
X151944000Y-109161000D02*
G01*
X151374000Y-109161000D01*
X151374000Y-108621000D01*
X151944000Y-108621000D01*
X151944000Y-109161000D01*
G37*
G36*
X152804000Y-109161000D02*
G01*
X152234000Y-109161000D01*
X152234000Y-108621000D01*
X152804000Y-108621000D01*
X152804000Y-109161000D01*
G37*
G36*
X175070800Y-108919400D02*
G01*
X174170800Y-108919400D01*
X174170800Y-108519400D01*
X175070800Y-108519400D01*
X175070800Y-108919400D01*
G37*
G36*
X176870800Y-108919400D02*
G01*
X175970800Y-108919400D01*
X175970800Y-108519400D01*
X176870800Y-108519400D01*
X176870800Y-108919400D01*
G37*
G36*
X172859500Y-108633400D02*
G01*
X172509500Y-108633400D01*
X172509500Y-108033400D01*
X172859500Y-108033400D01*
X172859500Y-108633400D01*
G37*
G36*
X173499500Y-108633400D02*
G01*
X173149500Y-108633400D01*
X173149500Y-108033400D01*
X173499500Y-108033400D01*
X173499500Y-108633400D01*
G37*
G36*
X179583215Y-106608793D02*
G01*
X179746642Y-106641301D01*
X179900587Y-106705067D01*
X180039134Y-106797641D01*
X180156959Y-106915466D01*
X180249533Y-107054013D01*
X180313299Y-107207958D01*
X180345807Y-107371385D01*
X180345807Y-107538015D01*
X180313299Y-107701442D01*
X180249533Y-107855387D01*
X180156959Y-107993934D01*
X180039134Y-108111759D01*
X179900587Y-108204333D01*
X179746642Y-108268099D01*
X179583215Y-108300607D01*
X179499900Y-108304700D01*
X179498668Y-108304700D01*
X179251132Y-108304700D01*
X179249900Y-108304700D01*
X179166585Y-108300607D01*
X179003158Y-108268099D01*
X178849213Y-108204333D01*
X178710666Y-108111759D01*
X178592841Y-107993934D01*
X178500267Y-107855387D01*
X178436501Y-107701442D01*
X178403993Y-107538015D01*
X178403993Y-107371385D01*
X178436501Y-107207958D01*
X178500267Y-107054013D01*
X178592841Y-106915466D01*
X178710666Y-106797641D01*
X178849213Y-106705067D01*
X179003158Y-106641301D01*
X179166585Y-106608793D01*
X179249900Y-106604700D01*
X179499900Y-106604700D01*
X179583215Y-106608793D01*
G37*
G36*
X175070800Y-108269400D02*
G01*
X174170800Y-108269400D01*
X174170800Y-107869400D01*
X175070800Y-107869400D01*
X175070800Y-108269400D01*
G37*
G36*
X176870800Y-108269400D02*
G01*
X175970800Y-108269400D01*
X175970800Y-107869400D01*
X176870800Y-107869400D01*
X176870800Y-108269400D01*
G37*
G36*
X175070800Y-107619400D02*
G01*
X174170800Y-107619400D01*
X174170800Y-107219400D01*
X175070800Y-107219400D01*
X175070800Y-107619400D01*
G37*
G36*
X176870800Y-107619400D02*
G01*
X175970800Y-107619400D01*
X175970800Y-107219400D01*
X176870800Y-107219400D01*
X176870800Y-107619400D01*
G37*
G36*
X171855000Y-107300000D02*
G01*
X171505000Y-107300000D01*
X171505000Y-106700000D01*
X171855000Y-106700000D01*
X171855000Y-107300000D01*
G37*
G36*
X172495000Y-107300000D02*
G01*
X172145000Y-107300000D01*
X172145000Y-106700000D01*
X172495000Y-106700000D01*
X172495000Y-107300000D01*
G37*
G36*
X152101197Y-105390811D02*
G01*
X152239204Y-105447976D01*
X152363408Y-105530966D01*
X152469034Y-105636592D01*
X152552024Y-105760796D01*
X152609189Y-105898803D01*
X152638331Y-106045311D01*
X152638331Y-106194689D01*
X152609189Y-106341197D01*
X152552024Y-106479204D01*
X152469034Y-106603408D01*
X152363408Y-106709034D01*
X152239204Y-106792024D01*
X152101197Y-106849189D01*
X151954689Y-106878331D01*
X151805311Y-106878331D01*
X151658803Y-106849189D01*
X151520796Y-106792024D01*
X151396592Y-106709034D01*
X151290966Y-106603408D01*
X151207976Y-106479204D01*
X151150811Y-106341197D01*
X151121669Y-106194689D01*
X151121669Y-106045311D01*
X151150811Y-105898803D01*
X151207976Y-105760796D01*
X151290966Y-105636592D01*
X151396592Y-105530966D01*
X151520796Y-105447976D01*
X151658803Y-105390811D01*
X151805311Y-105361669D01*
X151954689Y-105361669D01*
X152101197Y-105390811D01*
G37*
G36*
X154641197Y-105390811D02*
G01*
X154779204Y-105447976D01*
X154903408Y-105530966D01*
X155009034Y-105636592D01*
X155092024Y-105760796D01*
X155149189Y-105898803D01*
X155178331Y-106045311D01*
X155178331Y-106194689D01*
X155149189Y-106341197D01*
X155092024Y-106479204D01*
X155009034Y-106603408D01*
X154903408Y-106709034D01*
X154779204Y-106792024D01*
X154641197Y-106849189D01*
X154494689Y-106878331D01*
X154345311Y-106878331D01*
X154198803Y-106849189D01*
X154060796Y-106792024D01*
X153936592Y-106709034D01*
X153830966Y-106603408D01*
X153747976Y-106479204D01*
X153690811Y-106341197D01*
X153661669Y-106194689D01*
X153661669Y-106045311D01*
X153690811Y-105898803D01*
X153747976Y-105760796D01*
X153830966Y-105636592D01*
X153936592Y-105530966D01*
X154060796Y-105447976D01*
X154198803Y-105390811D01*
X154345311Y-105361669D01*
X154494689Y-105361669D01*
X154641197Y-105390811D01*
G37*
G36*
X157181197Y-105390811D02*
G01*
X157319204Y-105447976D01*
X157443408Y-105530966D01*
X157549034Y-105636592D01*
X157632024Y-105760796D01*
X157689189Y-105898803D01*
X157718331Y-106045311D01*
X157718331Y-106194689D01*
X157689189Y-106341197D01*
X157632024Y-106479204D01*
X157549034Y-106603408D01*
X157443408Y-106709034D01*
X157319204Y-106792024D01*
X157181197Y-106849189D01*
X157034689Y-106878331D01*
X156885311Y-106878331D01*
X156738803Y-106849189D01*
X156600796Y-106792024D01*
X156476592Y-106709034D01*
X156370966Y-106603408D01*
X156287976Y-106479204D01*
X156230811Y-106341197D01*
X156201669Y-106194689D01*
X156201669Y-106045311D01*
X156230811Y-105898803D01*
X156287976Y-105760796D01*
X156370966Y-105636592D01*
X156476592Y-105530966D01*
X156600796Y-105447976D01*
X156738803Y-105390811D01*
X156885311Y-105361669D01*
X157034689Y-105361669D01*
X157181197Y-105390811D01*
G37*
G36*
X159721197Y-105390811D02*
G01*
X159859204Y-105447976D01*
X159983408Y-105530966D01*
X160089034Y-105636592D01*
X160172024Y-105760796D01*
X160229189Y-105898803D01*
X160258331Y-106045311D01*
X160258331Y-106194689D01*
X160229189Y-106341197D01*
X160172024Y-106479204D01*
X160089034Y-106603408D01*
X159983408Y-106709034D01*
X159859204Y-106792024D01*
X159721197Y-106849189D01*
X159574689Y-106878331D01*
X159425311Y-106878331D01*
X159278803Y-106849189D01*
X159140796Y-106792024D01*
X159016592Y-106709034D01*
X158910966Y-106603408D01*
X158827976Y-106479204D01*
X158770811Y-106341197D01*
X158741669Y-106194689D01*
X158741669Y-106045311D01*
X158770811Y-105898803D01*
X158827976Y-105760796D01*
X158910966Y-105636592D01*
X159016592Y-105530966D01*
X159140796Y-105447976D01*
X159278803Y-105390811D01*
X159425311Y-105361669D01*
X159574689Y-105361669D01*
X159721197Y-105390811D01*
G37*
G36*
X162261197Y-105390811D02*
G01*
X162399204Y-105447976D01*
X162523408Y-105530966D01*
X162629034Y-105636592D01*
X162712024Y-105760796D01*
X162769189Y-105898803D01*
X162798331Y-106045311D01*
X162798331Y-106194689D01*
X162769189Y-106341197D01*
X162712024Y-106479204D01*
X162629034Y-106603408D01*
X162523408Y-106709034D01*
X162399204Y-106792024D01*
X162261197Y-106849189D01*
X162114689Y-106878331D01*
X161965311Y-106878331D01*
X161818803Y-106849189D01*
X161680796Y-106792024D01*
X161556592Y-106709034D01*
X161450966Y-106603408D01*
X161367976Y-106479204D01*
X161310811Y-106341197D01*
X161281669Y-106194689D01*
X161281669Y-106045311D01*
X161310811Y-105898803D01*
X161367976Y-105760796D01*
X161450966Y-105636592D01*
X161556592Y-105530966D01*
X161680796Y-105447976D01*
X161818803Y-105390811D01*
X161965311Y-105361669D01*
X162114689Y-105361669D01*
X162261197Y-105390811D01*
G37*
G36*
X164801197Y-105390811D02*
G01*
X164939204Y-105447976D01*
X165063408Y-105530966D01*
X165169034Y-105636592D01*
X165252024Y-105760796D01*
X165309189Y-105898803D01*
X165338331Y-106045311D01*
X165338331Y-106194689D01*
X165309189Y-106341197D01*
X165252024Y-106479204D01*
X165169034Y-106603408D01*
X165063408Y-106709034D01*
X164939204Y-106792024D01*
X164801197Y-106849189D01*
X164654689Y-106878331D01*
X164505311Y-106878331D01*
X164358803Y-106849189D01*
X164220796Y-106792024D01*
X164096592Y-106709034D01*
X163990966Y-106603408D01*
X163907976Y-106479204D01*
X163850811Y-106341197D01*
X163821669Y-106194689D01*
X163821669Y-106045311D01*
X163850811Y-105898803D01*
X163907976Y-105760796D01*
X163990966Y-105636592D01*
X164096592Y-105530966D01*
X164220796Y-105447976D01*
X164358803Y-105390811D01*
X164505311Y-105361669D01*
X164654689Y-105361669D01*
X164801197Y-105390811D01*
G37*
G36*
X167341197Y-105390811D02*
G01*
X167479204Y-105447976D01*
X167603408Y-105530966D01*
X167709034Y-105636592D01*
X167792024Y-105760796D01*
X167849189Y-105898803D01*
X167878331Y-106045311D01*
X167878331Y-106194689D01*
X167849189Y-106341197D01*
X167792024Y-106479204D01*
X167709034Y-106603408D01*
X167603408Y-106709034D01*
X167479204Y-106792024D01*
X167341197Y-106849189D01*
X167194689Y-106878331D01*
X167045311Y-106878331D01*
X166898803Y-106849189D01*
X166760796Y-106792024D01*
X166636592Y-106709034D01*
X166530966Y-106603408D01*
X166447976Y-106479204D01*
X166390811Y-106341197D01*
X166361669Y-106194689D01*
X166361669Y-106045311D01*
X166390811Y-105898803D01*
X166447976Y-105760796D01*
X166530966Y-105636592D01*
X166636592Y-105530966D01*
X166760796Y-105447976D01*
X166898803Y-105390811D01*
X167045311Y-105361669D01*
X167194689Y-105361669D01*
X167341197Y-105390811D01*
G37*
G36*
X177417000Y-106833000D02*
G01*
X176877000Y-106833000D01*
X176877000Y-106263000D01*
X177417000Y-106263000D01*
X177417000Y-106833000D01*
G37*
G36*
X174617337Y-105139524D02*
G01*
X174682221Y-105182879D01*
X174725576Y-105247763D01*
X174740800Y-105324300D01*
X174740800Y-105874300D01*
X174725576Y-105950837D01*
X174682221Y-106015721D01*
X174617337Y-106059076D01*
X174540800Y-106074300D01*
X174140800Y-106074300D01*
X174064263Y-106059076D01*
X173999379Y-106015721D01*
X173956024Y-105950837D01*
X173940800Y-105874300D01*
X173940800Y-105324300D01*
X173956024Y-105247763D01*
X173999379Y-105182879D01*
X174064263Y-105139524D01*
X174140800Y-105124300D01*
X174540800Y-105124300D01*
X174617337Y-105139524D01*
G37*
G36*
X176267337Y-105139524D02*
G01*
X176332221Y-105182879D01*
X176375576Y-105247763D01*
X176390800Y-105324300D01*
X176390800Y-105874300D01*
X176375576Y-105950837D01*
X176332221Y-106015721D01*
X176267337Y-106059076D01*
X176190800Y-106074300D01*
X175790800Y-106074300D01*
X175714263Y-106059076D01*
X175649379Y-106015721D01*
X175606024Y-105950837D01*
X175590800Y-105874300D01*
X175590800Y-105324300D01*
X175606024Y-105247763D01*
X175649379Y-105182879D01*
X175714263Y-105139524D01*
X175790800Y-105124300D01*
X176190800Y-105124300D01*
X176267337Y-105139524D01*
G37*
G36*
X188929047Y-104775805D02*
G01*
X188980408Y-104781764D01*
X188997954Y-104789511D01*
X189020671Y-104794030D01*
X189044991Y-104810280D01*
X189065793Y-104819465D01*
X189080000Y-104833672D01*
X189101777Y-104848223D01*
X189116327Y-104869999D01*
X189130534Y-104884206D01*
X189139718Y-104905006D01*
X189155970Y-104929329D01*
X189160489Y-104952048D01*
X189168235Y-104969591D01*
X189174192Y-105020940D01*
X189175000Y-105025000D01*
X189175000Y-105775000D01*
X189174192Y-105779059D01*
X189168235Y-105830408D01*
X189160489Y-105847950D01*
X189155970Y-105870671D01*
X189139716Y-105894995D01*
X189130534Y-105915793D01*
X189116329Y-105929997D01*
X189101777Y-105951777D01*
X189079997Y-105966329D01*
X189065793Y-105980534D01*
X189044995Y-105989716D01*
X189020671Y-106005970D01*
X188997950Y-106010489D01*
X188980408Y-106018235D01*
X188929061Y-106024192D01*
X188925000Y-106025000D01*
X187675000Y-106025000D01*
X187670941Y-106024192D01*
X187619591Y-106018235D01*
X187602048Y-106010489D01*
X187579329Y-106005970D01*
X187555006Y-105989718D01*
X187534206Y-105980534D01*
X187519999Y-105966327D01*
X187498223Y-105951777D01*
X187483672Y-105930000D01*
X187469465Y-105915793D01*
X187460280Y-105894991D01*
X187444030Y-105870671D01*
X187439511Y-105847954D01*
X187431764Y-105830408D01*
X187425805Y-105779049D01*
X187425000Y-105775000D01*
X187425000Y-105025000D01*
X187425804Y-105020953D01*
X187431764Y-104969591D01*
X187439511Y-104952043D01*
X187444030Y-104929329D01*
X187460278Y-104905010D01*
X187469465Y-104884206D01*
X187483674Y-104869996D01*
X187498223Y-104848223D01*
X187519996Y-104833674D01*
X187534206Y-104819465D01*
X187555010Y-104810278D01*
X187579329Y-104794030D01*
X187602043Y-104789511D01*
X187619591Y-104781764D01*
X187670952Y-104775805D01*
X187675000Y-104775000D01*
X188925000Y-104775000D01*
X188929047Y-104775805D01*
G37*
G36*
X177417000Y-105973000D02*
G01*
X176877000Y-105973000D01*
X176877000Y-105403000D01*
X177417000Y-105403000D01*
X177417000Y-105973000D01*
G37*
G36*
X179583215Y-104108793D02*
G01*
X179746642Y-104141301D01*
X179900587Y-104205067D01*
X180039134Y-104297641D01*
X180156959Y-104415466D01*
X180249533Y-104554013D01*
X180313299Y-104707958D01*
X180345807Y-104871385D01*
X180345807Y-105038015D01*
X180313299Y-105201442D01*
X180249533Y-105355387D01*
X180156959Y-105493934D01*
X180039134Y-105611759D01*
X179900587Y-105704333D01*
X179746642Y-105768099D01*
X179583215Y-105800607D01*
X179499900Y-105804700D01*
X179498668Y-105804700D01*
X179251132Y-105804700D01*
X179249900Y-105804700D01*
X179166585Y-105800607D01*
X179003158Y-105768099D01*
X178849213Y-105704333D01*
X178710666Y-105611759D01*
X178592841Y-105493934D01*
X178500267Y-105355387D01*
X178436501Y-105201442D01*
X178403993Y-105038015D01*
X178403993Y-104871385D01*
X178436501Y-104707958D01*
X178500267Y-104554013D01*
X178592841Y-104415466D01*
X178710666Y-104297641D01*
X178849213Y-104205067D01*
X179003158Y-104141301D01*
X179166585Y-104108793D01*
X179249900Y-104104700D01*
X179499900Y-104104700D01*
X179583215Y-104108793D01*
G37*
G36*
X174523337Y-103012024D02*
G01*
X174588221Y-103055379D01*
X174631576Y-103120263D01*
X174646800Y-103196800D01*
X174646800Y-103746800D01*
X174631576Y-103823337D01*
X174588221Y-103888221D01*
X174523337Y-103931576D01*
X174446800Y-103946800D01*
X174046800Y-103946800D01*
X173970263Y-103931576D01*
X173905379Y-103888221D01*
X173862024Y-103823337D01*
X173846800Y-103746800D01*
X173846800Y-103196800D01*
X173862024Y-103120263D01*
X173905379Y-103055379D01*
X173970263Y-103012024D01*
X174046800Y-102996800D01*
X174446800Y-102996800D01*
X174523337Y-103012024D01*
G37*
G36*
X176173337Y-103012024D02*
G01*
X176238221Y-103055379D01*
X176281576Y-103120263D01*
X176296800Y-103196800D01*
X176296800Y-103746800D01*
X176281576Y-103823337D01*
X176238221Y-103888221D01*
X176173337Y-103931576D01*
X176096800Y-103946800D01*
X175696800Y-103946800D01*
X175620263Y-103931576D01*
X175555379Y-103888221D01*
X175512024Y-103823337D01*
X175496800Y-103746800D01*
X175496800Y-103196800D01*
X175512024Y-103120263D01*
X175555379Y-103055379D01*
X175620263Y-103012024D01*
X175696800Y-102996800D01*
X176096800Y-102996800D01*
X176173337Y-103012024D01*
G37*
G36*
X179583215Y-101608793D02*
G01*
X179746642Y-101641301D01*
X179900587Y-101705067D01*
X180039134Y-101797641D01*
X180156959Y-101915466D01*
X180249533Y-102054013D01*
X180313299Y-102207958D01*
X180345807Y-102371385D01*
X180345807Y-102538015D01*
X180313299Y-102701442D01*
X180249533Y-102855387D01*
X180156959Y-102993934D01*
X180039134Y-103111759D01*
X179900587Y-103204333D01*
X179746642Y-103268099D01*
X179583215Y-103300607D01*
X179499900Y-103304700D01*
X179498668Y-103304700D01*
X179251132Y-103304700D01*
X179249900Y-103304700D01*
X179166585Y-103300607D01*
X179003158Y-103268099D01*
X178849213Y-103204333D01*
X178710666Y-103111759D01*
X178592841Y-102993934D01*
X178500267Y-102855387D01*
X178436501Y-102701442D01*
X178403993Y-102538015D01*
X178403993Y-102371385D01*
X178436501Y-102207958D01*
X178500267Y-102054013D01*
X178592841Y-101915466D01*
X178710666Y-101797641D01*
X178849213Y-101705067D01*
X179003158Y-101641301D01*
X179166585Y-101608793D01*
X179249900Y-101604700D01*
X179499900Y-101604700D01*
X179583215Y-101608793D01*
G37*
G36*
X188929047Y-101975805D02*
G01*
X188980408Y-101981764D01*
X188997954Y-101989511D01*
X189020671Y-101994030D01*
X189044991Y-102010280D01*
X189065793Y-102019465D01*
X189080000Y-102033672D01*
X189101777Y-102048223D01*
X189116327Y-102069999D01*
X189130534Y-102084206D01*
X189139718Y-102105006D01*
X189155970Y-102129329D01*
X189160489Y-102152048D01*
X189168235Y-102169591D01*
X189174192Y-102220940D01*
X189175000Y-102225000D01*
X189175000Y-102975000D01*
X189174192Y-102979059D01*
X189168235Y-103030408D01*
X189160489Y-103047950D01*
X189155970Y-103070671D01*
X189139716Y-103094995D01*
X189130534Y-103115793D01*
X189116329Y-103129997D01*
X189101777Y-103151777D01*
X189079997Y-103166329D01*
X189065793Y-103180534D01*
X189044995Y-103189716D01*
X189020671Y-103205970D01*
X188997950Y-103210489D01*
X188980408Y-103218235D01*
X188929061Y-103224192D01*
X188925000Y-103225000D01*
X187675000Y-103225000D01*
X187670941Y-103224192D01*
X187619591Y-103218235D01*
X187602048Y-103210489D01*
X187579329Y-103205970D01*
X187555006Y-103189718D01*
X187534206Y-103180534D01*
X187519999Y-103166327D01*
X187498223Y-103151777D01*
X187483672Y-103130000D01*
X187469465Y-103115793D01*
X187460280Y-103094991D01*
X187444030Y-103070671D01*
X187439511Y-103047954D01*
X187431764Y-103030408D01*
X187425805Y-102979049D01*
X187425000Y-102975000D01*
X187425000Y-102225000D01*
X187425804Y-102220953D01*
X187431764Y-102169591D01*
X187439511Y-102152043D01*
X187444030Y-102129329D01*
X187460278Y-102105010D01*
X187469465Y-102084206D01*
X187483674Y-102069996D01*
X187498223Y-102048223D01*
X187519996Y-102033674D01*
X187534206Y-102019465D01*
X187555010Y-102010278D01*
X187579329Y-101994030D01*
X187602043Y-101989511D01*
X187619591Y-101981764D01*
X187670952Y-101975805D01*
X187675000Y-101975000D01*
X188925000Y-101975000D01*
X188929047Y-101975805D01*
G37*
G36*
X174770000Y-102315000D02*
G01*
X174230000Y-102315000D01*
X174230000Y-101745000D01*
X174770000Y-101745000D01*
X174770000Y-102315000D01*
G37*
G36*
X174770000Y-101455000D02*
G01*
X174230000Y-101455000D01*
X174230000Y-100885000D01*
X174770000Y-100885000D01*
X174770000Y-101455000D01*
G37*
G36*
X179583215Y-99108793D02*
G01*
X179746642Y-99141301D01*
X179900587Y-99205067D01*
X180039134Y-99297641D01*
X180156959Y-99415466D01*
X180249533Y-99554013D01*
X180313299Y-99707958D01*
X180345807Y-99871385D01*
X180345807Y-100038015D01*
X180313299Y-100201442D01*
X180249533Y-100355387D01*
X180156959Y-100493934D01*
X180039134Y-100611759D01*
X179900587Y-100704333D01*
X179746642Y-100768099D01*
X179583215Y-100800607D01*
X179499900Y-100804700D01*
X179498668Y-100804700D01*
X179251132Y-100804700D01*
X179249900Y-100804700D01*
X179166585Y-100800607D01*
X179003158Y-100768099D01*
X178849213Y-100704333D01*
X178710666Y-100611759D01*
X178592841Y-100493934D01*
X178500267Y-100355387D01*
X178436501Y-100201442D01*
X178403993Y-100038015D01*
X178403993Y-99871385D01*
X178436501Y-99707958D01*
X178500267Y-99554013D01*
X178592841Y-99415466D01*
X178710666Y-99297641D01*
X178849213Y-99205067D01*
X179003158Y-99141301D01*
X179166585Y-99108793D01*
X179249900Y-99104700D01*
X179499900Y-99104700D01*
X179583215Y-99108793D01*
G37*
G36*
X180103947Y-96605505D02*
G01*
X180155308Y-96611464D01*
X180172854Y-96619211D01*
X180195571Y-96623730D01*
X180219891Y-96639980D01*
X180240693Y-96649165D01*
X180254900Y-96663372D01*
X180276677Y-96677923D01*
X180291227Y-96699699D01*
X180305434Y-96713906D01*
X180314618Y-96734706D01*
X180330870Y-96759029D01*
X180335389Y-96781748D01*
X180343135Y-96799291D01*
X180349092Y-96850640D01*
X180349900Y-96854700D01*
X180349900Y-98054700D01*
X180349092Y-98058759D01*
X180343135Y-98110108D01*
X180335389Y-98127650D01*
X180330870Y-98150371D01*
X180314616Y-98174695D01*
X180305434Y-98195493D01*
X180291229Y-98209697D01*
X180276677Y-98231477D01*
X180254897Y-98246029D01*
X180240693Y-98260234D01*
X180219895Y-98269416D01*
X180195571Y-98285670D01*
X180172850Y-98290189D01*
X180155308Y-98297935D01*
X180103961Y-98303892D01*
X180099900Y-98304700D01*
X178649900Y-98304700D01*
X178645841Y-98303892D01*
X178594491Y-98297935D01*
X178576948Y-98290189D01*
X178554229Y-98285670D01*
X178529906Y-98269418D01*
X178509106Y-98260234D01*
X178494899Y-98246027D01*
X178473123Y-98231477D01*
X178458572Y-98209700D01*
X178444365Y-98195493D01*
X178435180Y-98174691D01*
X178418930Y-98150371D01*
X178414411Y-98127654D01*
X178406664Y-98110108D01*
X178400705Y-98058749D01*
X178399900Y-98054700D01*
X178399900Y-96854700D01*
X178400704Y-96850653D01*
X178406664Y-96799291D01*
X178414411Y-96781743D01*
X178418930Y-96759029D01*
X178435178Y-96734710D01*
X178444365Y-96713906D01*
X178458574Y-96699696D01*
X178473123Y-96677923D01*
X178494896Y-96663374D01*
X178509106Y-96649165D01*
X178529910Y-96639978D01*
X178554229Y-96623730D01*
X178576943Y-96619211D01*
X178594491Y-96611464D01*
X178645852Y-96605505D01*
X178649900Y-96604700D01*
X180099900Y-96604700D01*
X180103947Y-96605505D01*
G37*
G36*
X173205000Y-96675000D02*
G01*
X171795000Y-96675000D01*
X171795000Y-95325000D01*
X173205000Y-95325000D01*
X173205000Y-96675000D01*
G37*
G36*
X175205000Y-96675000D02*
G01*
X173795000Y-96675000D01*
X173795000Y-95325000D01*
X175205000Y-95325000D01*
X175205000Y-96675000D01*
G37*
G36*
X158570000Y-94234600D02*
G01*
X158030000Y-94234600D01*
X158030000Y-93664600D01*
X158570000Y-93664600D01*
X158570000Y-94234600D01*
G37*
G36*
X169505000Y-94075000D02*
G01*
X168095000Y-94075000D01*
X168095000Y-92725000D01*
X169505000Y-92725000D01*
X169505000Y-94075000D01*
G37*
G36*
X171505000Y-94075000D02*
G01*
X170095000Y-94075000D01*
X170095000Y-92725000D01*
X171505000Y-92725000D01*
X171505000Y-94075000D01*
G37*
G36*
X181155000Y-94070000D02*
G01*
X180585000Y-94070000D01*
X180585000Y-93530000D01*
X181155000Y-93530000D01*
X181155000Y-94070000D01*
G37*
G36*
X182015000Y-94070000D02*
G01*
X181445000Y-94070000D01*
X181445000Y-93530000D01*
X182015000Y-93530000D01*
X182015000Y-94070000D01*
G37*
G36*
X186605000Y-93975000D02*
G01*
X185195000Y-93975000D01*
X185195000Y-92625000D01*
X186605000Y-92625000D01*
X186605000Y-93975000D01*
G37*
G36*
X188605000Y-93975000D02*
G01*
X187195000Y-93975000D01*
X187195000Y-92625000D01*
X188605000Y-92625000D01*
X188605000Y-93975000D01*
G37*
G36*
X183305000Y-93830000D02*
G01*
X182495000Y-93830000D01*
X182495000Y-92970000D01*
X183305000Y-92970000D01*
X183305000Y-93830000D01*
G37*
G36*
X184805000Y-93830000D02*
G01*
X183995000Y-93830000D01*
X183995000Y-92970000D01*
X184805000Y-92970000D01*
X184805000Y-93830000D01*
G37*
G36*
X158570000Y-93374600D02*
G01*
X158030000Y-93374600D01*
X158030000Y-92804600D01*
X158570000Y-92804600D01*
X158570000Y-93374600D01*
G37*
G36*
X177955000Y-93230000D02*
G01*
X177145000Y-93230000D01*
X177145000Y-92370000D01*
X177955000Y-92370000D01*
X177955000Y-93230000D01*
G37*
G36*
X179455000Y-93230000D02*
G01*
X178645000Y-93230000D01*
X178645000Y-92370000D01*
X179455000Y-92370000D01*
X179455000Y-93230000D01*
G37*
G36*
X181145000Y-92870000D02*
G01*
X180355000Y-92870000D01*
X180355000Y-92330000D01*
X181145000Y-92330000D01*
X181145000Y-92870000D01*
G37*
G36*
X182245000Y-92870000D02*
G01*
X181455000Y-92870000D01*
X181455000Y-92330000D01*
X182245000Y-92330000D01*
X182245000Y-92870000D01*
G37*
G36*
X172504047Y-91250805D02*
G01*
X172555408Y-91256764D01*
X172572954Y-91264511D01*
X172595671Y-91269030D01*
X172619991Y-91285280D01*
X172640793Y-91294465D01*
X172655000Y-91308672D01*
X172676777Y-91323223D01*
X172691327Y-91344999D01*
X172705534Y-91359206D01*
X172714718Y-91380006D01*
X172730970Y-91404329D01*
X172735489Y-91427048D01*
X172743235Y-91444591D01*
X172749192Y-91495940D01*
X172750000Y-91500000D01*
X172750000Y-92100000D01*
X172749192Y-92104059D01*
X172743235Y-92155408D01*
X172735489Y-92172950D01*
X172730970Y-92195671D01*
X172714716Y-92219995D01*
X172705534Y-92240793D01*
X172691329Y-92254997D01*
X172676777Y-92276777D01*
X172654997Y-92291329D01*
X172640793Y-92305534D01*
X172619995Y-92314716D01*
X172595671Y-92330970D01*
X172572950Y-92335489D01*
X172555408Y-92343235D01*
X172504061Y-92349192D01*
X172500000Y-92350000D01*
X171900000Y-92350000D01*
X171895941Y-92349192D01*
X171844591Y-92343235D01*
X171827048Y-92335489D01*
X171804329Y-92330970D01*
X171780006Y-92314718D01*
X171759206Y-92305534D01*
X171744999Y-92291327D01*
X171723223Y-92276777D01*
X171708672Y-92255000D01*
X171694465Y-92240793D01*
X171685280Y-92219991D01*
X171669030Y-92195671D01*
X171664511Y-92172954D01*
X171656764Y-92155408D01*
X171650805Y-92104049D01*
X171650000Y-92100000D01*
X171650000Y-91500000D01*
X171650804Y-91495953D01*
X171656764Y-91444591D01*
X171664511Y-91427043D01*
X171669030Y-91404329D01*
X171685278Y-91380010D01*
X171694465Y-91359206D01*
X171708674Y-91344996D01*
X171723223Y-91323223D01*
X171744996Y-91308674D01*
X171759206Y-91294465D01*
X171780010Y-91285278D01*
X171804329Y-91269030D01*
X171827043Y-91264511D01*
X171844591Y-91256764D01*
X171895952Y-91250805D01*
X171900000Y-91250000D01*
X172500000Y-91250000D01*
X172504047Y-91250805D01*
G37*
G36*
X188400000Y-91700000D02*
G01*
X184400000Y-91700000D01*
X184400000Y-90200000D01*
X188400000Y-90200000D01*
X188400000Y-91700000D01*
G37*
G36*
X152101197Y-90150811D02*
G01*
X152239204Y-90207976D01*
X152363408Y-90290966D01*
X152469034Y-90396592D01*
X152552024Y-90520796D01*
X152609189Y-90658803D01*
X152638331Y-90805311D01*
X152638331Y-90954689D01*
X152609189Y-91101197D01*
X152552024Y-91239204D01*
X152469034Y-91363408D01*
X152363408Y-91469034D01*
X152239204Y-91552024D01*
X152101197Y-91609189D01*
X151954689Y-91638331D01*
X151805311Y-91638331D01*
X151658803Y-91609189D01*
X151520796Y-91552024D01*
X151396592Y-91469034D01*
X151290966Y-91363408D01*
X151207976Y-91239204D01*
X151150811Y-91101197D01*
X151121669Y-90954689D01*
X151121669Y-90805311D01*
X151150811Y-90658803D01*
X151207976Y-90520796D01*
X151290966Y-90396592D01*
X151396592Y-90290966D01*
X151520796Y-90207976D01*
X151658803Y-90150811D01*
X151805311Y-90121669D01*
X151954689Y-90121669D01*
X152101197Y-90150811D01*
G37*
G36*
X154641197Y-90150811D02*
G01*
X154779204Y-90207976D01*
X154903408Y-90290966D01*
X155009034Y-90396592D01*
X155092024Y-90520796D01*
X155149189Y-90658803D01*
X155178331Y-90805311D01*
X155178331Y-90954689D01*
X155149189Y-91101197D01*
X155092024Y-91239204D01*
X155009034Y-91363408D01*
X154903408Y-91469034D01*
X154779204Y-91552024D01*
X154641197Y-91609189D01*
X154494689Y-91638331D01*
X154345311Y-91638331D01*
X154198803Y-91609189D01*
X154060796Y-91552024D01*
X153936592Y-91469034D01*
X153830966Y-91363408D01*
X153747976Y-91239204D01*
X153690811Y-91101197D01*
X153661669Y-90954689D01*
X153661669Y-90805311D01*
X153690811Y-90658803D01*
X153747976Y-90520796D01*
X153830966Y-90396592D01*
X153936592Y-90290966D01*
X154060796Y-90207976D01*
X154198803Y-90150811D01*
X154345311Y-90121669D01*
X154494689Y-90121669D01*
X154641197Y-90150811D01*
G37*
G36*
X157181197Y-90150811D02*
G01*
X157319204Y-90207976D01*
X157443408Y-90290966D01*
X157549034Y-90396592D01*
X157632024Y-90520796D01*
X157689189Y-90658803D01*
X157718331Y-90805311D01*
X157718331Y-90954689D01*
X157689189Y-91101197D01*
X157632024Y-91239204D01*
X157549034Y-91363408D01*
X157443408Y-91469034D01*
X157319204Y-91552024D01*
X157181197Y-91609189D01*
X157034689Y-91638331D01*
X156885311Y-91638331D01*
X156738803Y-91609189D01*
X156600796Y-91552024D01*
X156476592Y-91469034D01*
X156370966Y-91363408D01*
X156287976Y-91239204D01*
X156230811Y-91101197D01*
X156201669Y-90954689D01*
X156201669Y-90805311D01*
X156230811Y-90658803D01*
X156287976Y-90520796D01*
X156370966Y-90396592D01*
X156476592Y-90290966D01*
X156600796Y-90207976D01*
X156738803Y-90150811D01*
X156885311Y-90121669D01*
X157034689Y-90121669D01*
X157181197Y-90150811D01*
G37*
G36*
X159721197Y-90150811D02*
G01*
X159859204Y-90207976D01*
X159983408Y-90290966D01*
X160089034Y-90396592D01*
X160172024Y-90520796D01*
X160229189Y-90658803D01*
X160258331Y-90805311D01*
X160258331Y-90954689D01*
X160229189Y-91101197D01*
X160172024Y-91239204D01*
X160089034Y-91363408D01*
X159983408Y-91469034D01*
X159859204Y-91552024D01*
X159721197Y-91609189D01*
X159574689Y-91638331D01*
X159425311Y-91638331D01*
X159278803Y-91609189D01*
X159140796Y-91552024D01*
X159016592Y-91469034D01*
X158910966Y-91363408D01*
X158827976Y-91239204D01*
X158770811Y-91101197D01*
X158741669Y-90954689D01*
X158741669Y-90805311D01*
X158770811Y-90658803D01*
X158827976Y-90520796D01*
X158910966Y-90396592D01*
X159016592Y-90290966D01*
X159140796Y-90207976D01*
X159278803Y-90150811D01*
X159425311Y-90121669D01*
X159574689Y-90121669D01*
X159721197Y-90150811D01*
G37*
G36*
X162261197Y-90150811D02*
G01*
X162399204Y-90207976D01*
X162523408Y-90290966D01*
X162629034Y-90396592D01*
X162712024Y-90520796D01*
X162769189Y-90658803D01*
X162798331Y-90805311D01*
X162798331Y-90954689D01*
X162769189Y-91101197D01*
X162712024Y-91239204D01*
X162629034Y-91363408D01*
X162523408Y-91469034D01*
X162399204Y-91552024D01*
X162261197Y-91609189D01*
X162114689Y-91638331D01*
X161965311Y-91638331D01*
X161818803Y-91609189D01*
X161680796Y-91552024D01*
X161556592Y-91469034D01*
X161450966Y-91363408D01*
X161367976Y-91239204D01*
X161310811Y-91101197D01*
X161281669Y-90954689D01*
X161281669Y-90805311D01*
X161310811Y-90658803D01*
X161367976Y-90520796D01*
X161450966Y-90396592D01*
X161556592Y-90290966D01*
X161680796Y-90207976D01*
X161818803Y-90150811D01*
X161965311Y-90121669D01*
X162114689Y-90121669D01*
X162261197Y-90150811D01*
G37*
G36*
X164801197Y-90150811D02*
G01*
X164939204Y-90207976D01*
X165063408Y-90290966D01*
X165169034Y-90396592D01*
X165252024Y-90520796D01*
X165309189Y-90658803D01*
X165338331Y-90805311D01*
X165338331Y-90954689D01*
X165309189Y-91101197D01*
X165252024Y-91239204D01*
X165169034Y-91363408D01*
X165063408Y-91469034D01*
X164939204Y-91552024D01*
X164801197Y-91609189D01*
X164654689Y-91638331D01*
X164505311Y-91638331D01*
X164358803Y-91609189D01*
X164220796Y-91552024D01*
X164096592Y-91469034D01*
X163990966Y-91363408D01*
X163907976Y-91239204D01*
X163850811Y-91101197D01*
X163821669Y-90954689D01*
X163821669Y-90805311D01*
X163850811Y-90658803D01*
X163907976Y-90520796D01*
X163990966Y-90396592D01*
X164096592Y-90290966D01*
X164220796Y-90207976D01*
X164358803Y-90150811D01*
X164505311Y-90121669D01*
X164654689Y-90121669D01*
X164801197Y-90150811D01*
G37*
G36*
X167341197Y-90150811D02*
G01*
X167479204Y-90207976D01*
X167603408Y-90290966D01*
X167709034Y-90396592D01*
X167792024Y-90520796D01*
X167849189Y-90658803D01*
X167878331Y-90805311D01*
X167878331Y-90954689D01*
X167849189Y-91101197D01*
X167792024Y-91239204D01*
X167709034Y-91363408D01*
X167603408Y-91469034D01*
X167479204Y-91552024D01*
X167341197Y-91609189D01*
X167194689Y-91638331D01*
X167045311Y-91638331D01*
X166898803Y-91609189D01*
X166760796Y-91552024D01*
X166636592Y-91469034D01*
X166530966Y-91363408D01*
X166447976Y-91239204D01*
X166390811Y-91101197D01*
X166361669Y-90954689D01*
X166361669Y-90805311D01*
X166390811Y-90658803D01*
X166447976Y-90520796D01*
X166530966Y-90396592D01*
X166636592Y-90290966D01*
X166760796Y-90207976D01*
X166898803Y-90150811D01*
X167045311Y-90121669D01*
X167194689Y-90121669D01*
X167341197Y-90150811D01*
G37*
G36*
X174761104Y-89417127D02*
G01*
X174834099Y-89465901D01*
X174882873Y-89538896D01*
X174900000Y-89625000D01*
X174900000Y-90375000D01*
X174882873Y-90461104D01*
X174834099Y-90534099D01*
X174761104Y-90582873D01*
X174675000Y-90600000D01*
X174225000Y-90600000D01*
X174138896Y-90582873D01*
X174065901Y-90534099D01*
X174017127Y-90461104D01*
X174000000Y-90375000D01*
X174000000Y-89625000D01*
X174017127Y-89538896D01*
X174065901Y-89465901D01*
X174138896Y-89417127D01*
X174225000Y-89400000D01*
X174675000Y-89400000D01*
X174761104Y-89417127D01*
G37*
G36*
X178061104Y-89417127D02*
G01*
X178134099Y-89465901D01*
X178182873Y-89538896D01*
X178200000Y-89625000D01*
X178200000Y-90375000D01*
X178182873Y-90461104D01*
X178134099Y-90534099D01*
X178061104Y-90582873D01*
X177975000Y-90600000D01*
X177525000Y-90600000D01*
X177438896Y-90582873D01*
X177365901Y-90534099D01*
X177317127Y-90461104D01*
X177300000Y-90375000D01*
X177300000Y-89625000D01*
X177317127Y-89538896D01*
X177365901Y-89465901D01*
X177438896Y-89417127D01*
X177525000Y-89400000D01*
X177975000Y-89400000D01*
X178061104Y-89417127D01*
G37*
G36*
X183570000Y-90445000D02*
G01*
X183030000Y-90445000D01*
X183030000Y-89655000D01*
X183570000Y-89655000D01*
X183570000Y-90445000D01*
G37*
G36*
X180550000Y-90145000D02*
G01*
X180250000Y-90145000D01*
X180250000Y-89295000D01*
X180550000Y-89295000D01*
X180550000Y-90145000D01*
G37*
G36*
X181050000Y-90145000D02*
G01*
X180750000Y-90145000D01*
X180750000Y-89295000D01*
X181050000Y-89295000D01*
X181050000Y-90145000D01*
G37*
G36*
X181550000Y-90145000D02*
G01*
X181250000Y-90145000D01*
X181250000Y-89295000D01*
X181550000Y-89295000D01*
X181550000Y-90145000D01*
G37*
G36*
X179270000Y-89645000D02*
G01*
X178730000Y-89645000D01*
X178730000Y-88855000D01*
X179270000Y-88855000D01*
X179270000Y-89645000D01*
G37*
G36*
X172504047Y-88450805D02*
G01*
X172555408Y-88456764D01*
X172572954Y-88464511D01*
X172595671Y-88469030D01*
X172619991Y-88485280D01*
X172640793Y-88494465D01*
X172655000Y-88508672D01*
X172676777Y-88523223D01*
X172691327Y-88544999D01*
X172705534Y-88559206D01*
X172714718Y-88580006D01*
X172730970Y-88604329D01*
X172735489Y-88627048D01*
X172743235Y-88644591D01*
X172749192Y-88695940D01*
X172750000Y-88700000D01*
X172750000Y-89300000D01*
X172749192Y-89304059D01*
X172743235Y-89355408D01*
X172735489Y-89372950D01*
X172730970Y-89395671D01*
X172714716Y-89419995D01*
X172705534Y-89440793D01*
X172691329Y-89454997D01*
X172676777Y-89476777D01*
X172654997Y-89491329D01*
X172640793Y-89505534D01*
X172619995Y-89514716D01*
X172595671Y-89530970D01*
X172572950Y-89535489D01*
X172555408Y-89543235D01*
X172504061Y-89549192D01*
X172500000Y-89550000D01*
X171900000Y-89550000D01*
X171895941Y-89549192D01*
X171844591Y-89543235D01*
X171827048Y-89535489D01*
X171804329Y-89530970D01*
X171780006Y-89514718D01*
X171759206Y-89505534D01*
X171744999Y-89491327D01*
X171723223Y-89476777D01*
X171708672Y-89455000D01*
X171694465Y-89440793D01*
X171685280Y-89419991D01*
X171669030Y-89395671D01*
X171664511Y-89372954D01*
X171656764Y-89355408D01*
X171650805Y-89304049D01*
X171650000Y-89300000D01*
X171650000Y-88700000D01*
X171650804Y-88695953D01*
X171656764Y-88644591D01*
X171664511Y-88627043D01*
X171669030Y-88604329D01*
X171685278Y-88580010D01*
X171694465Y-88559206D01*
X171708674Y-88544996D01*
X171723223Y-88523223D01*
X171744996Y-88508674D01*
X171759206Y-88494465D01*
X171780010Y-88485278D01*
X171804329Y-88469030D01*
X171827043Y-88464511D01*
X171844591Y-88456764D01*
X171895952Y-88450805D01*
X171900000Y-88450000D01*
X172500000Y-88450000D01*
X172504047Y-88450805D01*
G37*
G36*
X183570000Y-89345000D02*
G01*
X183030000Y-89345000D01*
X183030000Y-88555000D01*
X183570000Y-88555000D01*
X183570000Y-89345000D01*
G37*
G36*
X180550000Y-88705000D02*
G01*
X180250000Y-88705000D01*
X180250000Y-87855000D01*
X180550000Y-87855000D01*
X180550000Y-88705000D01*
G37*
G36*
X181050000Y-88705000D02*
G01*
X180750000Y-88705000D01*
X180750000Y-87855000D01*
X181050000Y-87855000D01*
X181050000Y-88705000D01*
G37*
G36*
X181550000Y-88705000D02*
G01*
X181250000Y-88705000D01*
X181250000Y-87855000D01*
X181550000Y-87855000D01*
X181550000Y-88705000D01*
G37*
G36*
X179270000Y-88545000D02*
G01*
X178730000Y-88545000D01*
X178730000Y-87755000D01*
X179270000Y-87755000D01*
X179270000Y-88545000D01*
G37*
G36*
X188400000Y-88100000D02*
G01*
X184400000Y-88100000D01*
X184400000Y-86600000D01*
X188400000Y-86600000D01*
X188400000Y-88100000D01*
G37*
G36*
X182445000Y-87170000D02*
G01*
X181655000Y-87170000D01*
X181655000Y-86630000D01*
X182445000Y-86630000D01*
X182445000Y-87170000D01*
G37*
G36*
X183545000Y-87170000D02*
G01*
X182755000Y-87170000D01*
X182755000Y-86630000D01*
X183545000Y-86630000D01*
X183545000Y-87170000D01*
G37*
M02*
