%TF.GenerationSoftware,KiCad,Pcbnew,10.0.4*%
%TF.CreationDate,2026-07-20T12:42:07-07:00*%
%TF.ProjectId,esp32c6_daikin,65737033-3263-4365-9f64-61696b696e2e,rev?*%
%TF.SameCoordinates,Original*%
%TF.FileFunction,Legend,Top*%
%TF.FilePolarity,Positive*%
%FSLAX46Y46*%
G04 Gerber Fmt 4.6, Leading zero omitted, Abs format (unit mm)*
G04 Created by KiCad (PCBNEW 10.0.4) date 2026-07-20 12:42:07*
%MOMM*%
%LPD*%
G01*
G04 APERTURE LIST*
%ADD10C,0.150000*%
%ADD11C,0.120000*%
%ADD12C,0.100000*%
%ADD13C,0.250000*%
%ADD14C,0.130000*%
G04 APERTURE END LIST*
D10*
X174428942Y-102496619D02*
X174095609Y-102020428D01*
X173857514Y-102496619D02*
X173857514Y-101496619D01*
X173857514Y-101496619D02*
X174238466Y-101496619D01*
X174238466Y-101496619D02*
X174333704Y-101544238D01*
X174333704Y-101544238D02*
X174381323Y-101591857D01*
X174381323Y-101591857D02*
X174428942Y-101687095D01*
X174428942Y-101687095D02*
X174428942Y-101829952D01*
X174428942Y-101829952D02*
X174381323Y-101925190D01*
X174381323Y-101925190D02*
X174333704Y-101972809D01*
X174333704Y-101972809D02*
X174238466Y-102020428D01*
X174238466Y-102020428D02*
X173857514Y-102020428D01*
X175381323Y-102496619D02*
X174809895Y-102496619D01*
X175095609Y-102496619D02*
X175095609Y-101496619D01*
X175095609Y-101496619D02*
X175000371Y-101639476D01*
X175000371Y-101639476D02*
X174905133Y-101734714D01*
X174905133Y-101734714D02*
X174809895Y-101782333D01*
X176333704Y-102496619D02*
X175762276Y-102496619D01*
X176047990Y-102496619D02*
X176047990Y-101496619D01*
X176047990Y-101496619D02*
X175952752Y-101639476D01*
X175952752Y-101639476D02*
X175857514Y-101734714D01*
X175857514Y-101734714D02*
X175762276Y-101782333D01*
X186401009Y-104333333D02*
X186401009Y-104666666D01*
X186924819Y-104666666D02*
X185924819Y-104666666D01*
X185924819Y-104666666D02*
X185924819Y-104190476D01*
X186924819Y-103285714D02*
X186924819Y-103857142D01*
X186924819Y-103571428D02*
X185924819Y-103571428D01*
X185924819Y-103571428D02*
X186067676Y-103666666D01*
X186067676Y-103666666D02*
X186162914Y-103761904D01*
X186162914Y-103761904D02*
X186210533Y-103857142D01*
X175361905Y-88454819D02*
X175361905Y-87454819D01*
X175361905Y-87454819D02*
X175600000Y-87454819D01*
X175600000Y-87454819D02*
X175742857Y-87502438D01*
X175742857Y-87502438D02*
X175838095Y-87597676D01*
X175838095Y-87597676D02*
X175885714Y-87692914D01*
X175885714Y-87692914D02*
X175933333Y-87883390D01*
X175933333Y-87883390D02*
X175933333Y-88026247D01*
X175933333Y-88026247D02*
X175885714Y-88216723D01*
X175885714Y-88216723D02*
X175838095Y-88311961D01*
X175838095Y-88311961D02*
X175742857Y-88407200D01*
X175742857Y-88407200D02*
X175600000Y-88454819D01*
X175600000Y-88454819D02*
X175361905Y-88454819D01*
X176790476Y-87454819D02*
X176600000Y-87454819D01*
X176600000Y-87454819D02*
X176504762Y-87502438D01*
X176504762Y-87502438D02*
X176457143Y-87550057D01*
X176457143Y-87550057D02*
X176361905Y-87692914D01*
X176361905Y-87692914D02*
X176314286Y-87883390D01*
X176314286Y-87883390D02*
X176314286Y-88264342D01*
X176314286Y-88264342D02*
X176361905Y-88359580D01*
X176361905Y-88359580D02*
X176409524Y-88407200D01*
X176409524Y-88407200D02*
X176504762Y-88454819D01*
X176504762Y-88454819D02*
X176695238Y-88454819D01*
X176695238Y-88454819D02*
X176790476Y-88407200D01*
X176790476Y-88407200D02*
X176838095Y-88359580D01*
X176838095Y-88359580D02*
X176885714Y-88264342D01*
X176885714Y-88264342D02*
X176885714Y-88026247D01*
X176885714Y-88026247D02*
X176838095Y-87931009D01*
X176838095Y-87931009D02*
X176790476Y-87883390D01*
X176790476Y-87883390D02*
X176695238Y-87835771D01*
X176695238Y-87835771D02*
X176504762Y-87835771D01*
X176504762Y-87835771D02*
X176409524Y-87883390D01*
X176409524Y-87883390D02*
X176361905Y-87931009D01*
X176361905Y-87931009D02*
X176314286Y-88026247D01*
X154754819Y-93686266D02*
X154278628Y-94019599D01*
X154754819Y-94257694D02*
X153754819Y-94257694D01*
X153754819Y-94257694D02*
X153754819Y-93876742D01*
X153754819Y-93876742D02*
X153802438Y-93781504D01*
X153802438Y-93781504D02*
X153850057Y-93733885D01*
X153850057Y-93733885D02*
X153945295Y-93686266D01*
X153945295Y-93686266D02*
X154088152Y-93686266D01*
X154088152Y-93686266D02*
X154183390Y-93733885D01*
X154183390Y-93733885D02*
X154231009Y-93781504D01*
X154231009Y-93781504D02*
X154278628Y-93876742D01*
X154278628Y-93876742D02*
X154278628Y-94257694D01*
X153754819Y-93352932D02*
X153754819Y-92733885D01*
X153754819Y-92733885D02*
X154135771Y-93067218D01*
X154135771Y-93067218D02*
X154135771Y-92924361D01*
X154135771Y-92924361D02*
X154183390Y-92829123D01*
X154183390Y-92829123D02*
X154231009Y-92781504D01*
X154231009Y-92781504D02*
X154326247Y-92733885D01*
X154326247Y-92733885D02*
X154564342Y-92733885D01*
X154564342Y-92733885D02*
X154659580Y-92781504D01*
X154659580Y-92781504D02*
X154707200Y-92829123D01*
X154707200Y-92829123D02*
X154754819Y-92924361D01*
X154754819Y-92924361D02*
X154754819Y-93210075D01*
X154754819Y-93210075D02*
X154707200Y-93305313D01*
X154707200Y-93305313D02*
X154659580Y-93352932D01*
X174559819Y-91011094D02*
X173559819Y-91011094D01*
X173559819Y-91011094D02*
X173559819Y-90772999D01*
X173559819Y-90772999D02*
X173607438Y-90630142D01*
X173607438Y-90630142D02*
X173702676Y-90534904D01*
X173702676Y-90534904D02*
X173797914Y-90487285D01*
X173797914Y-90487285D02*
X173988390Y-90439666D01*
X173988390Y-90439666D02*
X174131247Y-90439666D01*
X174131247Y-90439666D02*
X174321723Y-90487285D01*
X174321723Y-90487285D02*
X174416961Y-90534904D01*
X174416961Y-90534904D02*
X174512200Y-90630142D01*
X174512200Y-90630142D02*
X174559819Y-90772999D01*
X174559819Y-90772999D02*
X174559819Y-91011094D01*
X173559819Y-89534904D02*
X173559819Y-90011094D01*
X173559819Y-90011094D02*
X174036009Y-90058713D01*
X174036009Y-90058713D02*
X173988390Y-90011094D01*
X173988390Y-90011094D02*
X173940771Y-89915856D01*
X173940771Y-89915856D02*
X173940771Y-89677761D01*
X173940771Y-89677761D02*
X173988390Y-89582523D01*
X173988390Y-89582523D02*
X174036009Y-89534904D01*
X174036009Y-89534904D02*
X174131247Y-89487285D01*
X174131247Y-89487285D02*
X174369342Y-89487285D01*
X174369342Y-89487285D02*
X174464580Y-89534904D01*
X174464580Y-89534904D02*
X174512200Y-89582523D01*
X174512200Y-89582523D02*
X174559819Y-89677761D01*
X174559819Y-89677761D02*
X174559819Y-89915856D01*
X174559819Y-89915856D02*
X174512200Y-90011094D01*
X174512200Y-90011094D02*
X174464580Y-90058713D01*
X186729719Y-102788033D02*
X187444004Y-102788033D01*
X187444004Y-102788033D02*
X187586861Y-102835652D01*
X187586861Y-102835652D02*
X187682100Y-102930890D01*
X187682100Y-102930890D02*
X187729719Y-103073747D01*
X187729719Y-103073747D02*
X187729719Y-103168985D01*
X186824957Y-102359461D02*
X186777338Y-102311842D01*
X186777338Y-102311842D02*
X186729719Y-102216604D01*
X186729719Y-102216604D02*
X186729719Y-101978509D01*
X186729719Y-101978509D02*
X186777338Y-101883271D01*
X186777338Y-101883271D02*
X186824957Y-101835652D01*
X186824957Y-101835652D02*
X186920195Y-101788033D01*
X186920195Y-101788033D02*
X187015433Y-101788033D01*
X187015433Y-101788033D02*
X187158290Y-101835652D01*
X187158290Y-101835652D02*
X187729719Y-102407080D01*
X187729719Y-102407080D02*
X187729719Y-101788033D01*
X174522942Y-107484119D02*
X174189609Y-107007928D01*
X173951514Y-107484119D02*
X173951514Y-106484119D01*
X173951514Y-106484119D02*
X174332466Y-106484119D01*
X174332466Y-106484119D02*
X174427704Y-106531738D01*
X174427704Y-106531738D02*
X174475323Y-106579357D01*
X174475323Y-106579357D02*
X174522942Y-106674595D01*
X174522942Y-106674595D02*
X174522942Y-106817452D01*
X174522942Y-106817452D02*
X174475323Y-106912690D01*
X174475323Y-106912690D02*
X174427704Y-106960309D01*
X174427704Y-106960309D02*
X174332466Y-107007928D01*
X174332466Y-107007928D02*
X173951514Y-107007928D01*
X175475323Y-107484119D02*
X174903895Y-107484119D01*
X175189609Y-107484119D02*
X175189609Y-106484119D01*
X175189609Y-106484119D02*
X175094371Y-106626976D01*
X175094371Y-106626976D02*
X174999133Y-106722214D01*
X174999133Y-106722214D02*
X174903895Y-106769833D01*
X176094371Y-106484119D02*
X176189609Y-106484119D01*
X176189609Y-106484119D02*
X176284847Y-106531738D01*
X176284847Y-106531738D02*
X176332466Y-106579357D01*
X176332466Y-106579357D02*
X176380085Y-106674595D01*
X176380085Y-106674595D02*
X176427704Y-106865071D01*
X176427704Y-106865071D02*
X176427704Y-107103166D01*
X176427704Y-107103166D02*
X176380085Y-107293642D01*
X176380085Y-107293642D02*
X176332466Y-107388880D01*
X176332466Y-107388880D02*
X176284847Y-107436500D01*
X176284847Y-107436500D02*
X176189609Y-107484119D01*
X176189609Y-107484119D02*
X176094371Y-107484119D01*
X176094371Y-107484119D02*
X175999133Y-107436500D01*
X175999133Y-107436500D02*
X175951514Y-107388880D01*
X175951514Y-107388880D02*
X175903895Y-107293642D01*
X175903895Y-107293642D02*
X175856276Y-107103166D01*
X175856276Y-107103166D02*
X175856276Y-106865071D01*
X175856276Y-106865071D02*
X175903895Y-106674595D01*
X175903895Y-106674595D02*
X175951514Y-106579357D01*
X175951514Y-106579357D02*
X175999133Y-106531738D01*
X175999133Y-106531738D02*
X176094371Y-106484119D01*
%TO.C,R1*%
X176647000Y-105178000D02*
X176647000Y-105888000D01*
X176647000Y-107058000D02*
X176647000Y-106348000D01*
X177647000Y-105178000D02*
X176647000Y-105178000D01*
X177647000Y-105888000D02*
X177647000Y-105178000D01*
X177647000Y-106348000D02*
X177647000Y-107058000D01*
X177647000Y-107058000D02*
X176647000Y-107058000D01*
%TO.C,R11*%
D11*
X174834542Y-102949300D02*
X175309058Y-102949300D01*
X174834542Y-103994300D02*
X175309058Y-103994300D01*
%TO.C,U1*%
D10*
X180000000Y-88350000D02*
X180000000Y-89650000D01*
X181800000Y-88350000D02*
X181800000Y-89650000D01*
X181900000Y-87950000D02*
G75*
G02*
X181800000Y-87950000I-50000J0D01*
G01*
X181800000Y-87950000D02*
G75*
G02*
X181900000Y-87950000I50000J0D01*
G01*
%TO.C,F1*%
D11*
X187390000Y-104602064D02*
X187390000Y-103397936D01*
X189210000Y-104602064D02*
X189210000Y-103397936D01*
%TO.C,D2*%
D12*
X171370000Y-106620000D02*
X171370000Y-107380000D01*
X171370000Y-107380000D02*
X171870000Y-107380000D01*
X171870000Y-106620000D02*
X171370000Y-106620000D01*
X172130000Y-107380000D02*
X172630000Y-107380000D01*
X172630000Y-106620000D02*
X172130000Y-106620000D01*
X172630000Y-107380000D02*
X172630000Y-106620000D01*
%TO.C,C18*%
D10*
X178500000Y-87680000D02*
X178500000Y-88470000D01*
X178500000Y-89720000D02*
X178500000Y-88930000D01*
X179350000Y-87530000D02*
X178650000Y-87530000D01*
X179350000Y-89870000D02*
X178650000Y-89870000D01*
X179500000Y-88470000D02*
X179500000Y-87680000D01*
X179500000Y-88930000D02*
X179500000Y-89720000D01*
X178500000Y-87680000D02*
G75*
G02*
X178650000Y-87530000I150000J0D01*
G01*
X178650000Y-89870000D02*
G75*
G02*
X178500000Y-89720000I0J150000D01*
G01*
X179350000Y-87530000D02*
G75*
G02*
X179500000Y-87680000I0J-150000D01*
G01*
X179500000Y-89720000D02*
G75*
G02*
X179350000Y-89870000I-150000J0D01*
G01*
%TO.C,D6*%
D11*
X173740000Y-89000000D02*
X173740000Y-91000000D01*
X173740000Y-89000000D02*
X177750000Y-89000000D01*
X173740000Y-91000000D02*
X177750000Y-91000000D01*
%TO.C,R2*%
D10*
X151149000Y-108391000D02*
X151859000Y-108391000D01*
X151149000Y-109391000D02*
X151149000Y-108391000D01*
X151859000Y-109391000D02*
X151149000Y-109391000D01*
X152319000Y-109391000D02*
X153029000Y-109391000D01*
X153029000Y-108391000D02*
X152319000Y-108391000D01*
X153029000Y-109391000D02*
X153029000Y-108391000D01*
%TO.C,C17*%
X171540000Y-96750000D02*
X171540000Y-95250000D01*
X171690000Y-95100000D02*
X173100000Y-95100000D01*
X173100000Y-96900000D02*
X171690000Y-96900000D01*
X173900000Y-96900000D02*
X175310000Y-96900000D01*
X175310000Y-95100000D02*
X173900000Y-95100000D01*
X175460000Y-96750000D02*
X175460000Y-95250000D01*
X171540000Y-95250000D02*
G75*
G02*
X171690000Y-95100000I150000J0D01*
G01*
X171690000Y-96900000D02*
G75*
G02*
X171540000Y-96750000I0J150000D01*
G01*
X175310000Y-95100000D02*
G75*
G02*
X175460000Y-95250000I0J-150000D01*
G01*
X175460000Y-96750000D02*
G75*
G02*
X175310000Y-96900000I-150000J0D01*
G01*
%TO.C,C3*%
X181430000Y-87250000D02*
X181430000Y-86550000D01*
X181580000Y-86400000D02*
X182370000Y-86400000D01*
X182370000Y-87400000D02*
X181580000Y-87400000D01*
X182830000Y-87400000D02*
X183620000Y-87400000D01*
X183620000Y-86400000D02*
X182830000Y-86400000D01*
X183770000Y-87250000D02*
X183770000Y-86550000D01*
X181430000Y-86550000D02*
G75*
G02*
X181580000Y-86400000I150000J0D01*
G01*
X181580000Y-87400000D02*
G75*
G02*
X181430000Y-87250000I0J150000D01*
G01*
X183620000Y-86400000D02*
G75*
G02*
X183770000Y-86550000I0J-150000D01*
G01*
X183770000Y-87250000D02*
G75*
G02*
X183620000Y-87400000I-150000J0D01*
G01*
%TO.C,C19*%
X180130000Y-92950000D02*
X180130000Y-92250000D01*
X180280000Y-92100000D02*
X181070000Y-92100000D01*
X181070000Y-93100000D02*
X180280000Y-93100000D01*
X181530000Y-93100000D02*
X182320000Y-93100000D01*
X182320000Y-92100000D02*
X181530000Y-92100000D01*
X182470000Y-92950000D02*
X182470000Y-92250000D01*
X180130000Y-92250000D02*
G75*
G02*
X180280000Y-92100000I150000J0D01*
G01*
X180280000Y-93100000D02*
G75*
G02*
X180130000Y-92950000I0J150000D01*
G01*
X182320000Y-92100000D02*
G75*
G02*
X182470000Y-92250000I0J-150000D01*
G01*
X182470000Y-92950000D02*
G75*
G02*
X182320000Y-93100000I-150000J0D01*
G01*
%TO.C,R3*%
X157800000Y-92579600D02*
X157800000Y-93289600D01*
X157800000Y-94459600D02*
X157800000Y-93749600D01*
X158800000Y-92579600D02*
X157800000Y-92579600D01*
X158800000Y-93289600D02*
X158800000Y-92579600D01*
X158800000Y-93749600D02*
X158800000Y-94459600D01*
X158800000Y-94459600D02*
X157800000Y-94459600D01*
%TO.C,C20*%
X167840000Y-94150000D02*
X167840000Y-92650000D01*
X167990000Y-92500000D02*
X169400000Y-92500000D01*
X169400000Y-94300000D02*
X167990000Y-94300000D01*
X170200000Y-94300000D02*
X171610000Y-94300000D01*
X171610000Y-92500000D02*
X170200000Y-92500000D01*
X171760000Y-94150000D02*
X171760000Y-92650000D01*
X167840000Y-92650000D02*
G75*
G02*
X167990000Y-92500000I150000J0D01*
G01*
X167990000Y-94300000D02*
G75*
G02*
X167840000Y-94150000I0J150000D01*
G01*
X171610000Y-92500000D02*
G75*
G02*
X171760000Y-92650000I0J-150000D01*
G01*
X171760000Y-94150000D02*
G75*
G02*
X171610000Y-94300000I-150000J0D01*
G01*
%TO.C,R8*%
X180360000Y-93300000D02*
X181070000Y-93300000D01*
X180360000Y-94300000D02*
X180360000Y-93300000D01*
X181070000Y-94300000D02*
X180360000Y-94300000D01*
X181530000Y-94300000D02*
X182240000Y-94300000D01*
X182240000Y-93300000D02*
X181530000Y-93300000D01*
X182240000Y-94300000D02*
X182240000Y-93300000D01*
%TO.C,L1*%
D13*
X183950000Y-86700000D02*
X183950000Y-91600000D01*
X183950000Y-86700000D02*
X184170000Y-86700000D01*
X184170000Y-91600000D02*
X183950000Y-91600000D01*
X188630000Y-86700000D02*
X188850000Y-86700000D01*
X188850000Y-86700000D02*
X188850000Y-91600000D01*
X188850000Y-91600000D02*
X188630000Y-91600000D01*
%TO.C,Q1*%
D14*
X174820800Y-107059400D02*
X174820800Y-106969400D01*
X174820800Y-109169400D02*
X174820800Y-109089400D01*
X176220800Y-106969400D02*
X174820800Y-106969400D01*
X176220800Y-107059400D02*
X176220800Y-106969400D01*
X176220800Y-109169400D02*
X174820800Y-109169400D01*
X176220800Y-109169400D02*
X176220800Y-109089400D01*
D13*
X176670800Y-109339400D02*
G75*
G02*
X176410800Y-109339400I-130000J0D01*
G01*
X176410800Y-109339400D02*
G75*
G02*
X176670800Y-109339400I130000J0D01*
G01*
%TO.C,R6*%
D10*
X182010000Y-92740000D02*
X182970000Y-92740000D01*
X182010000Y-94060000D02*
X182010000Y-92740000D01*
X182970000Y-94060000D02*
X182010000Y-94060000D01*
X183830000Y-94060000D02*
X184790000Y-94060000D01*
X184790000Y-92740000D02*
X183830000Y-92740000D01*
X184790000Y-94060000D02*
X184790000Y-92740000D01*
%TO.C,D5*%
D11*
X171200000Y-88190000D02*
X171200000Y-92050000D01*
X173200000Y-88190000D02*
X171200000Y-88190000D01*
X173200000Y-88190000D02*
X173200000Y-92050000D01*
%TO.C,D3*%
D12*
X172374500Y-107953400D02*
X172374500Y-108713400D01*
X172374500Y-108713400D02*
X172874500Y-108713400D01*
X172874500Y-107953400D02*
X172374500Y-107953400D01*
X173134500Y-108713400D02*
X173634500Y-108713400D01*
X173634500Y-107953400D02*
X173134500Y-107953400D01*
X173634500Y-108713400D02*
X173634500Y-107953400D01*
%TO.C,C15*%
D10*
X184690000Y-94050000D02*
X184690000Y-92550000D01*
X184840000Y-92400000D02*
X186250000Y-92400000D01*
X186250000Y-94200000D02*
X184840000Y-94200000D01*
X187050000Y-94200000D02*
X188460000Y-94200000D01*
X188460000Y-92400000D02*
X187050000Y-92400000D01*
X188610000Y-94050000D02*
X188610000Y-92550000D01*
X184690000Y-92550000D02*
G75*
G02*
X184840000Y-92400000I150000J0D01*
G01*
X184840000Y-94200000D02*
G75*
G02*
X184690000Y-94050000I0J150000D01*
G01*
X188460000Y-92400000D02*
G75*
G02*
X188610000Y-92550000I0J-150000D01*
G01*
X188610000Y-94050000D02*
G75*
G02*
X188460000Y-94200000I-150000J0D01*
G01*
%TO.C,R5*%
X176910000Y-92140000D02*
X177870000Y-92140000D01*
X176910000Y-93460000D02*
X176910000Y-92140000D01*
X177870000Y-93460000D02*
X176910000Y-93460000D01*
X178730000Y-93460000D02*
X179690000Y-93460000D01*
X179690000Y-92140000D02*
X178730000Y-92140000D01*
X179690000Y-93460000D02*
X179690000Y-92140000D01*
%TO.C,J2*%
D11*
X177274900Y-97154700D02*
X177274900Y-97754700D01*
X177274900Y-97754700D02*
X177874900Y-97454700D01*
X177764900Y-94844700D02*
X186184900Y-94844700D01*
X177764900Y-96064700D02*
X177764900Y-94844700D01*
X177764900Y-108844700D02*
X179964900Y-108844700D01*
X177764900Y-110064700D02*
X177764900Y-108844700D01*
X177874900Y-97454700D02*
X177274900Y-97154700D01*
X179964900Y-96064700D02*
X177764900Y-96064700D01*
X179964900Y-96064700D02*
X179964900Y-94844700D01*
X179964900Y-98624700D02*
X179964900Y-98784700D01*
X179964900Y-101124700D02*
X179964900Y-101284700D01*
X179964900Y-103624700D02*
X179964900Y-103784700D01*
X179964900Y-106124700D02*
X179964900Y-106284700D01*
X179964900Y-108844700D02*
X179964900Y-110064700D01*
X180964900Y-96064700D02*
X180964900Y-108844700D01*
X180964900Y-97134700D02*
X184384900Y-97134700D01*
X180964900Y-97454700D02*
X180964900Y-97134700D01*
X180964900Y-97774700D02*
X180964900Y-97454700D01*
X180964900Y-99634700D02*
X184384900Y-99634700D01*
X180964900Y-99954700D02*
X180964900Y-99634700D01*
X180964900Y-100274700D02*
X180964900Y-99954700D01*
X180964900Y-102134700D02*
X184384900Y-102134700D01*
X180964900Y-102454700D02*
X180964900Y-102134700D01*
X180964900Y-102774700D02*
X180964900Y-102454700D01*
X180964900Y-104634700D02*
X184384900Y-104634700D01*
X180964900Y-104954700D02*
X180964900Y-104634700D01*
X180964900Y-105274700D02*
X180964900Y-104954700D01*
X180964900Y-107134700D02*
X184384900Y-107134700D01*
X180964900Y-107454700D02*
X180964900Y-107134700D01*
X180964900Y-107774700D02*
X180964900Y-107454700D01*
X184384900Y-97134700D02*
X184464900Y-97454700D01*
X184384900Y-97774700D02*
X180964900Y-97774700D01*
X184384900Y-99634700D02*
X184464900Y-99954700D01*
X184384900Y-100274700D02*
X180964900Y-100274700D01*
X184384900Y-102134700D02*
X184464900Y-102454700D01*
X184384900Y-102774700D02*
X180964900Y-102774700D01*
X184384900Y-104634700D02*
X184464900Y-104954700D01*
X184384900Y-105274700D02*
X180964900Y-105274700D01*
X184384900Y-107134700D02*
X184464900Y-107454700D01*
X184384900Y-107774700D02*
X180964900Y-107774700D01*
X184464900Y-97454700D02*
X184384900Y-97774700D01*
X184464900Y-99954700D02*
X184384900Y-100274700D01*
X184464900Y-102454700D02*
X184384900Y-102774700D01*
X184464900Y-104954700D02*
X184384900Y-105274700D01*
X184464900Y-107454700D02*
X184384900Y-107774700D01*
X184964900Y-94844700D02*
X184964900Y-96064700D01*
X184964900Y-96064700D02*
X179964900Y-96064700D01*
X184964900Y-108844700D02*
X179964900Y-108844700D01*
X184964900Y-110064700D02*
X184964900Y-108844700D01*
X186184900Y-94844700D02*
X186184900Y-110064700D01*
X186184900Y-110064700D02*
X177764900Y-110064700D01*
%TO.C,R12*%
D10*
X174000000Y-100660000D02*
X174000000Y-101370000D01*
X174000000Y-102540000D02*
X174000000Y-101830000D01*
X175000000Y-100660000D02*
X174000000Y-100660000D01*
X175000000Y-101370000D02*
X175000000Y-100660000D01*
X175000000Y-101830000D02*
X175000000Y-102540000D01*
X175000000Y-102540000D02*
X174000000Y-102540000D01*
%TO.C,C16*%
X182800000Y-88480000D02*
X182800000Y-89270000D01*
X182800000Y-90520000D02*
X182800000Y-89730000D01*
X183650000Y-88330000D02*
X182950000Y-88330000D01*
X183650000Y-90670000D02*
X182950000Y-90670000D01*
X183800000Y-89270000D02*
X183800000Y-88480000D01*
X183800000Y-89730000D02*
X183800000Y-90520000D01*
X182800000Y-88480000D02*
G75*
G02*
X182950000Y-88330000I150000J0D01*
G01*
X182950000Y-90670000D02*
G75*
G02*
X182800000Y-90520000I0J150000D01*
G01*
X183650000Y-88330000D02*
G75*
G02*
X183800000Y-88480000I0J-150000D01*
G01*
X183800000Y-90520000D02*
G75*
G02*
X183650000Y-90670000I-150000J0D01*
G01*
%TO.C,R10*%
D11*
X175403058Y-105076800D02*
X174928542Y-105076800D01*
X175403058Y-106121800D02*
X174928542Y-106121800D01*
%TD*%
M02*
