%TF.GenerationSoftware,KiCad,Pcbnew,10.0.4*%
%TF.CreationDate,2026-07-20T19:50:36-07:00*%
%TF.ProjectId,esp32c6_daikin,65737033-3263-4365-9f64-61696b696e2e,rev?*%
%TF.SameCoordinates,Original*%
%TF.FileFunction,Soldermask,Bot*%
%TF.FilePolarity,Negative*%
%FSLAX46Y46*%
G04 Gerber Fmt 4.6, Leading zero omitted, Abs format (unit mm)*
G04 Created by KiCad (PCBNEW 10.0.4) date 2026-07-20 19:50:36*
%MOMM*%
%LPD*%
G01*
G04 APERTURE LIST*
G04 APERTURE END LIST*
G36*
X179583215Y-106608793D02*
G01*
X179746642Y-106641301D01*
X179900587Y-106705067D01*
X180039134Y-106797641D01*
X180156959Y-106915466D01*
X180249533Y-107054013D01*
X180313299Y-107207958D01*
X180345807Y-107371385D01*
X180345807Y-107538015D01*
X180313299Y-107701442D01*
X180249533Y-107855387D01*
X180156959Y-107993934D01*
X180039134Y-108111759D01*
X179900587Y-108204333D01*
X179746642Y-108268099D01*
X179583215Y-108300607D01*
X179499900Y-108304700D01*
X179498668Y-108304700D01*
X179251132Y-108304700D01*
X179249900Y-108304700D01*
X179166585Y-108300607D01*
X179003158Y-108268099D01*
X178849213Y-108204333D01*
X178710666Y-108111759D01*
X178592841Y-107993934D01*
X178500267Y-107855387D01*
X178436501Y-107701442D01*
X178403993Y-107538015D01*
X178403993Y-107371385D01*
X178436501Y-107207958D01*
X178500267Y-107054013D01*
X178592841Y-106915466D01*
X178710666Y-106797641D01*
X178849213Y-106705067D01*
X179003158Y-106641301D01*
X179166585Y-106608793D01*
X179249900Y-106604700D01*
X179499900Y-106604700D01*
X179583215Y-106608793D01*
G37*
G36*
X152101197Y-105390811D02*
G01*
X152239204Y-105447976D01*
X152363408Y-105530966D01*
X152469034Y-105636592D01*
X152541979Y-105745763D01*
X152546542Y-105750326D01*
X152547921Y-105750601D01*
X152597363Y-105783637D01*
X152630399Y-105833079D01*
X152642000Y-105891400D01*
X152642000Y-108018600D01*
X152630399Y-108076921D01*
X152597363Y-108126363D01*
X152547921Y-108159399D01*
X152489600Y-108171000D01*
X151270400Y-108171000D01*
X151212079Y-108159399D01*
X151162637Y-108126363D01*
X151129601Y-108076921D01*
X151118000Y-108018600D01*
X151118000Y-105891400D01*
X151129601Y-105833079D01*
X151162637Y-105783637D01*
X151212079Y-105750601D01*
X151213457Y-105750326D01*
X151218020Y-105745763D01*
X151290966Y-105636592D01*
X151396592Y-105530966D01*
X151520796Y-105447976D01*
X151658803Y-105390811D01*
X151805311Y-105361669D01*
X151954689Y-105361669D01*
X152101197Y-105390811D01*
G37*
G36*
X154641197Y-105390811D02*
G01*
X154779204Y-105447976D01*
X154903408Y-105530966D01*
X155009034Y-105636592D01*
X155081979Y-105745763D01*
X155086542Y-105750326D01*
X155087921Y-105750601D01*
X155137363Y-105783637D01*
X155170399Y-105833079D01*
X155182000Y-105891400D01*
X155182000Y-108018600D01*
X155170399Y-108076921D01*
X155137363Y-108126363D01*
X155087921Y-108159399D01*
X155029600Y-108171000D01*
X153810400Y-108171000D01*
X153752079Y-108159399D01*
X153702637Y-108126363D01*
X153669601Y-108076921D01*
X153658000Y-108018600D01*
X153658000Y-105891400D01*
X153669601Y-105833079D01*
X153702637Y-105783637D01*
X153752079Y-105750601D01*
X153753457Y-105750326D01*
X153758020Y-105745763D01*
X153830966Y-105636592D01*
X153936592Y-105530966D01*
X154060796Y-105447976D01*
X154198803Y-105390811D01*
X154345311Y-105361669D01*
X154494689Y-105361669D01*
X154641197Y-105390811D01*
G37*
G36*
X157181197Y-105390811D02*
G01*
X157319204Y-105447976D01*
X157443408Y-105530966D01*
X157549034Y-105636592D01*
X157621979Y-105745763D01*
X157626542Y-105750326D01*
X157627921Y-105750601D01*
X157677363Y-105783637D01*
X157710399Y-105833079D01*
X157722000Y-105891400D01*
X157722000Y-108018600D01*
X157710399Y-108076921D01*
X157677363Y-108126363D01*
X157627921Y-108159399D01*
X157569600Y-108171000D01*
X156350400Y-108171000D01*
X156292079Y-108159399D01*
X156242637Y-108126363D01*
X156209601Y-108076921D01*
X156198000Y-108018600D01*
X156198000Y-105891400D01*
X156209601Y-105833079D01*
X156242637Y-105783637D01*
X156292079Y-105750601D01*
X156293457Y-105750326D01*
X156298020Y-105745763D01*
X156370966Y-105636592D01*
X156476592Y-105530966D01*
X156600796Y-105447976D01*
X156738803Y-105390811D01*
X156885311Y-105361669D01*
X157034689Y-105361669D01*
X157181197Y-105390811D01*
G37*
G36*
X159721197Y-105390811D02*
G01*
X159859204Y-105447976D01*
X159983408Y-105530966D01*
X160089034Y-105636592D01*
X160161979Y-105745763D01*
X160166542Y-105750326D01*
X160167921Y-105750601D01*
X160217363Y-105783637D01*
X160250399Y-105833079D01*
X160262000Y-105891400D01*
X160262000Y-108018600D01*
X160250399Y-108076921D01*
X160217363Y-108126363D01*
X160167921Y-108159399D01*
X160109600Y-108171000D01*
X158890400Y-108171000D01*
X158832079Y-108159399D01*
X158782637Y-108126363D01*
X158749601Y-108076921D01*
X158738000Y-108018600D01*
X158738000Y-105891400D01*
X158749601Y-105833079D01*
X158782637Y-105783637D01*
X158832079Y-105750601D01*
X158833457Y-105750326D01*
X158838020Y-105745763D01*
X158910966Y-105636592D01*
X159016592Y-105530966D01*
X159140796Y-105447976D01*
X159278803Y-105390811D01*
X159425311Y-105361669D01*
X159574689Y-105361669D01*
X159721197Y-105390811D01*
G37*
G36*
X162261197Y-105390811D02*
G01*
X162399204Y-105447976D01*
X162523408Y-105530966D01*
X162629034Y-105636592D01*
X162701979Y-105745763D01*
X162706542Y-105750326D01*
X162707921Y-105750601D01*
X162757363Y-105783637D01*
X162790399Y-105833079D01*
X162802000Y-105891400D01*
X162802000Y-108018600D01*
X162790399Y-108076921D01*
X162757363Y-108126363D01*
X162707921Y-108159399D01*
X162649600Y-108171000D01*
X161430400Y-108171000D01*
X161372079Y-108159399D01*
X161322637Y-108126363D01*
X161289601Y-108076921D01*
X161278000Y-108018600D01*
X161278000Y-105891400D01*
X161289601Y-105833079D01*
X161322637Y-105783637D01*
X161372079Y-105750601D01*
X161373457Y-105750326D01*
X161378020Y-105745763D01*
X161450966Y-105636592D01*
X161556592Y-105530966D01*
X161680796Y-105447976D01*
X161818803Y-105390811D01*
X161965311Y-105361669D01*
X162114689Y-105361669D01*
X162261197Y-105390811D01*
G37*
G36*
X164801197Y-105390811D02*
G01*
X164939204Y-105447976D01*
X165063408Y-105530966D01*
X165169034Y-105636592D01*
X165241979Y-105745763D01*
X165246542Y-105750326D01*
X165247921Y-105750601D01*
X165297363Y-105783637D01*
X165330399Y-105833079D01*
X165342000Y-105891400D01*
X165342000Y-108018600D01*
X165330399Y-108076921D01*
X165297363Y-108126363D01*
X165247921Y-108159399D01*
X165189600Y-108171000D01*
X163970400Y-108171000D01*
X163912079Y-108159399D01*
X163862637Y-108126363D01*
X163829601Y-108076921D01*
X163818000Y-108018600D01*
X163818000Y-105891400D01*
X163829601Y-105833079D01*
X163862637Y-105783637D01*
X163912079Y-105750601D01*
X163913457Y-105750326D01*
X163918020Y-105745763D01*
X163990966Y-105636592D01*
X164096592Y-105530966D01*
X164220796Y-105447976D01*
X164358803Y-105390811D01*
X164505311Y-105361669D01*
X164654689Y-105361669D01*
X164801197Y-105390811D01*
G37*
G36*
X167341197Y-105390811D02*
G01*
X167479204Y-105447976D01*
X167603408Y-105530966D01*
X167709034Y-105636592D01*
X167781979Y-105745763D01*
X167786542Y-105750326D01*
X167787921Y-105750601D01*
X167837363Y-105783637D01*
X167870399Y-105833079D01*
X167882000Y-105891400D01*
X167882000Y-108018600D01*
X167870399Y-108076921D01*
X167837363Y-108126363D01*
X167787921Y-108159399D01*
X167729600Y-108171000D01*
X166510400Y-108171000D01*
X166452079Y-108159399D01*
X166402637Y-108126363D01*
X166369601Y-108076921D01*
X166358000Y-108018600D01*
X166358000Y-105891400D01*
X166369601Y-105833079D01*
X166402637Y-105783637D01*
X166452079Y-105750601D01*
X166453457Y-105750326D01*
X166458020Y-105745763D01*
X166530966Y-105636592D01*
X166636592Y-105530966D01*
X166760796Y-105447976D01*
X166898803Y-105390811D01*
X167045311Y-105361669D01*
X167194689Y-105361669D01*
X167341197Y-105390811D01*
G37*
G36*
X179583215Y-104108793D02*
G01*
X179746642Y-104141301D01*
X179900587Y-104205067D01*
X180039134Y-104297641D01*
X180156959Y-104415466D01*
X180249533Y-104554013D01*
X180313299Y-104707958D01*
X180345807Y-104871385D01*
X180345807Y-105038015D01*
X180313299Y-105201442D01*
X180249533Y-105355387D01*
X180156959Y-105493934D01*
X180039134Y-105611759D01*
X179900587Y-105704333D01*
X179746642Y-105768099D01*
X179583215Y-105800607D01*
X179499900Y-105804700D01*
X179498668Y-105804700D01*
X179251132Y-105804700D01*
X179249900Y-105804700D01*
X179166585Y-105800607D01*
X179003158Y-105768099D01*
X178849213Y-105704333D01*
X178710666Y-105611759D01*
X178592841Y-105493934D01*
X178500267Y-105355387D01*
X178436501Y-105201442D01*
X178403993Y-105038015D01*
X178403993Y-104871385D01*
X178436501Y-104707958D01*
X178500267Y-104554013D01*
X178592841Y-104415466D01*
X178710666Y-104297641D01*
X178849213Y-104205067D01*
X179003158Y-104141301D01*
X179166585Y-104108793D01*
X179249900Y-104104700D01*
X179499900Y-104104700D01*
X179583215Y-104108793D01*
G37*
G36*
X179583215Y-101608793D02*
G01*
X179746642Y-101641301D01*
X179900587Y-101705067D01*
X180039134Y-101797641D01*
X180156959Y-101915466D01*
X180249533Y-102054013D01*
X180313299Y-102207958D01*
X180345807Y-102371385D01*
X180345807Y-102538015D01*
X180313299Y-102701442D01*
X180249533Y-102855387D01*
X180156959Y-102993934D01*
X180039134Y-103111759D01*
X179900587Y-103204333D01*
X179746642Y-103268099D01*
X179583215Y-103300607D01*
X179499900Y-103304700D01*
X179498668Y-103304700D01*
X179251132Y-103304700D01*
X179249900Y-103304700D01*
X179166585Y-103300607D01*
X179003158Y-103268099D01*
X178849213Y-103204333D01*
X178710666Y-103111759D01*
X178592841Y-102993934D01*
X178500267Y-102855387D01*
X178436501Y-102701442D01*
X178403993Y-102538015D01*
X178403993Y-102371385D01*
X178436501Y-102207958D01*
X178500267Y-102054013D01*
X178592841Y-101915466D01*
X178710666Y-101797641D01*
X178849213Y-101705067D01*
X179003158Y-101641301D01*
X179166585Y-101608793D01*
X179249900Y-101604700D01*
X179499900Y-101604700D01*
X179583215Y-101608793D01*
G37*
G36*
X179583215Y-99108793D02*
G01*
X179746642Y-99141301D01*
X179900587Y-99205067D01*
X180039134Y-99297641D01*
X180156959Y-99415466D01*
X180249533Y-99554013D01*
X180313299Y-99707958D01*
X180345807Y-99871385D01*
X180345807Y-100038015D01*
X180313299Y-100201442D01*
X180249533Y-100355387D01*
X180156959Y-100493934D01*
X180039134Y-100611759D01*
X179900587Y-100704333D01*
X179746642Y-100768099D01*
X179583215Y-100800607D01*
X179499900Y-100804700D01*
X179498668Y-100804700D01*
X179251132Y-100804700D01*
X179249900Y-100804700D01*
X179166585Y-100800607D01*
X179003158Y-100768099D01*
X178849213Y-100704333D01*
X178710666Y-100611759D01*
X178592841Y-100493934D01*
X178500267Y-100355387D01*
X178436501Y-100201442D01*
X178403993Y-100038015D01*
X178403993Y-99871385D01*
X178436501Y-99707958D01*
X178500267Y-99554013D01*
X178592841Y-99415466D01*
X178710666Y-99297641D01*
X178849213Y-99205067D01*
X179003158Y-99141301D01*
X179166585Y-99108793D01*
X179249900Y-99104700D01*
X179499900Y-99104700D01*
X179583215Y-99108793D01*
G37*
G36*
X180103947Y-96605505D02*
G01*
X180155308Y-96611464D01*
X180172854Y-96619211D01*
X180195571Y-96623730D01*
X180219891Y-96639980D01*
X180240693Y-96649165D01*
X180254900Y-96663372D01*
X180276677Y-96677923D01*
X180291227Y-96699699D01*
X180305434Y-96713906D01*
X180314618Y-96734706D01*
X180330870Y-96759029D01*
X180335389Y-96781748D01*
X180343135Y-96799291D01*
X180349092Y-96850640D01*
X180349900Y-96854700D01*
X180349900Y-98054700D01*
X180349092Y-98058759D01*
X180343135Y-98110108D01*
X180335389Y-98127650D01*
X180330870Y-98150371D01*
X180314616Y-98174695D01*
X180305434Y-98195493D01*
X180291229Y-98209697D01*
X180276677Y-98231477D01*
X180254897Y-98246029D01*
X180240693Y-98260234D01*
X180219895Y-98269416D01*
X180195571Y-98285670D01*
X180172850Y-98290189D01*
X180155308Y-98297935D01*
X180103961Y-98303892D01*
X180099900Y-98304700D01*
X178649900Y-98304700D01*
X178645841Y-98303892D01*
X178594491Y-98297935D01*
X178576948Y-98290189D01*
X178554229Y-98285670D01*
X178529906Y-98269418D01*
X178509106Y-98260234D01*
X178494899Y-98246027D01*
X178473123Y-98231477D01*
X178458572Y-98209700D01*
X178444365Y-98195493D01*
X178435180Y-98174691D01*
X178418930Y-98150371D01*
X178414411Y-98127654D01*
X178406664Y-98110108D01*
X178400705Y-98058749D01*
X178399900Y-98054700D01*
X178399900Y-96854700D01*
X178400704Y-96850653D01*
X178406664Y-96799291D01*
X178414411Y-96781743D01*
X178418930Y-96759029D01*
X178435178Y-96734710D01*
X178444365Y-96713906D01*
X178458574Y-96699696D01*
X178473123Y-96677923D01*
X178494896Y-96663374D01*
X178509106Y-96649165D01*
X178529910Y-96639978D01*
X178554229Y-96623730D01*
X178576943Y-96619211D01*
X178594491Y-96611464D01*
X178645852Y-96605505D01*
X178649900Y-96604700D01*
X180099900Y-96604700D01*
X180103947Y-96605505D01*
G37*
G36*
X152547921Y-88840601D02*
G01*
X152597363Y-88873637D01*
X152630399Y-88923079D01*
X152642000Y-88981400D01*
X152642000Y-91108600D01*
X152630399Y-91166921D01*
X152597363Y-91216363D01*
X152547921Y-91249399D01*
X152546541Y-91249673D01*
X152541983Y-91254230D01*
X152469034Y-91363408D01*
X152363408Y-91469034D01*
X152239204Y-91552024D01*
X152101197Y-91609189D01*
X151954689Y-91638331D01*
X151805311Y-91638331D01*
X151658803Y-91609189D01*
X151520796Y-91552024D01*
X151396592Y-91469034D01*
X151290966Y-91363408D01*
X151218018Y-91254233D01*
X151213457Y-91249673D01*
X151212079Y-91249399D01*
X151162637Y-91216363D01*
X151129601Y-91166921D01*
X151118000Y-91108600D01*
X151118000Y-88981400D01*
X151129601Y-88923079D01*
X151162637Y-88873637D01*
X151212079Y-88840601D01*
X151270400Y-88829000D01*
X152489600Y-88829000D01*
X152547921Y-88840601D01*
G37*
G36*
X155087921Y-88840601D02*
G01*
X155137363Y-88873637D01*
X155170399Y-88923079D01*
X155182000Y-88981400D01*
X155182000Y-91108600D01*
X155170399Y-91166921D01*
X155137363Y-91216363D01*
X155087921Y-91249399D01*
X155086541Y-91249673D01*
X155081983Y-91254230D01*
X155009034Y-91363408D01*
X154903408Y-91469034D01*
X154779204Y-91552024D01*
X154641197Y-91609189D01*
X154494689Y-91638331D01*
X154345311Y-91638331D01*
X154198803Y-91609189D01*
X154060796Y-91552024D01*
X153936592Y-91469034D01*
X153830966Y-91363408D01*
X153758018Y-91254233D01*
X153753457Y-91249673D01*
X153752079Y-91249399D01*
X153702637Y-91216363D01*
X153669601Y-91166921D01*
X153658000Y-91108600D01*
X153658000Y-88981400D01*
X153669601Y-88923079D01*
X153702637Y-88873637D01*
X153752079Y-88840601D01*
X153810400Y-88829000D01*
X155029600Y-88829000D01*
X155087921Y-88840601D01*
G37*
G36*
X157627921Y-88840601D02*
G01*
X157677363Y-88873637D01*
X157710399Y-88923079D01*
X157722000Y-88981400D01*
X157722000Y-91108600D01*
X157710399Y-91166921D01*
X157677363Y-91216363D01*
X157627921Y-91249399D01*
X157626541Y-91249673D01*
X157621983Y-91254230D01*
X157549034Y-91363408D01*
X157443408Y-91469034D01*
X157319204Y-91552024D01*
X157181197Y-91609189D01*
X157034689Y-91638331D01*
X156885311Y-91638331D01*
X156738803Y-91609189D01*
X156600796Y-91552024D01*
X156476592Y-91469034D01*
X156370966Y-91363408D01*
X156298018Y-91254233D01*
X156293457Y-91249673D01*
X156292079Y-91249399D01*
X156242637Y-91216363D01*
X156209601Y-91166921D01*
X156198000Y-91108600D01*
X156198000Y-88981400D01*
X156209601Y-88923079D01*
X156242637Y-88873637D01*
X156292079Y-88840601D01*
X156350400Y-88829000D01*
X157569600Y-88829000D01*
X157627921Y-88840601D01*
G37*
G36*
X160167921Y-88840601D02*
G01*
X160217363Y-88873637D01*
X160250399Y-88923079D01*
X160262000Y-88981400D01*
X160262000Y-91108600D01*
X160250399Y-91166921D01*
X160217363Y-91216363D01*
X160167921Y-91249399D01*
X160166541Y-91249673D01*
X160161983Y-91254230D01*
X160089034Y-91363408D01*
X159983408Y-91469034D01*
X159859204Y-91552024D01*
X159721197Y-91609189D01*
X159574689Y-91638331D01*
X159425311Y-91638331D01*
X159278803Y-91609189D01*
X159140796Y-91552024D01*
X159016592Y-91469034D01*
X158910966Y-91363408D01*
X158838018Y-91254233D01*
X158833457Y-91249673D01*
X158832079Y-91249399D01*
X158782637Y-91216363D01*
X158749601Y-91166921D01*
X158738000Y-91108600D01*
X158738000Y-88981400D01*
X158749601Y-88923079D01*
X158782637Y-88873637D01*
X158832079Y-88840601D01*
X158890400Y-88829000D01*
X160109600Y-88829000D01*
X160167921Y-88840601D01*
G37*
G36*
X162707921Y-88840601D02*
G01*
X162757363Y-88873637D01*
X162790399Y-88923079D01*
X162802000Y-88981400D01*
X162802000Y-91108600D01*
X162790399Y-91166921D01*
X162757363Y-91216363D01*
X162707921Y-91249399D01*
X162706541Y-91249673D01*
X162701983Y-91254230D01*
X162629034Y-91363408D01*
X162523408Y-91469034D01*
X162399204Y-91552024D01*
X162261197Y-91609189D01*
X162114689Y-91638331D01*
X161965311Y-91638331D01*
X161818803Y-91609189D01*
X161680796Y-91552024D01*
X161556592Y-91469034D01*
X161450966Y-91363408D01*
X161378018Y-91254233D01*
X161373457Y-91249673D01*
X161372079Y-91249399D01*
X161322637Y-91216363D01*
X161289601Y-91166921D01*
X161278000Y-91108600D01*
X161278000Y-88981400D01*
X161289601Y-88923079D01*
X161322637Y-88873637D01*
X161372079Y-88840601D01*
X161430400Y-88829000D01*
X162649600Y-88829000D01*
X162707921Y-88840601D01*
G37*
G36*
X165247921Y-88840601D02*
G01*
X165297363Y-88873637D01*
X165330399Y-88923079D01*
X165342000Y-88981400D01*
X165342000Y-91108600D01*
X165330399Y-91166921D01*
X165297363Y-91216363D01*
X165247921Y-91249399D01*
X165246541Y-91249673D01*
X165241983Y-91254230D01*
X165169034Y-91363408D01*
X165063408Y-91469034D01*
X164939204Y-91552024D01*
X164801197Y-91609189D01*
X164654689Y-91638331D01*
X164505311Y-91638331D01*
X164358803Y-91609189D01*
X164220796Y-91552024D01*
X164096592Y-91469034D01*
X163990966Y-91363408D01*
X163918018Y-91254233D01*
X163913457Y-91249673D01*
X163912079Y-91249399D01*
X163862637Y-91216363D01*
X163829601Y-91166921D01*
X163818000Y-91108600D01*
X163818000Y-88981400D01*
X163829601Y-88923079D01*
X163862637Y-88873637D01*
X163912079Y-88840601D01*
X163970400Y-88829000D01*
X165189600Y-88829000D01*
X165247921Y-88840601D01*
G37*
G36*
X167787921Y-88840601D02*
G01*
X167837363Y-88873637D01*
X167870399Y-88923079D01*
X167882000Y-88981400D01*
X167882000Y-91108600D01*
X167870399Y-91166921D01*
X167837363Y-91216363D01*
X167787921Y-91249399D01*
X167786541Y-91249673D01*
X167781983Y-91254230D01*
X167709034Y-91363408D01*
X167603408Y-91469034D01*
X167479204Y-91552024D01*
X167341197Y-91609189D01*
X167194689Y-91638331D01*
X167045311Y-91638331D01*
X166898803Y-91609189D01*
X166760796Y-91552024D01*
X166636592Y-91469034D01*
X166530966Y-91363408D01*
X166458018Y-91254233D01*
X166453457Y-91249673D01*
X166452079Y-91249399D01*
X166402637Y-91216363D01*
X166369601Y-91166921D01*
X166358000Y-91108600D01*
X166358000Y-88981400D01*
X166369601Y-88923079D01*
X166402637Y-88873637D01*
X166452079Y-88840601D01*
X166510400Y-88829000D01*
X167729600Y-88829000D01*
X167787921Y-88840601D01*
G37*
M02*
