M48
; DRILL file KiCad 10.0.4 date 2026-07-20T19:50:36
; FORMAT={-:-/ absolute / metric / decimal}
; #@! TF.CreationDate,2026-07-20T19:50:36-07:00
; #@! TF.GenerationSoftware,Kicad,Pcbnew,10.0.4
; #@! TF.FileFunction,MixedPlating,1,2
FMAT,2
METRIC
; #@! TA.AperFunction,Plated,PTH,ViaDrill
T1C0.300
; #@! TA.AperFunction,Plated,PTH,ComponentDrill
T2C0.889
; #@! TA.AperFunction,Plated,PTH,ComponentDrill
T3C0.950
%
G90
G05
T1
X151.45Y-108.95
X151.5Y-87.5
X152.85Y-90.05
X154.5Y-87.5
X156.1Y-93.5
X157.5Y-87.5
X157.5Y-96.5
X157.5Y-99.5
X157.5Y-102.5
X158.1Y-94.15
X158.45Y-92.85
X160.5Y-87.5
X160.5Y-93.5
X160.5Y-96.5
X160.5Y-99.5
X160.5Y-102.5
X162.05Y-90.05
X163.5Y-87.5
X163.5Y-92.5
X163.5Y-95.5
X163.5Y-99.5
X163.5Y-102.5
X171.923Y-105.255
X172.095Y-108.973
X173.95Y-107.05
X175.646Y-102.451
X176.521Y-90.1
X176.65Y-109.8
X177.004Y-100.476
X177.095Y-104.881
X177.818Y-88.113
X177.9Y-90.05
X178.191Y-88.889
X180.981Y-87.344
X181.148Y-103.7
X182.9Y-94.3
X183.694Y-90.972
X184.072Y-88.555
X188.692Y-104.256
T2
X151.88Y-90.88
X151.88Y-106.12
X154.42Y-90.88
X154.42Y-106.12
X156.96Y-90.88
X156.96Y-106.12
X159.5Y-90.88
X159.5Y-106.12
X162.04Y-90.88
X162.04Y-106.12
X164.58Y-90.88
X164.58Y-106.12
X167.12Y-90.88
X167.12Y-106.12
T3
X179.375Y-97.455
X179.375Y-99.955
X179.375Y-102.455
X179.375Y-104.955
X179.375Y-107.455
M30
