%TF.GenerationSoftware,KiCad,Pcbnew,10.0.4*%
%TF.CreationDate,2026-07-20T14:40:51-07:00*%
%TF.ProjectId,esp32c6_daikin,65737033-3263-4365-9f64-61696b696e2e,rev?*%
%TF.SameCoordinates,Original*%
%TF.FileFunction,Soldermask,Top*%
%TF.FilePolarity,Negative*%
%FSLAX46Y46*%
G04 Gerber Fmt 4.6, Leading zero omitted, Abs format (unit mm)*
G04 Created by KiCad (PCBNEW 10.0.4) date 2026-07-20 14:40:51*
%MOMM*%
%LPD*%
G01*
G04 APERTURE LIST*
G04 Aperture macros list*
%AMRoundRect*
0 Rectangle with rounded corners*
0 $1 Rounding radius*
0 $2 $3 $4 $5 $6 $7 $8 $9 X,Y pos of 4 corners*
0 Add a 4 corners polygon primitive as box body*
4,1,4,$2,$3,$4,$5,$6,$7,$8,$9,$2,$3,0*
0 Add four circle primitives for the rounded corners*
1,1,$1+$1,$2,$3*
1,1,$1+$1,$4,$5*
1,1,$1+$1,$6,$7*
1,1,$1+$1,$8,$9*
0 Add four rect primitives between the rounded corners*
20,1,$1+$1,$2,$3,$4,$5,0*
20,1,$1+$1,$4,$5,$6,$7,0*
20,1,$1+$1,$6,$7,$8,$9,0*
20,1,$1+$1,$8,$9,$2,$3,0*%
G04 Aperture macros list end*
%ADD10R,0.540000X0.570000*%
%ADD11RoundRect,0.200000X-0.200000X-0.275000X0.200000X-0.275000X0.200000X0.275000X-0.200000X0.275000X0*%
%ADD12R,0.300000X0.850000*%
%ADD13RoundRect,0.250000X0.625000X-0.375000X0.625000X0.375000X-0.625000X0.375000X-0.625000X-0.375000X0*%
%ADD14R,0.350000X0.600000*%
%ADD15R,0.540000X0.790000*%
%ADD16RoundRect,0.225000X-0.225000X-0.375000X0.225000X-0.375000X0.225000X0.375000X-0.225000X0.375000X0*%
%ADD17R,0.570000X0.540000*%
%ADD18R,1.410000X1.350000*%
%ADD19R,0.790000X0.540000*%
%ADD20R,4.000000X1.500000*%
%ADD21R,0.900000X0.400000*%
%ADD22R,0.810000X0.860000*%
%ADD23RoundRect,0.250000X-0.300000X0.300000X-0.300000X-0.300000X0.300000X-0.300000X0.300000X0.300000X0*%
%ADD24RoundRect,0.250000X-0.725000X0.600000X-0.725000X-0.600000X0.725000X-0.600000X0.725000X0.600000X0*%
%ADD25O,1.950000X1.700000*%
%ADD26RoundRect,0.200000X0.200000X0.275000X-0.200000X0.275000X-0.200000X-0.275000X0.200000X-0.275000X0*%
%ADD27C,1.524000*%
G04 APERTURE END LIST*
D10*
%TO.C,R1*%
X177147000Y-106548000D03*
X177147000Y-105688000D03*
%TD*%
D11*
%TO.C,R11*%
X174246800Y-103471800D03*
X175896800Y-103471800D03*
%TD*%
D12*
%TO.C,U1*%
X181400000Y-88280000D03*
X180900000Y-88280000D03*
X180400000Y-88280000D03*
X180400000Y-89720000D03*
X180900000Y-89720000D03*
X181400000Y-89720000D03*
%TD*%
D13*
%TO.C,F1*%
X188300000Y-105400000D03*
X188300000Y-102600000D03*
%TD*%
D14*
%TO.C,D2*%
X172320000Y-107000000D03*
X171680000Y-107000000D03*
%TD*%
D15*
%TO.C,C18*%
X179000000Y-89250000D03*
X179000000Y-88150000D03*
%TD*%
D16*
%TO.C,D6*%
X174450000Y-90000000D03*
X177750000Y-90000000D03*
%TD*%
D17*
%TO.C,R2*%
X151659000Y-108891000D03*
X152519000Y-108891000D03*
%TD*%
D18*
%TO.C,C17*%
X172500000Y-96000000D03*
X174500000Y-96000000D03*
%TD*%
D19*
%TO.C,C3*%
X182050000Y-86900000D03*
X183150000Y-86900000D03*
%TD*%
%TO.C,C19*%
X180750000Y-92600000D03*
X181850000Y-92600000D03*
%TD*%
D10*
%TO.C,R3*%
X158300000Y-93949600D03*
X158300000Y-93089600D03*
%TD*%
D18*
%TO.C,C20*%
X168800000Y-93400000D03*
X170800000Y-93400000D03*
%TD*%
D17*
%TO.C,R8*%
X180870000Y-93800000D03*
X181730000Y-93800000D03*
%TD*%
D20*
%TO.C,L1*%
X186400000Y-87350000D03*
X186400000Y-90950000D03*
%TD*%
D21*
%TO.C,Q1*%
X176420800Y-108719400D03*
X176420800Y-108069400D03*
X176420800Y-107419400D03*
X174620800Y-107419400D03*
X174620800Y-108069400D03*
X174620800Y-108719400D03*
%TD*%
D22*
%TO.C,R6*%
X182650000Y-93400000D03*
X184150000Y-93400000D03*
%TD*%
D23*
%TO.C,D5*%
X172200000Y-89000000D03*
X172200000Y-91800000D03*
%TD*%
D14*
%TO.C,D3*%
X172684500Y-108333400D03*
X173324500Y-108333400D03*
%TD*%
D18*
%TO.C,C15*%
X185650000Y-93300000D03*
X187650000Y-93300000D03*
%TD*%
D22*
%TO.C,R5*%
X177550000Y-92800000D03*
X179050000Y-92800000D03*
%TD*%
D24*
%TO.C,J2*%
X179374900Y-97454700D03*
D25*
X179374900Y-99954700D03*
X179374900Y-102454700D03*
X179374900Y-104954700D03*
X179374900Y-107454700D03*
%TD*%
D10*
%TO.C,R12*%
X174500000Y-102030000D03*
X174500000Y-101170000D03*
%TD*%
D15*
%TO.C,C16*%
X183300000Y-90050000D03*
X183300000Y-88950000D03*
%TD*%
D26*
%TO.C,R10*%
X175990800Y-105599300D03*
X174340800Y-105599300D03*
%TD*%
D27*
%TO.C,U2*%
X167120000Y-106120000D03*
X164580000Y-106120000D03*
X162040000Y-106120000D03*
X159500000Y-106120000D03*
X156960000Y-106120000D03*
X154420000Y-106120000D03*
X151880000Y-106120000D03*
X151880000Y-90880000D03*
X154420000Y-90880000D03*
X156960000Y-90880000D03*
X159500000Y-90880000D03*
X162040000Y-90880000D03*
X164580000Y-90880000D03*
X167120000Y-90880000D03*
%TD*%
M02*
