%TF.GenerationSoftware,KiCad,Pcbnew,10.0.4*%
%TF.CreationDate,2026-07-20T19:50:36-07:00*%
%TF.ProjectId,esp32c6_daikin,65737033-3263-4365-9f64-61696b696e2e,rev?*%
%TF.SameCoordinates,Original*%
%TF.FileFunction,AssemblyDrawing,Top*%
%FSLAX46Y46*%
G04 Gerber Fmt 4.6, Leading zero omitted, Abs format (unit mm)*
G04 Created by KiCad (PCBNEW 10.0.4) date 2026-07-20 19:50:36*
%MOMM*%
%LPD*%
G01*
G04 APERTURE LIST*
%ADD10C,0.150000*%
%ADD11C,0.060000*%
%ADD12C,0.120000*%
%ADD13C,0.100000*%
G04 APERTURE END LIST*
D10*
X181601819Y-106713238D02*
X181601819Y-107284666D01*
X181601819Y-106998952D02*
X180601819Y-106998952D01*
X180601819Y-106998952D02*
X180744676Y-107094190D01*
X180744676Y-107094190D02*
X180839914Y-107189428D01*
X180839914Y-107189428D02*
X180887533Y-107284666D01*
X180601819Y-106094190D02*
X180601819Y-105998952D01*
X180601819Y-105998952D02*
X180649438Y-105903714D01*
X180649438Y-105903714D02*
X180697057Y-105856095D01*
X180697057Y-105856095D02*
X180792295Y-105808476D01*
X180792295Y-105808476D02*
X180982771Y-105760857D01*
X180982771Y-105760857D02*
X181220866Y-105760857D01*
X181220866Y-105760857D02*
X181411342Y-105808476D01*
X181411342Y-105808476D02*
X181506580Y-105856095D01*
X181506580Y-105856095D02*
X181554200Y-105903714D01*
X181554200Y-105903714D02*
X181601819Y-105998952D01*
X181601819Y-105998952D02*
X181601819Y-106094190D01*
X181601819Y-106094190D02*
X181554200Y-106189428D01*
X181554200Y-106189428D02*
X181506580Y-106237047D01*
X181506580Y-106237047D02*
X181411342Y-106284666D01*
X181411342Y-106284666D02*
X181220866Y-106332285D01*
X181220866Y-106332285D02*
X180982771Y-106332285D01*
X180982771Y-106332285D02*
X180792295Y-106284666D01*
X180792295Y-106284666D02*
X180697057Y-106237047D01*
X180697057Y-106237047D02*
X180649438Y-106189428D01*
X180649438Y-106189428D02*
X180601819Y-106094190D01*
X181601819Y-105332285D02*
X180601819Y-105332285D01*
X181220866Y-105237047D02*
X181601819Y-104951333D01*
X180935152Y-104951333D02*
X181316104Y-105332285D01*
X177601819Y-106284666D02*
X177125628Y-106617999D01*
X177601819Y-106856094D02*
X176601819Y-106856094D01*
X176601819Y-106856094D02*
X176601819Y-106475142D01*
X176601819Y-106475142D02*
X176649438Y-106379904D01*
X176649438Y-106379904D02*
X176697057Y-106332285D01*
X176697057Y-106332285D02*
X176792295Y-106284666D01*
X176792295Y-106284666D02*
X176935152Y-106284666D01*
X176935152Y-106284666D02*
X177030390Y-106332285D01*
X177030390Y-106332285D02*
X177078009Y-106379904D01*
X177078009Y-106379904D02*
X177125628Y-106475142D01*
X177125628Y-106475142D02*
X177125628Y-106856094D01*
X177601819Y-105332285D02*
X177601819Y-105903713D01*
X177601819Y-105617999D02*
X176601819Y-105617999D01*
X176601819Y-105617999D02*
X176744676Y-105713237D01*
X176744676Y-105713237D02*
X176839914Y-105808475D01*
X176839914Y-105808475D02*
X176887533Y-105903713D01*
X173333705Y-104451857D02*
X173381324Y-104404238D01*
X173381324Y-104404238D02*
X173476562Y-104356619D01*
X173476562Y-104356619D02*
X173714657Y-104356619D01*
X173714657Y-104356619D02*
X173809895Y-104404238D01*
X173809895Y-104404238D02*
X173857514Y-104451857D01*
X173857514Y-104451857D02*
X173905133Y-104547095D01*
X173905133Y-104547095D02*
X173905133Y-104642333D01*
X173905133Y-104642333D02*
X173857514Y-104785190D01*
X173857514Y-104785190D02*
X173286086Y-105356619D01*
X173286086Y-105356619D02*
X173905133Y-105356619D01*
X174286086Y-104451857D02*
X174333705Y-104404238D01*
X174333705Y-104404238D02*
X174428943Y-104356619D01*
X174428943Y-104356619D02*
X174667038Y-104356619D01*
X174667038Y-104356619D02*
X174762276Y-104404238D01*
X174762276Y-104404238D02*
X174809895Y-104451857D01*
X174809895Y-104451857D02*
X174857514Y-104547095D01*
X174857514Y-104547095D02*
X174857514Y-104642333D01*
X174857514Y-104642333D02*
X174809895Y-104785190D01*
X174809895Y-104785190D02*
X174238467Y-105356619D01*
X174238467Y-105356619D02*
X174857514Y-105356619D01*
X175476562Y-104356619D02*
X175571800Y-104356619D01*
X175571800Y-104356619D02*
X175667038Y-104404238D01*
X175667038Y-104404238D02*
X175714657Y-104451857D01*
X175714657Y-104451857D02*
X175762276Y-104547095D01*
X175762276Y-104547095D02*
X175809895Y-104737571D01*
X175809895Y-104737571D02*
X175809895Y-104975666D01*
X175809895Y-104975666D02*
X175762276Y-105166142D01*
X175762276Y-105166142D02*
X175714657Y-105261380D01*
X175714657Y-105261380D02*
X175667038Y-105309000D01*
X175667038Y-105309000D02*
X175571800Y-105356619D01*
X175571800Y-105356619D02*
X175476562Y-105356619D01*
X175476562Y-105356619D02*
X175381324Y-105309000D01*
X175381324Y-105309000D02*
X175333705Y-105261380D01*
X175333705Y-105261380D02*
X175286086Y-105166142D01*
X175286086Y-105166142D02*
X175238467Y-104975666D01*
X175238467Y-104975666D02*
X175238467Y-104737571D01*
X175238467Y-104737571D02*
X175286086Y-104547095D01*
X175286086Y-104547095D02*
X175333705Y-104451857D01*
X175333705Y-104451857D02*
X175381324Y-104404238D01*
X175381324Y-104404238D02*
X175476562Y-104356619D01*
X176809895Y-105356619D02*
X176476562Y-104880428D01*
X176238467Y-105356619D02*
X176238467Y-104356619D01*
X176238467Y-104356619D02*
X176619419Y-104356619D01*
X176619419Y-104356619D02*
X176714657Y-104404238D01*
X176714657Y-104404238D02*
X176762276Y-104451857D01*
X176762276Y-104451857D02*
X176809895Y-104547095D01*
X176809895Y-104547095D02*
X176809895Y-104689952D01*
X176809895Y-104689952D02*
X176762276Y-104785190D01*
X176762276Y-104785190D02*
X176714657Y-104832809D01*
X176714657Y-104832809D02*
X176619419Y-104880428D01*
X176619419Y-104880428D02*
X176238467Y-104880428D01*
D11*
X174814657Y-103653727D02*
X174681324Y-103463251D01*
X174586086Y-103653727D02*
X174586086Y-103253727D01*
X174586086Y-103253727D02*
X174738467Y-103253727D01*
X174738467Y-103253727D02*
X174776562Y-103272775D01*
X174776562Y-103272775D02*
X174795609Y-103291822D01*
X174795609Y-103291822D02*
X174814657Y-103329918D01*
X174814657Y-103329918D02*
X174814657Y-103387060D01*
X174814657Y-103387060D02*
X174795609Y-103425156D01*
X174795609Y-103425156D02*
X174776562Y-103444203D01*
X174776562Y-103444203D02*
X174738467Y-103463251D01*
X174738467Y-103463251D02*
X174586086Y-103463251D01*
X175195609Y-103653727D02*
X174967038Y-103653727D01*
X175081324Y-103653727D02*
X175081324Y-103253727D01*
X175081324Y-103253727D02*
X175043228Y-103310870D01*
X175043228Y-103310870D02*
X175005133Y-103348965D01*
X175005133Y-103348965D02*
X174967038Y-103368013D01*
X175576561Y-103653727D02*
X175347990Y-103653727D01*
X175462276Y-103653727D02*
X175462276Y-103253727D01*
X175462276Y-103253727D02*
X175424180Y-103310870D01*
X175424180Y-103310870D02*
X175386085Y-103348965D01*
X175386085Y-103348965D02*
X175347990Y-103368013D01*
D10*
X184854819Y-93119047D02*
X184854819Y-92547619D01*
X185854819Y-92833333D02*
X184854819Y-92833333D01*
X185854819Y-92214285D02*
X184854819Y-92214285D01*
X184854819Y-92214285D02*
X184854819Y-91833333D01*
X184854819Y-91833333D02*
X184902438Y-91738095D01*
X184902438Y-91738095D02*
X184950057Y-91690476D01*
X184950057Y-91690476D02*
X185045295Y-91642857D01*
X185045295Y-91642857D02*
X185188152Y-91642857D01*
X185188152Y-91642857D02*
X185283390Y-91690476D01*
X185283390Y-91690476D02*
X185331009Y-91738095D01*
X185331009Y-91738095D02*
X185378628Y-91833333D01*
X185378628Y-91833333D02*
X185378628Y-92214285D01*
X185807200Y-91261904D02*
X185854819Y-91119047D01*
X185854819Y-91119047D02*
X185854819Y-90880952D01*
X185854819Y-90880952D02*
X185807200Y-90785714D01*
X185807200Y-90785714D02*
X185759580Y-90738095D01*
X185759580Y-90738095D02*
X185664342Y-90690476D01*
X185664342Y-90690476D02*
X185569104Y-90690476D01*
X185569104Y-90690476D02*
X185473866Y-90738095D01*
X185473866Y-90738095D02*
X185426247Y-90785714D01*
X185426247Y-90785714D02*
X185378628Y-90880952D01*
X185378628Y-90880952D02*
X185331009Y-91071428D01*
X185331009Y-91071428D02*
X185283390Y-91166666D01*
X185283390Y-91166666D02*
X185235771Y-91214285D01*
X185235771Y-91214285D02*
X185140533Y-91261904D01*
X185140533Y-91261904D02*
X185045295Y-91261904D01*
X185045295Y-91261904D02*
X184950057Y-91214285D01*
X184950057Y-91214285D02*
X184902438Y-91166666D01*
X184902438Y-91166666D02*
X184854819Y-91071428D01*
X184854819Y-91071428D02*
X184854819Y-90833333D01*
X184854819Y-90833333D02*
X184902438Y-90690476D01*
X184854819Y-89785714D02*
X184854819Y-90261904D01*
X184854819Y-90261904D02*
X185331009Y-90309523D01*
X185331009Y-90309523D02*
X185283390Y-90261904D01*
X185283390Y-90261904D02*
X185235771Y-90166666D01*
X185235771Y-90166666D02*
X185235771Y-89928571D01*
X185235771Y-89928571D02*
X185283390Y-89833333D01*
X185283390Y-89833333D02*
X185331009Y-89785714D01*
X185331009Y-89785714D02*
X185426247Y-89738095D01*
X185426247Y-89738095D02*
X185664342Y-89738095D01*
X185664342Y-89738095D02*
X185759580Y-89785714D01*
X185759580Y-89785714D02*
X185807200Y-89833333D01*
X185807200Y-89833333D02*
X185854819Y-89928571D01*
X185854819Y-89928571D02*
X185854819Y-90166666D01*
X185854819Y-90166666D02*
X185807200Y-90261904D01*
X185807200Y-90261904D02*
X185759580Y-90309523D01*
X184854819Y-88880952D02*
X184854819Y-89071428D01*
X184854819Y-89071428D02*
X184902438Y-89166666D01*
X184902438Y-89166666D02*
X184950057Y-89214285D01*
X184950057Y-89214285D02*
X185092914Y-89309523D01*
X185092914Y-89309523D02*
X185283390Y-89357142D01*
X185283390Y-89357142D02*
X185664342Y-89357142D01*
X185664342Y-89357142D02*
X185759580Y-89309523D01*
X185759580Y-89309523D02*
X185807200Y-89261904D01*
X185807200Y-89261904D02*
X185854819Y-89166666D01*
X185854819Y-89166666D02*
X185854819Y-88976190D01*
X185854819Y-88976190D02*
X185807200Y-88880952D01*
X185807200Y-88880952D02*
X185759580Y-88833333D01*
X185759580Y-88833333D02*
X185664342Y-88785714D01*
X185664342Y-88785714D02*
X185426247Y-88785714D01*
X185426247Y-88785714D02*
X185331009Y-88833333D01*
X185331009Y-88833333D02*
X185283390Y-88880952D01*
X185283390Y-88880952D02*
X185235771Y-88976190D01*
X185235771Y-88976190D02*
X185235771Y-89166666D01*
X185235771Y-89166666D02*
X185283390Y-89261904D01*
X185283390Y-89261904D02*
X185331009Y-89309523D01*
X185331009Y-89309523D02*
X185426247Y-89357142D01*
X184950057Y-88404761D02*
X184902438Y-88357142D01*
X184902438Y-88357142D02*
X184854819Y-88261904D01*
X184854819Y-88261904D02*
X184854819Y-88023809D01*
X184854819Y-88023809D02*
X184902438Y-87928571D01*
X184902438Y-87928571D02*
X184950057Y-87880952D01*
X184950057Y-87880952D02*
X185045295Y-87833333D01*
X185045295Y-87833333D02*
X185140533Y-87833333D01*
X185140533Y-87833333D02*
X185283390Y-87880952D01*
X185283390Y-87880952D02*
X185854819Y-88452380D01*
X185854819Y-88452380D02*
X185854819Y-87833333D01*
X184950057Y-87452380D02*
X184902438Y-87404761D01*
X184902438Y-87404761D02*
X184854819Y-87309523D01*
X184854819Y-87309523D02*
X184854819Y-87071428D01*
X184854819Y-87071428D02*
X184902438Y-86976190D01*
X184902438Y-86976190D02*
X184950057Y-86928571D01*
X184950057Y-86928571D02*
X185045295Y-86880952D01*
X185045295Y-86880952D02*
X185140533Y-86880952D01*
X185140533Y-86880952D02*
X185283390Y-86928571D01*
X185283390Y-86928571D02*
X185854819Y-87499999D01*
X185854819Y-87499999D02*
X185854819Y-86880952D01*
X185188152Y-86023809D02*
X185854819Y-86023809D01*
X184807200Y-86261904D02*
X185521485Y-86499999D01*
X185521485Y-86499999D02*
X185521485Y-85880952D01*
X184854819Y-85071428D02*
X184854819Y-85261904D01*
X184854819Y-85261904D02*
X184902438Y-85357142D01*
X184902438Y-85357142D02*
X184950057Y-85404761D01*
X184950057Y-85404761D02*
X185092914Y-85499999D01*
X185092914Y-85499999D02*
X185283390Y-85547618D01*
X185283390Y-85547618D02*
X185664342Y-85547618D01*
X185664342Y-85547618D02*
X185759580Y-85499999D01*
X185759580Y-85499999D02*
X185807200Y-85452380D01*
X185807200Y-85452380D02*
X185854819Y-85357142D01*
X185854819Y-85357142D02*
X185854819Y-85166666D01*
X185854819Y-85166666D02*
X185807200Y-85071428D01*
X185807200Y-85071428D02*
X185759580Y-85023809D01*
X185759580Y-85023809D02*
X185664342Y-84976190D01*
X185664342Y-84976190D02*
X185426247Y-84976190D01*
X185426247Y-84976190D02*
X185331009Y-85023809D01*
X185331009Y-85023809D02*
X185283390Y-85071428D01*
X185283390Y-85071428D02*
X185235771Y-85166666D01*
X185235771Y-85166666D02*
X185235771Y-85357142D01*
X185235771Y-85357142D02*
X185283390Y-85452380D01*
X185283390Y-85452380D02*
X185331009Y-85499999D01*
X185331009Y-85499999D02*
X185426247Y-85547618D01*
X180354819Y-89761904D02*
X181164342Y-89761904D01*
X181164342Y-89761904D02*
X181259580Y-89714285D01*
X181259580Y-89714285D02*
X181307200Y-89666666D01*
X181307200Y-89666666D02*
X181354819Y-89571428D01*
X181354819Y-89571428D02*
X181354819Y-89380952D01*
X181354819Y-89380952D02*
X181307200Y-89285714D01*
X181307200Y-89285714D02*
X181259580Y-89238095D01*
X181259580Y-89238095D02*
X181164342Y-89190476D01*
X181164342Y-89190476D02*
X180354819Y-89190476D01*
X181354819Y-88190476D02*
X181354819Y-88761904D01*
X181354819Y-88476190D02*
X180354819Y-88476190D01*
X180354819Y-88476190D02*
X180497676Y-88571428D01*
X180497676Y-88571428D02*
X180592914Y-88666666D01*
X180592914Y-88666666D02*
X180640533Y-88761904D01*
X189680057Y-110857142D02*
X189632438Y-110809523D01*
X189632438Y-110809523D02*
X189584819Y-110714285D01*
X189584819Y-110714285D02*
X189584819Y-110476190D01*
X189584819Y-110476190D02*
X189632438Y-110380952D01*
X189632438Y-110380952D02*
X189680057Y-110333333D01*
X189680057Y-110333333D02*
X189775295Y-110285714D01*
X189775295Y-110285714D02*
X189870533Y-110285714D01*
X189870533Y-110285714D02*
X190013390Y-110333333D01*
X190013390Y-110333333D02*
X190584819Y-110904761D01*
X190584819Y-110904761D02*
X190584819Y-110285714D01*
X189584819Y-109380952D02*
X189584819Y-109857142D01*
X189584819Y-109857142D02*
X190061009Y-109904761D01*
X190061009Y-109904761D02*
X190013390Y-109857142D01*
X190013390Y-109857142D02*
X189965771Y-109761904D01*
X189965771Y-109761904D02*
X189965771Y-109523809D01*
X189965771Y-109523809D02*
X190013390Y-109428571D01*
X190013390Y-109428571D02*
X190061009Y-109380952D01*
X190061009Y-109380952D02*
X190156247Y-109333333D01*
X190156247Y-109333333D02*
X190394342Y-109333333D01*
X190394342Y-109333333D02*
X190489580Y-109380952D01*
X190489580Y-109380952D02*
X190537200Y-109428571D01*
X190537200Y-109428571D02*
X190584819Y-109523809D01*
X190584819Y-109523809D02*
X190584819Y-109761904D01*
X190584819Y-109761904D02*
X190537200Y-109857142D01*
X190537200Y-109857142D02*
X190489580Y-109904761D01*
X189584819Y-108714285D02*
X189584819Y-108619047D01*
X189584819Y-108619047D02*
X189632438Y-108523809D01*
X189632438Y-108523809D02*
X189680057Y-108476190D01*
X189680057Y-108476190D02*
X189775295Y-108428571D01*
X189775295Y-108428571D02*
X189965771Y-108380952D01*
X189965771Y-108380952D02*
X190203866Y-108380952D01*
X190203866Y-108380952D02*
X190394342Y-108428571D01*
X190394342Y-108428571D02*
X190489580Y-108476190D01*
X190489580Y-108476190D02*
X190537200Y-108523809D01*
X190537200Y-108523809D02*
X190584819Y-108619047D01*
X190584819Y-108619047D02*
X190584819Y-108714285D01*
X190584819Y-108714285D02*
X190537200Y-108809523D01*
X190537200Y-108809523D02*
X190489580Y-108857142D01*
X190489580Y-108857142D02*
X190394342Y-108904761D01*
X190394342Y-108904761D02*
X190203866Y-108952380D01*
X190203866Y-108952380D02*
X189965771Y-108952380D01*
X189965771Y-108952380D02*
X189775295Y-108904761D01*
X189775295Y-108904761D02*
X189680057Y-108857142D01*
X189680057Y-108857142D02*
X189632438Y-108809523D01*
X189632438Y-108809523D02*
X189584819Y-108714285D01*
X190584819Y-107952380D02*
X189918152Y-107952380D01*
X190013390Y-107952380D02*
X189965771Y-107904761D01*
X189965771Y-107904761D02*
X189918152Y-107809523D01*
X189918152Y-107809523D02*
X189918152Y-107666666D01*
X189918152Y-107666666D02*
X189965771Y-107571428D01*
X189965771Y-107571428D02*
X190061009Y-107523809D01*
X190061009Y-107523809D02*
X190584819Y-107523809D01*
X190061009Y-107523809D02*
X189965771Y-107476190D01*
X189965771Y-107476190D02*
X189918152Y-107380952D01*
X189918152Y-107380952D02*
X189918152Y-107238095D01*
X189918152Y-107238095D02*
X189965771Y-107142856D01*
X189965771Y-107142856D02*
X190061009Y-107095237D01*
X190061009Y-107095237D02*
X190584819Y-107095237D01*
X190299104Y-106666666D02*
X190299104Y-106190476D01*
X190584819Y-106761904D02*
X189584819Y-106428571D01*
X189584819Y-106428571D02*
X190584819Y-106095238D01*
X190203866Y-105761904D02*
X190203866Y-105000000D01*
X190584819Y-104523809D02*
X189584819Y-104523809D01*
X190584819Y-104095238D02*
X190061009Y-104095238D01*
X190061009Y-104095238D02*
X189965771Y-104142857D01*
X189965771Y-104142857D02*
X189918152Y-104238095D01*
X189918152Y-104238095D02*
X189918152Y-104380952D01*
X189918152Y-104380952D02*
X189965771Y-104476190D01*
X189965771Y-104476190D02*
X190013390Y-104523809D01*
X190584819Y-103476190D02*
X190537200Y-103571428D01*
X190537200Y-103571428D02*
X190489580Y-103619047D01*
X190489580Y-103619047D02*
X190394342Y-103666666D01*
X190394342Y-103666666D02*
X190108628Y-103666666D01*
X190108628Y-103666666D02*
X190013390Y-103619047D01*
X190013390Y-103619047D02*
X189965771Y-103571428D01*
X189965771Y-103571428D02*
X189918152Y-103476190D01*
X189918152Y-103476190D02*
X189918152Y-103333333D01*
X189918152Y-103333333D02*
X189965771Y-103238095D01*
X189965771Y-103238095D02*
X190013390Y-103190476D01*
X190013390Y-103190476D02*
X190108628Y-103142857D01*
X190108628Y-103142857D02*
X190394342Y-103142857D01*
X190394342Y-103142857D02*
X190489580Y-103190476D01*
X190489580Y-103190476D02*
X190537200Y-103238095D01*
X190537200Y-103238095D02*
X190584819Y-103333333D01*
X190584819Y-103333333D02*
X190584819Y-103476190D01*
X190584819Y-102571428D02*
X190537200Y-102666666D01*
X190537200Y-102666666D02*
X190441961Y-102714285D01*
X190441961Y-102714285D02*
X189584819Y-102714285D01*
X190584819Y-101761904D02*
X189584819Y-101761904D01*
X190537200Y-101761904D02*
X190584819Y-101857142D01*
X190584819Y-101857142D02*
X190584819Y-102047618D01*
X190584819Y-102047618D02*
X190537200Y-102142856D01*
X190537200Y-102142856D02*
X190489580Y-102190475D01*
X190489580Y-102190475D02*
X190394342Y-102238094D01*
X190394342Y-102238094D02*
X190108628Y-102238094D01*
X190108628Y-102238094D02*
X190013390Y-102190475D01*
X190013390Y-102190475D02*
X189965771Y-102142856D01*
X189965771Y-102142856D02*
X189918152Y-102047618D01*
X189918152Y-102047618D02*
X189918152Y-101857142D01*
X189918152Y-101857142D02*
X189965771Y-101761904D01*
X190584819Y-99999999D02*
X190584819Y-100571427D01*
X190584819Y-100285713D02*
X189584819Y-100285713D01*
X189584819Y-100285713D02*
X189727676Y-100380951D01*
X189727676Y-100380951D02*
X189822914Y-100476189D01*
X189822914Y-100476189D02*
X189870533Y-100571427D01*
X189680057Y-99619046D02*
X189632438Y-99571427D01*
X189632438Y-99571427D02*
X189584819Y-99476189D01*
X189584819Y-99476189D02*
X189584819Y-99238094D01*
X189584819Y-99238094D02*
X189632438Y-99142856D01*
X189632438Y-99142856D02*
X189680057Y-99095237D01*
X189680057Y-99095237D02*
X189775295Y-99047618D01*
X189775295Y-99047618D02*
X189870533Y-99047618D01*
X189870533Y-99047618D02*
X190013390Y-99095237D01*
X190013390Y-99095237D02*
X190584819Y-99666665D01*
X190584819Y-99666665D02*
X190584819Y-99047618D01*
X189584819Y-98428570D02*
X189584819Y-98333332D01*
X189584819Y-98333332D02*
X189632438Y-98238094D01*
X189632438Y-98238094D02*
X189680057Y-98190475D01*
X189680057Y-98190475D02*
X189775295Y-98142856D01*
X189775295Y-98142856D02*
X189965771Y-98095237D01*
X189965771Y-98095237D02*
X190203866Y-98095237D01*
X190203866Y-98095237D02*
X190394342Y-98142856D01*
X190394342Y-98142856D02*
X190489580Y-98190475D01*
X190489580Y-98190475D02*
X190537200Y-98238094D01*
X190537200Y-98238094D02*
X190584819Y-98333332D01*
X190584819Y-98333332D02*
X190584819Y-98428570D01*
X190584819Y-98428570D02*
X190537200Y-98523808D01*
X190537200Y-98523808D02*
X190489580Y-98571427D01*
X190489580Y-98571427D02*
X190394342Y-98619046D01*
X190394342Y-98619046D02*
X190203866Y-98666665D01*
X190203866Y-98666665D02*
X189965771Y-98666665D01*
X189965771Y-98666665D02*
X189775295Y-98619046D01*
X189775295Y-98619046D02*
X189680057Y-98571427D01*
X189680057Y-98571427D02*
X189632438Y-98523808D01*
X189632438Y-98523808D02*
X189584819Y-98428570D01*
X189584819Y-97238094D02*
X189584819Y-97428570D01*
X189584819Y-97428570D02*
X189632438Y-97523808D01*
X189632438Y-97523808D02*
X189680057Y-97571427D01*
X189680057Y-97571427D02*
X189822914Y-97666665D01*
X189822914Y-97666665D02*
X190013390Y-97714284D01*
X190013390Y-97714284D02*
X190394342Y-97714284D01*
X190394342Y-97714284D02*
X190489580Y-97666665D01*
X190489580Y-97666665D02*
X190537200Y-97619046D01*
X190537200Y-97619046D02*
X190584819Y-97523808D01*
X190584819Y-97523808D02*
X190584819Y-97333332D01*
X190584819Y-97333332D02*
X190537200Y-97238094D01*
X190537200Y-97238094D02*
X190489580Y-97190475D01*
X190489580Y-97190475D02*
X190394342Y-97142856D01*
X190394342Y-97142856D02*
X190156247Y-97142856D01*
X190156247Y-97142856D02*
X190061009Y-97190475D01*
X190061009Y-97190475D02*
X190013390Y-97238094D01*
X190013390Y-97238094D02*
X189965771Y-97333332D01*
X189965771Y-97333332D02*
X189965771Y-97523808D01*
X189965771Y-97523808D02*
X190013390Y-97619046D01*
X190013390Y-97619046D02*
X190061009Y-97666665D01*
X190061009Y-97666665D02*
X190156247Y-97714284D01*
D12*
X188244807Y-104266666D02*
X188244807Y-104533332D01*
X188663855Y-104533332D02*
X187863855Y-104533332D01*
X187863855Y-104533332D02*
X187863855Y-104152380D01*
X188663855Y-103428571D02*
X188663855Y-103885714D01*
X188663855Y-103657142D02*
X187863855Y-103657142D01*
X187863855Y-103657142D02*
X187978140Y-103733333D01*
X187978140Y-103733333D02*
X188054331Y-103809523D01*
X188054331Y-103809523D02*
X188092426Y-103885714D01*
D10*
X171738095Y-103073866D02*
X171785714Y-103026247D01*
X171785714Y-103026247D02*
X171880952Y-102978628D01*
X171880952Y-102978628D02*
X172071428Y-103073866D01*
X172071428Y-103073866D02*
X172166666Y-103026247D01*
X172166666Y-103026247D02*
X172214285Y-102978628D01*
X171261905Y-107454819D02*
X171261905Y-106454819D01*
X171261905Y-106454819D02*
X171500000Y-106454819D01*
X171500000Y-106454819D02*
X171642857Y-106502438D01*
X171642857Y-106502438D02*
X171738095Y-106597676D01*
X171738095Y-106597676D02*
X171785714Y-106692914D01*
X171785714Y-106692914D02*
X171833333Y-106883390D01*
X171833333Y-106883390D02*
X171833333Y-107026247D01*
X171833333Y-107026247D02*
X171785714Y-107216723D01*
X171785714Y-107216723D02*
X171738095Y-107311961D01*
X171738095Y-107311961D02*
X171642857Y-107407200D01*
X171642857Y-107407200D02*
X171500000Y-107454819D01*
X171500000Y-107454819D02*
X171261905Y-107454819D01*
X172214286Y-106550057D02*
X172261905Y-106502438D01*
X172261905Y-106502438D02*
X172357143Y-106454819D01*
X172357143Y-106454819D02*
X172595238Y-106454819D01*
X172595238Y-106454819D02*
X172690476Y-106502438D01*
X172690476Y-106502438D02*
X172738095Y-106550057D01*
X172738095Y-106550057D02*
X172785714Y-106645295D01*
X172785714Y-106645295D02*
X172785714Y-106740533D01*
X172785714Y-106740533D02*
X172738095Y-106883390D01*
X172738095Y-106883390D02*
X172166667Y-107454819D01*
X172166667Y-107454819D02*
X172785714Y-107454819D01*
X183454819Y-90247619D02*
X183454819Y-90819047D01*
X183454819Y-90533333D02*
X182454819Y-90533333D01*
X182454819Y-90533333D02*
X182597676Y-90628571D01*
X182597676Y-90628571D02*
X182692914Y-90723809D01*
X182692914Y-90723809D02*
X182740533Y-90819047D01*
X182454819Y-89628571D02*
X182454819Y-89533333D01*
X182454819Y-89533333D02*
X182502438Y-89438095D01*
X182502438Y-89438095D02*
X182550057Y-89390476D01*
X182550057Y-89390476D02*
X182645295Y-89342857D01*
X182645295Y-89342857D02*
X182835771Y-89295238D01*
X182835771Y-89295238D02*
X183073866Y-89295238D01*
X183073866Y-89295238D02*
X183264342Y-89342857D01*
X183264342Y-89342857D02*
X183359580Y-89390476D01*
X183359580Y-89390476D02*
X183407200Y-89438095D01*
X183407200Y-89438095D02*
X183454819Y-89533333D01*
X183454819Y-89533333D02*
X183454819Y-89628571D01*
X183454819Y-89628571D02*
X183407200Y-89723809D01*
X183407200Y-89723809D02*
X183359580Y-89771428D01*
X183359580Y-89771428D02*
X183264342Y-89819047D01*
X183264342Y-89819047D02*
X183073866Y-89866666D01*
X183073866Y-89866666D02*
X182835771Y-89866666D01*
X182835771Y-89866666D02*
X182645295Y-89819047D01*
X182645295Y-89819047D02*
X182550057Y-89771428D01*
X182550057Y-89771428D02*
X182502438Y-89723809D01*
X182502438Y-89723809D02*
X182454819Y-89628571D01*
X182454819Y-88676190D02*
X182454819Y-88580952D01*
X182454819Y-88580952D02*
X182502438Y-88485714D01*
X182502438Y-88485714D02*
X182550057Y-88438095D01*
X182550057Y-88438095D02*
X182645295Y-88390476D01*
X182645295Y-88390476D02*
X182835771Y-88342857D01*
X182835771Y-88342857D02*
X183073866Y-88342857D01*
X183073866Y-88342857D02*
X183264342Y-88390476D01*
X183264342Y-88390476D02*
X183359580Y-88438095D01*
X183359580Y-88438095D02*
X183407200Y-88485714D01*
X183407200Y-88485714D02*
X183454819Y-88580952D01*
X183454819Y-88580952D02*
X183454819Y-88676190D01*
X183454819Y-88676190D02*
X183407200Y-88771428D01*
X183407200Y-88771428D02*
X183359580Y-88819047D01*
X183359580Y-88819047D02*
X183264342Y-88866666D01*
X183264342Y-88866666D02*
X183073866Y-88914285D01*
X183073866Y-88914285D02*
X182835771Y-88914285D01*
X182835771Y-88914285D02*
X182645295Y-88866666D01*
X182645295Y-88866666D02*
X182550057Y-88819047D01*
X182550057Y-88819047D02*
X182502438Y-88771428D01*
X182502438Y-88771428D02*
X182454819Y-88676190D01*
X182788152Y-87914285D02*
X183454819Y-87914285D01*
X182883390Y-87914285D02*
X182835771Y-87866666D01*
X182835771Y-87866666D02*
X182788152Y-87771428D01*
X182788152Y-87771428D02*
X182788152Y-87628571D01*
X182788152Y-87628571D02*
X182835771Y-87533333D01*
X182835771Y-87533333D02*
X182931009Y-87485714D01*
X182931009Y-87485714D02*
X183454819Y-87485714D01*
X182931009Y-86676190D02*
X182931009Y-87009523D01*
X183454819Y-87009523D02*
X182454819Y-87009523D01*
X182454819Y-87009523D02*
X182454819Y-86533333D01*
X179359580Y-89342857D02*
X179407200Y-89390476D01*
X179407200Y-89390476D02*
X179454819Y-89533333D01*
X179454819Y-89533333D02*
X179454819Y-89628571D01*
X179454819Y-89628571D02*
X179407200Y-89771428D01*
X179407200Y-89771428D02*
X179311961Y-89866666D01*
X179311961Y-89866666D02*
X179216723Y-89914285D01*
X179216723Y-89914285D02*
X179026247Y-89961904D01*
X179026247Y-89961904D02*
X178883390Y-89961904D01*
X178883390Y-89961904D02*
X178692914Y-89914285D01*
X178692914Y-89914285D02*
X178597676Y-89866666D01*
X178597676Y-89866666D02*
X178502438Y-89771428D01*
X178502438Y-89771428D02*
X178454819Y-89628571D01*
X178454819Y-89628571D02*
X178454819Y-89533333D01*
X178454819Y-89533333D02*
X178502438Y-89390476D01*
X178502438Y-89390476D02*
X178550057Y-89342857D01*
X179454819Y-88390476D02*
X179454819Y-88961904D01*
X179454819Y-88676190D02*
X178454819Y-88676190D01*
X178454819Y-88676190D02*
X178597676Y-88771428D01*
X178597676Y-88771428D02*
X178692914Y-88866666D01*
X178692914Y-88866666D02*
X178740533Y-88961904D01*
X178883390Y-87819047D02*
X178835771Y-87914285D01*
X178835771Y-87914285D02*
X178788152Y-87961904D01*
X178788152Y-87961904D02*
X178692914Y-88009523D01*
X178692914Y-88009523D02*
X178645295Y-88009523D01*
X178645295Y-88009523D02*
X178550057Y-87961904D01*
X178550057Y-87961904D02*
X178502438Y-87914285D01*
X178502438Y-87914285D02*
X178454819Y-87819047D01*
X178454819Y-87819047D02*
X178454819Y-87628571D01*
X178454819Y-87628571D02*
X178502438Y-87533333D01*
X178502438Y-87533333D02*
X178550057Y-87485714D01*
X178550057Y-87485714D02*
X178645295Y-87438095D01*
X178645295Y-87438095D02*
X178692914Y-87438095D01*
X178692914Y-87438095D02*
X178788152Y-87485714D01*
X178788152Y-87485714D02*
X178835771Y-87533333D01*
X178835771Y-87533333D02*
X178883390Y-87628571D01*
X178883390Y-87628571D02*
X178883390Y-87819047D01*
X178883390Y-87819047D02*
X178931009Y-87914285D01*
X178931009Y-87914285D02*
X178978628Y-87961904D01*
X178978628Y-87961904D02*
X179073866Y-88009523D01*
X179073866Y-88009523D02*
X179264342Y-88009523D01*
X179264342Y-88009523D02*
X179359580Y-87961904D01*
X179359580Y-87961904D02*
X179407200Y-87914285D01*
X179407200Y-87914285D02*
X179454819Y-87819047D01*
X179454819Y-87819047D02*
X179454819Y-87628571D01*
X179454819Y-87628571D02*
X179407200Y-87533333D01*
X179407200Y-87533333D02*
X179359580Y-87485714D01*
X179359580Y-87485714D02*
X179264342Y-87438095D01*
X179264342Y-87438095D02*
X179073866Y-87438095D01*
X179073866Y-87438095D02*
X178978628Y-87485714D01*
X178978628Y-87485714D02*
X178931009Y-87533333D01*
X178931009Y-87533333D02*
X178883390Y-87628571D01*
X172409524Y-92554819D02*
X172409524Y-91554819D01*
X172409524Y-91554819D02*
X172790476Y-91554819D01*
X172790476Y-91554819D02*
X172885714Y-91602438D01*
X172885714Y-91602438D02*
X172933333Y-91650057D01*
X172933333Y-91650057D02*
X172980952Y-91745295D01*
X172980952Y-91745295D02*
X172980952Y-91888152D01*
X172980952Y-91888152D02*
X172933333Y-91983390D01*
X172933333Y-91983390D02*
X172885714Y-92031009D01*
X172885714Y-92031009D02*
X172790476Y-92078628D01*
X172790476Y-92078628D02*
X172409524Y-92078628D01*
X173409524Y-92554819D02*
X173409524Y-91554819D01*
X173409524Y-91554819D02*
X173742857Y-92269104D01*
X173742857Y-92269104D02*
X174076190Y-91554819D01*
X174076190Y-91554819D02*
X174076190Y-92554819D01*
X174552381Y-92031009D02*
X174885714Y-92031009D01*
X175028571Y-92554819D02*
X174552381Y-92554819D01*
X174552381Y-92554819D02*
X174552381Y-91554819D01*
X174552381Y-91554819D02*
X175028571Y-91554819D01*
X175980952Y-91602438D02*
X175885714Y-91554819D01*
X175885714Y-91554819D02*
X175742857Y-91554819D01*
X175742857Y-91554819D02*
X175600000Y-91602438D01*
X175600000Y-91602438D02*
X175504762Y-91697676D01*
X175504762Y-91697676D02*
X175457143Y-91792914D01*
X175457143Y-91792914D02*
X175409524Y-91983390D01*
X175409524Y-91983390D02*
X175409524Y-92126247D01*
X175409524Y-92126247D02*
X175457143Y-92316723D01*
X175457143Y-92316723D02*
X175504762Y-92411961D01*
X175504762Y-92411961D02*
X175600000Y-92507200D01*
X175600000Y-92507200D02*
X175742857Y-92554819D01*
X175742857Y-92554819D02*
X175838095Y-92554819D01*
X175838095Y-92554819D02*
X175980952Y-92507200D01*
X175980952Y-92507200D02*
X176028571Y-92459580D01*
X176028571Y-92459580D02*
X176028571Y-92126247D01*
X176028571Y-92126247D02*
X175838095Y-92126247D01*
X176409524Y-91650057D02*
X176457143Y-91602438D01*
X176457143Y-91602438D02*
X176552381Y-91554819D01*
X176552381Y-91554819D02*
X176790476Y-91554819D01*
X176790476Y-91554819D02*
X176885714Y-91602438D01*
X176885714Y-91602438D02*
X176933333Y-91650057D01*
X176933333Y-91650057D02*
X176980952Y-91745295D01*
X176980952Y-91745295D02*
X176980952Y-91840533D01*
X176980952Y-91840533D02*
X176933333Y-91983390D01*
X176933333Y-91983390D02*
X176361905Y-92554819D01*
X176361905Y-92554819D02*
X176980952Y-92554819D01*
X177600000Y-91554819D02*
X177695238Y-91554819D01*
X177695238Y-91554819D02*
X177790476Y-91602438D01*
X177790476Y-91602438D02*
X177838095Y-91650057D01*
X177838095Y-91650057D02*
X177885714Y-91745295D01*
X177885714Y-91745295D02*
X177933333Y-91935771D01*
X177933333Y-91935771D02*
X177933333Y-92173866D01*
X177933333Y-92173866D02*
X177885714Y-92364342D01*
X177885714Y-92364342D02*
X177838095Y-92459580D01*
X177838095Y-92459580D02*
X177790476Y-92507200D01*
X177790476Y-92507200D02*
X177695238Y-92554819D01*
X177695238Y-92554819D02*
X177600000Y-92554819D01*
X177600000Y-92554819D02*
X177504762Y-92507200D01*
X177504762Y-92507200D02*
X177457143Y-92459580D01*
X177457143Y-92459580D02*
X177409524Y-92364342D01*
X177409524Y-92364342D02*
X177361905Y-92173866D01*
X177361905Y-92173866D02*
X177361905Y-91935771D01*
X177361905Y-91935771D02*
X177409524Y-91745295D01*
X177409524Y-91745295D02*
X177457143Y-91650057D01*
X177457143Y-91650057D02*
X177504762Y-91602438D01*
X177504762Y-91602438D02*
X177600000Y-91554819D01*
X178552381Y-91554819D02*
X178647619Y-91554819D01*
X178647619Y-91554819D02*
X178742857Y-91602438D01*
X178742857Y-91602438D02*
X178790476Y-91650057D01*
X178790476Y-91650057D02*
X178838095Y-91745295D01*
X178838095Y-91745295D02*
X178885714Y-91935771D01*
X178885714Y-91935771D02*
X178885714Y-92173866D01*
X178885714Y-92173866D02*
X178838095Y-92364342D01*
X178838095Y-92364342D02*
X178790476Y-92459580D01*
X178790476Y-92459580D02*
X178742857Y-92507200D01*
X178742857Y-92507200D02*
X178647619Y-92554819D01*
X178647619Y-92554819D02*
X178552381Y-92554819D01*
X178552381Y-92554819D02*
X178457143Y-92507200D01*
X178457143Y-92507200D02*
X178409524Y-92459580D01*
X178409524Y-92459580D02*
X178361905Y-92364342D01*
X178361905Y-92364342D02*
X178314286Y-92173866D01*
X178314286Y-92173866D02*
X178314286Y-91935771D01*
X178314286Y-91935771D02*
X178361905Y-91745295D01*
X178361905Y-91745295D02*
X178409524Y-91650057D01*
X178409524Y-91650057D02*
X178457143Y-91602438D01*
X178457143Y-91602438D02*
X178552381Y-91554819D01*
X179790476Y-91554819D02*
X179314286Y-91554819D01*
X179314286Y-91554819D02*
X179266667Y-92031009D01*
X179266667Y-92031009D02*
X179314286Y-91983390D01*
X179314286Y-91983390D02*
X179409524Y-91935771D01*
X179409524Y-91935771D02*
X179647619Y-91935771D01*
X179647619Y-91935771D02*
X179742857Y-91983390D01*
X179742857Y-91983390D02*
X179790476Y-92031009D01*
X179790476Y-92031009D02*
X179838095Y-92126247D01*
X179838095Y-92126247D02*
X179838095Y-92364342D01*
X179838095Y-92364342D02*
X179790476Y-92459580D01*
X179790476Y-92459580D02*
X179742857Y-92507200D01*
X179742857Y-92507200D02*
X179647619Y-92554819D01*
X179647619Y-92554819D02*
X179409524Y-92554819D01*
X179409524Y-92554819D02*
X179314286Y-92507200D01*
X179314286Y-92507200D02*
X179266667Y-92459580D01*
X175361905Y-88454819D02*
X175361905Y-87454819D01*
X175361905Y-87454819D02*
X175600000Y-87454819D01*
X175600000Y-87454819D02*
X175742857Y-87502438D01*
X175742857Y-87502438D02*
X175838095Y-87597676D01*
X175838095Y-87597676D02*
X175885714Y-87692914D01*
X175885714Y-87692914D02*
X175933333Y-87883390D01*
X175933333Y-87883390D02*
X175933333Y-88026247D01*
X175933333Y-88026247D02*
X175885714Y-88216723D01*
X175885714Y-88216723D02*
X175838095Y-88311961D01*
X175838095Y-88311961D02*
X175742857Y-88407200D01*
X175742857Y-88407200D02*
X175600000Y-88454819D01*
X175600000Y-88454819D02*
X175361905Y-88454819D01*
X176790476Y-87454819D02*
X176600000Y-87454819D01*
X176600000Y-87454819D02*
X176504762Y-87502438D01*
X176504762Y-87502438D02*
X176457143Y-87550057D01*
X176457143Y-87550057D02*
X176361905Y-87692914D01*
X176361905Y-87692914D02*
X176314286Y-87883390D01*
X176314286Y-87883390D02*
X176314286Y-88264342D01*
X176314286Y-88264342D02*
X176361905Y-88359580D01*
X176361905Y-88359580D02*
X176409524Y-88407200D01*
X176409524Y-88407200D02*
X176504762Y-88454819D01*
X176504762Y-88454819D02*
X176695238Y-88454819D01*
X176695238Y-88454819D02*
X176790476Y-88407200D01*
X176790476Y-88407200D02*
X176838095Y-88359580D01*
X176838095Y-88359580D02*
X176885714Y-88264342D01*
X176885714Y-88264342D02*
X176885714Y-88026247D01*
X176885714Y-88026247D02*
X176838095Y-87931009D01*
X176838095Y-87931009D02*
X176790476Y-87883390D01*
X176790476Y-87883390D02*
X176695238Y-87835771D01*
X176695238Y-87835771D02*
X176504762Y-87835771D01*
X176504762Y-87835771D02*
X176409524Y-87883390D01*
X176409524Y-87883390D02*
X176361905Y-87931009D01*
X176361905Y-87931009D02*
X176314286Y-88026247D01*
X151493761Y-113345819D02*
X150922333Y-113345819D01*
X151208047Y-113345819D02*
X151208047Y-112345819D01*
X151208047Y-112345819D02*
X151112809Y-112488676D01*
X151112809Y-112488676D02*
X151017571Y-112583914D01*
X151017571Y-112583914D02*
X150922333Y-112631533D01*
X152112809Y-112345819D02*
X152208047Y-112345819D01*
X152208047Y-112345819D02*
X152303285Y-112393438D01*
X152303285Y-112393438D02*
X152350904Y-112441057D01*
X152350904Y-112441057D02*
X152398523Y-112536295D01*
X152398523Y-112536295D02*
X152446142Y-112726771D01*
X152446142Y-112726771D02*
X152446142Y-112964866D01*
X152446142Y-112964866D02*
X152398523Y-113155342D01*
X152398523Y-113155342D02*
X152350904Y-113250580D01*
X152350904Y-113250580D02*
X152303285Y-113298200D01*
X152303285Y-113298200D02*
X152208047Y-113345819D01*
X152208047Y-113345819D02*
X152112809Y-113345819D01*
X152112809Y-113345819D02*
X152017571Y-113298200D01*
X152017571Y-113298200D02*
X151969952Y-113250580D01*
X151969952Y-113250580D02*
X151922333Y-113155342D01*
X151922333Y-113155342D02*
X151874714Y-112964866D01*
X151874714Y-112964866D02*
X151874714Y-112726771D01*
X151874714Y-112726771D02*
X151922333Y-112536295D01*
X151922333Y-112536295D02*
X151969952Y-112441057D01*
X151969952Y-112441057D02*
X152017571Y-112393438D01*
X152017571Y-112393438D02*
X152112809Y-112345819D01*
X152874714Y-113345819D02*
X152874714Y-112345819D01*
X152969952Y-112964866D02*
X153255666Y-113345819D01*
X153255666Y-112679152D02*
X152874714Y-113060104D01*
X151922333Y-109345819D02*
X151589000Y-108869628D01*
X151350905Y-109345819D02*
X151350905Y-108345819D01*
X151350905Y-108345819D02*
X151731857Y-108345819D01*
X151731857Y-108345819D02*
X151827095Y-108393438D01*
X151827095Y-108393438D02*
X151874714Y-108441057D01*
X151874714Y-108441057D02*
X151922333Y-108536295D01*
X151922333Y-108536295D02*
X151922333Y-108679152D01*
X151922333Y-108679152D02*
X151874714Y-108774390D01*
X151874714Y-108774390D02*
X151827095Y-108822009D01*
X151827095Y-108822009D02*
X151731857Y-108869628D01*
X151731857Y-108869628D02*
X151350905Y-108869628D01*
X152303286Y-108441057D02*
X152350905Y-108393438D01*
X152350905Y-108393438D02*
X152446143Y-108345819D01*
X152446143Y-108345819D02*
X152684238Y-108345819D01*
X152684238Y-108345819D02*
X152779476Y-108393438D01*
X152779476Y-108393438D02*
X152827095Y-108441057D01*
X152827095Y-108441057D02*
X152874714Y-108536295D01*
X152874714Y-108536295D02*
X152874714Y-108631533D01*
X152874714Y-108631533D02*
X152827095Y-108774390D01*
X152827095Y-108774390D02*
X152255667Y-109345819D01*
X152255667Y-109345819D02*
X152874714Y-109345819D01*
X170095238Y-99550057D02*
X170142857Y-99502438D01*
X170142857Y-99502438D02*
X170238095Y-99454819D01*
X170238095Y-99454819D02*
X170476190Y-99454819D01*
X170476190Y-99454819D02*
X170571428Y-99502438D01*
X170571428Y-99502438D02*
X170619047Y-99550057D01*
X170619047Y-99550057D02*
X170666666Y-99645295D01*
X170666666Y-99645295D02*
X170666666Y-99740533D01*
X170666666Y-99740533D02*
X170619047Y-99883390D01*
X170619047Y-99883390D02*
X170047619Y-100454819D01*
X170047619Y-100454819D02*
X170666666Y-100454819D01*
X171047619Y-99550057D02*
X171095238Y-99502438D01*
X171095238Y-99502438D02*
X171190476Y-99454819D01*
X171190476Y-99454819D02*
X171428571Y-99454819D01*
X171428571Y-99454819D02*
X171523809Y-99502438D01*
X171523809Y-99502438D02*
X171571428Y-99550057D01*
X171571428Y-99550057D02*
X171619047Y-99645295D01*
X171619047Y-99645295D02*
X171619047Y-99740533D01*
X171619047Y-99740533D02*
X171571428Y-99883390D01*
X171571428Y-99883390D02*
X171000000Y-100454819D01*
X171000000Y-100454819D02*
X171619047Y-100454819D01*
X172476190Y-99788152D02*
X172476190Y-100454819D01*
X172047619Y-99788152D02*
X172047619Y-100311961D01*
X172047619Y-100311961D02*
X172095238Y-100407200D01*
X172095238Y-100407200D02*
X172190476Y-100454819D01*
X172190476Y-100454819D02*
X172333333Y-100454819D01*
X172333333Y-100454819D02*
X172428571Y-100407200D01*
X172428571Y-100407200D02*
X172476190Y-100359580D01*
X173285714Y-99931009D02*
X172952381Y-99931009D01*
X172952381Y-100454819D02*
X172952381Y-99454819D01*
X172952381Y-99454819D02*
X173428571Y-99454819D01*
X174523810Y-99550057D02*
X174571429Y-99502438D01*
X174571429Y-99502438D02*
X174666667Y-99454819D01*
X174666667Y-99454819D02*
X174904762Y-99454819D01*
X174904762Y-99454819D02*
X175000000Y-99502438D01*
X175000000Y-99502438D02*
X175047619Y-99550057D01*
X175047619Y-99550057D02*
X175095238Y-99645295D01*
X175095238Y-99645295D02*
X175095238Y-99740533D01*
X175095238Y-99740533D02*
X175047619Y-99883390D01*
X175047619Y-99883390D02*
X174476191Y-100454819D01*
X174476191Y-100454819D02*
X175095238Y-100454819D01*
X176000000Y-99454819D02*
X175523810Y-99454819D01*
X175523810Y-99454819D02*
X175476191Y-99931009D01*
X175476191Y-99931009D02*
X175523810Y-99883390D01*
X175523810Y-99883390D02*
X175619048Y-99835771D01*
X175619048Y-99835771D02*
X175857143Y-99835771D01*
X175857143Y-99835771D02*
X175952381Y-99883390D01*
X175952381Y-99883390D02*
X176000000Y-99931009D01*
X176000000Y-99931009D02*
X176047619Y-100026247D01*
X176047619Y-100026247D02*
X176047619Y-100264342D01*
X176047619Y-100264342D02*
X176000000Y-100359580D01*
X176000000Y-100359580D02*
X175952381Y-100407200D01*
X175952381Y-100407200D02*
X175857143Y-100454819D01*
X175857143Y-100454819D02*
X175619048Y-100454819D01*
X175619048Y-100454819D02*
X175523810Y-100407200D01*
X175523810Y-100407200D02*
X175476191Y-100359580D01*
X176333334Y-99454819D02*
X176666667Y-100454819D01*
X176666667Y-100454819D02*
X177000000Y-99454819D01*
X172857142Y-96359580D02*
X172809523Y-96407200D01*
X172809523Y-96407200D02*
X172666666Y-96454819D01*
X172666666Y-96454819D02*
X172571428Y-96454819D01*
X172571428Y-96454819D02*
X172428571Y-96407200D01*
X172428571Y-96407200D02*
X172333333Y-96311961D01*
X172333333Y-96311961D02*
X172285714Y-96216723D01*
X172285714Y-96216723D02*
X172238095Y-96026247D01*
X172238095Y-96026247D02*
X172238095Y-95883390D01*
X172238095Y-95883390D02*
X172285714Y-95692914D01*
X172285714Y-95692914D02*
X172333333Y-95597676D01*
X172333333Y-95597676D02*
X172428571Y-95502438D01*
X172428571Y-95502438D02*
X172571428Y-95454819D01*
X172571428Y-95454819D02*
X172666666Y-95454819D01*
X172666666Y-95454819D02*
X172809523Y-95502438D01*
X172809523Y-95502438D02*
X172857142Y-95550057D01*
X173809523Y-96454819D02*
X173238095Y-96454819D01*
X173523809Y-96454819D02*
X173523809Y-95454819D01*
X173523809Y-95454819D02*
X173428571Y-95597676D01*
X173428571Y-95597676D02*
X173333333Y-95692914D01*
X173333333Y-95692914D02*
X173238095Y-95740533D01*
X174142857Y-95454819D02*
X174809523Y-95454819D01*
X174809523Y-95454819D02*
X174380952Y-96454819D01*
X179290475Y-91354819D02*
X178719047Y-91354819D01*
X179004761Y-91354819D02*
X179004761Y-90354819D01*
X179004761Y-90354819D02*
X178909523Y-90497676D01*
X178909523Y-90497676D02*
X178814285Y-90592914D01*
X178814285Y-90592914D02*
X178719047Y-90640533D01*
X179909523Y-90354819D02*
X180004761Y-90354819D01*
X180004761Y-90354819D02*
X180099999Y-90402438D01*
X180099999Y-90402438D02*
X180147618Y-90450057D01*
X180147618Y-90450057D02*
X180195237Y-90545295D01*
X180195237Y-90545295D02*
X180242856Y-90735771D01*
X180242856Y-90735771D02*
X180242856Y-90973866D01*
X180242856Y-90973866D02*
X180195237Y-91164342D01*
X180195237Y-91164342D02*
X180147618Y-91259580D01*
X180147618Y-91259580D02*
X180099999Y-91307200D01*
X180099999Y-91307200D02*
X180004761Y-91354819D01*
X180004761Y-91354819D02*
X179909523Y-91354819D01*
X179909523Y-91354819D02*
X179814285Y-91307200D01*
X179814285Y-91307200D02*
X179766666Y-91259580D01*
X179766666Y-91259580D02*
X179719047Y-91164342D01*
X179719047Y-91164342D02*
X179671428Y-90973866D01*
X179671428Y-90973866D02*
X179671428Y-90735771D01*
X179671428Y-90735771D02*
X179719047Y-90545295D01*
X179719047Y-90545295D02*
X179766666Y-90450057D01*
X179766666Y-90450057D02*
X179814285Y-90402438D01*
X179814285Y-90402438D02*
X179909523Y-90354819D01*
X180861904Y-90354819D02*
X180957142Y-90354819D01*
X180957142Y-90354819D02*
X181052380Y-90402438D01*
X181052380Y-90402438D02*
X181099999Y-90450057D01*
X181099999Y-90450057D02*
X181147618Y-90545295D01*
X181147618Y-90545295D02*
X181195237Y-90735771D01*
X181195237Y-90735771D02*
X181195237Y-90973866D01*
X181195237Y-90973866D02*
X181147618Y-91164342D01*
X181147618Y-91164342D02*
X181099999Y-91259580D01*
X181099999Y-91259580D02*
X181052380Y-91307200D01*
X181052380Y-91307200D02*
X180957142Y-91354819D01*
X180957142Y-91354819D02*
X180861904Y-91354819D01*
X180861904Y-91354819D02*
X180766666Y-91307200D01*
X180766666Y-91307200D02*
X180719047Y-91259580D01*
X180719047Y-91259580D02*
X180671428Y-91164342D01*
X180671428Y-91164342D02*
X180623809Y-90973866D01*
X180623809Y-90973866D02*
X180623809Y-90735771D01*
X180623809Y-90735771D02*
X180671428Y-90545295D01*
X180671428Y-90545295D02*
X180719047Y-90450057D01*
X180719047Y-90450057D02*
X180766666Y-90402438D01*
X180766666Y-90402438D02*
X180861904Y-90354819D01*
X181623809Y-90688152D02*
X181623809Y-91354819D01*
X181623809Y-90783390D02*
X181671428Y-90735771D01*
X181671428Y-90735771D02*
X181766666Y-90688152D01*
X181766666Y-90688152D02*
X181909523Y-90688152D01*
X181909523Y-90688152D02*
X182004761Y-90735771D01*
X182004761Y-90735771D02*
X182052380Y-90831009D01*
X182052380Y-90831009D02*
X182052380Y-91354819D01*
X182861904Y-90831009D02*
X182528571Y-90831009D01*
X182528571Y-91354819D02*
X182528571Y-90354819D01*
X182528571Y-90354819D02*
X183004761Y-90354819D01*
X184100000Y-90450057D02*
X184147619Y-90402438D01*
X184147619Y-90402438D02*
X184242857Y-90354819D01*
X184242857Y-90354819D02*
X184480952Y-90354819D01*
X184480952Y-90354819D02*
X184576190Y-90402438D01*
X184576190Y-90402438D02*
X184623809Y-90450057D01*
X184623809Y-90450057D02*
X184671428Y-90545295D01*
X184671428Y-90545295D02*
X184671428Y-90640533D01*
X184671428Y-90640533D02*
X184623809Y-90783390D01*
X184623809Y-90783390D02*
X184052381Y-91354819D01*
X184052381Y-91354819D02*
X184671428Y-91354819D01*
X185576190Y-90354819D02*
X185100000Y-90354819D01*
X185100000Y-90354819D02*
X185052381Y-90831009D01*
X185052381Y-90831009D02*
X185100000Y-90783390D01*
X185100000Y-90783390D02*
X185195238Y-90735771D01*
X185195238Y-90735771D02*
X185433333Y-90735771D01*
X185433333Y-90735771D02*
X185528571Y-90783390D01*
X185528571Y-90783390D02*
X185576190Y-90831009D01*
X185576190Y-90831009D02*
X185623809Y-90926247D01*
X185623809Y-90926247D02*
X185623809Y-91164342D01*
X185623809Y-91164342D02*
X185576190Y-91259580D01*
X185576190Y-91259580D02*
X185528571Y-91307200D01*
X185528571Y-91307200D02*
X185433333Y-91354819D01*
X185433333Y-91354819D02*
X185195238Y-91354819D01*
X185195238Y-91354819D02*
X185100000Y-91307200D01*
X185100000Y-91307200D02*
X185052381Y-91259580D01*
X185909524Y-90354819D02*
X186242857Y-91354819D01*
X186242857Y-91354819D02*
X186576190Y-90354819D01*
X182433333Y-87259580D02*
X182385714Y-87307200D01*
X182385714Y-87307200D02*
X182242857Y-87354819D01*
X182242857Y-87354819D02*
X182147619Y-87354819D01*
X182147619Y-87354819D02*
X182004762Y-87307200D01*
X182004762Y-87307200D02*
X181909524Y-87211961D01*
X181909524Y-87211961D02*
X181861905Y-87116723D01*
X181861905Y-87116723D02*
X181814286Y-86926247D01*
X181814286Y-86926247D02*
X181814286Y-86783390D01*
X181814286Y-86783390D02*
X181861905Y-86592914D01*
X181861905Y-86592914D02*
X181909524Y-86497676D01*
X181909524Y-86497676D02*
X182004762Y-86402438D01*
X182004762Y-86402438D02*
X182147619Y-86354819D01*
X182147619Y-86354819D02*
X182242857Y-86354819D01*
X182242857Y-86354819D02*
X182385714Y-86402438D01*
X182385714Y-86402438D02*
X182433333Y-86450057D01*
X182766667Y-86354819D02*
X183385714Y-86354819D01*
X183385714Y-86354819D02*
X183052381Y-86735771D01*
X183052381Y-86735771D02*
X183195238Y-86735771D01*
X183195238Y-86735771D02*
X183290476Y-86783390D01*
X183290476Y-86783390D02*
X183338095Y-86831009D01*
X183338095Y-86831009D02*
X183385714Y-86926247D01*
X183385714Y-86926247D02*
X183385714Y-87164342D01*
X183385714Y-87164342D02*
X183338095Y-87259580D01*
X183338095Y-87259580D02*
X183290476Y-87307200D01*
X183290476Y-87307200D02*
X183195238Y-87354819D01*
X183195238Y-87354819D02*
X182909524Y-87354819D01*
X182909524Y-87354819D02*
X182814286Y-87307200D01*
X182814286Y-87307200D02*
X182766667Y-87259580D01*
X180133333Y-96388152D02*
X180133333Y-97054819D01*
X179895238Y-96007200D02*
X179657143Y-96721485D01*
X179657143Y-96721485D02*
X180276190Y-96721485D01*
X180561905Y-96054819D02*
X181228571Y-96054819D01*
X181228571Y-96054819D02*
X180800000Y-97054819D01*
X181609524Y-96388152D02*
X181609524Y-97388152D01*
X181609524Y-96435771D02*
X181704762Y-96388152D01*
X181704762Y-96388152D02*
X181895238Y-96388152D01*
X181895238Y-96388152D02*
X181990476Y-96435771D01*
X181990476Y-96435771D02*
X182038095Y-96483390D01*
X182038095Y-96483390D02*
X182085714Y-96578628D01*
X182085714Y-96578628D02*
X182085714Y-96864342D01*
X182085714Y-96864342D02*
X182038095Y-96959580D01*
X182038095Y-96959580D02*
X181990476Y-97007200D01*
X181990476Y-97007200D02*
X181895238Y-97054819D01*
X181895238Y-97054819D02*
X181704762Y-97054819D01*
X181704762Y-97054819D02*
X181609524Y-97007200D01*
X182847619Y-96531009D02*
X182514286Y-96531009D01*
X182514286Y-97054819D02*
X182514286Y-96054819D01*
X182514286Y-96054819D02*
X182990476Y-96054819D01*
X180657142Y-92959580D02*
X180609523Y-93007200D01*
X180609523Y-93007200D02*
X180466666Y-93054819D01*
X180466666Y-93054819D02*
X180371428Y-93054819D01*
X180371428Y-93054819D02*
X180228571Y-93007200D01*
X180228571Y-93007200D02*
X180133333Y-92911961D01*
X180133333Y-92911961D02*
X180085714Y-92816723D01*
X180085714Y-92816723D02*
X180038095Y-92626247D01*
X180038095Y-92626247D02*
X180038095Y-92483390D01*
X180038095Y-92483390D02*
X180085714Y-92292914D01*
X180085714Y-92292914D02*
X180133333Y-92197676D01*
X180133333Y-92197676D02*
X180228571Y-92102438D01*
X180228571Y-92102438D02*
X180371428Y-92054819D01*
X180371428Y-92054819D02*
X180466666Y-92054819D01*
X180466666Y-92054819D02*
X180609523Y-92102438D01*
X180609523Y-92102438D02*
X180657142Y-92150057D01*
X181609523Y-93054819D02*
X181038095Y-93054819D01*
X181323809Y-93054819D02*
X181323809Y-92054819D01*
X181323809Y-92054819D02*
X181228571Y-92197676D01*
X181228571Y-92197676D02*
X181133333Y-92292914D01*
X181133333Y-92292914D02*
X181038095Y-92340533D01*
X182085714Y-93054819D02*
X182276190Y-93054819D01*
X182276190Y-93054819D02*
X182371428Y-93007200D01*
X182371428Y-93007200D02*
X182419047Y-92959580D01*
X182419047Y-92959580D02*
X182514285Y-92816723D01*
X182514285Y-92816723D02*
X182561904Y-92626247D01*
X182561904Y-92626247D02*
X182561904Y-92245295D01*
X182561904Y-92245295D02*
X182514285Y-92150057D01*
X182514285Y-92150057D02*
X182466666Y-92102438D01*
X182466666Y-92102438D02*
X182371428Y-92054819D01*
X182371428Y-92054819D02*
X182180952Y-92054819D01*
X182180952Y-92054819D02*
X182085714Y-92102438D01*
X182085714Y-92102438D02*
X182038095Y-92150057D01*
X182038095Y-92150057D02*
X181990476Y-92245295D01*
X181990476Y-92245295D02*
X181990476Y-92483390D01*
X181990476Y-92483390D02*
X182038095Y-92578628D01*
X182038095Y-92578628D02*
X182085714Y-92626247D01*
X182085714Y-92626247D02*
X182180952Y-92673866D01*
X182180952Y-92673866D02*
X182371428Y-92673866D01*
X182371428Y-92673866D02*
X182466666Y-92626247D01*
X182466666Y-92626247D02*
X182514285Y-92578628D01*
X182514285Y-92578628D02*
X182561904Y-92483390D01*
X162754819Y-94114838D02*
X162754819Y-94686266D01*
X162754819Y-94400552D02*
X161754819Y-94400552D01*
X161754819Y-94400552D02*
X161897676Y-94495790D01*
X161897676Y-94495790D02*
X161992914Y-94591028D01*
X161992914Y-94591028D02*
X162040533Y-94686266D01*
X161754819Y-93495790D02*
X161754819Y-93400552D01*
X161754819Y-93400552D02*
X161802438Y-93305314D01*
X161802438Y-93305314D02*
X161850057Y-93257695D01*
X161850057Y-93257695D02*
X161945295Y-93210076D01*
X161945295Y-93210076D02*
X162135771Y-93162457D01*
X162135771Y-93162457D02*
X162373866Y-93162457D01*
X162373866Y-93162457D02*
X162564342Y-93210076D01*
X162564342Y-93210076D02*
X162659580Y-93257695D01*
X162659580Y-93257695D02*
X162707200Y-93305314D01*
X162707200Y-93305314D02*
X162754819Y-93400552D01*
X162754819Y-93400552D02*
X162754819Y-93495790D01*
X162754819Y-93495790D02*
X162707200Y-93591028D01*
X162707200Y-93591028D02*
X162659580Y-93638647D01*
X162659580Y-93638647D02*
X162564342Y-93686266D01*
X162564342Y-93686266D02*
X162373866Y-93733885D01*
X162373866Y-93733885D02*
X162135771Y-93733885D01*
X162135771Y-93733885D02*
X161945295Y-93686266D01*
X161945295Y-93686266D02*
X161850057Y-93638647D01*
X161850057Y-93638647D02*
X161802438Y-93591028D01*
X161802438Y-93591028D02*
X161754819Y-93495790D01*
X162754819Y-92733885D02*
X161754819Y-92733885D01*
X162373866Y-92638647D02*
X162754819Y-92352933D01*
X162088152Y-92352933D02*
X162469104Y-92733885D01*
X158754819Y-93686266D02*
X158278628Y-94019599D01*
X158754819Y-94257694D02*
X157754819Y-94257694D01*
X157754819Y-94257694D02*
X157754819Y-93876742D01*
X157754819Y-93876742D02*
X157802438Y-93781504D01*
X157802438Y-93781504D02*
X157850057Y-93733885D01*
X157850057Y-93733885D02*
X157945295Y-93686266D01*
X157945295Y-93686266D02*
X158088152Y-93686266D01*
X158088152Y-93686266D02*
X158183390Y-93733885D01*
X158183390Y-93733885D02*
X158231009Y-93781504D01*
X158231009Y-93781504D02*
X158278628Y-93876742D01*
X158278628Y-93876742D02*
X158278628Y-94257694D01*
X157754819Y-93352932D02*
X157754819Y-92733885D01*
X157754819Y-92733885D02*
X158135771Y-93067218D01*
X158135771Y-93067218D02*
X158135771Y-92924361D01*
X158135771Y-92924361D02*
X158183390Y-92829123D01*
X158183390Y-92829123D02*
X158231009Y-92781504D01*
X158231009Y-92781504D02*
X158326247Y-92733885D01*
X158326247Y-92733885D02*
X158564342Y-92733885D01*
X158564342Y-92733885D02*
X158659580Y-92781504D01*
X158659580Y-92781504D02*
X158707200Y-92829123D01*
X158707200Y-92829123D02*
X158754819Y-92924361D01*
X158754819Y-92924361D02*
X158754819Y-93210075D01*
X158754819Y-93210075D02*
X158707200Y-93305313D01*
X158707200Y-93305313D02*
X158659580Y-93352932D01*
X166966666Y-97854819D02*
X166395238Y-97854819D01*
X166680952Y-97854819D02*
X166680952Y-96854819D01*
X166680952Y-96854819D02*
X166585714Y-96997676D01*
X166585714Y-96997676D02*
X166490476Y-97092914D01*
X166490476Y-97092914D02*
X166395238Y-97140533D01*
X167585714Y-96854819D02*
X167680952Y-96854819D01*
X167680952Y-96854819D02*
X167776190Y-96902438D01*
X167776190Y-96902438D02*
X167823809Y-96950057D01*
X167823809Y-96950057D02*
X167871428Y-97045295D01*
X167871428Y-97045295D02*
X167919047Y-97235771D01*
X167919047Y-97235771D02*
X167919047Y-97473866D01*
X167919047Y-97473866D02*
X167871428Y-97664342D01*
X167871428Y-97664342D02*
X167823809Y-97759580D01*
X167823809Y-97759580D02*
X167776190Y-97807200D01*
X167776190Y-97807200D02*
X167680952Y-97854819D01*
X167680952Y-97854819D02*
X167585714Y-97854819D01*
X167585714Y-97854819D02*
X167490476Y-97807200D01*
X167490476Y-97807200D02*
X167442857Y-97759580D01*
X167442857Y-97759580D02*
X167395238Y-97664342D01*
X167395238Y-97664342D02*
X167347619Y-97473866D01*
X167347619Y-97473866D02*
X167347619Y-97235771D01*
X167347619Y-97235771D02*
X167395238Y-97045295D01*
X167395238Y-97045295D02*
X167442857Y-96950057D01*
X167442857Y-96950057D02*
X167490476Y-96902438D01*
X167490476Y-96902438D02*
X167585714Y-96854819D01*
X168776190Y-97188152D02*
X168776190Y-97854819D01*
X168347619Y-97188152D02*
X168347619Y-97711961D01*
X168347619Y-97711961D02*
X168395238Y-97807200D01*
X168395238Y-97807200D02*
X168490476Y-97854819D01*
X168490476Y-97854819D02*
X168633333Y-97854819D01*
X168633333Y-97854819D02*
X168728571Y-97807200D01*
X168728571Y-97807200D02*
X168776190Y-97759580D01*
X169585714Y-97331009D02*
X169252381Y-97331009D01*
X169252381Y-97854819D02*
X169252381Y-96854819D01*
X169252381Y-96854819D02*
X169728571Y-96854819D01*
X170823810Y-96950057D02*
X170871429Y-96902438D01*
X170871429Y-96902438D02*
X170966667Y-96854819D01*
X170966667Y-96854819D02*
X171204762Y-96854819D01*
X171204762Y-96854819D02*
X171300000Y-96902438D01*
X171300000Y-96902438D02*
X171347619Y-96950057D01*
X171347619Y-96950057D02*
X171395238Y-97045295D01*
X171395238Y-97045295D02*
X171395238Y-97140533D01*
X171395238Y-97140533D02*
X171347619Y-97283390D01*
X171347619Y-97283390D02*
X170776191Y-97854819D01*
X170776191Y-97854819D02*
X171395238Y-97854819D01*
X172300000Y-96854819D02*
X171823810Y-96854819D01*
X171823810Y-96854819D02*
X171776191Y-97331009D01*
X171776191Y-97331009D02*
X171823810Y-97283390D01*
X171823810Y-97283390D02*
X171919048Y-97235771D01*
X171919048Y-97235771D02*
X172157143Y-97235771D01*
X172157143Y-97235771D02*
X172252381Y-97283390D01*
X172252381Y-97283390D02*
X172300000Y-97331009D01*
X172300000Y-97331009D02*
X172347619Y-97426247D01*
X172347619Y-97426247D02*
X172347619Y-97664342D01*
X172347619Y-97664342D02*
X172300000Y-97759580D01*
X172300000Y-97759580D02*
X172252381Y-97807200D01*
X172252381Y-97807200D02*
X172157143Y-97854819D01*
X172157143Y-97854819D02*
X171919048Y-97854819D01*
X171919048Y-97854819D02*
X171823810Y-97807200D01*
X171823810Y-97807200D02*
X171776191Y-97759580D01*
X172633334Y-96854819D02*
X172966667Y-97854819D01*
X172966667Y-97854819D02*
X173300000Y-96854819D01*
X169157142Y-93759580D02*
X169109523Y-93807200D01*
X169109523Y-93807200D02*
X168966666Y-93854819D01*
X168966666Y-93854819D02*
X168871428Y-93854819D01*
X168871428Y-93854819D02*
X168728571Y-93807200D01*
X168728571Y-93807200D02*
X168633333Y-93711961D01*
X168633333Y-93711961D02*
X168585714Y-93616723D01*
X168585714Y-93616723D02*
X168538095Y-93426247D01*
X168538095Y-93426247D02*
X168538095Y-93283390D01*
X168538095Y-93283390D02*
X168585714Y-93092914D01*
X168585714Y-93092914D02*
X168633333Y-92997676D01*
X168633333Y-92997676D02*
X168728571Y-92902438D01*
X168728571Y-92902438D02*
X168871428Y-92854819D01*
X168871428Y-92854819D02*
X168966666Y-92854819D01*
X168966666Y-92854819D02*
X169109523Y-92902438D01*
X169109523Y-92902438D02*
X169157142Y-92950057D01*
X169538095Y-92950057D02*
X169585714Y-92902438D01*
X169585714Y-92902438D02*
X169680952Y-92854819D01*
X169680952Y-92854819D02*
X169919047Y-92854819D01*
X169919047Y-92854819D02*
X170014285Y-92902438D01*
X170014285Y-92902438D02*
X170061904Y-92950057D01*
X170061904Y-92950057D02*
X170109523Y-93045295D01*
X170109523Y-93045295D02*
X170109523Y-93140533D01*
X170109523Y-93140533D02*
X170061904Y-93283390D01*
X170061904Y-93283390D02*
X169490476Y-93854819D01*
X169490476Y-93854819D02*
X170109523Y-93854819D01*
X170728571Y-92854819D02*
X170823809Y-92854819D01*
X170823809Y-92854819D02*
X170919047Y-92902438D01*
X170919047Y-92902438D02*
X170966666Y-92950057D01*
X170966666Y-92950057D02*
X171014285Y-93045295D01*
X171014285Y-93045295D02*
X171061904Y-93235771D01*
X171061904Y-93235771D02*
X171061904Y-93473866D01*
X171061904Y-93473866D02*
X171014285Y-93664342D01*
X171014285Y-93664342D02*
X170966666Y-93759580D01*
X170966666Y-93759580D02*
X170919047Y-93807200D01*
X170919047Y-93807200D02*
X170823809Y-93854819D01*
X170823809Y-93854819D02*
X170728571Y-93854819D01*
X170728571Y-93854819D02*
X170633333Y-93807200D01*
X170633333Y-93807200D02*
X170585714Y-93759580D01*
X170585714Y-93759580D02*
X170538095Y-93664342D01*
X170538095Y-93664342D02*
X170490476Y-93473866D01*
X170490476Y-93473866D02*
X170490476Y-93235771D01*
X170490476Y-93235771D02*
X170538095Y-93045295D01*
X170538095Y-93045295D02*
X170585714Y-92950057D01*
X170585714Y-92950057D02*
X170633333Y-92902438D01*
X170633333Y-92902438D02*
X170728571Y-92854819D01*
X178657143Y-97254819D02*
X179276190Y-97254819D01*
X179276190Y-97254819D02*
X178942857Y-97635771D01*
X178942857Y-97635771D02*
X179085714Y-97635771D01*
X179085714Y-97635771D02*
X179180952Y-97683390D01*
X179180952Y-97683390D02*
X179228571Y-97731009D01*
X179228571Y-97731009D02*
X179276190Y-97826247D01*
X179276190Y-97826247D02*
X179276190Y-98064342D01*
X179276190Y-98064342D02*
X179228571Y-98159580D01*
X179228571Y-98159580D02*
X179180952Y-98207200D01*
X179180952Y-98207200D02*
X179085714Y-98254819D01*
X179085714Y-98254819D02*
X178800000Y-98254819D01*
X178800000Y-98254819D02*
X178704762Y-98207200D01*
X178704762Y-98207200D02*
X178657143Y-98159580D01*
X179895238Y-97254819D02*
X179990476Y-97254819D01*
X179990476Y-97254819D02*
X180085714Y-97302438D01*
X180085714Y-97302438D02*
X180133333Y-97350057D01*
X180133333Y-97350057D02*
X180180952Y-97445295D01*
X180180952Y-97445295D02*
X180228571Y-97635771D01*
X180228571Y-97635771D02*
X180228571Y-97873866D01*
X180228571Y-97873866D02*
X180180952Y-98064342D01*
X180180952Y-98064342D02*
X180133333Y-98159580D01*
X180133333Y-98159580D02*
X180085714Y-98207200D01*
X180085714Y-98207200D02*
X179990476Y-98254819D01*
X179990476Y-98254819D02*
X179895238Y-98254819D01*
X179895238Y-98254819D02*
X179800000Y-98207200D01*
X179800000Y-98207200D02*
X179752381Y-98159580D01*
X179752381Y-98159580D02*
X179704762Y-98064342D01*
X179704762Y-98064342D02*
X179657143Y-97873866D01*
X179657143Y-97873866D02*
X179657143Y-97635771D01*
X179657143Y-97635771D02*
X179704762Y-97445295D01*
X179704762Y-97445295D02*
X179752381Y-97350057D01*
X179752381Y-97350057D02*
X179800000Y-97302438D01*
X179800000Y-97302438D02*
X179895238Y-97254819D01*
X180657143Y-98254819D02*
X180657143Y-97254819D01*
X180752381Y-97873866D02*
X181038095Y-98254819D01*
X181038095Y-97588152D02*
X180657143Y-97969104D01*
X182752381Y-98254819D02*
X182180953Y-98254819D01*
X182466667Y-98254819D02*
X182466667Y-97254819D01*
X182466667Y-97254819D02*
X182371429Y-97397676D01*
X182371429Y-97397676D02*
X182276191Y-97492914D01*
X182276191Y-97492914D02*
X182180953Y-97540533D01*
X183133334Y-98254819D02*
X183895238Y-97254819D01*
X183276191Y-97254819D02*
X183371429Y-97302438D01*
X183371429Y-97302438D02*
X183419048Y-97397676D01*
X183419048Y-97397676D02*
X183371429Y-97492914D01*
X183371429Y-97492914D02*
X183276191Y-97540533D01*
X183276191Y-97540533D02*
X183180953Y-97492914D01*
X183180953Y-97492914D02*
X183133334Y-97397676D01*
X183133334Y-97397676D02*
X183180953Y-97302438D01*
X183180953Y-97302438D02*
X183276191Y-97254819D01*
X183847619Y-98207200D02*
X183895238Y-98111961D01*
X183895238Y-98111961D02*
X183847619Y-98016723D01*
X183847619Y-98016723D02*
X183752381Y-97969104D01*
X183752381Y-97969104D02*
X183657143Y-98016723D01*
X183657143Y-98016723D02*
X183609524Y-98111961D01*
X183609524Y-98111961D02*
X183657143Y-98207200D01*
X183657143Y-98207200D02*
X183752381Y-98254819D01*
X183752381Y-98254819D02*
X183847619Y-98207200D01*
X181133333Y-94254819D02*
X180800000Y-93778628D01*
X180561905Y-94254819D02*
X180561905Y-93254819D01*
X180561905Y-93254819D02*
X180942857Y-93254819D01*
X180942857Y-93254819D02*
X181038095Y-93302438D01*
X181038095Y-93302438D02*
X181085714Y-93350057D01*
X181085714Y-93350057D02*
X181133333Y-93445295D01*
X181133333Y-93445295D02*
X181133333Y-93588152D01*
X181133333Y-93588152D02*
X181085714Y-93683390D01*
X181085714Y-93683390D02*
X181038095Y-93731009D01*
X181038095Y-93731009D02*
X180942857Y-93778628D01*
X180942857Y-93778628D02*
X180561905Y-93778628D01*
X181704762Y-93683390D02*
X181609524Y-93635771D01*
X181609524Y-93635771D02*
X181561905Y-93588152D01*
X181561905Y-93588152D02*
X181514286Y-93492914D01*
X181514286Y-93492914D02*
X181514286Y-93445295D01*
X181514286Y-93445295D02*
X181561905Y-93350057D01*
X181561905Y-93350057D02*
X181609524Y-93302438D01*
X181609524Y-93302438D02*
X181704762Y-93254819D01*
X181704762Y-93254819D02*
X181895238Y-93254819D01*
X181895238Y-93254819D02*
X181990476Y-93302438D01*
X181990476Y-93302438D02*
X182038095Y-93350057D01*
X182038095Y-93350057D02*
X182085714Y-93445295D01*
X182085714Y-93445295D02*
X182085714Y-93492914D01*
X182085714Y-93492914D02*
X182038095Y-93588152D01*
X182038095Y-93588152D02*
X181990476Y-93635771D01*
X181990476Y-93635771D02*
X181895238Y-93683390D01*
X181895238Y-93683390D02*
X181704762Y-93683390D01*
X181704762Y-93683390D02*
X181609524Y-93731009D01*
X181609524Y-93731009D02*
X181561905Y-93778628D01*
X181561905Y-93778628D02*
X181514286Y-93873866D01*
X181514286Y-93873866D02*
X181514286Y-94064342D01*
X181514286Y-94064342D02*
X181561905Y-94159580D01*
X181561905Y-94159580D02*
X181609524Y-94207200D01*
X181609524Y-94207200D02*
X181704762Y-94254819D01*
X181704762Y-94254819D02*
X181895238Y-94254819D01*
X181895238Y-94254819D02*
X181990476Y-94207200D01*
X181990476Y-94207200D02*
X182038095Y-94159580D01*
X182038095Y-94159580D02*
X182085714Y-94064342D01*
X182085714Y-94064342D02*
X182085714Y-93873866D01*
X182085714Y-93873866D02*
X182038095Y-93778628D01*
X182038095Y-93778628D02*
X181990476Y-93731009D01*
X181990476Y-93731009D02*
X181895238Y-93683390D01*
X182188152Y-90649999D02*
X182854819Y-90649999D01*
X181807200Y-90888094D02*
X182521485Y-91126189D01*
X182521485Y-91126189D02*
X182521485Y-90507142D01*
X182759580Y-90126189D02*
X182807200Y-90078570D01*
X182807200Y-90078570D02*
X182854819Y-90126189D01*
X182854819Y-90126189D02*
X182807200Y-90173808D01*
X182807200Y-90173808D02*
X182759580Y-90126189D01*
X182759580Y-90126189D02*
X182854819Y-90126189D01*
X181854819Y-89745237D02*
X181854819Y-89078571D01*
X181854819Y-89078571D02*
X182854819Y-89507142D01*
X182188152Y-88269047D02*
X182854819Y-88269047D01*
X182188152Y-88697618D02*
X182711961Y-88697618D01*
X182711961Y-88697618D02*
X182807200Y-88649999D01*
X182807200Y-88649999D02*
X182854819Y-88554761D01*
X182854819Y-88554761D02*
X182854819Y-88411904D01*
X182854819Y-88411904D02*
X182807200Y-88316666D01*
X182807200Y-88316666D02*
X182759580Y-88269047D01*
X182854819Y-87792856D02*
X181854819Y-87792856D01*
X182331009Y-87792856D02*
X182331009Y-87221428D01*
X182854819Y-87221428D02*
X181854819Y-87221428D01*
X186854819Y-89316666D02*
X186854819Y-89792856D01*
X186854819Y-89792856D02*
X185854819Y-89792856D01*
X186854819Y-88459523D02*
X186854819Y-89030951D01*
X186854819Y-88745237D02*
X185854819Y-88745237D01*
X185854819Y-88745237D02*
X185997676Y-88840475D01*
X185997676Y-88840475D02*
X186092914Y-88935713D01*
X186092914Y-88935713D02*
X186140533Y-89030951D01*
X172235085Y-112650409D02*
X172377942Y-112698028D01*
X172377942Y-112698028D02*
X172425561Y-112745647D01*
X172425561Y-112745647D02*
X172473180Y-112840885D01*
X172473180Y-112840885D02*
X172473180Y-112983742D01*
X172473180Y-112983742D02*
X172425561Y-113078980D01*
X172425561Y-113078980D02*
X172377942Y-113126600D01*
X172377942Y-113126600D02*
X172282704Y-113174219D01*
X172282704Y-113174219D02*
X171901752Y-113174219D01*
X171901752Y-113174219D02*
X171901752Y-112174219D01*
X171901752Y-112174219D02*
X172235085Y-112174219D01*
X172235085Y-112174219D02*
X172330323Y-112221838D01*
X172330323Y-112221838D02*
X172377942Y-112269457D01*
X172377942Y-112269457D02*
X172425561Y-112364695D01*
X172425561Y-112364695D02*
X172425561Y-112459933D01*
X172425561Y-112459933D02*
X172377942Y-112555171D01*
X172377942Y-112555171D02*
X172330323Y-112602790D01*
X172330323Y-112602790D02*
X172235085Y-112650409D01*
X172235085Y-112650409D02*
X171901752Y-112650409D01*
X172854133Y-113126600D02*
X172996990Y-113174219D01*
X172996990Y-113174219D02*
X173235085Y-113174219D01*
X173235085Y-113174219D02*
X173330323Y-113126600D01*
X173330323Y-113126600D02*
X173377942Y-113078980D01*
X173377942Y-113078980D02*
X173425561Y-112983742D01*
X173425561Y-112983742D02*
X173425561Y-112888504D01*
X173425561Y-112888504D02*
X173377942Y-112793266D01*
X173377942Y-112793266D02*
X173330323Y-112745647D01*
X173330323Y-112745647D02*
X173235085Y-112698028D01*
X173235085Y-112698028D02*
X173044609Y-112650409D01*
X173044609Y-112650409D02*
X172949371Y-112602790D01*
X172949371Y-112602790D02*
X172901752Y-112555171D01*
X172901752Y-112555171D02*
X172854133Y-112459933D01*
X172854133Y-112459933D02*
X172854133Y-112364695D01*
X172854133Y-112364695D02*
X172901752Y-112269457D01*
X172901752Y-112269457D02*
X172949371Y-112221838D01*
X172949371Y-112221838D02*
X173044609Y-112174219D01*
X173044609Y-112174219D02*
X173282704Y-112174219D01*
X173282704Y-112174219D02*
X173425561Y-112221838D01*
X173806514Y-113126600D02*
X173949371Y-113174219D01*
X173949371Y-113174219D02*
X174187466Y-113174219D01*
X174187466Y-113174219D02*
X174282704Y-113126600D01*
X174282704Y-113126600D02*
X174330323Y-113078980D01*
X174330323Y-113078980D02*
X174377942Y-112983742D01*
X174377942Y-112983742D02*
X174377942Y-112888504D01*
X174377942Y-112888504D02*
X174330323Y-112793266D01*
X174330323Y-112793266D02*
X174282704Y-112745647D01*
X174282704Y-112745647D02*
X174187466Y-112698028D01*
X174187466Y-112698028D02*
X173996990Y-112650409D01*
X173996990Y-112650409D02*
X173901752Y-112602790D01*
X173901752Y-112602790D02*
X173854133Y-112555171D01*
X173854133Y-112555171D02*
X173806514Y-112459933D01*
X173806514Y-112459933D02*
X173806514Y-112364695D01*
X173806514Y-112364695D02*
X173854133Y-112269457D01*
X173854133Y-112269457D02*
X173901752Y-112221838D01*
X173901752Y-112221838D02*
X173996990Y-112174219D01*
X173996990Y-112174219D02*
X174235085Y-112174219D01*
X174235085Y-112174219D02*
X174377942Y-112221838D01*
X175330323Y-113174219D02*
X174758895Y-113174219D01*
X175044609Y-113174219D02*
X175044609Y-112174219D01*
X175044609Y-112174219D02*
X174949371Y-112317076D01*
X174949371Y-112317076D02*
X174854133Y-112412314D01*
X174854133Y-112412314D02*
X174758895Y-112459933D01*
X175663657Y-112174219D02*
X176282704Y-112174219D01*
X176282704Y-112174219D02*
X175949371Y-112555171D01*
X175949371Y-112555171D02*
X176092228Y-112555171D01*
X176092228Y-112555171D02*
X176187466Y-112602790D01*
X176187466Y-112602790D02*
X176235085Y-112650409D01*
X176235085Y-112650409D02*
X176282704Y-112745647D01*
X176282704Y-112745647D02*
X176282704Y-112983742D01*
X176282704Y-112983742D02*
X176235085Y-113078980D01*
X176235085Y-113078980D02*
X176187466Y-113126600D01*
X176187466Y-113126600D02*
X176092228Y-113174219D01*
X176092228Y-113174219D02*
X175806514Y-113174219D01*
X175806514Y-113174219D02*
X175711276Y-113126600D01*
X175711276Y-113126600D02*
X175663657Y-113078980D01*
X176854133Y-112602790D02*
X176758895Y-112555171D01*
X176758895Y-112555171D02*
X176711276Y-112507552D01*
X176711276Y-112507552D02*
X176663657Y-112412314D01*
X176663657Y-112412314D02*
X176663657Y-112364695D01*
X176663657Y-112364695D02*
X176711276Y-112269457D01*
X176711276Y-112269457D02*
X176758895Y-112221838D01*
X176758895Y-112221838D02*
X176854133Y-112174219D01*
X176854133Y-112174219D02*
X177044609Y-112174219D01*
X177044609Y-112174219D02*
X177139847Y-112221838D01*
X177139847Y-112221838D02*
X177187466Y-112269457D01*
X177187466Y-112269457D02*
X177235085Y-112364695D01*
X177235085Y-112364695D02*
X177235085Y-112412314D01*
X177235085Y-112412314D02*
X177187466Y-112507552D01*
X177187466Y-112507552D02*
X177139847Y-112555171D01*
X177139847Y-112555171D02*
X177044609Y-112602790D01*
X177044609Y-112602790D02*
X176854133Y-112602790D01*
X176854133Y-112602790D02*
X176758895Y-112650409D01*
X176758895Y-112650409D02*
X176711276Y-112698028D01*
X176711276Y-112698028D02*
X176663657Y-112793266D01*
X176663657Y-112793266D02*
X176663657Y-112983742D01*
X176663657Y-112983742D02*
X176711276Y-113078980D01*
X176711276Y-113078980D02*
X176758895Y-113126600D01*
X176758895Y-113126600D02*
X176854133Y-113174219D01*
X176854133Y-113174219D02*
X177044609Y-113174219D01*
X177044609Y-113174219D02*
X177139847Y-113126600D01*
X177139847Y-113126600D02*
X177187466Y-113078980D01*
X177187466Y-113078980D02*
X177235085Y-112983742D01*
X177235085Y-112983742D02*
X177235085Y-112793266D01*
X177235085Y-112793266D02*
X177187466Y-112698028D01*
X177187466Y-112698028D02*
X177139847Y-112650409D01*
X177139847Y-112650409D02*
X177044609Y-112602790D01*
X177663657Y-113174219D02*
X177663657Y-112174219D01*
X177663657Y-112174219D02*
X178044609Y-112174219D01*
X178044609Y-112174219D02*
X178139847Y-112221838D01*
X178139847Y-112221838D02*
X178187466Y-112269457D01*
X178187466Y-112269457D02*
X178235085Y-112364695D01*
X178235085Y-112364695D02*
X178235085Y-112507552D01*
X178235085Y-112507552D02*
X178187466Y-112602790D01*
X178187466Y-112602790D02*
X178139847Y-112650409D01*
X178139847Y-112650409D02*
X178044609Y-112698028D01*
X178044609Y-112698028D02*
X177663657Y-112698028D01*
X178616038Y-113126600D02*
X178758895Y-113174219D01*
X178758895Y-113174219D02*
X178996990Y-113174219D01*
X178996990Y-113174219D02*
X179092228Y-113126600D01*
X179092228Y-113126600D02*
X179139847Y-113078980D01*
X179139847Y-113078980D02*
X179187466Y-112983742D01*
X179187466Y-112983742D02*
X179187466Y-112888504D01*
X179187466Y-112888504D02*
X179139847Y-112793266D01*
X179139847Y-112793266D02*
X179092228Y-112745647D01*
X179092228Y-112745647D02*
X178996990Y-112698028D01*
X178996990Y-112698028D02*
X178806514Y-112650409D01*
X178806514Y-112650409D02*
X178711276Y-112602790D01*
X178711276Y-112602790D02*
X178663657Y-112555171D01*
X178663657Y-112555171D02*
X178616038Y-112459933D01*
X178616038Y-112459933D02*
X178616038Y-112364695D01*
X178616038Y-112364695D02*
X178663657Y-112269457D01*
X178663657Y-112269457D02*
X178711276Y-112221838D01*
X178711276Y-112221838D02*
X178806514Y-112174219D01*
X178806514Y-112174219D02*
X179044609Y-112174219D01*
X179044609Y-112174219D02*
X179187466Y-112221838D01*
X175425561Y-108619457D02*
X175330323Y-108571838D01*
X175330323Y-108571838D02*
X175235085Y-108476600D01*
X175235085Y-108476600D02*
X175092228Y-108333742D01*
X175092228Y-108333742D02*
X174996990Y-108286123D01*
X174996990Y-108286123D02*
X174901752Y-108286123D01*
X174949371Y-108524219D02*
X174854133Y-108476600D01*
X174854133Y-108476600D02*
X174758895Y-108381361D01*
X174758895Y-108381361D02*
X174711276Y-108190885D01*
X174711276Y-108190885D02*
X174711276Y-107857552D01*
X174711276Y-107857552D02*
X174758895Y-107667076D01*
X174758895Y-107667076D02*
X174854133Y-107571838D01*
X174854133Y-107571838D02*
X174949371Y-107524219D01*
X174949371Y-107524219D02*
X175139847Y-107524219D01*
X175139847Y-107524219D02*
X175235085Y-107571838D01*
X175235085Y-107571838D02*
X175330323Y-107667076D01*
X175330323Y-107667076D02*
X175377942Y-107857552D01*
X175377942Y-107857552D02*
X175377942Y-108190885D01*
X175377942Y-108190885D02*
X175330323Y-108381361D01*
X175330323Y-108381361D02*
X175235085Y-108476600D01*
X175235085Y-108476600D02*
X175139847Y-108524219D01*
X175139847Y-108524219D02*
X174949371Y-108524219D01*
X176330323Y-108524219D02*
X175758895Y-108524219D01*
X176044609Y-108524219D02*
X176044609Y-107524219D01*
X176044609Y-107524219D02*
X175949371Y-107667076D01*
X175949371Y-107667076D02*
X175854133Y-107762314D01*
X175854133Y-107762314D02*
X175758895Y-107809933D01*
X180578571Y-96950057D02*
X180626190Y-96902438D01*
X180626190Y-96902438D02*
X180721428Y-96854819D01*
X180721428Y-96854819D02*
X180959523Y-96854819D01*
X180959523Y-96854819D02*
X181054761Y-96902438D01*
X181054761Y-96902438D02*
X181102380Y-96950057D01*
X181102380Y-96950057D02*
X181149999Y-97045295D01*
X181149999Y-97045295D02*
X181149999Y-97140533D01*
X181149999Y-97140533D02*
X181102380Y-97283390D01*
X181102380Y-97283390D02*
X180530952Y-97854819D01*
X180530952Y-97854819D02*
X181149999Y-97854819D01*
X181530952Y-96950057D02*
X181578571Y-96902438D01*
X181578571Y-96902438D02*
X181673809Y-96854819D01*
X181673809Y-96854819D02*
X181911904Y-96854819D01*
X181911904Y-96854819D02*
X182007142Y-96902438D01*
X182007142Y-96902438D02*
X182054761Y-96950057D01*
X182054761Y-96950057D02*
X182102380Y-97045295D01*
X182102380Y-97045295D02*
X182102380Y-97140533D01*
X182102380Y-97140533D02*
X182054761Y-97283390D01*
X182054761Y-97283390D02*
X181483333Y-97854819D01*
X181483333Y-97854819D02*
X182102380Y-97854819D01*
X182721428Y-96854819D02*
X182816666Y-96854819D01*
X182816666Y-96854819D02*
X182911904Y-96902438D01*
X182911904Y-96902438D02*
X182959523Y-96950057D01*
X182959523Y-96950057D02*
X183007142Y-97045295D01*
X183007142Y-97045295D02*
X183054761Y-97235771D01*
X183054761Y-97235771D02*
X183054761Y-97473866D01*
X183054761Y-97473866D02*
X183007142Y-97664342D01*
X183007142Y-97664342D02*
X182959523Y-97759580D01*
X182959523Y-97759580D02*
X182911904Y-97807200D01*
X182911904Y-97807200D02*
X182816666Y-97854819D01*
X182816666Y-97854819D02*
X182721428Y-97854819D01*
X182721428Y-97854819D02*
X182626190Y-97807200D01*
X182626190Y-97807200D02*
X182578571Y-97759580D01*
X182578571Y-97759580D02*
X182530952Y-97664342D01*
X182530952Y-97664342D02*
X182483333Y-97473866D01*
X182483333Y-97473866D02*
X182483333Y-97235771D01*
X182483333Y-97235771D02*
X182530952Y-97045295D01*
X182530952Y-97045295D02*
X182578571Y-96950057D01*
X182578571Y-96950057D02*
X182626190Y-96902438D01*
X182626190Y-96902438D02*
X182721428Y-96854819D01*
X183483333Y-97854819D02*
X183483333Y-96854819D01*
X183578571Y-97473866D02*
X183864285Y-97854819D01*
X183864285Y-97188152D02*
X183483333Y-97569104D01*
X185578571Y-97854819D02*
X185007143Y-97854819D01*
X185292857Y-97854819D02*
X185292857Y-96854819D01*
X185292857Y-96854819D02*
X185197619Y-96997676D01*
X185197619Y-96997676D02*
X185102381Y-97092914D01*
X185102381Y-97092914D02*
X185007143Y-97140533D01*
X185959524Y-97854819D02*
X186721428Y-96854819D01*
X186102381Y-96854819D02*
X186197619Y-96902438D01*
X186197619Y-96902438D02*
X186245238Y-96997676D01*
X186245238Y-96997676D02*
X186197619Y-97092914D01*
X186197619Y-97092914D02*
X186102381Y-97140533D01*
X186102381Y-97140533D02*
X186007143Y-97092914D01*
X186007143Y-97092914D02*
X185959524Y-96997676D01*
X185959524Y-96997676D02*
X186007143Y-96902438D01*
X186007143Y-96902438D02*
X186102381Y-96854819D01*
X186673809Y-97807200D02*
X186721428Y-97711961D01*
X186721428Y-97711961D02*
X186673809Y-97616723D01*
X186673809Y-97616723D02*
X186578571Y-97569104D01*
X186578571Y-97569104D02*
X186483333Y-97616723D01*
X186483333Y-97616723D02*
X186435714Y-97711961D01*
X186435714Y-97711961D02*
X186483333Y-97807200D01*
X186483333Y-97807200D02*
X186578571Y-97854819D01*
X186578571Y-97854819D02*
X186673809Y-97807200D01*
X183483333Y-93854819D02*
X183150000Y-93378628D01*
X182911905Y-93854819D02*
X182911905Y-92854819D01*
X182911905Y-92854819D02*
X183292857Y-92854819D01*
X183292857Y-92854819D02*
X183388095Y-92902438D01*
X183388095Y-92902438D02*
X183435714Y-92950057D01*
X183435714Y-92950057D02*
X183483333Y-93045295D01*
X183483333Y-93045295D02*
X183483333Y-93188152D01*
X183483333Y-93188152D02*
X183435714Y-93283390D01*
X183435714Y-93283390D02*
X183388095Y-93331009D01*
X183388095Y-93331009D02*
X183292857Y-93378628D01*
X183292857Y-93378628D02*
X182911905Y-93378628D01*
X184340476Y-92854819D02*
X184150000Y-92854819D01*
X184150000Y-92854819D02*
X184054762Y-92902438D01*
X184054762Y-92902438D02*
X184007143Y-92950057D01*
X184007143Y-92950057D02*
X183911905Y-93092914D01*
X183911905Y-93092914D02*
X183864286Y-93283390D01*
X183864286Y-93283390D02*
X183864286Y-93664342D01*
X183864286Y-93664342D02*
X183911905Y-93759580D01*
X183911905Y-93759580D02*
X183959524Y-93807200D01*
X183959524Y-93807200D02*
X184054762Y-93854819D01*
X184054762Y-93854819D02*
X184245238Y-93854819D01*
X184245238Y-93854819D02*
X184340476Y-93807200D01*
X184340476Y-93807200D02*
X184388095Y-93759580D01*
X184388095Y-93759580D02*
X184435714Y-93664342D01*
X184435714Y-93664342D02*
X184435714Y-93426247D01*
X184435714Y-93426247D02*
X184388095Y-93331009D01*
X184388095Y-93331009D02*
X184340476Y-93283390D01*
X184340476Y-93283390D02*
X184245238Y-93235771D01*
X184245238Y-93235771D02*
X184054762Y-93235771D01*
X184054762Y-93235771D02*
X183959524Y-93283390D01*
X183959524Y-93283390D02*
X183911905Y-93331009D01*
X183911905Y-93331009D02*
X183864286Y-93426247D01*
X170507200Y-94828571D02*
X170554819Y-94685714D01*
X170554819Y-94685714D02*
X170554819Y-94447619D01*
X170554819Y-94447619D02*
X170507200Y-94352381D01*
X170507200Y-94352381D02*
X170459580Y-94304762D01*
X170459580Y-94304762D02*
X170364342Y-94257143D01*
X170364342Y-94257143D02*
X170269104Y-94257143D01*
X170269104Y-94257143D02*
X170173866Y-94304762D01*
X170173866Y-94304762D02*
X170126247Y-94352381D01*
X170126247Y-94352381D02*
X170078628Y-94447619D01*
X170078628Y-94447619D02*
X170031009Y-94638095D01*
X170031009Y-94638095D02*
X169983390Y-94733333D01*
X169983390Y-94733333D02*
X169935771Y-94780952D01*
X169935771Y-94780952D02*
X169840533Y-94828571D01*
X169840533Y-94828571D02*
X169745295Y-94828571D01*
X169745295Y-94828571D02*
X169650057Y-94780952D01*
X169650057Y-94780952D02*
X169602438Y-94733333D01*
X169602438Y-94733333D02*
X169554819Y-94638095D01*
X169554819Y-94638095D02*
X169554819Y-94400000D01*
X169554819Y-94400000D02*
X169602438Y-94257143D01*
X170554819Y-93828571D02*
X169554819Y-93828571D01*
X169554819Y-93828571D02*
X170269104Y-93495238D01*
X170269104Y-93495238D02*
X169554819Y-93161905D01*
X169554819Y-93161905D02*
X170554819Y-93161905D01*
X170031009Y-92352381D02*
X170031009Y-92685714D01*
X170554819Y-92685714D02*
X169554819Y-92685714D01*
X169554819Y-92685714D02*
X169554819Y-92209524D01*
X170554819Y-91304762D02*
X170554819Y-91876190D01*
X170554819Y-91590476D02*
X169554819Y-91590476D01*
X169554819Y-91590476D02*
X169697676Y-91685714D01*
X169697676Y-91685714D02*
X169792914Y-91780952D01*
X169792914Y-91780952D02*
X169840533Y-91876190D01*
X169554819Y-90400000D02*
X169554819Y-90876190D01*
X169554819Y-90876190D02*
X170031009Y-90923809D01*
X170031009Y-90923809D02*
X169983390Y-90876190D01*
X169983390Y-90876190D02*
X169935771Y-90780952D01*
X169935771Y-90780952D02*
X169935771Y-90542857D01*
X169935771Y-90542857D02*
X169983390Y-90447619D01*
X169983390Y-90447619D02*
X170031009Y-90400000D01*
X170031009Y-90400000D02*
X170126247Y-90352381D01*
X170126247Y-90352381D02*
X170364342Y-90352381D01*
X170364342Y-90352381D02*
X170459580Y-90400000D01*
X170459580Y-90400000D02*
X170507200Y-90447619D01*
X170507200Y-90447619D02*
X170554819Y-90542857D01*
X170554819Y-90542857D02*
X170554819Y-90780952D01*
X170554819Y-90780952D02*
X170507200Y-90876190D01*
X170507200Y-90876190D02*
X170459580Y-90923809D01*
X170269104Y-89971428D02*
X170269104Y-89495238D01*
X170554819Y-90066666D02*
X169554819Y-89733333D01*
X169554819Y-89733333D02*
X170554819Y-89400000D01*
X170554819Y-87780952D02*
X170554819Y-88352380D01*
X170554819Y-88066666D02*
X169554819Y-88066666D01*
X169554819Y-88066666D02*
X169697676Y-88161904D01*
X169697676Y-88161904D02*
X169792914Y-88257142D01*
X169792914Y-88257142D02*
X169840533Y-88352380D01*
X169554819Y-86876190D02*
X169554819Y-87352380D01*
X169554819Y-87352380D02*
X170031009Y-87399999D01*
X170031009Y-87399999D02*
X169983390Y-87352380D01*
X169983390Y-87352380D02*
X169935771Y-87257142D01*
X169935771Y-87257142D02*
X169935771Y-87019047D01*
X169935771Y-87019047D02*
X169983390Y-86923809D01*
X169983390Y-86923809D02*
X170031009Y-86876190D01*
X170031009Y-86876190D02*
X170126247Y-86828571D01*
X170126247Y-86828571D02*
X170364342Y-86828571D01*
X170364342Y-86828571D02*
X170459580Y-86876190D01*
X170459580Y-86876190D02*
X170507200Y-86923809D01*
X170507200Y-86923809D02*
X170554819Y-87019047D01*
X170554819Y-87019047D02*
X170554819Y-87257142D01*
X170554819Y-87257142D02*
X170507200Y-87352380D01*
X170507200Y-87352380D02*
X170459580Y-87399999D01*
X169554819Y-86542856D02*
X170554819Y-86209523D01*
X170554819Y-86209523D02*
X169554819Y-85876190D01*
X174559819Y-91011094D02*
X173559819Y-91011094D01*
X173559819Y-91011094D02*
X173559819Y-90772999D01*
X173559819Y-90772999D02*
X173607438Y-90630142D01*
X173607438Y-90630142D02*
X173702676Y-90534904D01*
X173702676Y-90534904D02*
X173797914Y-90487285D01*
X173797914Y-90487285D02*
X173988390Y-90439666D01*
X173988390Y-90439666D02*
X174131247Y-90439666D01*
X174131247Y-90439666D02*
X174321723Y-90487285D01*
X174321723Y-90487285D02*
X174416961Y-90534904D01*
X174416961Y-90534904D02*
X174512200Y-90630142D01*
X174512200Y-90630142D02*
X174559819Y-90772999D01*
X174559819Y-90772999D02*
X174559819Y-91011094D01*
X173559819Y-89534904D02*
X173559819Y-90011094D01*
X173559819Y-90011094D02*
X174036009Y-90058713D01*
X174036009Y-90058713D02*
X173988390Y-90011094D01*
X173988390Y-90011094D02*
X173940771Y-89915856D01*
X173940771Y-89915856D02*
X173940771Y-89677761D01*
X173940771Y-89677761D02*
X173988390Y-89582523D01*
X173988390Y-89582523D02*
X174036009Y-89534904D01*
X174036009Y-89534904D02*
X174131247Y-89487285D01*
X174131247Y-89487285D02*
X174369342Y-89487285D01*
X174369342Y-89487285D02*
X174464580Y-89534904D01*
X174464580Y-89534904D02*
X174512200Y-89582523D01*
X174512200Y-89582523D02*
X174559819Y-89677761D01*
X174559819Y-89677761D02*
X174559819Y-89915856D01*
X174559819Y-89915856D02*
X174512200Y-90011094D01*
X174512200Y-90011094D02*
X174464580Y-90058713D01*
X172742595Y-112407266D02*
X172790214Y-112359647D01*
X172790214Y-112359647D02*
X172885452Y-112312028D01*
X172885452Y-112312028D02*
X173075928Y-112407266D01*
X173075928Y-112407266D02*
X173171166Y-112359647D01*
X173171166Y-112359647D02*
X173218785Y-112312028D01*
X172266405Y-108788219D02*
X172266405Y-107788219D01*
X172266405Y-107788219D02*
X172504500Y-107788219D01*
X172504500Y-107788219D02*
X172647357Y-107835838D01*
X172647357Y-107835838D02*
X172742595Y-107931076D01*
X172742595Y-107931076D02*
X172790214Y-108026314D01*
X172790214Y-108026314D02*
X172837833Y-108216790D01*
X172837833Y-108216790D02*
X172837833Y-108359647D01*
X172837833Y-108359647D02*
X172790214Y-108550123D01*
X172790214Y-108550123D02*
X172742595Y-108645361D01*
X172742595Y-108645361D02*
X172647357Y-108740600D01*
X172647357Y-108740600D02*
X172504500Y-108788219D01*
X172504500Y-108788219D02*
X172266405Y-108788219D01*
X173171167Y-107788219D02*
X173790214Y-107788219D01*
X173790214Y-107788219D02*
X173456881Y-108169171D01*
X173456881Y-108169171D02*
X173599738Y-108169171D01*
X173599738Y-108169171D02*
X173694976Y-108216790D01*
X173694976Y-108216790D02*
X173742595Y-108264409D01*
X173742595Y-108264409D02*
X173790214Y-108359647D01*
X173790214Y-108359647D02*
X173790214Y-108597742D01*
X173790214Y-108597742D02*
X173742595Y-108692980D01*
X173742595Y-108692980D02*
X173694976Y-108740600D01*
X173694976Y-108740600D02*
X173599738Y-108788219D01*
X173599738Y-108788219D02*
X173314024Y-108788219D01*
X173314024Y-108788219D02*
X173218786Y-108740600D01*
X173218786Y-108740600D02*
X173171167Y-108692980D01*
X183971428Y-97088152D02*
X183971428Y-97754819D01*
X183733333Y-96707200D02*
X183495238Y-97421485D01*
X183495238Y-97421485D02*
X184114285Y-97421485D01*
X184400000Y-96754819D02*
X185066666Y-96754819D01*
X185066666Y-96754819D02*
X184638095Y-97754819D01*
X185876190Y-97088152D02*
X185876190Y-97754819D01*
X185447619Y-97088152D02*
X185447619Y-97611961D01*
X185447619Y-97611961D02*
X185495238Y-97707200D01*
X185495238Y-97707200D02*
X185590476Y-97754819D01*
X185590476Y-97754819D02*
X185733333Y-97754819D01*
X185733333Y-97754819D02*
X185828571Y-97707200D01*
X185828571Y-97707200D02*
X185876190Y-97659580D01*
X186685714Y-97231009D02*
X186352381Y-97231009D01*
X186352381Y-97754819D02*
X186352381Y-96754819D01*
X186352381Y-96754819D02*
X186828571Y-96754819D01*
X188495238Y-97754819D02*
X187923810Y-97754819D01*
X188209524Y-97754819D02*
X188209524Y-96754819D01*
X188209524Y-96754819D02*
X188114286Y-96897676D01*
X188114286Y-96897676D02*
X188019048Y-96992914D01*
X188019048Y-96992914D02*
X187923810Y-97040533D01*
X189114286Y-96754819D02*
X189209524Y-96754819D01*
X189209524Y-96754819D02*
X189304762Y-96802438D01*
X189304762Y-96802438D02*
X189352381Y-96850057D01*
X189352381Y-96850057D02*
X189400000Y-96945295D01*
X189400000Y-96945295D02*
X189447619Y-97135771D01*
X189447619Y-97135771D02*
X189447619Y-97373866D01*
X189447619Y-97373866D02*
X189400000Y-97564342D01*
X189400000Y-97564342D02*
X189352381Y-97659580D01*
X189352381Y-97659580D02*
X189304762Y-97707200D01*
X189304762Y-97707200D02*
X189209524Y-97754819D01*
X189209524Y-97754819D02*
X189114286Y-97754819D01*
X189114286Y-97754819D02*
X189019048Y-97707200D01*
X189019048Y-97707200D02*
X188971429Y-97659580D01*
X188971429Y-97659580D02*
X188923810Y-97564342D01*
X188923810Y-97564342D02*
X188876191Y-97373866D01*
X188876191Y-97373866D02*
X188876191Y-97135771D01*
X188876191Y-97135771D02*
X188923810Y-96945295D01*
X188923810Y-96945295D02*
X188971429Y-96850057D01*
X188971429Y-96850057D02*
X189019048Y-96802438D01*
X189019048Y-96802438D02*
X189114286Y-96754819D01*
X189733334Y-96754819D02*
X190066667Y-97754819D01*
X190066667Y-97754819D02*
X190400000Y-96754819D01*
X186257142Y-93659580D02*
X186209523Y-93707200D01*
X186209523Y-93707200D02*
X186066666Y-93754819D01*
X186066666Y-93754819D02*
X185971428Y-93754819D01*
X185971428Y-93754819D02*
X185828571Y-93707200D01*
X185828571Y-93707200D02*
X185733333Y-93611961D01*
X185733333Y-93611961D02*
X185685714Y-93516723D01*
X185685714Y-93516723D02*
X185638095Y-93326247D01*
X185638095Y-93326247D02*
X185638095Y-93183390D01*
X185638095Y-93183390D02*
X185685714Y-92992914D01*
X185685714Y-92992914D02*
X185733333Y-92897676D01*
X185733333Y-92897676D02*
X185828571Y-92802438D01*
X185828571Y-92802438D02*
X185971428Y-92754819D01*
X185971428Y-92754819D02*
X186066666Y-92754819D01*
X186066666Y-92754819D02*
X186209523Y-92802438D01*
X186209523Y-92802438D02*
X186257142Y-92850057D01*
X187209523Y-93754819D02*
X186638095Y-93754819D01*
X186923809Y-93754819D02*
X186923809Y-92754819D01*
X186923809Y-92754819D02*
X186828571Y-92897676D01*
X186828571Y-92897676D02*
X186733333Y-92992914D01*
X186733333Y-92992914D02*
X186638095Y-93040533D01*
X188114285Y-92754819D02*
X187638095Y-92754819D01*
X187638095Y-92754819D02*
X187590476Y-93231009D01*
X187590476Y-93231009D02*
X187638095Y-93183390D01*
X187638095Y-93183390D02*
X187733333Y-93135771D01*
X187733333Y-93135771D02*
X187971428Y-93135771D01*
X187971428Y-93135771D02*
X188066666Y-93183390D01*
X188066666Y-93183390D02*
X188114285Y-93231009D01*
X188114285Y-93231009D02*
X188161904Y-93326247D01*
X188161904Y-93326247D02*
X188161904Y-93564342D01*
X188161904Y-93564342D02*
X188114285Y-93659580D01*
X188114285Y-93659580D02*
X188066666Y-93707200D01*
X188066666Y-93707200D02*
X187971428Y-93754819D01*
X187971428Y-93754819D02*
X187733333Y-93754819D01*
X187733333Y-93754819D02*
X187638095Y-93707200D01*
X187638095Y-93707200D02*
X187590476Y-93659580D01*
X175799999Y-97254819D02*
X175228571Y-97254819D01*
X175514285Y-97254819D02*
X175514285Y-96254819D01*
X175514285Y-96254819D02*
X175419047Y-96397676D01*
X175419047Y-96397676D02*
X175323809Y-96492914D01*
X175323809Y-96492914D02*
X175228571Y-96540533D01*
X176704761Y-96254819D02*
X176228571Y-96254819D01*
X176228571Y-96254819D02*
X176180952Y-96731009D01*
X176180952Y-96731009D02*
X176228571Y-96683390D01*
X176228571Y-96683390D02*
X176323809Y-96635771D01*
X176323809Y-96635771D02*
X176561904Y-96635771D01*
X176561904Y-96635771D02*
X176657142Y-96683390D01*
X176657142Y-96683390D02*
X176704761Y-96731009D01*
X176704761Y-96731009D02*
X176752380Y-96826247D01*
X176752380Y-96826247D02*
X176752380Y-97064342D01*
X176752380Y-97064342D02*
X176704761Y-97159580D01*
X176704761Y-97159580D02*
X176657142Y-97207200D01*
X176657142Y-97207200D02*
X176561904Y-97254819D01*
X176561904Y-97254819D02*
X176323809Y-97254819D01*
X176323809Y-97254819D02*
X176228571Y-97207200D01*
X176228571Y-97207200D02*
X176180952Y-97159580D01*
X177371428Y-96254819D02*
X177466666Y-96254819D01*
X177466666Y-96254819D02*
X177561904Y-96302438D01*
X177561904Y-96302438D02*
X177609523Y-96350057D01*
X177609523Y-96350057D02*
X177657142Y-96445295D01*
X177657142Y-96445295D02*
X177704761Y-96635771D01*
X177704761Y-96635771D02*
X177704761Y-96873866D01*
X177704761Y-96873866D02*
X177657142Y-97064342D01*
X177657142Y-97064342D02*
X177609523Y-97159580D01*
X177609523Y-97159580D02*
X177561904Y-97207200D01*
X177561904Y-97207200D02*
X177466666Y-97254819D01*
X177466666Y-97254819D02*
X177371428Y-97254819D01*
X177371428Y-97254819D02*
X177276190Y-97207200D01*
X177276190Y-97207200D02*
X177228571Y-97159580D01*
X177228571Y-97159580D02*
X177180952Y-97064342D01*
X177180952Y-97064342D02*
X177133333Y-96873866D01*
X177133333Y-96873866D02*
X177133333Y-96635771D01*
X177133333Y-96635771D02*
X177180952Y-96445295D01*
X177180952Y-96445295D02*
X177228571Y-96350057D01*
X177228571Y-96350057D02*
X177276190Y-96302438D01*
X177276190Y-96302438D02*
X177371428Y-96254819D01*
X178133333Y-97254819D02*
X178133333Y-96254819D01*
X178228571Y-96873866D02*
X178514285Y-97254819D01*
X178514285Y-96588152D02*
X178133333Y-96969104D01*
X180228571Y-97254819D02*
X179657143Y-97254819D01*
X179942857Y-97254819D02*
X179942857Y-96254819D01*
X179942857Y-96254819D02*
X179847619Y-96397676D01*
X179847619Y-96397676D02*
X179752381Y-96492914D01*
X179752381Y-96492914D02*
X179657143Y-96540533D01*
X180609524Y-97254819D02*
X181371428Y-96254819D01*
X180752381Y-96254819D02*
X180847619Y-96302438D01*
X180847619Y-96302438D02*
X180895238Y-96397676D01*
X180895238Y-96397676D02*
X180847619Y-96492914D01*
X180847619Y-96492914D02*
X180752381Y-96540533D01*
X180752381Y-96540533D02*
X180657143Y-96492914D01*
X180657143Y-96492914D02*
X180609524Y-96397676D01*
X180609524Y-96397676D02*
X180657143Y-96302438D01*
X180657143Y-96302438D02*
X180752381Y-96254819D01*
X181323809Y-97207200D02*
X181371428Y-97111961D01*
X181371428Y-97111961D02*
X181323809Y-97016723D01*
X181323809Y-97016723D02*
X181228571Y-96969104D01*
X181228571Y-96969104D02*
X181133333Y-97016723D01*
X181133333Y-97016723D02*
X181085714Y-97111961D01*
X181085714Y-97111961D02*
X181133333Y-97207200D01*
X181133333Y-97207200D02*
X181228571Y-97254819D01*
X181228571Y-97254819D02*
X181323809Y-97207200D01*
X178133333Y-93254819D02*
X177800000Y-92778628D01*
X177561905Y-93254819D02*
X177561905Y-92254819D01*
X177561905Y-92254819D02*
X177942857Y-92254819D01*
X177942857Y-92254819D02*
X178038095Y-92302438D01*
X178038095Y-92302438D02*
X178085714Y-92350057D01*
X178085714Y-92350057D02*
X178133333Y-92445295D01*
X178133333Y-92445295D02*
X178133333Y-92588152D01*
X178133333Y-92588152D02*
X178085714Y-92683390D01*
X178085714Y-92683390D02*
X178038095Y-92731009D01*
X178038095Y-92731009D02*
X177942857Y-92778628D01*
X177942857Y-92778628D02*
X177561905Y-92778628D01*
X179038095Y-92254819D02*
X178561905Y-92254819D01*
X178561905Y-92254819D02*
X178514286Y-92731009D01*
X178514286Y-92731009D02*
X178561905Y-92683390D01*
X178561905Y-92683390D02*
X178657143Y-92635771D01*
X178657143Y-92635771D02*
X178895238Y-92635771D01*
X178895238Y-92635771D02*
X178990476Y-92683390D01*
X178990476Y-92683390D02*
X179038095Y-92731009D01*
X179038095Y-92731009D02*
X179085714Y-92826247D01*
X179085714Y-92826247D02*
X179085714Y-93064342D01*
X179085714Y-93064342D02*
X179038095Y-93159580D01*
X179038095Y-93159580D02*
X178990476Y-93207200D01*
X178990476Y-93207200D02*
X178895238Y-93254819D01*
X178895238Y-93254819D02*
X178657143Y-93254819D01*
X178657143Y-93254819D02*
X178561905Y-93207200D01*
X178561905Y-93207200D02*
X178514286Y-93159580D01*
X177034480Y-106192795D02*
X177082100Y-106240414D01*
X177082100Y-106240414D02*
X177129719Y-106383271D01*
X177129719Y-106383271D02*
X177129719Y-106478509D01*
X177129719Y-106478509D02*
X177082100Y-106621366D01*
X177082100Y-106621366D02*
X176986861Y-106716604D01*
X176986861Y-106716604D02*
X176891623Y-106764223D01*
X176891623Y-106764223D02*
X176701147Y-106811842D01*
X176701147Y-106811842D02*
X176558290Y-106811842D01*
X176558290Y-106811842D02*
X176367814Y-106764223D01*
X176367814Y-106764223D02*
X176272576Y-106716604D01*
X176272576Y-106716604D02*
X176177338Y-106621366D01*
X176177338Y-106621366D02*
X176129719Y-106478509D01*
X176129719Y-106478509D02*
X176129719Y-106383271D01*
X176129719Y-106383271D02*
X176177338Y-106240414D01*
X176177338Y-106240414D02*
X176224957Y-106192795D01*
X177129719Y-105621366D02*
X177082100Y-105716604D01*
X177082100Y-105716604D02*
X177034480Y-105764223D01*
X177034480Y-105764223D02*
X176939242Y-105811842D01*
X176939242Y-105811842D02*
X176653528Y-105811842D01*
X176653528Y-105811842D02*
X176558290Y-105764223D01*
X176558290Y-105764223D02*
X176510671Y-105716604D01*
X176510671Y-105716604D02*
X176463052Y-105621366D01*
X176463052Y-105621366D02*
X176463052Y-105478509D01*
X176463052Y-105478509D02*
X176510671Y-105383271D01*
X176510671Y-105383271D02*
X176558290Y-105335652D01*
X176558290Y-105335652D02*
X176653528Y-105288033D01*
X176653528Y-105288033D02*
X176939242Y-105288033D01*
X176939242Y-105288033D02*
X177034480Y-105335652D01*
X177034480Y-105335652D02*
X177082100Y-105383271D01*
X177082100Y-105383271D02*
X177129719Y-105478509D01*
X177129719Y-105478509D02*
X177129719Y-105621366D01*
X176463052Y-104859461D02*
X177129719Y-104859461D01*
X176558290Y-104859461D02*
X176510671Y-104811842D01*
X176510671Y-104811842D02*
X176463052Y-104716604D01*
X176463052Y-104716604D02*
X176463052Y-104573747D01*
X176463052Y-104573747D02*
X176510671Y-104478509D01*
X176510671Y-104478509D02*
X176605909Y-104430890D01*
X176605909Y-104430890D02*
X177129719Y-104430890D01*
X176463052Y-103954699D02*
X177129719Y-103954699D01*
X176558290Y-103954699D02*
X176510671Y-103907080D01*
X176510671Y-103907080D02*
X176463052Y-103811842D01*
X176463052Y-103811842D02*
X176463052Y-103668985D01*
X176463052Y-103668985D02*
X176510671Y-103573747D01*
X176510671Y-103573747D02*
X176605909Y-103526128D01*
X176605909Y-103526128D02*
X177129719Y-103526128D01*
X177224957Y-103288033D02*
X177224957Y-102526128D01*
X176129719Y-102097556D02*
X176129719Y-102002318D01*
X176129719Y-102002318D02*
X176177338Y-101907080D01*
X176177338Y-101907080D02*
X176224957Y-101859461D01*
X176224957Y-101859461D02*
X176320195Y-101811842D01*
X176320195Y-101811842D02*
X176510671Y-101764223D01*
X176510671Y-101764223D02*
X176748766Y-101764223D01*
X176748766Y-101764223D02*
X176939242Y-101811842D01*
X176939242Y-101811842D02*
X177034480Y-101859461D01*
X177034480Y-101859461D02*
X177082100Y-101907080D01*
X177082100Y-101907080D02*
X177129719Y-102002318D01*
X177129719Y-102002318D02*
X177129719Y-102097556D01*
X177129719Y-102097556D02*
X177082100Y-102192794D01*
X177082100Y-102192794D02*
X177034480Y-102240413D01*
X177034480Y-102240413D02*
X176939242Y-102288032D01*
X176939242Y-102288032D02*
X176748766Y-102335651D01*
X176748766Y-102335651D02*
X176510671Y-102335651D01*
X176510671Y-102335651D02*
X176320195Y-102288032D01*
X176320195Y-102288032D02*
X176224957Y-102240413D01*
X176224957Y-102240413D02*
X176177338Y-102192794D01*
X176177338Y-102192794D02*
X176129719Y-102097556D01*
X177129719Y-100811842D02*
X177129719Y-101383270D01*
X177129719Y-101097556D02*
X176129719Y-101097556D01*
X176129719Y-101097556D02*
X176272576Y-101192794D01*
X176272576Y-101192794D02*
X176367814Y-101288032D01*
X176367814Y-101288032D02*
X176415433Y-101383270D01*
X177129719Y-100478508D02*
X176463052Y-99954699D01*
X176463052Y-100478508D02*
X177129719Y-99954699D01*
X176129719Y-99383270D02*
X176129719Y-99288032D01*
X176129719Y-99288032D02*
X176177338Y-99192794D01*
X176177338Y-99192794D02*
X176224957Y-99145175D01*
X176224957Y-99145175D02*
X176320195Y-99097556D01*
X176320195Y-99097556D02*
X176510671Y-99049937D01*
X176510671Y-99049937D02*
X176748766Y-99049937D01*
X176748766Y-99049937D02*
X176939242Y-99097556D01*
X176939242Y-99097556D02*
X177034480Y-99145175D01*
X177034480Y-99145175D02*
X177082100Y-99192794D01*
X177082100Y-99192794D02*
X177129719Y-99288032D01*
X177129719Y-99288032D02*
X177129719Y-99383270D01*
X177129719Y-99383270D02*
X177082100Y-99478508D01*
X177082100Y-99478508D02*
X177034480Y-99526127D01*
X177034480Y-99526127D02*
X176939242Y-99573746D01*
X176939242Y-99573746D02*
X176748766Y-99621365D01*
X176748766Y-99621365D02*
X176510671Y-99621365D01*
X176510671Y-99621365D02*
X176320195Y-99573746D01*
X176320195Y-99573746D02*
X176224957Y-99526127D01*
X176224957Y-99526127D02*
X176177338Y-99478508D01*
X176177338Y-99478508D02*
X176129719Y-99383270D01*
X176129719Y-98145175D02*
X176129719Y-98621365D01*
X176129719Y-98621365D02*
X176605909Y-98668984D01*
X176605909Y-98668984D02*
X176558290Y-98621365D01*
X176558290Y-98621365D02*
X176510671Y-98526127D01*
X176510671Y-98526127D02*
X176510671Y-98288032D01*
X176510671Y-98288032D02*
X176558290Y-98192794D01*
X176558290Y-98192794D02*
X176605909Y-98145175D01*
X176605909Y-98145175D02*
X176701147Y-98097556D01*
X176701147Y-98097556D02*
X176939242Y-98097556D01*
X176939242Y-98097556D02*
X177034480Y-98145175D01*
X177034480Y-98145175D02*
X177082100Y-98192794D01*
X177082100Y-98192794D02*
X177129719Y-98288032D01*
X177129719Y-98288032D02*
X177129719Y-98526127D01*
X177129719Y-98526127D02*
X177082100Y-98621365D01*
X177082100Y-98621365D02*
X177034480Y-98668984D01*
X181429719Y-102788033D02*
X182144004Y-102788033D01*
X182144004Y-102788033D02*
X182286861Y-102835652D01*
X182286861Y-102835652D02*
X182382100Y-102930890D01*
X182382100Y-102930890D02*
X182429719Y-103073747D01*
X182429719Y-103073747D02*
X182429719Y-103168985D01*
X181524957Y-102359461D02*
X181477338Y-102311842D01*
X181477338Y-102311842D02*
X181429719Y-102216604D01*
X181429719Y-102216604D02*
X181429719Y-101978509D01*
X181429719Y-101978509D02*
X181477338Y-101883271D01*
X181477338Y-101883271D02*
X181524957Y-101835652D01*
X181524957Y-101835652D02*
X181620195Y-101788033D01*
X181620195Y-101788033D02*
X181715433Y-101788033D01*
X181715433Y-101788033D02*
X181858290Y-101835652D01*
X181858290Y-101835652D02*
X182429719Y-102407080D01*
X182429719Y-102407080D02*
X182429719Y-101788033D01*
X178954819Y-102195238D02*
X178954819Y-102766666D01*
X178954819Y-102480952D02*
X177954819Y-102480952D01*
X177954819Y-102480952D02*
X178097676Y-102576190D01*
X178097676Y-102576190D02*
X178192914Y-102671428D01*
X178192914Y-102671428D02*
X178240533Y-102766666D01*
X177954819Y-101576190D02*
X177954819Y-101480952D01*
X177954819Y-101480952D02*
X178002438Y-101385714D01*
X178002438Y-101385714D02*
X178050057Y-101338095D01*
X178050057Y-101338095D02*
X178145295Y-101290476D01*
X178145295Y-101290476D02*
X178335771Y-101242857D01*
X178335771Y-101242857D02*
X178573866Y-101242857D01*
X178573866Y-101242857D02*
X178764342Y-101290476D01*
X178764342Y-101290476D02*
X178859580Y-101338095D01*
X178859580Y-101338095D02*
X178907200Y-101385714D01*
X178907200Y-101385714D02*
X178954819Y-101480952D01*
X178954819Y-101480952D02*
X178954819Y-101576190D01*
X178954819Y-101576190D02*
X178907200Y-101671428D01*
X178907200Y-101671428D02*
X178859580Y-101719047D01*
X178859580Y-101719047D02*
X178764342Y-101766666D01*
X178764342Y-101766666D02*
X178573866Y-101814285D01*
X178573866Y-101814285D02*
X178335771Y-101814285D01*
X178335771Y-101814285D02*
X178145295Y-101766666D01*
X178145295Y-101766666D02*
X178050057Y-101719047D01*
X178050057Y-101719047D02*
X178002438Y-101671428D01*
X178002438Y-101671428D02*
X177954819Y-101576190D01*
X178954819Y-100814285D02*
X177954819Y-100814285D01*
X178573866Y-100719047D02*
X178954819Y-100433333D01*
X178288152Y-100433333D02*
X178669104Y-100814285D01*
X174954819Y-102242857D02*
X174478628Y-102576190D01*
X174954819Y-102814285D02*
X173954819Y-102814285D01*
X173954819Y-102814285D02*
X173954819Y-102433333D01*
X173954819Y-102433333D02*
X174002438Y-102338095D01*
X174002438Y-102338095D02*
X174050057Y-102290476D01*
X174050057Y-102290476D02*
X174145295Y-102242857D01*
X174145295Y-102242857D02*
X174288152Y-102242857D01*
X174288152Y-102242857D02*
X174383390Y-102290476D01*
X174383390Y-102290476D02*
X174431009Y-102338095D01*
X174431009Y-102338095D02*
X174478628Y-102433333D01*
X174478628Y-102433333D02*
X174478628Y-102814285D01*
X174954819Y-101290476D02*
X174954819Y-101861904D01*
X174954819Y-101576190D02*
X173954819Y-101576190D01*
X173954819Y-101576190D02*
X174097676Y-101671428D01*
X174097676Y-101671428D02*
X174192914Y-101766666D01*
X174192914Y-101766666D02*
X174240533Y-101861904D01*
X174050057Y-100909523D02*
X174002438Y-100861904D01*
X174002438Y-100861904D02*
X173954819Y-100766666D01*
X173954819Y-100766666D02*
X173954819Y-100528571D01*
X173954819Y-100528571D02*
X174002438Y-100433333D01*
X174002438Y-100433333D02*
X174050057Y-100385714D01*
X174050057Y-100385714D02*
X174145295Y-100338095D01*
X174145295Y-100338095D02*
X174240533Y-100338095D01*
X174240533Y-100338095D02*
X174383390Y-100385714D01*
X174383390Y-100385714D02*
X174954819Y-100957142D01*
X174954819Y-100957142D02*
X174954819Y-100338095D01*
X187754819Y-92809524D02*
X187754819Y-93380952D01*
X187754819Y-93095238D02*
X186754819Y-93095238D01*
X186754819Y-93095238D02*
X186897676Y-93190476D01*
X186897676Y-93190476D02*
X186992914Y-93285714D01*
X186992914Y-93285714D02*
X187040533Y-93380952D01*
X186754819Y-92190476D02*
X186754819Y-92095238D01*
X186754819Y-92095238D02*
X186802438Y-92000000D01*
X186802438Y-92000000D02*
X186850057Y-91952381D01*
X186850057Y-91952381D02*
X186945295Y-91904762D01*
X186945295Y-91904762D02*
X187135771Y-91857143D01*
X187135771Y-91857143D02*
X187373866Y-91857143D01*
X187373866Y-91857143D02*
X187564342Y-91904762D01*
X187564342Y-91904762D02*
X187659580Y-91952381D01*
X187659580Y-91952381D02*
X187707200Y-92000000D01*
X187707200Y-92000000D02*
X187754819Y-92095238D01*
X187754819Y-92095238D02*
X187754819Y-92190476D01*
X187754819Y-92190476D02*
X187707200Y-92285714D01*
X187707200Y-92285714D02*
X187659580Y-92333333D01*
X187659580Y-92333333D02*
X187564342Y-92380952D01*
X187564342Y-92380952D02*
X187373866Y-92428571D01*
X187373866Y-92428571D02*
X187135771Y-92428571D01*
X187135771Y-92428571D02*
X186945295Y-92380952D01*
X186945295Y-92380952D02*
X186850057Y-92333333D01*
X186850057Y-92333333D02*
X186802438Y-92285714D01*
X186802438Y-92285714D02*
X186754819Y-92190476D01*
X186754819Y-91238095D02*
X186754819Y-91142857D01*
X186754819Y-91142857D02*
X186802438Y-91047619D01*
X186802438Y-91047619D02*
X186850057Y-91000000D01*
X186850057Y-91000000D02*
X186945295Y-90952381D01*
X186945295Y-90952381D02*
X187135771Y-90904762D01*
X187135771Y-90904762D02*
X187373866Y-90904762D01*
X187373866Y-90904762D02*
X187564342Y-90952381D01*
X187564342Y-90952381D02*
X187659580Y-91000000D01*
X187659580Y-91000000D02*
X187707200Y-91047619D01*
X187707200Y-91047619D02*
X187754819Y-91142857D01*
X187754819Y-91142857D02*
X187754819Y-91238095D01*
X187754819Y-91238095D02*
X187707200Y-91333333D01*
X187707200Y-91333333D02*
X187659580Y-91380952D01*
X187659580Y-91380952D02*
X187564342Y-91428571D01*
X187564342Y-91428571D02*
X187373866Y-91476190D01*
X187373866Y-91476190D02*
X187135771Y-91476190D01*
X187135771Y-91476190D02*
X186945295Y-91428571D01*
X186945295Y-91428571D02*
X186850057Y-91380952D01*
X186850057Y-91380952D02*
X186802438Y-91333333D01*
X186802438Y-91333333D02*
X186754819Y-91238095D01*
X187088152Y-90476190D02*
X187754819Y-90476190D01*
X187183390Y-90476190D02*
X187135771Y-90428571D01*
X187135771Y-90428571D02*
X187088152Y-90333333D01*
X187088152Y-90333333D02*
X187088152Y-90190476D01*
X187088152Y-90190476D02*
X187135771Y-90095238D01*
X187135771Y-90095238D02*
X187231009Y-90047619D01*
X187231009Y-90047619D02*
X187754819Y-90047619D01*
X187231009Y-89238095D02*
X187231009Y-89571428D01*
X187754819Y-89571428D02*
X186754819Y-89571428D01*
X186754819Y-89571428D02*
X186754819Y-89095238D01*
X186850057Y-87999999D02*
X186802438Y-87952380D01*
X186802438Y-87952380D02*
X186754819Y-87857142D01*
X186754819Y-87857142D02*
X186754819Y-87619047D01*
X186754819Y-87619047D02*
X186802438Y-87523809D01*
X186802438Y-87523809D02*
X186850057Y-87476190D01*
X186850057Y-87476190D02*
X186945295Y-87428571D01*
X186945295Y-87428571D02*
X187040533Y-87428571D01*
X187040533Y-87428571D02*
X187183390Y-87476190D01*
X187183390Y-87476190D02*
X187754819Y-88047618D01*
X187754819Y-88047618D02*
X187754819Y-87428571D01*
X186754819Y-86523809D02*
X186754819Y-86999999D01*
X186754819Y-86999999D02*
X187231009Y-87047618D01*
X187231009Y-87047618D02*
X187183390Y-86999999D01*
X187183390Y-86999999D02*
X187135771Y-86904761D01*
X187135771Y-86904761D02*
X187135771Y-86666666D01*
X187135771Y-86666666D02*
X187183390Y-86571428D01*
X187183390Y-86571428D02*
X187231009Y-86523809D01*
X187231009Y-86523809D02*
X187326247Y-86476190D01*
X187326247Y-86476190D02*
X187564342Y-86476190D01*
X187564342Y-86476190D02*
X187659580Y-86523809D01*
X187659580Y-86523809D02*
X187707200Y-86571428D01*
X187707200Y-86571428D02*
X187754819Y-86666666D01*
X187754819Y-86666666D02*
X187754819Y-86904761D01*
X187754819Y-86904761D02*
X187707200Y-86999999D01*
X187707200Y-86999999D02*
X187659580Y-87047618D01*
X186754819Y-86190475D02*
X187754819Y-85857142D01*
X187754819Y-85857142D02*
X186754819Y-85523809D01*
X183659580Y-90142857D02*
X183707200Y-90190476D01*
X183707200Y-90190476D02*
X183754819Y-90333333D01*
X183754819Y-90333333D02*
X183754819Y-90428571D01*
X183754819Y-90428571D02*
X183707200Y-90571428D01*
X183707200Y-90571428D02*
X183611961Y-90666666D01*
X183611961Y-90666666D02*
X183516723Y-90714285D01*
X183516723Y-90714285D02*
X183326247Y-90761904D01*
X183326247Y-90761904D02*
X183183390Y-90761904D01*
X183183390Y-90761904D02*
X182992914Y-90714285D01*
X182992914Y-90714285D02*
X182897676Y-90666666D01*
X182897676Y-90666666D02*
X182802438Y-90571428D01*
X182802438Y-90571428D02*
X182754819Y-90428571D01*
X182754819Y-90428571D02*
X182754819Y-90333333D01*
X182754819Y-90333333D02*
X182802438Y-90190476D01*
X182802438Y-90190476D02*
X182850057Y-90142857D01*
X183754819Y-89190476D02*
X183754819Y-89761904D01*
X183754819Y-89476190D02*
X182754819Y-89476190D01*
X182754819Y-89476190D02*
X182897676Y-89571428D01*
X182897676Y-89571428D02*
X182992914Y-89666666D01*
X182992914Y-89666666D02*
X183040533Y-89761904D01*
X182754819Y-88333333D02*
X182754819Y-88523809D01*
X182754819Y-88523809D02*
X182802438Y-88619047D01*
X182802438Y-88619047D02*
X182850057Y-88666666D01*
X182850057Y-88666666D02*
X182992914Y-88761904D01*
X182992914Y-88761904D02*
X183183390Y-88809523D01*
X183183390Y-88809523D02*
X183564342Y-88809523D01*
X183564342Y-88809523D02*
X183659580Y-88761904D01*
X183659580Y-88761904D02*
X183707200Y-88714285D01*
X183707200Y-88714285D02*
X183754819Y-88619047D01*
X183754819Y-88619047D02*
X183754819Y-88428571D01*
X183754819Y-88428571D02*
X183707200Y-88333333D01*
X183707200Y-88333333D02*
X183659580Y-88285714D01*
X183659580Y-88285714D02*
X183564342Y-88238095D01*
X183564342Y-88238095D02*
X183326247Y-88238095D01*
X183326247Y-88238095D02*
X183231009Y-88285714D01*
X183231009Y-88285714D02*
X183183390Y-88333333D01*
X183183390Y-88333333D02*
X183135771Y-88428571D01*
X183135771Y-88428571D02*
X183135771Y-88619047D01*
X183135771Y-88619047D02*
X183183390Y-88714285D01*
X183183390Y-88714285D02*
X183231009Y-88761904D01*
X183231009Y-88761904D02*
X183326247Y-88809523D01*
X173427705Y-103719357D02*
X173475324Y-103671738D01*
X173475324Y-103671738D02*
X173570562Y-103624119D01*
X173570562Y-103624119D02*
X173808657Y-103624119D01*
X173808657Y-103624119D02*
X173903895Y-103671738D01*
X173903895Y-103671738D02*
X173951514Y-103719357D01*
X173951514Y-103719357D02*
X173999133Y-103814595D01*
X173999133Y-103814595D02*
X173999133Y-103909833D01*
X173999133Y-103909833D02*
X173951514Y-104052690D01*
X173951514Y-104052690D02*
X173380086Y-104624119D01*
X173380086Y-104624119D02*
X173999133Y-104624119D01*
X174380086Y-103719357D02*
X174427705Y-103671738D01*
X174427705Y-103671738D02*
X174522943Y-103624119D01*
X174522943Y-103624119D02*
X174761038Y-103624119D01*
X174761038Y-103624119D02*
X174856276Y-103671738D01*
X174856276Y-103671738D02*
X174903895Y-103719357D01*
X174903895Y-103719357D02*
X174951514Y-103814595D01*
X174951514Y-103814595D02*
X174951514Y-103909833D01*
X174951514Y-103909833D02*
X174903895Y-104052690D01*
X174903895Y-104052690D02*
X174332467Y-104624119D01*
X174332467Y-104624119D02*
X174951514Y-104624119D01*
X175570562Y-103624119D02*
X175665800Y-103624119D01*
X175665800Y-103624119D02*
X175761038Y-103671738D01*
X175761038Y-103671738D02*
X175808657Y-103719357D01*
X175808657Y-103719357D02*
X175856276Y-103814595D01*
X175856276Y-103814595D02*
X175903895Y-104005071D01*
X175903895Y-104005071D02*
X175903895Y-104243166D01*
X175903895Y-104243166D02*
X175856276Y-104433642D01*
X175856276Y-104433642D02*
X175808657Y-104528880D01*
X175808657Y-104528880D02*
X175761038Y-104576500D01*
X175761038Y-104576500D02*
X175665800Y-104624119D01*
X175665800Y-104624119D02*
X175570562Y-104624119D01*
X175570562Y-104624119D02*
X175475324Y-104576500D01*
X175475324Y-104576500D02*
X175427705Y-104528880D01*
X175427705Y-104528880D02*
X175380086Y-104433642D01*
X175380086Y-104433642D02*
X175332467Y-104243166D01*
X175332467Y-104243166D02*
X175332467Y-104005071D01*
X175332467Y-104005071D02*
X175380086Y-103814595D01*
X175380086Y-103814595D02*
X175427705Y-103719357D01*
X175427705Y-103719357D02*
X175475324Y-103671738D01*
X175475324Y-103671738D02*
X175570562Y-103624119D01*
X176903895Y-104624119D02*
X176570562Y-104147928D01*
X176332467Y-104624119D02*
X176332467Y-103624119D01*
X176332467Y-103624119D02*
X176713419Y-103624119D01*
X176713419Y-103624119D02*
X176808657Y-103671738D01*
X176808657Y-103671738D02*
X176856276Y-103719357D01*
X176856276Y-103719357D02*
X176903895Y-103814595D01*
X176903895Y-103814595D02*
X176903895Y-103957452D01*
X176903895Y-103957452D02*
X176856276Y-104052690D01*
X176856276Y-104052690D02*
X176808657Y-104100309D01*
X176808657Y-104100309D02*
X176713419Y-104147928D01*
X176713419Y-104147928D02*
X176332467Y-104147928D01*
D11*
X174908657Y-105781227D02*
X174775324Y-105590751D01*
X174680086Y-105781227D02*
X174680086Y-105381227D01*
X174680086Y-105381227D02*
X174832467Y-105381227D01*
X174832467Y-105381227D02*
X174870562Y-105400275D01*
X174870562Y-105400275D02*
X174889609Y-105419322D01*
X174889609Y-105419322D02*
X174908657Y-105457418D01*
X174908657Y-105457418D02*
X174908657Y-105514560D01*
X174908657Y-105514560D02*
X174889609Y-105552656D01*
X174889609Y-105552656D02*
X174870562Y-105571703D01*
X174870562Y-105571703D02*
X174832467Y-105590751D01*
X174832467Y-105590751D02*
X174680086Y-105590751D01*
X175289609Y-105781227D02*
X175061038Y-105781227D01*
X175175324Y-105781227D02*
X175175324Y-105381227D01*
X175175324Y-105381227D02*
X175137228Y-105438370D01*
X175137228Y-105438370D02*
X175099133Y-105476465D01*
X175099133Y-105476465D02*
X175061038Y-105495513D01*
X175537228Y-105381227D02*
X175575323Y-105381227D01*
X175575323Y-105381227D02*
X175613419Y-105400275D01*
X175613419Y-105400275D02*
X175632466Y-105419322D01*
X175632466Y-105419322D02*
X175651514Y-105457418D01*
X175651514Y-105457418D02*
X175670561Y-105533608D01*
X175670561Y-105533608D02*
X175670561Y-105628846D01*
X175670561Y-105628846D02*
X175651514Y-105705037D01*
X175651514Y-105705037D02*
X175632466Y-105743132D01*
X175632466Y-105743132D02*
X175613419Y-105762180D01*
X175613419Y-105762180D02*
X175575323Y-105781227D01*
X175575323Y-105781227D02*
X175537228Y-105781227D01*
X175537228Y-105781227D02*
X175499133Y-105762180D01*
X175499133Y-105762180D02*
X175480085Y-105743132D01*
X175480085Y-105743132D02*
X175461038Y-105705037D01*
X175461038Y-105705037D02*
X175441990Y-105628846D01*
X175441990Y-105628846D02*
X175441990Y-105533608D01*
X175441990Y-105533608D02*
X175461038Y-105457418D01*
X175461038Y-105457418D02*
X175480085Y-105419322D01*
X175480085Y-105419322D02*
X175499133Y-105400275D01*
X175499133Y-105400275D02*
X175537228Y-105381227D01*
%TO.C,R1*%
X177427000Y-106618000D02*
G75*
G02*
X177367000Y-106618000I-30000J0D01*
G01*
X177367000Y-106618000D02*
G75*
G02*
X177427000Y-106618000I30000J0D01*
G01*
%TO.C,R11*%
D13*
X174271800Y-103059300D02*
X175871800Y-103059300D01*
X175871800Y-103884300D01*
X174271800Y-103884300D01*
X174271800Y-103059300D01*
%TO.C,F1*%
X187500000Y-102400000D02*
X189100000Y-102400000D01*
X189100000Y-105600000D01*
X187500000Y-105600000D01*
X187500000Y-102400000D01*
%TO.C,D2*%
D11*
X172530000Y-106700000D02*
G75*
G02*
X172470000Y-106700000I-30000J0D01*
G01*
X172470000Y-106700000D02*
G75*
G02*
X172530000Y-106700000I30000J0D01*
G01*
%TO.C,C18*%
X179280000Y-89200000D02*
G75*
G02*
X179220000Y-89200000I-30000J0D01*
G01*
X179220000Y-89200000D02*
G75*
G02*
X179280000Y-89200000I30000J0D01*
G01*
%TO.C,D6*%
D13*
X174700000Y-89100000D02*
X177500000Y-89100000D01*
X174700000Y-90900000D02*
X174700000Y-89100000D01*
X175350000Y-90000000D02*
X175750000Y-90000000D01*
X175750000Y-90000000D02*
X175750000Y-89450000D01*
X175750000Y-90000000D02*
X175750000Y-90550000D01*
X175750000Y-90000000D02*
X176350000Y-89600000D01*
X176350000Y-89600000D02*
X176350000Y-90400000D01*
X176350000Y-90000000D02*
X176850000Y-90000000D01*
X176350000Y-90400000D02*
X175750000Y-90000000D01*
X177500000Y-89100000D02*
X177500000Y-90900000D01*
X177500000Y-90900000D02*
X174700000Y-90900000D01*
%TO.C,R2*%
D11*
X151619000Y-109141000D02*
G75*
G02*
X151559000Y-109141000I-30000J0D01*
G01*
X151559000Y-109141000D02*
G75*
G02*
X151619000Y-109141000I30000J0D01*
G01*
%TO.C,C17*%
X172530000Y-96630000D02*
G75*
G02*
X172470000Y-96630000I-30000J0D01*
G01*
X172470000Y-96630000D02*
G75*
G02*
X172530000Y-96630000I30000J0D01*
G01*
%TO.C,C3*%
X182130000Y-87150000D02*
G75*
G02*
X182070000Y-87150000I-30000J0D01*
G01*
X182070000Y-87150000D02*
G75*
G02*
X182130000Y-87150000I30000J0D01*
G01*
%TO.C,C19*%
X180830000Y-92850000D02*
G75*
G02*
X180770000Y-92850000I-30000J0D01*
G01*
X180770000Y-92850000D02*
G75*
G02*
X180830000Y-92850000I30000J0D01*
G01*
%TO.C,R3*%
X158580000Y-94019600D02*
G75*
G02*
X158520000Y-94019600I-30000J0D01*
G01*
X158520000Y-94019600D02*
G75*
G02*
X158580000Y-94019600I30000J0D01*
G01*
%TO.C,C20*%
X168830000Y-94030000D02*
G75*
G02*
X168770000Y-94030000I-30000J0D01*
G01*
X168770000Y-94030000D02*
G75*
G02*
X168830000Y-94030000I30000J0D01*
G01*
%TO.C,R8*%
X180830000Y-94050000D02*
G75*
G02*
X180770000Y-94050000I-30000J0D01*
G01*
X180770000Y-94050000D02*
G75*
G02*
X180830000Y-94050000I30000J0D01*
G01*
%TO.C,L1*%
X183980000Y-86700000D02*
G75*
G02*
X183920000Y-86700000I-30000J0D01*
G01*
X183920000Y-86700000D02*
G75*
G02*
X183980000Y-86700000I30000J0D01*
G01*
%TO.C,Q1*%
X176580800Y-109039400D02*
G75*
G02*
X176520800Y-109039400I-30000J0D01*
G01*
X176520800Y-109039400D02*
G75*
G02*
X176580800Y-109039400I30000J0D01*
G01*
%TO.C,R6*%
X182880000Y-93800000D02*
G75*
G02*
X182820000Y-93800000I-30000J0D01*
G01*
X182820000Y-93800000D02*
G75*
G02*
X182880000Y-93800000I30000J0D01*
G01*
%TO.C,D5*%
D13*
X171300000Y-89000000D02*
X173100000Y-89000000D01*
X171300000Y-91800000D02*
X171300000Y-89000000D01*
X171800000Y-90650000D02*
X172200000Y-90050000D01*
X172200000Y-89650000D02*
X172200000Y-90050000D01*
X172200000Y-90050000D02*
X171650000Y-90050000D01*
X172200000Y-90050000D02*
X172600000Y-90650000D01*
X172200000Y-90050000D02*
X172750000Y-90050000D01*
X172200000Y-90650000D02*
X172200000Y-91150000D01*
X172600000Y-90650000D02*
X171800000Y-90650000D01*
X173100000Y-89000000D02*
X173100000Y-91800000D01*
X173100000Y-91800000D02*
X171300000Y-91800000D01*
%TO.C,D3*%
D11*
X172534500Y-108633400D02*
G75*
G02*
X172474500Y-108633400I-30000J0D01*
G01*
X172474500Y-108633400D02*
G75*
G02*
X172534500Y-108633400I30000J0D01*
G01*
%TO.C,C15*%
X185930000Y-93930000D02*
G75*
G02*
X185870000Y-93930000I-30000J0D01*
G01*
X185870000Y-93930000D02*
G75*
G02*
X185930000Y-93930000I30000J0D01*
G01*
%TO.C,R5*%
X177530000Y-93200000D02*
G75*
G02*
X177470000Y-93200000I-30000J0D01*
G01*
X177470000Y-93200000D02*
G75*
G02*
X177530000Y-93200000I30000J0D01*
G01*
%TO.C,J2*%
D13*
X177874900Y-94954700D02*
X186074900Y-94954700D01*
X177874900Y-95954700D02*
X177874900Y-94954700D01*
X177874900Y-108954700D02*
X180074900Y-108954700D01*
X177874900Y-109954700D02*
X177874900Y-108954700D01*
X180074900Y-95954700D02*
X177874900Y-95954700D01*
X180074900Y-96954700D02*
X180782007Y-97454700D01*
X180074900Y-108954700D02*
X180074900Y-95954700D01*
X180782007Y-97454700D02*
X180074900Y-97954700D01*
X186074900Y-94954700D02*
X186074900Y-109954700D01*
X186074900Y-109954700D02*
X177874900Y-109954700D01*
%TO.C,R12*%
D11*
X174780000Y-102100000D02*
G75*
G02*
X174720000Y-102100000I-30000J0D01*
G01*
X174720000Y-102100000D02*
G75*
G02*
X174780000Y-102100000I30000J0D01*
G01*
%TO.C,C16*%
X183580000Y-90000000D02*
G75*
G02*
X183520000Y-90000000I-30000J0D01*
G01*
X183520000Y-90000000D02*
G75*
G02*
X183580000Y-90000000I30000J0D01*
G01*
%TO.C,R10*%
D13*
X174365800Y-105186800D02*
X175965800Y-105186800D01*
X175965800Y-106011800D01*
X174365800Y-106011800D01*
X174365800Y-105186800D01*
%TD*%
M02*
