%TF.GenerationSoftware,KiCad,Pcbnew,10.0.4*%
%TF.CreationDate,2026-07-20T19:50:36-07:00*%
%TF.ProjectId,esp32c6_daikin,65737033-3263-4365-9f64-61696b696e2e,rev?*%
%TF.SameCoordinates,Original*%
%TF.FileFunction,Copper,L1,Top*%
%TF.FilePolarity,Positive*%
%FSLAX46Y46*%
G04 Gerber Fmt 4.6, Leading zero omitted, Abs format (unit mm)*
G04 Created by KiCad (PCBNEW 10.0.4) date 2026-07-20 19:50:36*
%MOMM*%
%LPD*%
G01*
G04 APERTURE LIST*
G04 Aperture macros list*
%AMRoundRect*
0 Rectangle with rounded corners*
0 $1 Rounding radius*
0 $2 $3 $4 $5 $6 $7 $8 $9 X,Y pos of 4 corners*
0 Add a 4 corners polygon primitive as box body*
4,1,4,$2,$3,$4,$5,$6,$7,$8,$9,$2,$3,0*
0 Add four circle primitives for the rounded corners*
1,1,$1+$1,$2,$3*
1,1,$1+$1,$4,$5*
1,1,$1+$1,$6,$7*
1,1,$1+$1,$8,$9*
0 Add four rect primitives between the rounded corners*
20,1,$1+$1,$2,$3,$4,$5,0*
20,1,$1+$1,$4,$5,$6,$7,0*
20,1,$1+$1,$6,$7,$8,$9,0*
20,1,$1+$1,$8,$9,$2,$3,0*%
G04 Aperture macros list end*
%TA.AperFunction,SMDPad,CuDef*%
%ADD10R,0.540000X0.570000*%
%TD*%
%TA.AperFunction,SMDPad,CuDef*%
%ADD11RoundRect,0.200000X-0.200000X-0.275000X0.200000X-0.275000X0.200000X0.275000X-0.200000X0.275000X0*%
%TD*%
%TA.AperFunction,SMDPad,CuDef*%
%ADD12R,0.300000X0.850000*%
%TD*%
%TA.AperFunction,SMDPad,CuDef*%
%ADD13RoundRect,0.250000X0.625000X-0.375000X0.625000X0.375000X-0.625000X0.375000X-0.625000X-0.375000X0*%
%TD*%
%TA.AperFunction,SMDPad,CuDef*%
%ADD14R,0.350000X0.600000*%
%TD*%
%TA.AperFunction,SMDPad,CuDef*%
%ADD15R,0.540000X0.790000*%
%TD*%
%TA.AperFunction,SMDPad,CuDef*%
%ADD16RoundRect,0.225000X-0.225000X-0.375000X0.225000X-0.375000X0.225000X0.375000X-0.225000X0.375000X0*%
%TD*%
%TA.AperFunction,SMDPad,CuDef*%
%ADD17R,0.570000X0.540000*%
%TD*%
%TA.AperFunction,SMDPad,CuDef*%
%ADD18R,1.410000X1.350000*%
%TD*%
%TA.AperFunction,SMDPad,CuDef*%
%ADD19R,0.790000X0.540000*%
%TD*%
%TA.AperFunction,SMDPad,CuDef*%
%ADD20R,4.000000X1.500000*%
%TD*%
%TA.AperFunction,SMDPad,CuDef*%
%ADD21R,0.900000X0.400000*%
%TD*%
%TA.AperFunction,SMDPad,CuDef*%
%ADD22R,0.810000X0.860000*%
%TD*%
%TA.AperFunction,SMDPad,CuDef*%
%ADD23RoundRect,0.250000X-0.300000X0.300000X-0.300000X-0.300000X0.300000X-0.300000X0.300000X0.300000X0*%
%TD*%
%TA.AperFunction,ComponentPad*%
%ADD24RoundRect,0.250000X-0.725000X0.600000X-0.725000X-0.600000X0.725000X-0.600000X0.725000X0.600000X0*%
%TD*%
%TA.AperFunction,ComponentPad*%
%ADD25O,1.950000X1.700000*%
%TD*%
%TA.AperFunction,SMDPad,CuDef*%
%ADD26RoundRect,0.200000X0.200000X0.275000X-0.200000X0.275000X-0.200000X-0.275000X0.200000X-0.275000X0*%
%TD*%
%TA.AperFunction,ComponentPad*%
%ADD27C,1.524000*%
%TD*%
%TA.AperFunction,ViaPad*%
%ADD28C,0.600000*%
%TD*%
%TA.AperFunction,Conductor*%
%ADD29C,0.300000*%
%TD*%
%TA.AperFunction,Conductor*%
%ADD30C,0.200000*%
%TD*%
G04 APERTURE END LIST*
D10*
%TO.P,R1,1*%
%TO.N,/5V_BUCK*%
X177147000Y-106548000D03*
%TO.P,R1,2*%
%TO.N,/HV1*%
X177147000Y-105688000D03*
%TD*%
D11*
%TO.P,R11,1*%
%TO.N,/HV2*%
X174246800Y-103471800D03*
%TO.P,R11,2*%
%TO.N,/S21_TX_CONN*%
X175896800Y-103471800D03*
%TD*%
D12*
%TO.P,U1,1,VIN_1*%
%TO.N,V_in*%
X181400000Y-88280000D03*
%TO.P,U1,2,SW_2*%
%TO.N,Net-(U1-SW)*%
X180900000Y-88280000D03*
%TO.P,U1,3,GND_3*%
%TO.N,GND*%
X180400000Y-88280000D03*
%TO.P,U1,4,VBST_4*%
%TO.N,Net-(U1-VBST)*%
X180400000Y-89720000D03*
%TO.P,U1,5,EN_5*%
%TO.N,Net-(U1-EN)*%
X180900000Y-89720000D03*
%TO.P,U1,6,VFB_6*%
%TO.N,Net-(U1-VFB)*%
X181400000Y-89720000D03*
%TD*%
D13*
%TO.P,F1,1*%
%TO.N,V_in*%
X188300000Y-105400000D03*
%TO.P,F1,2*%
%TO.N,/12V_IN*%
X188300000Y-102600000D03*
%TD*%
D14*
%TO.P,D2,1*%
%TO.N,GND*%
X172320000Y-107000000D03*
%TO.P,D2,2*%
%TO.N,/S21_TX_CONN*%
X171680000Y-107000000D03*
%TD*%
D15*
%TO.P,C18,1*%
%TO.N,Net-(U1-VBST)*%
X179000000Y-89250000D03*
%TO.P,C18,2*%
%TO.N,Net-(U1-SW)*%
X179000000Y-88150000D03*
%TD*%
D16*
%TO.P,D6,1*%
%TO.N,/VBUS*%
X174450000Y-90000000D03*
%TO.P,D6,2*%
%TO.N,/5V_BUCK*%
X177750000Y-90000000D03*
%TD*%
D17*
%TO.P,R2,1*%
%TO.N,3V3*%
X151659000Y-108891000D03*
%TO.P,R2,2*%
%TO.N,TX1*%
X152519000Y-108891000D03*
%TD*%
D18*
%TO.P,C17,1*%
%TO.N,V_in*%
X172500000Y-96000000D03*
%TO.P,C17,2*%
%TO.N,GND*%
X174500000Y-96000000D03*
%TD*%
D19*
%TO.P,C3,1*%
%TO.N,V_in*%
X182050000Y-86900000D03*
%TO.P,C3,2*%
%TO.N,GND*%
X183150000Y-86900000D03*
%TD*%
%TO.P,C19,1*%
%TO.N,Net-(U1-VFB)*%
X180750000Y-92600000D03*
%TO.P,C19,2*%
%TO.N,/5V_BUCK*%
X181850000Y-92600000D03*
%TD*%
D10*
%TO.P,R3,1*%
%TO.N,3V3*%
X158300000Y-93949600D03*
%TO.P,R3,2*%
%TO.N,RX1*%
X158300000Y-93089600D03*
%TD*%
D18*
%TO.P,C20,1*%
%TO.N,/VBUS*%
X168800000Y-93400000D03*
%TO.P,C20,2*%
%TO.N,GND*%
X170800000Y-93400000D03*
%TD*%
D17*
%TO.P,R8,1*%
%TO.N,Net-(U1-VFB)*%
X180870000Y-93800000D03*
%TO.P,R8,2*%
%TO.N,GND*%
X181730000Y-93800000D03*
%TD*%
D20*
%TO.P,L1,1,1_1*%
%TO.N,Net-(U1-SW)*%
X186400000Y-87350000D03*
%TO.P,L1,2,2_2*%
%TO.N,/5V_BUCK*%
X186400000Y-90950000D03*
%TD*%
D21*
%TO.P,Q1,1,SN_1*%
%TO.N,TX1*%
X176420800Y-108719400D03*
%TO.P,Q1,2,GN_2*%
%TO.N,3V3*%
X176420800Y-108069400D03*
%TO.P,Q1,3,SP_3*%
%TO.N,/HV2*%
X176420800Y-107419400D03*
%TO.P,Q1,4,DP_4*%
%TO.N,RX1*%
X174620800Y-107419400D03*
%TO.P,Q1,5,GP_5*%
%TO.N,3V3*%
X174620800Y-108069400D03*
%TO.P,Q1,6,DN_6*%
%TO.N,/HV1*%
X174620800Y-108719400D03*
%TD*%
D22*
%TO.P,R6,1*%
%TO.N,/5V_BUCK*%
X182900000Y-93400000D03*
%TO.P,R6,2*%
%TO.N,Net-(U1-VFB)*%
X184400000Y-93400000D03*
%TD*%
D23*
%TO.P,D5,1*%
%TO.N,V_in*%
X172200000Y-89000000D03*
%TO.P,D5,2*%
%TO.N,GND*%
X172200000Y-91800000D03*
%TD*%
D14*
%TO.P,D3,1*%
%TO.N,GND*%
X172684500Y-108333400D03*
%TO.P,D3,2*%
%TO.N,/S21_RX_CONN*%
X173324500Y-108333400D03*
%TD*%
D18*
%TO.P,C15,1*%
%TO.N,/5V_BUCK*%
X185900000Y-93300000D03*
%TO.P,C15,2*%
%TO.N,GND*%
X187900000Y-93300000D03*
%TD*%
D22*
%TO.P,R5,1*%
%TO.N,Net-(U1-EN)*%
X177550000Y-92800000D03*
%TO.P,R5,2*%
%TO.N,V_in*%
X179050000Y-92800000D03*
%TD*%
D24*
%TO.P,J2,1*%
%TO.N,unconnected-(J2-Pin_1-Pad1)*%
X179374900Y-97454700D03*
D25*
%TO.P,J2,2*%
%TO.N,/S21_TX_CONN*%
X179374900Y-99954700D03*
%TO.P,J2,3*%
%TO.N,/S21_RX_CONN*%
X179374900Y-102454700D03*
%TO.P,J2,4*%
%TO.N,/12V_IN*%
X179374900Y-104954700D03*
%TO.P,J2,5*%
%TO.N,GND*%
X179374900Y-107454700D03*
%TD*%
D10*
%TO.P,R12,1*%
%TO.N,/5V_BUCK*%
X174500000Y-102030000D03*
%TO.P,R12,2*%
%TO.N,/HV2*%
X174500000Y-101170000D03*
%TD*%
D15*
%TO.P,C16,1*%
%TO.N,V_in*%
X183300000Y-90050000D03*
%TO.P,C16,2*%
%TO.N,GND*%
X183300000Y-88950000D03*
%TD*%
D26*
%TO.P,R10,1*%
%TO.N,/HV1*%
X175990800Y-105599300D03*
%TO.P,R10,2*%
%TO.N,/S21_RX_CONN*%
X174340800Y-105599300D03*
%TD*%
D27*
%TO.P,U2,1*%
%TO.N,unconnected-(U2-D0-Pad1)*%
X167120000Y-106120000D03*
%TO.P,U2,2*%
%TO.N,unconnected-(U2-D1-Pad2)*%
X164580000Y-106120000D03*
%TO.P,U2,3*%
%TO.N,unconnected-(U2-D2-Pad3)*%
X162040000Y-106120000D03*
%TO.P,U2,4*%
%TO.N,unconnected-(U2-D3-Pad4)*%
X159500000Y-106120000D03*
%TO.P,U2,5*%
%TO.N,unconnected-(U2-D4-Pad5)*%
X156960000Y-106120000D03*
%TO.P,U2,6*%
%TO.N,unconnected-(U2-D5-Pad6)*%
X154420000Y-106120000D03*
%TO.P,U2,7*%
%TO.N,TX1*%
X151880000Y-106120000D03*
%TO.P,U2,8*%
%TO.N,RX1*%
X151880000Y-90880000D03*
%TO.P,U2,9*%
%TO.N,unconnected-(U2-D8-Pad9)*%
X154420000Y-90880000D03*
%TO.P,U2,10*%
%TO.N,unconnected-(U2-D9-Pad10)*%
X156960000Y-90880000D03*
%TO.P,U2,11*%
%TO.N,unconnected-(U2-D10-Pad11)*%
X159500000Y-90880000D03*
%TO.P,U2,12*%
%TO.N,3V3*%
X162040000Y-90880000D03*
%TO.P,U2,13*%
%TO.N,GND*%
X164580000Y-90880000D03*
%TO.P,U2,14*%
%TO.N,/VBUS*%
X167120000Y-90880000D03*
%TD*%
D28*
%TO.N,/5V_BUCK*%
X176521300Y-90100000D03*
X177900000Y-90050000D03*
X182900000Y-94300000D03*
X177004000Y-100476300D03*
%TO.N,/HV1*%
X172095400Y-108972900D03*
X177095400Y-104881400D03*
%TO.N,/S21_TX_CONN*%
X171923200Y-105255100D03*
X175646400Y-102450600D03*
%TO.N,V_in*%
X183694000Y-90972500D03*
X178190600Y-88889100D03*
X188691800Y-104255700D03*
%TO.N,Net-(U1-SW)*%
X177817900Y-88113000D03*
X184072500Y-88555200D03*
X180981200Y-87343600D03*
%TO.N,GND*%
X160500000Y-102500000D03*
X163500000Y-92500000D03*
X181148454Y-103700499D03*
X160500000Y-96500000D03*
X163500000Y-99500000D03*
X157500000Y-96500000D03*
X151500000Y-87500000D03*
X163500000Y-102500000D03*
X157500000Y-102500000D03*
X160500000Y-87500000D03*
X160500000Y-93500000D03*
X163500000Y-95500000D03*
X157500000Y-87500000D03*
X163500000Y-87500000D03*
X156100000Y-93500000D03*
X154500000Y-87500000D03*
X160500000Y-99500000D03*
X157500000Y-99500000D03*
%TO.N,3V3*%
X176650000Y-109800000D03*
X151450000Y-108950000D03*
X162050000Y-90050000D03*
X158100000Y-94150000D03*
%TO.N,RX1*%
X158450000Y-92850000D03*
X173950000Y-107050000D03*
X152850000Y-90050000D03*
%TD*%
%TO.N,/5V_BUCK*%
D29*
X185250000Y-92400000D02*
X186400000Y-90950000D01*
X182900000Y-93400000D02*
X182650000Y-93550000D01*
X182650000Y-93550000D02*
X183350000Y-94250000D01*
X177768700Y-103704700D02*
X177768700Y-103651300D01*
X177768700Y-103651300D02*
X175916300Y-101798900D01*
X177768700Y-106548000D02*
X177768700Y-103704700D01*
X185650000Y-91700000D02*
X186400000Y-90950000D01*
X186400000Y-92051700D02*
X186178400Y-92273300D01*
X175145500Y-102030000D02*
X174500000Y-102030000D01*
X175916300Y-101798900D02*
X175916300Y-101564000D01*
X176521300Y-90100000D02*
X177650000Y-90100000D01*
X185650000Y-91700000D02*
X186400000Y-90950000D01*
X175376600Y-101798900D02*
X175145500Y-102030000D01*
X175916300Y-101564000D02*
X177004000Y-100476300D01*
X182900000Y-93400000D02*
X181850000Y-92600000D01*
X177850000Y-90000000D02*
X177900000Y-90050000D01*
X185250000Y-94250000D02*
X185250000Y-92400000D01*
X183350000Y-94250000D02*
X185250000Y-94250000D01*
X186178400Y-92273300D02*
X185400000Y-92273300D01*
X185250000Y-94250000D02*
X185250000Y-92400000D01*
X185650000Y-91700000D02*
X186400000Y-90950000D01*
X184900000Y-94300000D02*
X185250000Y-94250000D01*
X177147000Y-106548000D02*
X177768700Y-106548000D01*
X186400000Y-90950000D02*
X186400000Y-92051700D01*
X185250000Y-92400000D02*
X186400000Y-90950000D01*
X182900000Y-94300000D02*
X184900000Y-94300000D01*
X177650000Y-90100000D02*
X177750000Y-90000000D01*
X185900000Y-93300000D02*
X185650000Y-91700000D01*
X175916300Y-101798900D02*
X175376600Y-101798900D01*
X177750000Y-90000000D02*
X177850000Y-90000000D01*
%TO.N,/HV1*%
D30*
X177147000Y-105688000D02*
X177147000Y-104933000D01*
X173869100Y-108719400D02*
X173615600Y-108972900D01*
X177147000Y-105688000D02*
X176575300Y-105688000D01*
X175990800Y-105599300D02*
X176486600Y-105599300D01*
X176486600Y-105599300D02*
X176575300Y-105688000D01*
X173615600Y-108972900D02*
X172095400Y-108972900D01*
X177147000Y-104933000D02*
X177095400Y-104881400D01*
X174620800Y-108719400D02*
X173869100Y-108719400D01*
%TO.N,/HV2*%
X174246800Y-103471800D02*
X175043300Y-104268300D01*
X175043300Y-106041900D02*
X175669100Y-106667700D01*
X174246800Y-103471800D02*
X173928300Y-103153300D01*
X175043300Y-104268300D02*
X175043300Y-106041900D01*
X175669100Y-106667700D02*
X175669100Y-107419400D01*
X173928300Y-103153300D02*
X173928300Y-101170000D01*
X174500000Y-101170000D02*
X173928300Y-101170000D01*
X176420800Y-107419400D02*
X175669100Y-107419400D01*
%TO.N,/S21_TX_CONN*%
X171680000Y-107000000D02*
X171680000Y-105498300D01*
X175646400Y-103221400D02*
X175896800Y-103471800D01*
X175646400Y-102450600D02*
X175646400Y-103221400D01*
X171680000Y-105498300D02*
X171923200Y-105255100D01*
%TO.N,V_in*%
D29*
X175695100Y-89000000D02*
X178079700Y-89000000D01*
X188691800Y-105008200D02*
X188691800Y-104255700D01*
X182050000Y-86900000D02*
X182050000Y-87521700D01*
X183300000Y-90423300D02*
X183300000Y-90796700D01*
X183300000Y-90050000D02*
X183300000Y-90423300D01*
X183300000Y-90423300D02*
X182050000Y-89173300D01*
X172200000Y-89000000D02*
X175695100Y-89000000D01*
X182050000Y-86900000D02*
X182050000Y-87700000D01*
X172500000Y-94973300D02*
X173884800Y-93588500D01*
X173884800Y-93588500D02*
X175695100Y-93588500D01*
X182050000Y-87700000D02*
X181450000Y-88300000D01*
X175695100Y-93588500D02*
X178261500Y-93588500D01*
X172500000Y-96000000D02*
X172500000Y-94973300D01*
X181450000Y-88300000D02*
X181400000Y-88300000D01*
X175695100Y-93588500D02*
X175695100Y-89000000D01*
X183694000Y-90972500D02*
X183518200Y-90796700D01*
X178079700Y-89000000D02*
X178190600Y-88889100D01*
X188300000Y-105400000D02*
X188691800Y-105008200D01*
X183518200Y-90796700D02*
X183300000Y-90796700D01*
X178261500Y-93588500D02*
X179050000Y-92800000D01*
X182050000Y-89173300D02*
X182050000Y-88346400D01*
X182050000Y-88346400D02*
X182050000Y-87521700D01*
%TO.N,Net-(U1-SW)*%
D30*
X180900000Y-87424800D02*
X180900000Y-88280000D01*
X180981200Y-87343600D02*
X180900000Y-87424800D01*
X186400000Y-88401700D02*
X184226000Y-88401700D01*
X179000000Y-88150000D02*
X177854900Y-88150000D01*
X177854900Y-88150000D02*
X177817900Y-88113000D01*
X186400000Y-87350000D02*
X186400000Y-88401700D01*
X184226000Y-88401700D02*
X184072500Y-88555200D01*
%TO.N,Net-(U1-VBST)*%
X179000000Y-89250000D02*
X179930000Y-89250000D01*
X179930000Y-89250000D02*
X180400000Y-89720000D01*
%TO.N,Net-(U1-EN)*%
X178256700Y-92270000D02*
X178256700Y-92800000D01*
X180080000Y-90446700D02*
X178256700Y-92270000D01*
X180900000Y-89720000D02*
X180900000Y-90446700D01*
X180900000Y-90446700D02*
X180080000Y-90446700D01*
X177550000Y-92800000D02*
X178256700Y-92800000D01*
%TO.N,Net-(U1-VFB)*%
X180750000Y-92600000D02*
X180750000Y-93171700D01*
X180750000Y-92600000D02*
X180750000Y-92028300D01*
X181400000Y-92028300D02*
X181400000Y-89720000D01*
X180750000Y-92028300D02*
X181400000Y-92028300D01*
X180750000Y-93171700D02*
X180806600Y-93228300D01*
X182601600Y-92028300D02*
X183693300Y-92870000D01*
X183693300Y-92870000D02*
X183693300Y-93400000D01*
X184400000Y-93400000D02*
X183693300Y-93400000D01*
X180806600Y-93228300D02*
X180870000Y-93228300D01*
X180870000Y-93800000D02*
X180870000Y-93228300D01*
X181400000Y-92028300D02*
X182601600Y-92028300D01*
%TO.N,/12V_IN*%
D29*
X179374900Y-104954700D02*
X185945300Y-104954700D01*
X185945300Y-104954700D02*
X188300000Y-102600000D01*
%TO.N,/VBUS*%
X167120000Y-90880000D02*
X168613300Y-92373300D01*
X174450000Y-90000000D02*
X173570000Y-90880000D01*
X168800000Y-93400000D02*
X168800000Y-92373300D01*
X168613300Y-92373300D02*
X168800000Y-92373300D01*
X173570000Y-90880000D02*
X167120000Y-90880000D01*
%TO.N,3V3*%
D30*
X176650000Y-109800000D02*
X177200000Y-109250000D01*
X158300000Y-93950000D02*
X158750000Y-93950000D01*
X160100000Y-92850000D02*
X162050000Y-90900000D01*
X162050000Y-90900000D02*
X162050000Y-90050000D01*
X176400000Y-108050000D02*
X174600000Y-108050000D01*
X159850000Y-92850000D02*
X160100000Y-92850000D01*
X151500000Y-108900000D02*
X151450000Y-108950000D01*
X151650000Y-108900000D02*
X151500000Y-108900000D01*
X158750000Y-93950000D02*
X159850000Y-92850000D01*
X177200000Y-108150000D02*
X176500000Y-108150000D01*
X177200000Y-109250000D02*
X177200000Y-108150000D01*
X176500000Y-108150000D02*
X176400000Y-108050000D01*
X158100000Y-94150000D02*
X158300000Y-93950000D01*
%TO.N,TX1*%
X151880000Y-106120000D02*
X152519000Y-106759000D01*
X174938800Y-109575200D02*
X175669100Y-108844900D01*
X153789900Y-109575200D02*
X174938800Y-109575200D01*
X153105700Y-108891000D02*
X153789900Y-109575200D01*
X175669100Y-108844900D02*
X175669100Y-108719400D01*
X152519000Y-108891000D02*
X153105700Y-108891000D01*
X176420800Y-108719400D02*
X175669100Y-108719400D01*
X152519000Y-106759000D02*
X152519000Y-108891000D01*
%TO.N,RX1*%
X174600000Y-107400000D02*
X174300000Y-107400000D01*
X174300000Y-107400000D02*
X173950000Y-107050000D01*
X155550000Y-89750000D02*
X155550000Y-91600000D01*
X157200000Y-92000000D02*
X158300000Y-93100000D01*
X153000000Y-90050000D02*
X153300000Y-89750000D01*
X155550000Y-91600000D02*
X155800000Y-91850000D01*
X155800000Y-91950000D02*
X155850000Y-92000000D01*
X155850000Y-92000000D02*
X157200000Y-92000000D01*
X152850000Y-90050000D02*
X153000000Y-90050000D01*
X155800000Y-91850000D02*
X155800000Y-91950000D01*
X158450000Y-92850000D02*
X158450000Y-92950000D01*
X153300000Y-89750000D02*
X155550000Y-89750000D01*
X158450000Y-92950000D02*
X158300000Y-93100000D01*
%TO.N,/S21_RX_CONN*%
X177229100Y-99837900D02*
X178694200Y-101303000D01*
X179374900Y-102454700D02*
X179374900Y-101303000D01*
X174725900Y-99837900D02*
X177229100Y-99837900D01*
X174340800Y-105599300D02*
X173543100Y-105599300D01*
X173052600Y-107799200D02*
X173052600Y-106089800D01*
X173543100Y-105599300D02*
X173543100Y-101020700D01*
X173324500Y-108333400D02*
X173324500Y-108071100D01*
X173324500Y-108071100D02*
X173052600Y-107799200D01*
X173052600Y-106089800D02*
X173543100Y-105599300D01*
X178694200Y-101303000D02*
X179374900Y-101303000D01*
X173543100Y-101020700D02*
X174725900Y-99837900D01*
%TD*%
%TA.AperFunction,Conductor*%
%TO.N,GND*%
G36*
X181414271Y-86519407D02*
G01*
X181450235Y-86568907D01*
X181454189Y-86605388D01*
X181454500Y-86605388D01*
X181454500Y-86608254D01*
X181454603Y-86609205D01*
X181454500Y-86610250D01*
X181454500Y-86870079D01*
X181435593Y-86928270D01*
X181386093Y-86964234D01*
X181324907Y-86964234D01*
X181294684Y-86945713D01*
X181293660Y-86947049D01*
X181288509Y-86943096D01*
X181174389Y-86877209D01*
X181174391Y-86877209D01*
X181124999Y-86863975D01*
X181047092Y-86843100D01*
X180915308Y-86843100D01*
X180837400Y-86863975D01*
X180788009Y-86877209D01*
X180673890Y-86943096D01*
X180580696Y-87036290D01*
X180514809Y-87150409D01*
X180504266Y-87189758D01*
X180480700Y-87277708D01*
X180480700Y-87409492D01*
X180498402Y-87475556D01*
X180514808Y-87536787D01*
X180579829Y-87649406D01*
X180592550Y-87709255D01*
X180576409Y-87753906D01*
X180561134Y-87776766D01*
X180561132Y-87776772D01*
X180549501Y-87835241D01*
X180549500Y-87835253D01*
X180549500Y-88724746D01*
X180549501Y-88724758D01*
X180561132Y-88783227D01*
X180561133Y-88783231D01*
X180605448Y-88849552D01*
X180671769Y-88893867D01*
X180717192Y-88902902D01*
X180727541Y-88908697D01*
X180739322Y-88910092D01*
X180753604Y-88923294D01*
X180770574Y-88932798D01*
X180775540Y-88943571D01*
X180784252Y-88951624D01*
X180788046Y-88970698D01*
X180796190Y-88988363D01*
X180793875Y-88999998D01*
X180796190Y-89011633D01*
X180788047Y-89029295D01*
X180784253Y-89048373D01*
X180775541Y-89056425D01*
X180770575Y-89067199D01*
X180753605Y-89076702D01*
X180739323Y-89089905D01*
X180717192Y-89097096D01*
X180669316Y-89106620D01*
X180630686Y-89106621D01*
X180569751Y-89094500D01*
X180569748Y-89094500D01*
X180240479Y-89094500D01*
X180182288Y-89075593D01*
X180170476Y-89065504D01*
X180114510Y-89009539D01*
X180045992Y-88969980D01*
X180045988Y-88969978D01*
X179969564Y-88949500D01*
X179969562Y-88949500D01*
X179569500Y-88949500D01*
X179511309Y-88930593D01*
X179475345Y-88881093D01*
X179474286Y-88877617D01*
X179470500Y-88864323D01*
X179470500Y-88835252D01*
X179458867Y-88776769D01*
X179435681Y-88742070D01*
X179431423Y-88727117D01*
X179432002Y-88711324D01*
X179427713Y-88696115D01*
X179433178Y-88679293D01*
X179433668Y-88665973D01*
X179440223Y-88657613D01*
X179444323Y-88644997D01*
X179448524Y-88638710D01*
X179458867Y-88623231D01*
X179470500Y-88564748D01*
X179470500Y-87735252D01*
X179458867Y-87676769D01*
X179414552Y-87610448D01*
X179414548Y-87610445D01*
X179348233Y-87566134D01*
X179348231Y-87566133D01*
X179348228Y-87566132D01*
X179348227Y-87566132D01*
X179289758Y-87554501D01*
X179289748Y-87554500D01*
X178710252Y-87554500D01*
X178710251Y-87554500D01*
X178710241Y-87554501D01*
X178651772Y-87566132D01*
X178651766Y-87566134D01*
X178585451Y-87610445D01*
X178585445Y-87610451D01*
X178541134Y-87676766D01*
X178541132Y-87676772D01*
X178529501Y-87735241D01*
X178529500Y-87735253D01*
X178529500Y-87750500D01*
X178524655Y-87765411D01*
X178524655Y-87781093D01*
X178515438Y-87793778D01*
X178510593Y-87808691D01*
X178497907Y-87817907D01*
X178488691Y-87830593D01*
X178473778Y-87835438D01*
X178461093Y-87844655D01*
X178430500Y-87849500D01*
X178300841Y-87849500D01*
X178242650Y-87830593D01*
X178222299Y-87810767D01*
X178218404Y-87805691D01*
X178218401Y-87805688D01*
X178218400Y-87805686D01*
X178125214Y-87712500D01*
X178125211Y-87712498D01*
X178125209Y-87712496D01*
X178011089Y-87646609D01*
X178011091Y-87646609D01*
X177961699Y-87633375D01*
X177883792Y-87612500D01*
X177752008Y-87612500D01*
X177674100Y-87633375D01*
X177624709Y-87646609D01*
X177510590Y-87712496D01*
X177417396Y-87805690D01*
X177351509Y-87919809D01*
X177351508Y-87919814D01*
X177317400Y-88047108D01*
X177317400Y-88178892D01*
X177334994Y-88244554D01*
X177351509Y-88306190D01*
X177417396Y-88420309D01*
X177417398Y-88420311D01*
X177417400Y-88420314D01*
X177477584Y-88480498D01*
X177505360Y-88535013D01*
X177495789Y-88595445D01*
X177452524Y-88638710D01*
X177407579Y-88649500D01*
X173029857Y-88649500D01*
X172971666Y-88630593D01*
X172936413Y-88583198D01*
X172912024Y-88513500D01*
X172902793Y-88487118D01*
X172868951Y-88441264D01*
X172822154Y-88377855D01*
X172822152Y-88377853D01*
X172822150Y-88377850D01*
X172822146Y-88377847D01*
X172822144Y-88377845D01*
X172712883Y-88297207D01*
X172584703Y-88252355D01*
X172584694Y-88252353D01*
X172554274Y-88249500D01*
X172554266Y-88249500D01*
X171845734Y-88249500D01*
X171845725Y-88249500D01*
X171815305Y-88252353D01*
X171815296Y-88252355D01*
X171687116Y-88297207D01*
X171577855Y-88377845D01*
X171577845Y-88377855D01*
X171497207Y-88487116D01*
X171452355Y-88615296D01*
X171452353Y-88615305D01*
X171449500Y-88645725D01*
X171449500Y-89354274D01*
X171452353Y-89384694D01*
X171452355Y-89384703D01*
X171497207Y-89512883D01*
X171577845Y-89622144D01*
X171577847Y-89622146D01*
X171577850Y-89622150D01*
X171577853Y-89622152D01*
X171577855Y-89622154D01*
X171687116Y-89702792D01*
X171687117Y-89702792D01*
X171687118Y-89702793D01*
X171815301Y-89747646D01*
X171845725Y-89750499D01*
X171845727Y-89750500D01*
X171845734Y-89750500D01*
X172554273Y-89750500D01*
X172554273Y-89750499D01*
X172584699Y-89747646D01*
X172712882Y-89702793D01*
X172822150Y-89622150D01*
X172902793Y-89512882D01*
X172936413Y-89416802D01*
X172973478Y-89368122D01*
X173029857Y-89350500D01*
X173725761Y-89350500D01*
X173783952Y-89369407D01*
X173819916Y-89418907D01*
X173819916Y-89480093D01*
X173816173Y-89489128D01*
X173815281Y-89491874D01*
X173799500Y-89591510D01*
X173799500Y-90113810D01*
X173780593Y-90172001D01*
X173770504Y-90183814D01*
X173453814Y-90500504D01*
X173399297Y-90528281D01*
X173383810Y-90529500D01*
X168082770Y-90529500D01*
X168024579Y-90510593D01*
X167991306Y-90468385D01*
X167972957Y-90424087D01*
X167972957Y-90424086D01*
X167928341Y-90357314D01*
X167867622Y-90266442D01*
X167733558Y-90132378D01*
X167618429Y-90055451D01*
X167575914Y-90027043D01*
X167400754Y-89954489D01*
X167400748Y-89954487D01*
X167214800Y-89917500D01*
X167214798Y-89917500D01*
X167025202Y-89917500D01*
X167025199Y-89917500D01*
X166839251Y-89954487D01*
X166839245Y-89954489D01*
X166664085Y-90027043D01*
X166506442Y-90132378D01*
X166506438Y-90132381D01*
X166372381Y-90266438D01*
X166372378Y-90266442D01*
X166267043Y-90424085D01*
X166194489Y-90599245D01*
X166194487Y-90599251D01*
X166157500Y-90785199D01*
X166157500Y-90974800D01*
X166194487Y-91160748D01*
X166194489Y-91160754D01*
X166267043Y-91335914D01*
X166289068Y-91368876D01*
X166372378Y-91493558D01*
X166506442Y-91627622D01*
X166664085Y-91732956D01*
X166839249Y-91805512D01*
X167025202Y-91842500D01*
X167025203Y-91842500D01*
X167214797Y-91842500D01*
X167214798Y-91842500D01*
X167400751Y-91805512D01*
X167445051Y-91787161D01*
X167506046Y-91782361D01*
X167552940Y-91808622D01*
X168105735Y-92361417D01*
X168133512Y-92415934D01*
X168123941Y-92476366D01*
X168080676Y-92519631D01*
X168055047Y-92528518D01*
X168016772Y-92536132D01*
X168016766Y-92536134D01*
X167950451Y-92580445D01*
X167950445Y-92580451D01*
X167906134Y-92646766D01*
X167906132Y-92646772D01*
X167894501Y-92705241D01*
X167894500Y-92705253D01*
X167894500Y-94094746D01*
X167894501Y-94094758D01*
X167906132Y-94153227D01*
X167906134Y-94153233D01*
X167921013Y-94175500D01*
X167950448Y-94219552D01*
X168016769Y-94263867D01*
X168061231Y-94272711D01*
X168075241Y-94275498D01*
X168075246Y-94275498D01*
X168075252Y-94275500D01*
X168075253Y-94275500D01*
X169524747Y-94275500D01*
X169524748Y-94275500D01*
X169583231Y-94263867D01*
X169649552Y-94219552D01*
X169693867Y-94153231D01*
X169705500Y-94094748D01*
X169705500Y-92705252D01*
X169693867Y-92646769D01*
X169649552Y-92580448D01*
X169649548Y-92580445D01*
X169583233Y-92536134D01*
X169583231Y-92536133D01*
X169583228Y-92536132D01*
X169583227Y-92536132D01*
X169524758Y-92524501D01*
X169524748Y-92524500D01*
X169524747Y-92524500D01*
X169249500Y-92524500D01*
X169191309Y-92505593D01*
X169155345Y-92456093D01*
X169150500Y-92425500D01*
X169150500Y-92327157D01*
X169150500Y-92327156D01*
X169126614Y-92238012D01*
X169080469Y-92158088D01*
X169015212Y-92092831D01*
X169008041Y-92088691D01*
X168935290Y-92046687D01*
X168935289Y-92046686D01*
X168935288Y-92046686D01*
X168846144Y-92022800D01*
X168846142Y-92022800D01*
X168799490Y-92022800D01*
X168741299Y-92003893D01*
X168729486Y-91993804D01*
X168135186Y-91399504D01*
X168107409Y-91344987D01*
X168116980Y-91284555D01*
X168160245Y-91241290D01*
X168205190Y-91230500D01*
X173616142Y-91230500D01*
X173616144Y-91230500D01*
X173705288Y-91206614D01*
X173738027Y-91187712D01*
X173785212Y-91160470D01*
X174116290Y-90829390D01*
X174170805Y-90801614D01*
X174187622Y-90800955D01*
X174187622Y-90800500D01*
X174708490Y-90800500D01*
X174729885Y-90797111D01*
X174808126Y-90784719D01*
X174928220Y-90723528D01*
X175023528Y-90628220D01*
X175084719Y-90508126D01*
X175100500Y-90408488D01*
X175100500Y-89591512D01*
X175099248Y-89583609D01*
X175087661Y-89510451D01*
X175084719Y-89491874D01*
X175084716Y-89491868D01*
X175082310Y-89484460D01*
X175084342Y-89483799D01*
X175076458Y-89434011D01*
X175104237Y-89379495D01*
X175158754Y-89351718D01*
X175174239Y-89350500D01*
X175245600Y-89350500D01*
X175303791Y-89369407D01*
X175339755Y-89418907D01*
X175344600Y-89449500D01*
X175344600Y-93139000D01*
X175325693Y-93197191D01*
X175276193Y-93233155D01*
X175245600Y-93238000D01*
X173838656Y-93238000D01*
X173764694Y-93257818D01*
X173749512Y-93261886D01*
X173669588Y-93308030D01*
X172219530Y-94758088D01*
X172173386Y-94838012D01*
X172149500Y-94927157D01*
X172149500Y-95025500D01*
X172130593Y-95083691D01*
X172081093Y-95119655D01*
X172050500Y-95124500D01*
X171775252Y-95124500D01*
X171775251Y-95124500D01*
X171775241Y-95124501D01*
X171716772Y-95136132D01*
X171716766Y-95136134D01*
X171650451Y-95180445D01*
X171650445Y-95180451D01*
X171606134Y-95246766D01*
X171606132Y-95246772D01*
X171594501Y-95305241D01*
X171594500Y-95305253D01*
X171594500Y-96694746D01*
X171594501Y-96694758D01*
X171606132Y-96753227D01*
X171606134Y-96753233D01*
X171650445Y-96819548D01*
X171650448Y-96819552D01*
X171716769Y-96863867D01*
X171761231Y-96872711D01*
X171775241Y-96875498D01*
X171775246Y-96875498D01*
X171775252Y-96875500D01*
X171775253Y-96875500D01*
X173224747Y-96875500D01*
X173224748Y-96875500D01*
X173283231Y-96863867D01*
X173349552Y-96819552D01*
X173362332Y-96800425D01*
X178199400Y-96800425D01*
X178199400Y-98108974D01*
X178202253Y-98139394D01*
X178202255Y-98139403D01*
X178247107Y-98267583D01*
X178327745Y-98376844D01*
X178327747Y-98376846D01*
X178327750Y-98376850D01*
X178327753Y-98376852D01*
X178327755Y-98376854D01*
X178437016Y-98457492D01*
X178437017Y-98457492D01*
X178437018Y-98457493D01*
X178565201Y-98502346D01*
X178595625Y-98505199D01*
X178595627Y-98505200D01*
X178595634Y-98505200D01*
X180154173Y-98505200D01*
X180154173Y-98505199D01*
X180184599Y-98502346D01*
X180312782Y-98457493D01*
X180422050Y-98376850D01*
X180502693Y-98267582D01*
X180547546Y-98139399D01*
X180550399Y-98108973D01*
X180550400Y-98108973D01*
X180550400Y-96800427D01*
X180550399Y-96800425D01*
X180547546Y-96770005D01*
X180547546Y-96770001D01*
X180502693Y-96641818D01*
X180422050Y-96532550D01*
X180422046Y-96532547D01*
X180422044Y-96532545D01*
X180312783Y-96451907D01*
X180184603Y-96407055D01*
X180184594Y-96407053D01*
X180154174Y-96404200D01*
X180154166Y-96404200D01*
X178595634Y-96404200D01*
X178595625Y-96404200D01*
X178565205Y-96407053D01*
X178565196Y-96407055D01*
X178437016Y-96451907D01*
X178327755Y-96532545D01*
X178327745Y-96532555D01*
X178247107Y-96641816D01*
X178202255Y-96769996D01*
X178202253Y-96770005D01*
X178199400Y-96800425D01*
X173362332Y-96800425D01*
X173393867Y-96753231D01*
X173405500Y-96694748D01*
X173405500Y-95305252D01*
X173393867Y-95246769D01*
X173349552Y-95180448D01*
X173349548Y-95180445D01*
X173283233Y-95136134D01*
X173283231Y-95136133D01*
X173283228Y-95136132D01*
X173283227Y-95136132D01*
X173224758Y-95124501D01*
X173224748Y-95124500D01*
X173224747Y-95124500D01*
X173083490Y-95124500D01*
X173025299Y-95105593D01*
X172989335Y-95056093D01*
X172989335Y-94994907D01*
X173013486Y-94955496D01*
X174000986Y-93967996D01*
X174055503Y-93940219D01*
X174070990Y-93939000D01*
X178307642Y-93939000D01*
X178307644Y-93939000D01*
X178396788Y-93915114D01*
X178404881Y-93910441D01*
X178404886Y-93910440D01*
X178404886Y-93910439D01*
X178426224Y-93898118D01*
X178476712Y-93868970D01*
X178886184Y-93459496D01*
X178940701Y-93431719D01*
X178956188Y-93430500D01*
X179474747Y-93430500D01*
X179474748Y-93430500D01*
X179533231Y-93418867D01*
X179599552Y-93374552D01*
X179643867Y-93308231D01*
X179655500Y-93249748D01*
X179655500Y-92350252D01*
X179655350Y-92349500D01*
X179650104Y-92323127D01*
X179643867Y-92291769D01*
X179599552Y-92225448D01*
X179588937Y-92218355D01*
X179533233Y-92181134D01*
X179533231Y-92181133D01*
X179533228Y-92181132D01*
X179533227Y-92181132D01*
X179474758Y-92169501D01*
X179474748Y-92169500D01*
X179474747Y-92169500D01*
X179021179Y-92169500D01*
X178962988Y-92150593D01*
X178927024Y-92101093D01*
X178927024Y-92039907D01*
X178951175Y-92000496D01*
X180175475Y-90776196D01*
X180229992Y-90748419D01*
X180245479Y-90747200D01*
X180939561Y-90747200D01*
X180939562Y-90747200D01*
X180974877Y-90737737D01*
X181035976Y-90740938D01*
X181083527Y-90779442D01*
X181099500Y-90833363D01*
X181099500Y-91628800D01*
X181080593Y-91686991D01*
X181031093Y-91722955D01*
X181000500Y-91727800D01*
X180710435Y-91727800D01*
X180634011Y-91748278D01*
X180634007Y-91748280D01*
X180565491Y-91787838D01*
X180509538Y-91843791D01*
X180469980Y-91912307D01*
X180469978Y-91912311D01*
X180449500Y-91988735D01*
X180449500Y-92030500D01*
X180430593Y-92088691D01*
X180381093Y-92124655D01*
X180350500Y-92129500D01*
X180335252Y-92129500D01*
X180335251Y-92129500D01*
X180335241Y-92129501D01*
X180276772Y-92141132D01*
X180276766Y-92141134D01*
X180210451Y-92185445D01*
X180210445Y-92185451D01*
X180166134Y-92251766D01*
X180166132Y-92251772D01*
X180154501Y-92310241D01*
X180154500Y-92310253D01*
X180154500Y-92889746D01*
X180154501Y-92889758D01*
X180166132Y-92948227D01*
X180166134Y-92948233D01*
X180210445Y-93014548D01*
X180210448Y-93014552D01*
X180276769Y-93058867D01*
X180321231Y-93067711D01*
X180335241Y-93070498D01*
X180335246Y-93070498D01*
X180335252Y-93070500D01*
X180350500Y-93070500D01*
X180408691Y-93089407D01*
X180444655Y-93138907D01*
X180448182Y-93153397D01*
X180449500Y-93161391D01*
X180449500Y-93211262D01*
X180469979Y-93287689D01*
X180470457Y-93288517D01*
X180471659Y-93295808D01*
X180467759Y-93321470D01*
X180466402Y-93347389D01*
X180463033Y-93352575D01*
X180462468Y-93356299D01*
X180457058Y-93361777D01*
X180443984Y-93381911D01*
X180440449Y-93385446D01*
X180396134Y-93451766D01*
X180396132Y-93451772D01*
X180384501Y-93510241D01*
X180384500Y-93510253D01*
X180384500Y-94089746D01*
X180384501Y-94089758D01*
X180396132Y-94148227D01*
X180396134Y-94148233D01*
X180414354Y-94175500D01*
X180440448Y-94214552D01*
X180506769Y-94258867D01*
X180551231Y-94267711D01*
X180565241Y-94270498D01*
X180565246Y-94270498D01*
X180565252Y-94270500D01*
X180565253Y-94270500D01*
X181174747Y-94270500D01*
X181174748Y-94270500D01*
X181233231Y-94258867D01*
X181299552Y-94214552D01*
X181343867Y-94148231D01*
X181355500Y-94089748D01*
X181355500Y-93510252D01*
X181343867Y-93451769D01*
X181299552Y-93385448D01*
X181294259Y-93381911D01*
X181233229Y-93341131D01*
X181231610Y-93340461D01*
X181229399Y-93338572D01*
X181225124Y-93335716D01*
X181225462Y-93335209D01*
X181213676Y-93325142D01*
X181193672Y-93312648D01*
X181191246Y-93305984D01*
X181185086Y-93300723D01*
X181170742Y-93255922D01*
X181170500Y-93252469D01*
X181170500Y-93188738D01*
X181164449Y-93166158D01*
X181163784Y-93156662D01*
X181168989Y-93135767D01*
X181170116Y-93114264D01*
X181176227Y-93106715D01*
X181178576Y-93097291D01*
X181195069Y-93083446D01*
X181208620Y-93066712D01*
X181222110Y-93059615D01*
X181223228Y-93058867D01*
X181223231Y-93058867D01*
X181244997Y-93044322D01*
X181303885Y-93027713D01*
X181355002Y-93044322D01*
X181376769Y-93058867D01*
X181421231Y-93067711D01*
X181435241Y-93070498D01*
X181435246Y-93070498D01*
X181435252Y-93070500D01*
X181855772Y-93070500D01*
X181913963Y-93089407D01*
X181915760Y-93090744D01*
X182252606Y-93347389D01*
X182255498Y-93349592D01*
X182290326Y-93399898D01*
X182294500Y-93428340D01*
X182294500Y-93849746D01*
X182294501Y-93849758D01*
X182306132Y-93908227D01*
X182306134Y-93908233D01*
X182346067Y-93967996D01*
X182350448Y-93974552D01*
X182392052Y-94002351D01*
X182429931Y-94050401D01*
X182432676Y-94110288D01*
X182399500Y-94234108D01*
X182399500Y-94365892D01*
X182426113Y-94465215D01*
X182433609Y-94493190D01*
X182499496Y-94607309D01*
X182499498Y-94607311D01*
X182499500Y-94607314D01*
X182592686Y-94700500D01*
X182592688Y-94700501D01*
X182592690Y-94700503D01*
X182706810Y-94766390D01*
X182706808Y-94766390D01*
X182706812Y-94766391D01*
X182706814Y-94766392D01*
X182834108Y-94800500D01*
X182834110Y-94800500D01*
X182965890Y-94800500D01*
X182965892Y-94800500D01*
X183093186Y-94766392D01*
X183093188Y-94766390D01*
X183093190Y-94766390D01*
X183207309Y-94700503D01*
X183207309Y-94700502D01*
X183207314Y-94700500D01*
X183228319Y-94679494D01*
X183282834Y-94651719D01*
X183298321Y-94650500D01*
X184878962Y-94650500D01*
X184903888Y-94653503D01*
X184924909Y-94650500D01*
X184946144Y-94650500D01*
X184964658Y-94645538D01*
X184976274Y-94643162D01*
X185274912Y-94600500D01*
X185296144Y-94600500D01*
X185320389Y-94594002D01*
X185324485Y-94593417D01*
X185345248Y-94590452D01*
X185364777Y-94582109D01*
X185385288Y-94576614D01*
X185407028Y-94564061D01*
X185430118Y-94554199D01*
X185446823Y-94541085D01*
X185465212Y-94530469D01*
X185482963Y-94512717D01*
X185502713Y-94497215D01*
X185511233Y-94485853D01*
X185520431Y-94475249D01*
X185530466Y-94465215D01*
X185530466Y-94465214D01*
X185530469Y-94465212D01*
X185543023Y-94443466D01*
X185558085Y-94423385D01*
X185565993Y-94403682D01*
X185576614Y-94385288D01*
X185583112Y-94361034D01*
X185592464Y-94337738D01*
X185595004Y-94316655D01*
X185600500Y-94296144D01*
X185600500Y-94276977D01*
X185601209Y-94265152D01*
X185601507Y-94262675D01*
X185627229Y-94207159D01*
X185680671Y-94177365D01*
X185699798Y-94175500D01*
X186624747Y-94175500D01*
X186624748Y-94175500D01*
X186683231Y-94163867D01*
X186749552Y-94119552D01*
X186793867Y-94053231D01*
X186805500Y-93994748D01*
X186805500Y-92605252D01*
X186793867Y-92546769D01*
X186749552Y-92480448D01*
X186703230Y-92449496D01*
X186680436Y-92434265D01*
X186642557Y-92386215D01*
X186640155Y-92325076D01*
X186665434Y-92281947D01*
X186680470Y-92266912D01*
X186726614Y-92186988D01*
X186745638Y-92115988D01*
X186750500Y-92097844D01*
X186750500Y-91996635D01*
X186750666Y-91993772D01*
X186760794Y-91967815D01*
X186769407Y-91941309D01*
X186771822Y-91939553D01*
X186772908Y-91936773D01*
X186796356Y-91921728D01*
X186818907Y-91905345D01*
X186822872Y-91904717D01*
X186824406Y-91903733D01*
X186827832Y-91903931D01*
X186849500Y-91900500D01*
X188419747Y-91900500D01*
X188419748Y-91900500D01*
X188478231Y-91888867D01*
X188544552Y-91844552D01*
X188588867Y-91778231D01*
X188600500Y-91719748D01*
X188600500Y-90180252D01*
X188600468Y-90180093D01*
X188595126Y-90153235D01*
X188588867Y-90121769D01*
X188544552Y-90055448D01*
X188544521Y-90055427D01*
X188478233Y-90011134D01*
X188478231Y-90011133D01*
X188478228Y-90011132D01*
X188478227Y-90011132D01*
X188419758Y-89999501D01*
X188419748Y-89999500D01*
X184380252Y-89999500D01*
X184380251Y-89999500D01*
X184380241Y-89999501D01*
X184321772Y-90011132D01*
X184321766Y-90011134D01*
X184255451Y-90055445D01*
X184255445Y-90055451D01*
X184211134Y-90121766D01*
X184211132Y-90121772D01*
X184199501Y-90180241D01*
X184199500Y-90180253D01*
X184199500Y-90531179D01*
X184180593Y-90589370D01*
X184131093Y-90625334D01*
X184069907Y-90625334D01*
X184030498Y-90601184D01*
X184001314Y-90572000D01*
X184001311Y-90571998D01*
X184001309Y-90571996D01*
X183887189Y-90506109D01*
X183887187Y-90506108D01*
X183843875Y-90494502D01*
X183792562Y-90461177D01*
X183770636Y-90404056D01*
X183770500Y-90398876D01*
X183770500Y-89635253D01*
X183770498Y-89635241D01*
X183767249Y-89618907D01*
X183758867Y-89576769D01*
X183714552Y-89510448D01*
X183714548Y-89510445D01*
X183648233Y-89466134D01*
X183648231Y-89466133D01*
X183648228Y-89466132D01*
X183648227Y-89466132D01*
X183589758Y-89454501D01*
X183589748Y-89454500D01*
X183010252Y-89454500D01*
X183010251Y-89454500D01*
X183010241Y-89454501D01*
X182951772Y-89466132D01*
X182951761Y-89466136D01*
X182951423Y-89466363D01*
X182950772Y-89466546D01*
X182942758Y-89469866D01*
X182942364Y-89468916D01*
X182892533Y-89482964D01*
X182835132Y-89461780D01*
X182826427Y-89454045D01*
X182429496Y-89057114D01*
X182401719Y-89002597D01*
X182400500Y-88987110D01*
X182400500Y-87464527D01*
X182419407Y-87406336D01*
X182468907Y-87370372D01*
X182480178Y-87367430D01*
X182523231Y-87358867D01*
X182589552Y-87314552D01*
X182633867Y-87248231D01*
X182645500Y-87189748D01*
X182645500Y-86610252D01*
X182645500Y-86610250D01*
X182645397Y-86609205D01*
X182645500Y-86608735D01*
X182645500Y-86605388D01*
X182646234Y-86605388D01*
X182658509Y-86549441D01*
X182704245Y-86508798D01*
X182743920Y-86500500D01*
X184100500Y-86500500D01*
X184158691Y-86519407D01*
X184194655Y-86568907D01*
X184199500Y-86599500D01*
X184199500Y-87955700D01*
X184180593Y-88013891D01*
X184131093Y-88049855D01*
X184100500Y-88054700D01*
X184006608Y-88054700D01*
X183945503Y-88071073D01*
X183879309Y-88088809D01*
X183765190Y-88154696D01*
X183671996Y-88247890D01*
X183606109Y-88362009D01*
X183606108Y-88362014D01*
X183572000Y-88489308D01*
X183572000Y-88621092D01*
X183590344Y-88689552D01*
X183606109Y-88748390D01*
X183671996Y-88862509D01*
X183671998Y-88862511D01*
X183672000Y-88862514D01*
X183765186Y-88955700D01*
X183765188Y-88955701D01*
X183765190Y-88955703D01*
X183879310Y-89021590D01*
X183879308Y-89021590D01*
X183879312Y-89021591D01*
X183879314Y-89021592D01*
X184006608Y-89055700D01*
X184006610Y-89055700D01*
X184138390Y-89055700D01*
X184138392Y-89055700D01*
X184265686Y-89021592D01*
X184265688Y-89021590D01*
X184265690Y-89021590D01*
X184379809Y-88955703D01*
X184379809Y-88955702D01*
X184379814Y-88955700D01*
X184473000Y-88862514D01*
X184536979Y-88751698D01*
X184582448Y-88710759D01*
X184622715Y-88702200D01*
X186439563Y-88702200D01*
X186439563Y-88702199D01*
X186515989Y-88681721D01*
X186584511Y-88642160D01*
X186640460Y-88586211D01*
X186680021Y-88517689D01*
X186700500Y-88441262D01*
X186700500Y-88399500D01*
X186719407Y-88341309D01*
X186768907Y-88305345D01*
X186799500Y-88300500D01*
X188419747Y-88300500D01*
X188419748Y-88300500D01*
X188478231Y-88288867D01*
X188544552Y-88244552D01*
X188588867Y-88178231D01*
X188600500Y-88119748D01*
X188600500Y-86599500D01*
X188619407Y-86541309D01*
X188668907Y-86505345D01*
X188699500Y-86500500D01*
X189400500Y-86500500D01*
X189458691Y-86519407D01*
X189494655Y-86568907D01*
X189499500Y-86599500D01*
X189499500Y-101943914D01*
X189480593Y-102002105D01*
X189431093Y-102038069D01*
X189369907Y-102038069D01*
X189320845Y-102002702D01*
X189247154Y-101902855D01*
X189247152Y-101902853D01*
X189247150Y-101902850D01*
X189247146Y-101902847D01*
X189247144Y-101902845D01*
X189137883Y-101822207D01*
X189009703Y-101777355D01*
X189009694Y-101777353D01*
X188979274Y-101774500D01*
X188979266Y-101774500D01*
X187620734Y-101774500D01*
X187620725Y-101774500D01*
X187590305Y-101777353D01*
X187590296Y-101777355D01*
X187462116Y-101822207D01*
X187352855Y-101902845D01*
X187352845Y-101902855D01*
X187272207Y-102012116D01*
X187227355Y-102140296D01*
X187227353Y-102140305D01*
X187224500Y-102170725D01*
X187224500Y-103029274D01*
X187227353Y-103059695D01*
X187227353Y-103059697D01*
X187227354Y-103059699D01*
X187237205Y-103087851D01*
X187238577Y-103149021D01*
X187213764Y-103190552D01*
X185829114Y-104575204D01*
X185774597Y-104602981D01*
X185759110Y-104604200D01*
X180557921Y-104604200D01*
X180499730Y-104585293D01*
X180466457Y-104543086D01*
X180430841Y-104457102D01*
X180315879Y-104285048D01*
X180315877Y-104285045D01*
X180169555Y-104138723D01*
X180168834Y-104138241D01*
X179997497Y-104023758D01*
X179806318Y-103944569D01*
X179603367Y-103904200D01*
X179603365Y-103904200D01*
X179146435Y-103904200D01*
X179146432Y-103904200D01*
X178943481Y-103944569D01*
X178752302Y-104023758D01*
X178580248Y-104138720D01*
X178433920Y-104285048D01*
X178318959Y-104457101D01*
X178309664Y-104479542D01*
X178269926Y-104526067D01*
X178210431Y-104540350D01*
X178153904Y-104516934D01*
X178121935Y-104464765D01*
X178119200Y-104441655D01*
X178119200Y-103605157D01*
X178119200Y-103605156D01*
X178095314Y-103516012D01*
X178064049Y-103461860D01*
X178049170Y-103436088D01*
X176364533Y-101751451D01*
X176336758Y-101696937D01*
X176346329Y-101636505D01*
X176364532Y-101611449D01*
X176970186Y-101005796D01*
X177024703Y-100978019D01*
X177040190Y-100976800D01*
X177069890Y-100976800D01*
X177069892Y-100976800D01*
X177197186Y-100942692D01*
X177197188Y-100942690D01*
X177197190Y-100942690D01*
X177311309Y-100876803D01*
X177311309Y-100876802D01*
X177311314Y-100876800D01*
X177404500Y-100783614D01*
X177466394Y-100676409D01*
X177511864Y-100635469D01*
X177572714Y-100629073D01*
X177622135Y-100655906D01*
X178453740Y-101487511D01*
X178453739Y-101487511D01*
X178509689Y-101543460D01*
X178513953Y-101546732D01*
X178548609Y-101597156D01*
X178547008Y-101658320D01*
X178523690Y-101695277D01*
X178433922Y-101785045D01*
X178318958Y-101957102D01*
X178239769Y-102148281D01*
X178199400Y-102351232D01*
X178199400Y-102558167D01*
X178239769Y-102761118D01*
X178318958Y-102952297D01*
X178433920Y-103124351D01*
X178433923Y-103124355D01*
X178580245Y-103270677D01*
X178752302Y-103385641D01*
X178943480Y-103464830D01*
X179146435Y-103505200D01*
X179146436Y-103505200D01*
X179603364Y-103505200D01*
X179603365Y-103505200D01*
X179806320Y-103464830D01*
X179997498Y-103385641D01*
X180169555Y-103270677D01*
X180315877Y-103124355D01*
X180430841Y-102952298D01*
X180510030Y-102761120D01*
X180550400Y-102558165D01*
X180550400Y-102351235D01*
X180510030Y-102148280D01*
X180430841Y-101957102D01*
X180315877Y-101785045D01*
X180169555Y-101638723D01*
X180128732Y-101611446D01*
X179997497Y-101523758D01*
X179806323Y-101444571D01*
X179806310Y-101444567D01*
X179755084Y-101434377D01*
X179701701Y-101404480D01*
X179676086Y-101348914D01*
X179675400Y-101337280D01*
X179675400Y-101263437D01*
X179675399Y-101263435D01*
X179654921Y-101187011D01*
X179654921Y-101187010D01*
X179624532Y-101134376D01*
X179611810Y-101074527D01*
X179636696Y-101018632D01*
X179689684Y-100988039D01*
X179690875Y-100987793D01*
X179806320Y-100964830D01*
X179997498Y-100885641D01*
X180169555Y-100770677D01*
X180315877Y-100624355D01*
X180430841Y-100452298D01*
X180510030Y-100261120D01*
X180550400Y-100058165D01*
X180550400Y-99851235D01*
X180510030Y-99648280D01*
X180430841Y-99457102D01*
X180315877Y-99285045D01*
X180169555Y-99138723D01*
X179997498Y-99023759D01*
X179997499Y-99023759D01*
X179997497Y-99023758D01*
X179806318Y-98944569D01*
X179603367Y-98904200D01*
X179603365Y-98904200D01*
X179146435Y-98904200D01*
X179146432Y-98904200D01*
X178943481Y-98944569D01*
X178752302Y-99023758D01*
X178580248Y-99138720D01*
X178433920Y-99285048D01*
X178318958Y-99457102D01*
X178239769Y-99648281D01*
X178199400Y-99851232D01*
X178199400Y-100058168D01*
X178216444Y-100143853D01*
X178209252Y-100204615D01*
X178167719Y-100249544D01*
X178107710Y-100261481D01*
X178052145Y-100235865D01*
X178049342Y-100233171D01*
X177874334Y-100058163D01*
X177413611Y-99597440D01*
X177413608Y-99597438D01*
X177345092Y-99557880D01*
X177345088Y-99557878D01*
X177268664Y-99537400D01*
X177268662Y-99537400D01*
X174686338Y-99537400D01*
X174686335Y-99537400D01*
X174609911Y-99557878D01*
X174609907Y-99557880D01*
X174541391Y-99597438D01*
X173358589Y-100780240D01*
X173358588Y-100780239D01*
X173302639Y-100836189D01*
X173263080Y-100904707D01*
X173263078Y-100904711D01*
X173242600Y-100981135D01*
X173242600Y-105433821D01*
X173223693Y-105492012D01*
X173213604Y-105503825D01*
X172868089Y-105849340D01*
X172868088Y-105849339D01*
X172812139Y-105905289D01*
X172772580Y-105973807D01*
X172772578Y-105973811D01*
X172752100Y-106050235D01*
X172752100Y-107838764D01*
X172772578Y-107915188D01*
X172772579Y-107915189D01*
X172801620Y-107965489D01*
X172812140Y-107983711D01*
X172921558Y-108093129D01*
X172923042Y-108094751D01*
X172934837Y-108120687D01*
X172947781Y-108146091D01*
X172948071Y-108149787D01*
X172948372Y-108150447D01*
X172948192Y-108151323D01*
X172949000Y-108161578D01*
X172949000Y-108573400D01*
X172930093Y-108631591D01*
X172880593Y-108667555D01*
X172850000Y-108672400D01*
X172543721Y-108672400D01*
X172485530Y-108653493D01*
X172473723Y-108643409D01*
X172402714Y-108572400D01*
X172402711Y-108572398D01*
X172402709Y-108572396D01*
X172288589Y-108506509D01*
X172288591Y-108506509D01*
X172239199Y-108493275D01*
X172161292Y-108472400D01*
X172029508Y-108472400D01*
X171951600Y-108493275D01*
X171902209Y-108506509D01*
X171788090Y-108572396D01*
X171694896Y-108665590D01*
X171629009Y-108779709D01*
X171629008Y-108779714D01*
X171594900Y-108907008D01*
X171594900Y-109038792D01*
X171624718Y-109150078D01*
X171621516Y-109211179D01*
X171583011Y-109258728D01*
X171529092Y-109274700D01*
X153955379Y-109274700D01*
X153897188Y-109255793D01*
X153885375Y-109245704D01*
X153655561Y-109015890D01*
X153290211Y-108650540D01*
X153290208Y-108650538D01*
X153290207Y-108650537D01*
X153276609Y-108642687D01*
X153276609Y-108642686D01*
X153276605Y-108642685D01*
X153241788Y-108622583D01*
X153221688Y-108610978D01*
X153145264Y-108590500D01*
X153145262Y-108590500D01*
X153077676Y-108590500D01*
X153019485Y-108571593D01*
X152995361Y-108546502D01*
X152987601Y-108534889D01*
X152948552Y-108476448D01*
X152938965Y-108470042D01*
X152882229Y-108432131D01*
X152880610Y-108431461D01*
X152878399Y-108429572D01*
X152874124Y-108426716D01*
X152874462Y-108426209D01*
X152834086Y-108391723D01*
X152819500Y-108339999D01*
X152819500Y-106719437D01*
X152819499Y-106719435D01*
X152817878Y-106713387D01*
X152799021Y-106643011D01*
X152768781Y-106590634D01*
X152756060Y-106530787D01*
X152763051Y-106503256D01*
X152805512Y-106400751D01*
X152842500Y-106214798D01*
X152842500Y-106025202D01*
X152842499Y-106025199D01*
X153457500Y-106025199D01*
X153457500Y-106214800D01*
X153494487Y-106400748D01*
X153494489Y-106400754D01*
X153567043Y-106575914D01*
X153567044Y-106575915D01*
X153672378Y-106733558D01*
X153806442Y-106867622D01*
X153964085Y-106972956D01*
X154139249Y-107045512D01*
X154325202Y-107082500D01*
X154325203Y-107082500D01*
X154514797Y-107082500D01*
X154514798Y-107082500D01*
X154700751Y-107045512D01*
X154875915Y-106972956D01*
X155033558Y-106867622D01*
X155167622Y-106733558D01*
X155272956Y-106575915D01*
X155345512Y-106400751D01*
X155382500Y-106214798D01*
X155382500Y-106025202D01*
X155382499Y-106025199D01*
X155997500Y-106025199D01*
X155997500Y-106214800D01*
X156034487Y-106400748D01*
X156034489Y-106400754D01*
X156107043Y-106575914D01*
X156107044Y-106575915D01*
X156212378Y-106733558D01*
X156346442Y-106867622D01*
X156504085Y-106972956D01*
X156679249Y-107045512D01*
X156865202Y-107082500D01*
X156865203Y-107082500D01*
X157054797Y-107082500D01*
X157054798Y-107082500D01*
X157240751Y-107045512D01*
X157415915Y-106972956D01*
X157573558Y-106867622D01*
X157707622Y-106733558D01*
X157812956Y-106575915D01*
X157885512Y-106400751D01*
X157922500Y-106214798D01*
X157922500Y-106025202D01*
X157922499Y-106025199D01*
X158537500Y-106025199D01*
X158537500Y-106214800D01*
X158574487Y-106400748D01*
X158574489Y-106400754D01*
X158647043Y-106575914D01*
X158647044Y-106575915D01*
X158752378Y-106733558D01*
X158886442Y-106867622D01*
X159044085Y-106972956D01*
X159219249Y-107045512D01*
X159405202Y-107082500D01*
X159405203Y-107082500D01*
X159594797Y-107082500D01*
X159594798Y-107082500D01*
X159780751Y-107045512D01*
X159955915Y-106972956D01*
X160113558Y-106867622D01*
X160247622Y-106733558D01*
X160352956Y-106575915D01*
X160425512Y-106400751D01*
X160462500Y-106214798D01*
X160462500Y-106025202D01*
X160462499Y-106025199D01*
X161077500Y-106025199D01*
X161077500Y-106214800D01*
X161114487Y-106400748D01*
X161114489Y-106400754D01*
X161187043Y-106575914D01*
X161187044Y-106575915D01*
X161292378Y-106733558D01*
X161426442Y-106867622D01*
X161584085Y-106972956D01*
X161759249Y-107045512D01*
X161945202Y-107082500D01*
X161945203Y-107082500D01*
X162134797Y-107082500D01*
X162134798Y-107082500D01*
X162320751Y-107045512D01*
X162495915Y-106972956D01*
X162653558Y-106867622D01*
X162787622Y-106733558D01*
X162892956Y-106575915D01*
X162965512Y-106400751D01*
X163002500Y-106214798D01*
X163002500Y-106025202D01*
X163002499Y-106025199D01*
X163617500Y-106025199D01*
X163617500Y-106214800D01*
X163654487Y-106400748D01*
X163654489Y-106400754D01*
X163727043Y-106575914D01*
X163727044Y-106575915D01*
X163832378Y-106733558D01*
X163966442Y-106867622D01*
X164124085Y-106972956D01*
X164299249Y-107045512D01*
X164485202Y-107082500D01*
X164485203Y-107082500D01*
X164674797Y-107082500D01*
X164674798Y-107082500D01*
X164860751Y-107045512D01*
X165035915Y-106972956D01*
X165193558Y-106867622D01*
X165327622Y-106733558D01*
X165432956Y-106575915D01*
X165505512Y-106400751D01*
X165542500Y-106214798D01*
X165542500Y-106025202D01*
X165542499Y-106025199D01*
X166157500Y-106025199D01*
X166157500Y-106214800D01*
X166194487Y-106400748D01*
X166194489Y-106400754D01*
X166267043Y-106575914D01*
X166267044Y-106575915D01*
X166372378Y-106733558D01*
X166506442Y-106867622D01*
X166664085Y-106972956D01*
X166839249Y-107045512D01*
X167025202Y-107082500D01*
X167025203Y-107082500D01*
X167214797Y-107082500D01*
X167214798Y-107082500D01*
X167400751Y-107045512D01*
X167575915Y-106972956D01*
X167733558Y-106867622D01*
X167867622Y-106733558D01*
X167903240Y-106680252D01*
X171304500Y-106680252D01*
X171304500Y-106695344D01*
X171304500Y-107319746D01*
X171304501Y-107319758D01*
X171316132Y-107378227D01*
X171316134Y-107378233D01*
X171321733Y-107386612D01*
X171360448Y-107444552D01*
X171426769Y-107488867D01*
X171471231Y-107497711D01*
X171485241Y-107500498D01*
X171485246Y-107500498D01*
X171485252Y-107500500D01*
X171485253Y-107500500D01*
X171874747Y-107500500D01*
X171874748Y-107500500D01*
X171933231Y-107488867D01*
X171999552Y-107444552D01*
X172043867Y-107378231D01*
X172055500Y-107319748D01*
X172055500Y-106680252D01*
X172043867Y-106621769D01*
X171999552Y-106555448D01*
X171997185Y-106551905D01*
X171980500Y-106496903D01*
X171980500Y-105833867D01*
X171999407Y-105775676D01*
X172048907Y-105739712D01*
X172053849Y-105738248D01*
X172116386Y-105721492D01*
X172230514Y-105655600D01*
X172323700Y-105562414D01*
X172356018Y-105506438D01*
X172389590Y-105448290D01*
X172389590Y-105448288D01*
X172389592Y-105448286D01*
X172423700Y-105320992D01*
X172423700Y-105189208D01*
X172389592Y-105061914D01*
X172389590Y-105061911D01*
X172389590Y-105061909D01*
X172323703Y-104947790D01*
X172323701Y-104947788D01*
X172323700Y-104947786D01*
X172230514Y-104854600D01*
X172230511Y-104854598D01*
X172230509Y-104854596D01*
X172116389Y-104788709D01*
X172116391Y-104788709D01*
X172066999Y-104775475D01*
X171989092Y-104754600D01*
X171857308Y-104754600D01*
X171779400Y-104775475D01*
X171730009Y-104788709D01*
X171615890Y-104854596D01*
X171522696Y-104947790D01*
X171456809Y-105061909D01*
X171450365Y-105085958D01*
X171422833Y-105188714D01*
X171422700Y-105189209D01*
X171422700Y-105316430D01*
X171409438Y-105365926D01*
X171408596Y-105367385D01*
X171399979Y-105382311D01*
X171399977Y-105382314D01*
X171379500Y-105458735D01*
X171379500Y-106496903D01*
X171373260Y-106517470D01*
X171371770Y-106535255D01*
X171364392Y-106552812D01*
X171360448Y-106555448D01*
X171316133Y-106621769D01*
X171304500Y-106680252D01*
X167903240Y-106680252D01*
X167972956Y-106575915D01*
X168045512Y-106400751D01*
X168082500Y-106214798D01*
X168082500Y-106025202D01*
X168045512Y-105839249D01*
X167972956Y-105664085D01*
X167867622Y-105506442D01*
X167733558Y-105372378D01*
X167575918Y-105267046D01*
X167575914Y-105267043D01*
X167400754Y-105194489D01*
X167400748Y-105194487D01*
X167214800Y-105157500D01*
X167214798Y-105157500D01*
X167025202Y-105157500D01*
X167025199Y-105157500D01*
X166839251Y-105194487D01*
X166839245Y-105194489D01*
X166664085Y-105267043D01*
X166506442Y-105372378D01*
X166506438Y-105372381D01*
X166372381Y-105506438D01*
X166372378Y-105506442D01*
X166267043Y-105664085D01*
X166194489Y-105839245D01*
X166194487Y-105839251D01*
X166157500Y-106025199D01*
X165542499Y-106025199D01*
X165505512Y-105839249D01*
X165432956Y-105664085D01*
X165327622Y-105506442D01*
X165193558Y-105372378D01*
X165035918Y-105267046D01*
X165035914Y-105267043D01*
X164860754Y-105194489D01*
X164860748Y-105194487D01*
X164674800Y-105157500D01*
X164674798Y-105157500D01*
X164485202Y-105157500D01*
X164485199Y-105157500D01*
X164299251Y-105194487D01*
X164299245Y-105194489D01*
X164124085Y-105267043D01*
X163966442Y-105372378D01*
X163966438Y-105372381D01*
X163832381Y-105506438D01*
X163832378Y-105506442D01*
X163727043Y-105664085D01*
X163654489Y-105839245D01*
X163654487Y-105839251D01*
X163617500Y-106025199D01*
X163002499Y-106025199D01*
X162965512Y-105839249D01*
X162892956Y-105664085D01*
X162787622Y-105506442D01*
X162653558Y-105372378D01*
X162495918Y-105267046D01*
X162495914Y-105267043D01*
X162320754Y-105194489D01*
X162320748Y-105194487D01*
X162134800Y-105157500D01*
X162134798Y-105157500D01*
X161945202Y-105157500D01*
X161945199Y-105157500D01*
X161759251Y-105194487D01*
X161759245Y-105194489D01*
X161584085Y-105267043D01*
X161426442Y-105372378D01*
X161426438Y-105372381D01*
X161292381Y-105506438D01*
X161292378Y-105506442D01*
X161187043Y-105664085D01*
X161114489Y-105839245D01*
X161114487Y-105839251D01*
X161077500Y-106025199D01*
X160462499Y-106025199D01*
X160425512Y-105839249D01*
X160352956Y-105664085D01*
X160247622Y-105506442D01*
X160113558Y-105372378D01*
X159955918Y-105267046D01*
X159955914Y-105267043D01*
X159780754Y-105194489D01*
X159780748Y-105194487D01*
X159594800Y-105157500D01*
X159594798Y-105157500D01*
X159405202Y-105157500D01*
X159405199Y-105157500D01*
X159219251Y-105194487D01*
X159219245Y-105194489D01*
X159044085Y-105267043D01*
X158886442Y-105372378D01*
X158886438Y-105372381D01*
X158752381Y-105506438D01*
X158752378Y-105506442D01*
X158647043Y-105664085D01*
X158574489Y-105839245D01*
X158574487Y-105839251D01*
X158537500Y-106025199D01*
X157922499Y-106025199D01*
X157885512Y-105839249D01*
X157812956Y-105664085D01*
X157707622Y-105506442D01*
X157573558Y-105372378D01*
X157415918Y-105267046D01*
X157415914Y-105267043D01*
X157240754Y-105194489D01*
X157240748Y-105194487D01*
X157054800Y-105157500D01*
X157054798Y-105157500D01*
X156865202Y-105157500D01*
X156865199Y-105157500D01*
X156679251Y-105194487D01*
X156679245Y-105194489D01*
X156504085Y-105267043D01*
X156346442Y-105372378D01*
X156346438Y-105372381D01*
X156212381Y-105506438D01*
X156212378Y-105506442D01*
X156107043Y-105664085D01*
X156034489Y-105839245D01*
X156034487Y-105839251D01*
X155997500Y-106025199D01*
X155382499Y-106025199D01*
X155345512Y-105839249D01*
X155272956Y-105664085D01*
X155167622Y-105506442D01*
X155033558Y-105372378D01*
X154875918Y-105267046D01*
X154875914Y-105267043D01*
X154700754Y-105194489D01*
X154700748Y-105194487D01*
X154514800Y-105157500D01*
X154514798Y-105157500D01*
X154325202Y-105157500D01*
X154325199Y-105157500D01*
X154139251Y-105194487D01*
X154139245Y-105194489D01*
X153964085Y-105267043D01*
X153806442Y-105372378D01*
X153806438Y-105372381D01*
X153672381Y-105506438D01*
X153672378Y-105506442D01*
X153567043Y-105664085D01*
X153494489Y-105839245D01*
X153494487Y-105839251D01*
X153457500Y-106025199D01*
X152842499Y-106025199D01*
X152805512Y-105839249D01*
X152732956Y-105664085D01*
X152627622Y-105506442D01*
X152493558Y-105372378D01*
X152335918Y-105267046D01*
X152335914Y-105267043D01*
X152160754Y-105194489D01*
X152160748Y-105194487D01*
X151974800Y-105157500D01*
X151974798Y-105157500D01*
X151785202Y-105157500D01*
X151785199Y-105157500D01*
X151599251Y-105194487D01*
X151599245Y-105194489D01*
X151424085Y-105267043D01*
X151266442Y-105372378D01*
X151266438Y-105372381D01*
X151132381Y-105506438D01*
X151132378Y-105506442D01*
X151027043Y-105664085D01*
X150954489Y-105839245D01*
X150954487Y-105839251D01*
X150917500Y-106025199D01*
X150917500Y-106214800D01*
X150954487Y-106400748D01*
X150954489Y-106400754D01*
X151027043Y-106575914D01*
X151027044Y-106575915D01*
X151132378Y-106733558D01*
X151266442Y-106867622D01*
X151424085Y-106972956D01*
X151599249Y-107045512D01*
X151785202Y-107082500D01*
X151785203Y-107082500D01*
X151974797Y-107082500D01*
X151974798Y-107082500D01*
X152100188Y-107057558D01*
X152160947Y-107064750D01*
X152205877Y-107106282D01*
X152218500Y-107154656D01*
X152218500Y-108339999D01*
X152212130Y-108359603D01*
X152210012Y-108380106D01*
X152203359Y-108386598D01*
X152199593Y-108398190D01*
X152169151Y-108425648D01*
X152159111Y-108431468D01*
X152155769Y-108432133D01*
X152141386Y-108441743D01*
X152138651Y-108443329D01*
X152111670Y-108449113D01*
X152085112Y-108456604D01*
X152081782Y-108455521D01*
X152078825Y-108456156D01*
X152065331Y-108450176D01*
X152034000Y-108439996D01*
X152022235Y-108432135D01*
X152022232Y-108432134D01*
X152022231Y-108432133D01*
X152022228Y-108432132D01*
X152022227Y-108432132D01*
X151963758Y-108420501D01*
X151963748Y-108420500D01*
X151354252Y-108420500D01*
X151354251Y-108420500D01*
X151354241Y-108420501D01*
X151295772Y-108432132D01*
X151295766Y-108432134D01*
X151229451Y-108476445D01*
X151229447Y-108476449D01*
X151217293Y-108494638D01*
X151184482Y-108525367D01*
X151142685Y-108549499D01*
X151049500Y-108642685D01*
X151049499Y-108642687D01*
X150983609Y-108756809D01*
X150983608Y-108756814D01*
X150949500Y-108884108D01*
X150949500Y-109015892D01*
X150955636Y-109038792D01*
X150983609Y-109143190D01*
X151049496Y-109257309D01*
X151049498Y-109257311D01*
X151049500Y-109257314D01*
X151142686Y-109350500D01*
X151142688Y-109350501D01*
X151142690Y-109350503D01*
X151256810Y-109416390D01*
X151256808Y-109416390D01*
X151256812Y-109416391D01*
X151256814Y-109416392D01*
X151384108Y-109450500D01*
X151384110Y-109450500D01*
X151515890Y-109450500D01*
X151515892Y-109450500D01*
X151643186Y-109416392D01*
X151715287Y-109374763D01*
X151764788Y-109361500D01*
X151963747Y-109361500D01*
X151963748Y-109361500D01*
X152022231Y-109349867D01*
X152033997Y-109342004D01*
X152092885Y-109325395D01*
X152144002Y-109342004D01*
X152155769Y-109349867D01*
X152200231Y-109358711D01*
X152214241Y-109361498D01*
X152214246Y-109361498D01*
X152214252Y-109361500D01*
X152214253Y-109361500D01*
X152823747Y-109361500D01*
X152823748Y-109361500D01*
X152882231Y-109349867D01*
X152948552Y-109305552D01*
X152948556Y-109305545D01*
X152951912Y-109302191D01*
X153006429Y-109274414D01*
X153066861Y-109283985D01*
X153091920Y-109302191D01*
X153549440Y-109759711D01*
X153549439Y-109759711D01*
X153605389Y-109815660D01*
X153673907Y-109855219D01*
X153673911Y-109855221D01*
X153750335Y-109875699D01*
X153750337Y-109875700D01*
X153750338Y-109875700D01*
X174978363Y-109875700D01*
X174978363Y-109875699D01*
X175054789Y-109855221D01*
X175123311Y-109815660D01*
X175151285Y-109787685D01*
X175179261Y-109759711D01*
X175803550Y-109135420D01*
X175858067Y-109107642D01*
X175892865Y-109108325D01*
X175927547Y-109115224D01*
X175951044Y-109119899D01*
X175951050Y-109119899D01*
X175951052Y-109119900D01*
X175951053Y-109119900D01*
X176502405Y-109119900D01*
X176560596Y-109138807D01*
X176596560Y-109188307D01*
X176596560Y-109249493D01*
X176560596Y-109298993D01*
X176528030Y-109314525D01*
X176487466Y-109325395D01*
X176456809Y-109333609D01*
X176342690Y-109399496D01*
X176249496Y-109492690D01*
X176183609Y-109606809D01*
X176183608Y-109606814D01*
X176149500Y-109734108D01*
X176149500Y-109865892D01*
X176179579Y-109978151D01*
X176183609Y-109993190D01*
X176249496Y-110107309D01*
X176249498Y-110107311D01*
X176249500Y-110107314D01*
X176342686Y-110200500D01*
X176342688Y-110200501D01*
X176342690Y-110200503D01*
X176456810Y-110266390D01*
X176456808Y-110266390D01*
X176456812Y-110266391D01*
X176456814Y-110266392D01*
X176584108Y-110300500D01*
X176584110Y-110300500D01*
X176715890Y-110300500D01*
X176715892Y-110300500D01*
X176843186Y-110266392D01*
X176843188Y-110266390D01*
X176843190Y-110266390D01*
X176957309Y-110200503D01*
X176957309Y-110200502D01*
X176957314Y-110200500D01*
X177050500Y-110107314D01*
X177116392Y-109993186D01*
X177150500Y-109865892D01*
X177150500Y-109765477D01*
X177169407Y-109707286D01*
X177179497Y-109695473D01*
X177268161Y-109606809D01*
X177440460Y-109434511D01*
X177444706Y-109427156D01*
X177450923Y-109416390D01*
X177480020Y-109365990D01*
X177480021Y-109365989D01*
X177500500Y-109289562D01*
X177500500Y-108110438D01*
X177480021Y-108034011D01*
X177468267Y-108013653D01*
X177440461Y-107965491D01*
X177440460Y-107965489D01*
X177384511Y-107909540D01*
X177384508Y-107909538D01*
X177315992Y-107869980D01*
X177315988Y-107869978D01*
X177239564Y-107849500D01*
X177239562Y-107849500D01*
X177149978Y-107849500D01*
X177124400Y-107841189D01*
X177098254Y-107834914D01*
X177095629Y-107831841D01*
X177091787Y-107830593D01*
X177058516Y-107788389D01*
X177055989Y-107782289D01*
X177051185Y-107721293D01*
X177055987Y-107706513D01*
X177059663Y-107697636D01*
X177059667Y-107697631D01*
X177071300Y-107639148D01*
X177071300Y-107199652D01*
X177061784Y-107151813D01*
X177068975Y-107091054D01*
X177110508Y-107046123D01*
X177158882Y-107033500D01*
X177436747Y-107033500D01*
X177436748Y-107033500D01*
X177495231Y-107021867D01*
X177561552Y-106977552D01*
X177579633Y-106950493D01*
X177584975Y-106942498D01*
X177633026Y-106904619D01*
X177667290Y-106898500D01*
X177814842Y-106898500D01*
X177814844Y-106898500D01*
X177903988Y-106874614D01*
X177983912Y-106828469D01*
X178049169Y-106763212D01*
X178095314Y-106683288D01*
X178119200Y-106594144D01*
X178119200Y-105467744D01*
X178138107Y-105409553D01*
X178187607Y-105373589D01*
X178248793Y-105373589D01*
X178298293Y-105409553D01*
X178309664Y-105429858D01*
X178318958Y-105452297D01*
X178433920Y-105624351D01*
X178433923Y-105624355D01*
X178580245Y-105770677D01*
X178752302Y-105885641D01*
X178943480Y-105964830D01*
X179146435Y-106005200D01*
X179146436Y-106005200D01*
X179603364Y-106005200D01*
X179603365Y-106005200D01*
X179806320Y-105964830D01*
X179997498Y-105885641D01*
X180169555Y-105770677D01*
X180315877Y-105624355D01*
X180430841Y-105452298D01*
X180459831Y-105382311D01*
X180466457Y-105366314D01*
X180506194Y-105319789D01*
X180557921Y-105305200D01*
X185991442Y-105305200D01*
X185991444Y-105305200D01*
X186080588Y-105281314D01*
X186105301Y-105267045D01*
X186105303Y-105267045D01*
X186120193Y-105258448D01*
X186160512Y-105235170D01*
X187941186Y-103454496D01*
X187995703Y-103426719D01*
X188011190Y-103425500D01*
X188979273Y-103425500D01*
X188979273Y-103425499D01*
X189009699Y-103422646D01*
X189137882Y-103377793D01*
X189247150Y-103297150D01*
X189279506Y-103253308D01*
X189320845Y-103197297D01*
X189370612Y-103161704D01*
X189431796Y-103162162D01*
X189481026Y-103198495D01*
X189499500Y-103256085D01*
X189499500Y-104743914D01*
X189480593Y-104802105D01*
X189431093Y-104838069D01*
X189369907Y-104838069D01*
X189320845Y-104802702D01*
X189247154Y-104702855D01*
X189247152Y-104702853D01*
X189247150Y-104702850D01*
X189247146Y-104702847D01*
X189247144Y-104702845D01*
X189153140Y-104633467D01*
X189117547Y-104583699D01*
X189118005Y-104522516D01*
X189126192Y-104504311D01*
X189158192Y-104448886D01*
X189192300Y-104321592D01*
X189192300Y-104189808D01*
X189158192Y-104062514D01*
X189158190Y-104062511D01*
X189158190Y-104062509D01*
X189092303Y-103948390D01*
X189092301Y-103948388D01*
X189092300Y-103948386D01*
X188999114Y-103855200D01*
X188999111Y-103855198D01*
X188999109Y-103855196D01*
X188884989Y-103789309D01*
X188884991Y-103789309D01*
X188803544Y-103767486D01*
X188757692Y-103755200D01*
X188625908Y-103755200D01*
X188580056Y-103767486D01*
X188498609Y-103789309D01*
X188384490Y-103855196D01*
X188291296Y-103948390D01*
X188225409Y-104062509D01*
X188219707Y-104083789D01*
X188191300Y-104189808D01*
X188191300Y-104321592D01*
X188225408Y-104448886D01*
X188225674Y-104449877D01*
X188222471Y-104510979D01*
X188183966Y-104558529D01*
X188130047Y-104574500D01*
X187620725Y-104574500D01*
X187590305Y-104577353D01*
X187590296Y-104577355D01*
X187462116Y-104622207D01*
X187352855Y-104702845D01*
X187352845Y-104702855D01*
X187272207Y-104812116D01*
X187227355Y-104940296D01*
X187227353Y-104940305D01*
X187224500Y-104970725D01*
X187224500Y-105829274D01*
X187227353Y-105859694D01*
X187227355Y-105859703D01*
X187272207Y-105987883D01*
X187352845Y-106097144D01*
X187352847Y-106097146D01*
X187352850Y-106097150D01*
X187352853Y-106097152D01*
X187352855Y-106097154D01*
X187462116Y-106177792D01*
X187462117Y-106177792D01*
X187462118Y-106177793D01*
X187590301Y-106222646D01*
X187620725Y-106225499D01*
X187620727Y-106225500D01*
X187620734Y-106225500D01*
X188979273Y-106225500D01*
X188979273Y-106225499D01*
X189009699Y-106222646D01*
X189137882Y-106177793D01*
X189247150Y-106097150D01*
X189319142Y-105999604D01*
X189320845Y-105997297D01*
X189370612Y-105961704D01*
X189431796Y-105962162D01*
X189481026Y-105998495D01*
X189499500Y-106056085D01*
X189499500Y-110400500D01*
X189480593Y-110458691D01*
X189431093Y-110494655D01*
X189400500Y-110499500D01*
X150599500Y-110499500D01*
X150541309Y-110480593D01*
X150505345Y-110431093D01*
X150500500Y-110400500D01*
X150500500Y-104899000D01*
X150519407Y-104840809D01*
X150568907Y-104804845D01*
X150599500Y-104800000D01*
X155499999Y-104800000D01*
X155500000Y-104800000D01*
X155500000Y-92313978D01*
X155518907Y-92255787D01*
X155568407Y-92219823D01*
X155629593Y-92219823D01*
X155659217Y-92237977D01*
X155660343Y-92236511D01*
X155665493Y-92240463D01*
X155734008Y-92280020D01*
X155734006Y-92280020D01*
X155734010Y-92280021D01*
X155734012Y-92280022D01*
X155810438Y-92300500D01*
X157034521Y-92300500D01*
X157092712Y-92319407D01*
X157104525Y-92329496D01*
X157800504Y-93025475D01*
X157828281Y-93079992D01*
X157829500Y-93095479D01*
X157829500Y-93394346D01*
X157829501Y-93394358D01*
X157841132Y-93452827D01*
X157841135Y-93452835D01*
X157848996Y-93464600D01*
X157865604Y-93523488D01*
X157863017Y-93542406D01*
X157858906Y-93559769D01*
X157841133Y-93586369D01*
X157829500Y-93644852D01*
X157829500Y-93683987D01*
X157826837Y-93695236D01*
X157816650Y-93711977D01*
X157810593Y-93730621D01*
X157796969Y-93744606D01*
X157797275Y-93744912D01*
X157795580Y-93746606D01*
X157795033Y-93747506D01*
X157794428Y-93747758D01*
X157699496Y-93842690D01*
X157633609Y-93956809D01*
X157616981Y-94018867D01*
X157599500Y-94084108D01*
X157599500Y-94215892D01*
X157625475Y-94312833D01*
X157633609Y-94343190D01*
X157699496Y-94457309D01*
X157699498Y-94457311D01*
X157699500Y-94457314D01*
X157792686Y-94550500D01*
X157792688Y-94550501D01*
X157792690Y-94550503D01*
X157906810Y-94616390D01*
X157906808Y-94616390D01*
X157906812Y-94616391D01*
X157906814Y-94616392D01*
X158034108Y-94650500D01*
X158034110Y-94650500D01*
X158165890Y-94650500D01*
X158165892Y-94650500D01*
X158293186Y-94616392D01*
X158293188Y-94616390D01*
X158293190Y-94616390D01*
X158407309Y-94550503D01*
X158407309Y-94550502D01*
X158407314Y-94550500D01*
X158493719Y-94464094D01*
X158548234Y-94436319D01*
X158563721Y-94435100D01*
X158589747Y-94435100D01*
X158589748Y-94435100D01*
X158648231Y-94423467D01*
X158714552Y-94379152D01*
X158758867Y-94312831D01*
X158758868Y-94312825D01*
X158762597Y-94303824D01*
X158764610Y-94304657D01*
X158788115Y-94262678D01*
X158829697Y-94239745D01*
X158865989Y-94230021D01*
X158934511Y-94190460D01*
X158990460Y-94134511D01*
X159945475Y-93179496D01*
X159999992Y-93151719D01*
X160015479Y-93150500D01*
X160139563Y-93150500D01*
X160139563Y-93150499D01*
X160215989Y-93130021D01*
X160284511Y-93090460D01*
X160340460Y-93034511D01*
X161578274Y-91796695D01*
X161632789Y-91768920D01*
X161686158Y-91775236D01*
X161759249Y-91805512D01*
X161945202Y-91842500D01*
X161945203Y-91842500D01*
X162134797Y-91842500D01*
X162134798Y-91842500D01*
X162320751Y-91805512D01*
X162495915Y-91732956D01*
X162653558Y-91627622D01*
X162787622Y-91493558D01*
X162892956Y-91335915D01*
X162965512Y-91160751D01*
X163002500Y-90974798D01*
X163002500Y-90785202D01*
X162965512Y-90599249D01*
X162892956Y-90424085D01*
X162787622Y-90266442D01*
X162653558Y-90132378D01*
X162594497Y-90092914D01*
X162556619Y-90044863D01*
X162550500Y-90010599D01*
X162550500Y-89984109D01*
X162542564Y-89954490D01*
X162516392Y-89856814D01*
X162516390Y-89856810D01*
X162516390Y-89856809D01*
X162450503Y-89742690D01*
X162450501Y-89742688D01*
X162450500Y-89742686D01*
X162357314Y-89649500D01*
X162357311Y-89649498D01*
X162357309Y-89649496D01*
X162243189Y-89583609D01*
X162243191Y-89583609D01*
X162186581Y-89568441D01*
X162115892Y-89549500D01*
X161984108Y-89549500D01*
X161913419Y-89568441D01*
X161856809Y-89583609D01*
X161742690Y-89649496D01*
X161649496Y-89742690D01*
X161583609Y-89856809D01*
X161549500Y-89984109D01*
X161549500Y-89997236D01*
X161530593Y-90055427D01*
X161505502Y-90079551D01*
X161426442Y-90132377D01*
X161292381Y-90266438D01*
X161292378Y-90266442D01*
X161187043Y-90424085D01*
X161114489Y-90599245D01*
X161114487Y-90599251D01*
X161077500Y-90785199D01*
X161077500Y-90974800D01*
X161113558Y-91156080D01*
X161114488Y-91160751D01*
X161158152Y-91266165D01*
X161162335Y-91276262D01*
X161167136Y-91337259D01*
X161140875Y-91384152D01*
X160004525Y-92520504D01*
X159950008Y-92548281D01*
X159934521Y-92549500D01*
X159810435Y-92549500D01*
X159734014Y-92569977D01*
X159734010Y-92569979D01*
X159672917Y-92605250D01*
X159672918Y-92605251D01*
X159665488Y-92609540D01*
X159017209Y-93257818D01*
X158962693Y-93285595D01*
X158902261Y-93276024D01*
X158858996Y-93232759D01*
X158849425Y-93172327D01*
X158861470Y-93138314D01*
X158916390Y-93043190D01*
X158916390Y-93043188D01*
X158916392Y-93043186D01*
X158950500Y-92915892D01*
X158950500Y-92784108D01*
X158916392Y-92656814D01*
X158916390Y-92656811D01*
X158916390Y-92656809D01*
X158850503Y-92542690D01*
X158850501Y-92542688D01*
X158850500Y-92542686D01*
X158757314Y-92449500D01*
X158757311Y-92449498D01*
X158757309Y-92449496D01*
X158643189Y-92383609D01*
X158643191Y-92383609D01*
X158593799Y-92370375D01*
X158515892Y-92349500D01*
X158384108Y-92349500D01*
X158306200Y-92370375D01*
X158256809Y-92383609D01*
X158165227Y-92436485D01*
X158105379Y-92449207D01*
X158049483Y-92424320D01*
X158045742Y-92420771D01*
X157466450Y-91841479D01*
X157438675Y-91786965D01*
X157448246Y-91726533D01*
X157481451Y-91689165D01*
X157573558Y-91627622D01*
X157707622Y-91493558D01*
X157812956Y-91335915D01*
X157885512Y-91160751D01*
X157922500Y-90974798D01*
X157922500Y-90785202D01*
X157922499Y-90785199D01*
X158537500Y-90785199D01*
X158537500Y-90974800D01*
X158574487Y-91160748D01*
X158574489Y-91160754D01*
X158647043Y-91335914D01*
X158669068Y-91368876D01*
X158752378Y-91493558D01*
X158886442Y-91627622D01*
X159044085Y-91732956D01*
X159219249Y-91805512D01*
X159405202Y-91842500D01*
X159405203Y-91842500D01*
X159594797Y-91842500D01*
X159594798Y-91842500D01*
X159780751Y-91805512D01*
X159955915Y-91732956D01*
X160113558Y-91627622D01*
X160247622Y-91493558D01*
X160352956Y-91335915D01*
X160425512Y-91160751D01*
X160462500Y-90974798D01*
X160462500Y-90785202D01*
X160425512Y-90599249D01*
X160352956Y-90424085D01*
X160247622Y-90266442D01*
X160113558Y-90132378D01*
X159998429Y-90055451D01*
X159955914Y-90027043D01*
X159780754Y-89954489D01*
X159780748Y-89954487D01*
X159594800Y-89917500D01*
X159594798Y-89917500D01*
X159405202Y-89917500D01*
X159405199Y-89917500D01*
X159219251Y-89954487D01*
X159219245Y-89954489D01*
X159044085Y-90027043D01*
X158886442Y-90132378D01*
X158886438Y-90132381D01*
X158752381Y-90266438D01*
X158752378Y-90266442D01*
X158647043Y-90424085D01*
X158574489Y-90599245D01*
X158574487Y-90599251D01*
X158537500Y-90785199D01*
X157922499Y-90785199D01*
X157885512Y-90599249D01*
X157812956Y-90424085D01*
X157707622Y-90266442D01*
X157573558Y-90132378D01*
X157458429Y-90055451D01*
X157415914Y-90027043D01*
X157240754Y-89954489D01*
X157240748Y-89954487D01*
X157054800Y-89917500D01*
X157054798Y-89917500D01*
X156865202Y-89917500D01*
X156865199Y-89917500D01*
X156679251Y-89954487D01*
X156679245Y-89954489D01*
X156504085Y-90027043D01*
X156346442Y-90132378D01*
X156346438Y-90132381D01*
X156212381Y-90266438D01*
X156212378Y-90266442D01*
X156107043Y-90424085D01*
X156040964Y-90583614D01*
X156001227Y-90630140D01*
X155941732Y-90644423D01*
X155885204Y-90621008D01*
X155853235Y-90568839D01*
X155850500Y-90545728D01*
X155850500Y-89710437D01*
X155850499Y-89710435D01*
X155830021Y-89634011D01*
X155830019Y-89634007D01*
X155794073Y-89571747D01*
X155790460Y-89565489D01*
X155734511Y-89509540D01*
X155734508Y-89509538D01*
X155665992Y-89469980D01*
X155665988Y-89469978D01*
X155589564Y-89449500D01*
X155589562Y-89449500D01*
X153260438Y-89449500D01*
X153260435Y-89449500D01*
X153184011Y-89469978D01*
X153161520Y-89482964D01*
X153148537Y-89490460D01*
X153115489Y-89509540D01*
X153077996Y-89547032D01*
X153073296Y-89550718D01*
X153049895Y-89559282D01*
X153027690Y-89570596D01*
X153020073Y-89570196D01*
X153015838Y-89571747D01*
X153008210Y-89569574D01*
X152986584Y-89568441D01*
X152933233Y-89554146D01*
X152915892Y-89549500D01*
X152784108Y-89549500D01*
X152713419Y-89568441D01*
X152656809Y-89583609D01*
X152542690Y-89649496D01*
X152449496Y-89742690D01*
X152383609Y-89856810D01*
X152383607Y-89856814D01*
X152367004Y-89918778D01*
X152333680Y-89970092D01*
X152276559Y-89992018D01*
X152233493Y-89984618D01*
X152160758Y-89954490D01*
X152160748Y-89954487D01*
X151974800Y-89917500D01*
X151974798Y-89917500D01*
X151785202Y-89917500D01*
X151785199Y-89917500D01*
X151599251Y-89954487D01*
X151599245Y-89954489D01*
X151424085Y-90027043D01*
X151266442Y-90132378D01*
X151266438Y-90132381D01*
X151132381Y-90266438D01*
X151132378Y-90266442D01*
X151027043Y-90424085D01*
X150954489Y-90599245D01*
X150954487Y-90599251D01*
X150917500Y-90785199D01*
X150917500Y-90974800D01*
X150954487Y-91160748D01*
X150954489Y-91160754D01*
X151027043Y-91335914D01*
X151049068Y-91368876D01*
X151132378Y-91493558D01*
X151266442Y-91627622D01*
X151424085Y-91732956D01*
X151599249Y-91805512D01*
X151785202Y-91842500D01*
X151785203Y-91842500D01*
X151974797Y-91842500D01*
X151974798Y-91842500D01*
X152160751Y-91805512D01*
X152335915Y-91732956D01*
X152493558Y-91627622D01*
X152627622Y-91493558D01*
X152732956Y-91335915D01*
X152805512Y-91160751D01*
X152842500Y-90974798D01*
X152842500Y-90785202D01*
X152819349Y-90668813D01*
X152826541Y-90608053D01*
X152868073Y-90563123D01*
X152909582Y-90552291D01*
X152909458Y-90551347D01*
X152915889Y-90550500D01*
X152915892Y-90550500D01*
X153043186Y-90516392D01*
X153043188Y-90516390D01*
X153043190Y-90516390D01*
X153157309Y-90450503D01*
X153157309Y-90450502D01*
X153157314Y-90450500D01*
X153250500Y-90357314D01*
X153316392Y-90243186D01*
X153340493Y-90153233D01*
X153366118Y-90108852D01*
X153395476Y-90079495D01*
X153449993Y-90051719D01*
X153465478Y-90050500D01*
X153649312Y-90050500D01*
X153707503Y-90069407D01*
X153743467Y-90118907D01*
X153743467Y-90180093D01*
X153719316Y-90219504D01*
X153672381Y-90266438D01*
X153672378Y-90266442D01*
X153567043Y-90424085D01*
X153494489Y-90599245D01*
X153494487Y-90599251D01*
X153457500Y-90785199D01*
X153457500Y-90974800D01*
X153494487Y-91160748D01*
X153494489Y-91160754D01*
X153567043Y-91335914D01*
X153589068Y-91368876D01*
X153672378Y-91493558D01*
X153806442Y-91627622D01*
X153964085Y-91732956D01*
X154139249Y-91805512D01*
X154325202Y-91842500D01*
X154325203Y-91842500D01*
X154514797Y-91842500D01*
X154514798Y-91842500D01*
X154700751Y-91805512D01*
X154875915Y-91732956D01*
X155033558Y-91627622D01*
X155081035Y-91580145D01*
X155135551Y-91552367D01*
X155195983Y-91561938D01*
X155239248Y-91605202D01*
X155243533Y-91614851D01*
X155249500Y-91630487D01*
X155249500Y-91639562D01*
X155269979Y-91715989D01*
X155301872Y-91771230D01*
X155305819Y-91778066D01*
X155309538Y-91784509D01*
X155475219Y-91950190D01*
X155500705Y-91994067D01*
X155500808Y-91994445D01*
X155519979Y-92065989D01*
X155520747Y-92067320D01*
X155522814Y-92074873D01*
X155521652Y-92099519D01*
X155523586Y-92124120D01*
X155520235Y-92129585D01*
X155519934Y-92135991D01*
X155504505Y-92155250D01*
X155491612Y-92176286D01*
X155485688Y-92178738D01*
X155481680Y-92183743D01*
X155457881Y-92190254D01*
X155435082Y-92199696D01*
X155427324Y-92200000D01*
X150599500Y-92200000D01*
X150541309Y-92181093D01*
X150505345Y-92131593D01*
X150500500Y-92101000D01*
X150500500Y-86599500D01*
X150519407Y-86541309D01*
X150568907Y-86505345D01*
X150599500Y-86500500D01*
X181356080Y-86500500D01*
X181414271Y-86519407D01*
G37*
%TD.AperFunction*%
%TD*%
M02*
