%TF.GenerationSoftware,KiCad,Pcbnew,10.0.4*%
%TF.CreationDate,2026-07-20T14:40:51-07:00*%
%TF.ProjectId,esp32c6_daikin,65737033-3263-4365-9f64-61696b696e2e,rev?*%
%TF.SameCoordinates,Original*%
%TF.FileFunction,AssemblyDrawing,Bot*%
%FSLAX46Y46*%
G04 Gerber Fmt 4.6, Leading zero omitted, Abs format (unit mm)*
G04 Created by KiCad (PCBNEW 10.0.4) date 2026-07-20 14:40:51*
%MOMM*%
%LPD*%
G01*
G04 APERTURE LIST*
%ADD10C,0.101600*%
%ADD11C,0.100000*%
%ADD12C,0.504000*%
G04 APERTURE END LIST*
D10*
X155614405Y-98846520D02*
X156037738Y-98211520D01*
X156037738Y-98846520D02*
X155614405Y-98211520D01*
X156279643Y-98211520D02*
X156279643Y-98846520D01*
X156551786Y-98392949D02*
X156854167Y-98392949D01*
X156491310Y-98211520D02*
X156702976Y-98846520D01*
X156702976Y-98846520D02*
X156914643Y-98211520D01*
X157247262Y-98846520D02*
X157368215Y-98846520D01*
X157368215Y-98846520D02*
X157428691Y-98816282D01*
X157428691Y-98816282D02*
X157489167Y-98755806D01*
X157489167Y-98755806D02*
X157519405Y-98634854D01*
X157519405Y-98634854D02*
X157519405Y-98423187D01*
X157519405Y-98423187D02*
X157489167Y-98302235D01*
X157489167Y-98302235D02*
X157428691Y-98241759D01*
X157428691Y-98241759D02*
X157368215Y-98211520D01*
X157368215Y-98211520D02*
X157247262Y-98211520D01*
X157247262Y-98211520D02*
X157186786Y-98241759D01*
X157186786Y-98241759D02*
X157126310Y-98302235D01*
X157126310Y-98302235D02*
X157096072Y-98423187D01*
X157096072Y-98423187D02*
X157096072Y-98634854D01*
X157096072Y-98634854D02*
X157126310Y-98755806D01*
X157126310Y-98755806D02*
X157186786Y-98816282D01*
X157186786Y-98816282D02*
X157247262Y-98846520D01*
X157791548Y-98453425D02*
X158275358Y-98453425D01*
X158577738Y-98544139D02*
X158789405Y-98544139D01*
X158880119Y-98211520D02*
X158577738Y-98211520D01*
X158577738Y-98211520D02*
X158577738Y-98846520D01*
X158577738Y-98846520D02*
X158880119Y-98846520D01*
X159122024Y-98241759D02*
X159212738Y-98211520D01*
X159212738Y-98211520D02*
X159363929Y-98211520D01*
X159363929Y-98211520D02*
X159424405Y-98241759D01*
X159424405Y-98241759D02*
X159454643Y-98271997D01*
X159454643Y-98271997D02*
X159484881Y-98332473D01*
X159484881Y-98332473D02*
X159484881Y-98392949D01*
X159484881Y-98392949D02*
X159454643Y-98453425D01*
X159454643Y-98453425D02*
X159424405Y-98483663D01*
X159424405Y-98483663D02*
X159363929Y-98513901D01*
X159363929Y-98513901D02*
X159242976Y-98544139D01*
X159242976Y-98544139D02*
X159182500Y-98574378D01*
X159182500Y-98574378D02*
X159152262Y-98604616D01*
X159152262Y-98604616D02*
X159122024Y-98665092D01*
X159122024Y-98665092D02*
X159122024Y-98725568D01*
X159122024Y-98725568D02*
X159152262Y-98786044D01*
X159152262Y-98786044D02*
X159182500Y-98816282D01*
X159182500Y-98816282D02*
X159242976Y-98846520D01*
X159242976Y-98846520D02*
X159394167Y-98846520D01*
X159394167Y-98846520D02*
X159484881Y-98816282D01*
X159757024Y-98211520D02*
X159757024Y-98846520D01*
X159757024Y-98846520D02*
X159998929Y-98846520D01*
X159998929Y-98846520D02*
X160059405Y-98816282D01*
X160059405Y-98816282D02*
X160089643Y-98786044D01*
X160089643Y-98786044D02*
X160119881Y-98725568D01*
X160119881Y-98725568D02*
X160119881Y-98634854D01*
X160119881Y-98634854D02*
X160089643Y-98574378D01*
X160089643Y-98574378D02*
X160059405Y-98544139D01*
X160059405Y-98544139D02*
X159998929Y-98513901D01*
X159998929Y-98513901D02*
X159757024Y-98513901D01*
X160331548Y-98846520D02*
X160724643Y-98846520D01*
X160724643Y-98846520D02*
X160512976Y-98604616D01*
X160512976Y-98604616D02*
X160603691Y-98604616D01*
X160603691Y-98604616D02*
X160664167Y-98574378D01*
X160664167Y-98574378D02*
X160694405Y-98544139D01*
X160694405Y-98544139D02*
X160724643Y-98483663D01*
X160724643Y-98483663D02*
X160724643Y-98332473D01*
X160724643Y-98332473D02*
X160694405Y-98271997D01*
X160694405Y-98271997D02*
X160664167Y-98241759D01*
X160664167Y-98241759D02*
X160603691Y-98211520D01*
X160603691Y-98211520D02*
X160422262Y-98211520D01*
X160422262Y-98211520D02*
X160361786Y-98241759D01*
X160361786Y-98241759D02*
X160331548Y-98271997D01*
X160966548Y-98786044D02*
X160996786Y-98816282D01*
X160996786Y-98816282D02*
X161057262Y-98846520D01*
X161057262Y-98846520D02*
X161208453Y-98846520D01*
X161208453Y-98846520D02*
X161268929Y-98816282D01*
X161268929Y-98816282D02*
X161299167Y-98786044D01*
X161299167Y-98786044D02*
X161329405Y-98725568D01*
X161329405Y-98725568D02*
X161329405Y-98665092D01*
X161329405Y-98665092D02*
X161299167Y-98574378D01*
X161299167Y-98574378D02*
X160936310Y-98211520D01*
X160936310Y-98211520D02*
X161329405Y-98211520D01*
X161601548Y-98453425D02*
X162085358Y-98453425D01*
X162750595Y-98271997D02*
X162720357Y-98241759D01*
X162720357Y-98241759D02*
X162629643Y-98211520D01*
X162629643Y-98211520D02*
X162569167Y-98211520D01*
X162569167Y-98211520D02*
X162478452Y-98241759D01*
X162478452Y-98241759D02*
X162417976Y-98302235D01*
X162417976Y-98302235D02*
X162387738Y-98362711D01*
X162387738Y-98362711D02*
X162357500Y-98483663D01*
X162357500Y-98483663D02*
X162357500Y-98574378D01*
X162357500Y-98574378D02*
X162387738Y-98695330D01*
X162387738Y-98695330D02*
X162417976Y-98755806D01*
X162417976Y-98755806D02*
X162478452Y-98816282D01*
X162478452Y-98816282D02*
X162569167Y-98846520D01*
X162569167Y-98846520D02*
X162629643Y-98846520D01*
X162629643Y-98846520D02*
X162720357Y-98816282D01*
X162720357Y-98816282D02*
X162750595Y-98786044D01*
X163294881Y-98846520D02*
X163173928Y-98846520D01*
X163173928Y-98846520D02*
X163113452Y-98816282D01*
X163113452Y-98816282D02*
X163083214Y-98786044D01*
X163083214Y-98786044D02*
X163022738Y-98695330D01*
X163022738Y-98695330D02*
X162992500Y-98574378D01*
X162992500Y-98574378D02*
X162992500Y-98332473D01*
X162992500Y-98332473D02*
X163022738Y-98271997D01*
X163022738Y-98271997D02*
X163052976Y-98241759D01*
X163052976Y-98241759D02*
X163113452Y-98211520D01*
X163113452Y-98211520D02*
X163234405Y-98211520D01*
X163234405Y-98211520D02*
X163294881Y-98241759D01*
X163294881Y-98241759D02*
X163325119Y-98271997D01*
X163325119Y-98271997D02*
X163355357Y-98332473D01*
X163355357Y-98332473D02*
X163355357Y-98483663D01*
X163355357Y-98483663D02*
X163325119Y-98544139D01*
X163325119Y-98544139D02*
X163294881Y-98574378D01*
X163294881Y-98574378D02*
X163234405Y-98604616D01*
X163234405Y-98604616D02*
X163113452Y-98604616D01*
X163113452Y-98604616D02*
X163052976Y-98574378D01*
X163052976Y-98574378D02*
X163022738Y-98544139D01*
X163022738Y-98544139D02*
X162992500Y-98483663D01*
%TO.C,U2*%
D11*
X149075000Y-89600000D02*
X170050000Y-89600000D01*
X170050000Y-107400000D01*
X149075000Y-107400000D01*
X149075000Y-89600000D01*
D12*
X169178000Y-106304000D02*
G75*
G02*
X168674000Y-106304000I-252000J0D01*
G01*
X168674000Y-106304000D02*
G75*
G02*
X169178000Y-106304000I252000J0D01*
G01*
%TD*%
M02*
