M48
; DRILL file KiCad 10.0.4 date 2026-07-18T15:57:25
; FORMAT={-:-/ absolute / metric / decimal}
; #@! TF.CreationDate,2026-07-18T15:57:25-07:00
; #@! TF.GenerationSoftware,Kicad,Pcbnew,10.0.4
; #@! TF.FileFunction,MixedPlating,1,2
FMAT,2
METRIC
; #@! TA.AperFunction,Plated,PTH,ViaDrill
T1C0.300
; #@! TA.AperFunction,Plated,PTH,ComponentDrill
T2C0.950
%
G90
G05
T1
X155.62Y-97.11
X155.65Y-95.98
X155.76Y-94.38
X155.76Y-104.48
X156.36Y-100.95
X156.39Y-99.95
X156.64Y-104.65
X158.38Y-99.93
X158.57Y-100.95
X158.71Y-98.08
X158.85Y-96.7
X158.88Y-95.37
X159.73Y-101.09
X160.59Y-96.32
X160.62Y-97.26
X160.94Y-93.97
X161.33Y-101.06
X161.41Y-94.63
X162.09Y-94.24
X162.55Y-102.49
X162.6Y-101.17
X162.91Y-103.85
X163.35Y-94.42
X164.01Y-102.49
X164.09Y-103.85
X164.11Y-108.6
X164.62Y-94.85
X165.36Y-102.49
X165.55Y-103.93
X165.69Y-95.35
X165.94Y-96.97
X166.69Y-102.36
X166.71Y-103.82
X167.18Y-94.47
X167.76Y-97.17
X167.97Y-102.73
X168.14Y-101.95
X168.19Y-99.87
X171.48Y-108.13
X171.49Y-91.68
X171.73Y-90.8
X172.44Y-106.36
X172.89Y-90.68
X172.89Y-108.06
X173.08Y-95.82
X173.08Y-97.01
X173.53Y-106.36
X174.13Y-104.91
X174.2Y-104.21
X174.4Y-95.92
X174.46Y-106.36
X174.53Y-98.35
X174.6Y-99.92
X175.175Y-104.2
X176.145Y-103.355
X176.9Y-102.4
X177.5Y-108.51
X177.54Y-107.77
X177.57Y-107.13
X177.6Y-106.01
X177.73Y-105.11
X177.82Y-104.25
X178.8Y-99.5
X178.8Y-102.3
T2
X180.5Y-94.5
X180.5Y-97.0
X180.5Y-99.5
X180.5Y-102.0
X180.5Y-104.5
M30
