%TF.GenerationSoftware,KiCad,Pcbnew,10.0.4*%
%TF.CreationDate,2026-07-18T15:57:24-07:00*%
%TF.ProjectId,esp32c6_daikin,65737033-3263-4365-9f64-61696b696e2e,rev?*%
%TF.SameCoordinates,Original*%
%TF.FileFunction,Copper,L1,Top*%
%TF.FilePolarity,Positive*%
%FSLAX46Y46*%
G04 Gerber Fmt 4.6, Leading zero omitted, Abs format (unit mm)*
G04 Created by KiCad (PCBNEW 10.0.4) date 2026-07-18 15:57:24*
%MOMM*%
%LPD*%
G01*
G04 APERTURE LIST*
G04 Aperture macros list*
%AMRoundRect*
0 Rectangle with rounded corners*
0 $1 Rounding radius*
0 $2 $3 $4 $5 $6 $7 $8 $9 X,Y pos of 4 corners*
0 Add a 4 corners polygon primitive as box body*
4,1,4,$2,$3,$4,$5,$6,$7,$8,$9,$2,$3,0*
0 Add four circle primitives for the rounded corners*
1,1,$1+$1,$2,$3*
1,1,$1+$1,$4,$5*
1,1,$1+$1,$6,$7*
1,1,$1+$1,$8,$9*
0 Add four rect primitives between the rounded corners*
20,1,$1+$1,$2,$3,$4,$5,0*
20,1,$1+$1,$4,$5,$6,$7,0*
20,1,$1+$1,$6,$7,$8,$9,0*
20,1,$1+$1,$8,$9,$2,$3,0*%
G04 Aperture macros list end*
%TA.AperFunction,SMDPad,CuDef*%
%ADD10R,0.540000X0.570000*%
%TD*%
%TA.AperFunction,SMDPad,CuDef*%
%ADD11R,1.860000X1.230000*%
%TD*%
%TA.AperFunction,SMDPad,CuDef*%
%ADD12RoundRect,0.200000X-0.200000X-0.275000X0.200000X-0.275000X0.200000X0.275000X-0.200000X0.275000X0*%
%TD*%
%TA.AperFunction,SMDPad,CuDef*%
%ADD13R,0.300000X0.850000*%
%TD*%
%TA.AperFunction,SMDPad,CuDef*%
%ADD14R,0.510000X0.550000*%
%TD*%
%TA.AperFunction,SMDPad,CuDef*%
%ADD15RoundRect,0.250000X0.625000X-0.375000X0.625000X0.375000X-0.625000X0.375000X-0.625000X-0.375000X0*%
%TD*%
%TA.AperFunction,SMDPad,CuDef*%
%ADD16R,0.350000X0.600000*%
%TD*%
%TA.AperFunction,SMDPad,CuDef*%
%ADD17R,0.570000X0.540000*%
%TD*%
%TA.AperFunction,SMDPad,CuDef*%
%ADD18R,0.540000X0.790000*%
%TD*%
%TA.AperFunction,SMDPad,CuDef*%
%ADD19R,0.900000X0.800000*%
%TD*%
%TA.AperFunction,SMDPad,CuDef*%
%ADD20R,1.350000X1.410000*%
%TD*%
%TA.AperFunction,SMDPad,CuDef*%
%ADD21R,4.000000X1.500000*%
%TD*%
%TA.AperFunction,SMDPad,CuDef*%
%ADD22R,0.900000X0.400000*%
%TD*%
%TA.AperFunction,SMDPad,CuDef*%
%ADD23R,0.810000X0.860000*%
%TD*%
%TA.AperFunction,SMDPad,CuDef*%
%ADD24RoundRect,0.250000X-0.300000X0.300000X-0.300000X-0.300000X0.300000X-0.300000X0.300000X0.300000X0*%
%TD*%
%TA.AperFunction,SMDPad,CuDef*%
%ADD25R,0.860000X0.810000*%
%TD*%
%TA.AperFunction,ComponentPad*%
%ADD26RoundRect,0.250000X-0.725000X0.600000X-0.725000X-0.600000X0.725000X-0.600000X0.725000X0.600000X0*%
%TD*%
%TA.AperFunction,ComponentPad*%
%ADD27O,1.950000X1.700000*%
%TD*%
%TA.AperFunction,SMDPad,CuDef*%
%ADD28R,1.230000X1.860000*%
%TD*%
%TA.AperFunction,SMDPad,CuDef*%
%ADD29RoundRect,0.200000X0.200000X0.275000X-0.200000X0.275000X-0.200000X-0.275000X0.200000X-0.275000X0*%
%TD*%
%TA.AperFunction,ViaPad*%
%ADD30C,0.600000*%
%TD*%
%TA.AperFunction,Conductor*%
%ADD31C,0.300000*%
%TD*%
%TA.AperFunction,Conductor*%
%ADD32C,0.500000*%
%TD*%
%TA.AperFunction,Conductor*%
%ADD33C,0.250000*%
%TD*%
%TA.AperFunction,Conductor*%
%ADD34C,0.175000*%
%TD*%
G04 APERTURE END LIST*
D10*
%TO.P,R1,1*%
%TO.N,unconnected-(R1-Pad1)*%
X173480000Y-101900000D03*
%TO.P,R1,2*%
%TO.N,Net-(Q1B-SP)*%
X173480000Y-101040000D03*
%TD*%
D11*
%TO.P,Reset1,1,A_1*%
%TO.N,Net-(Reset1-A)*%
X156600000Y-98360000D03*
%TO.P,Reset1,2,B_2*%
%TO.N,GND*%
X156600000Y-102720000D03*
%TD*%
D12*
%TO.P,R11,1*%
%TO.N,Net-(Q1B-SP)*%
X175175000Y-101300000D03*
%TO.P,R11,2*%
%TO.N,/S21_RX_CONN*%
X176825000Y-101300000D03*
%TD*%
D13*
%TO.P,U1,1,VIN_1*%
%TO.N,V_in*%
X169180000Y-94275000D03*
%TO.P,U1,2,SW_2*%
%TO.N,Net-(U1-SW)*%
X168680000Y-94275000D03*
%TO.P,U1,3,GND_3*%
%TO.N,GND*%
X168180000Y-94275000D03*
%TO.P,U1,4,VBST_4*%
%TO.N,Net-(U1-VBST)*%
X168180000Y-95715000D03*
%TO.P,U1,5,EN_5*%
%TO.N,Net-(U1-EN)*%
X168680000Y-95715000D03*
%TO.P,U1,6,VFB_6*%
%TO.N,Net-(U1-VFB)*%
X169180000Y-95715000D03*
%TD*%
D11*
%TO.P,Boot1,1,A_1*%
%TO.N,Net-(Boot1-A)*%
X160140000Y-107420000D03*
%TO.P,Boot1,2,B_2*%
%TO.N,GND*%
X160140000Y-103060000D03*
%TD*%
D14*
%TO.P,D4,1,K_1*%
%TO.N,/S21_TX_CORE*%
X173240000Y-99920000D03*
%TO.P,D4,2,A_2*%
%TO.N,Net-(D4-A)*%
X172400000Y-99920000D03*
%TD*%
D15*
%TO.P,F1,1*%
%TO.N,V_in*%
X176200000Y-94400000D03*
%TO.P,F1,2*%
%TO.N,/12V_IN*%
X176200000Y-91600000D03*
%TD*%
D16*
%TO.P,D2,1*%
%TO.N,GND*%
X170710000Y-103640000D03*
%TO.P,D2,2*%
%TO.N,Net-(Q1B-SP)*%
X170070000Y-103640000D03*
%TD*%
D17*
%TO.P,R9,1*%
%TO.N,Net-(Reset1-A)*%
X157750000Y-94200000D03*
%TO.P,R9,2*%
%TO.N,Net-(U2-EN)*%
X158610000Y-94200000D03*
%TD*%
D18*
%TO.P,C18,1*%
%TO.N,Net-(U1-VBST)*%
X166950000Y-96560000D03*
%TO.P,C18,2*%
%TO.N,Net-(U1-SW)*%
X166950000Y-95460000D03*
%TD*%
D19*
%TO.P,C6,1*%
%TO.N,Net-(U2-EN)*%
X159490000Y-92490000D03*
%TO.P,C6,2*%
%TO.N,GND*%
X159490000Y-91090000D03*
%TD*%
D17*
%TO.P,R2,1*%
%TO.N,3V3*%
X170320000Y-99900000D03*
%TO.P,R2,2*%
%TO.N,Net-(D4-A)*%
X171180000Y-99900000D03*
%TD*%
D20*
%TO.P,C17,1*%
%TO.N,V_in*%
X173130000Y-94350000D03*
%TO.P,C17,2*%
%TO.N,GND*%
X173130000Y-92350000D03*
%TD*%
D18*
%TO.P,C8,1*%
%TO.N,Net-(Reset1-A)*%
X157730000Y-95630000D03*
%TO.P,C8,2*%
%TO.N,GND*%
X157730000Y-96730000D03*
%TD*%
%TO.P,C3,1*%
%TO.N,V_in*%
X171480000Y-94010000D03*
%TO.P,C3,2*%
%TO.N,GND*%
X171480000Y-92910000D03*
%TD*%
%TO.P,C19,1*%
%TO.N,Net-(U1-VFB)*%
X169870000Y-97300000D03*
%TO.P,C19,2*%
%TO.N,3V3*%
X169870000Y-98400000D03*
%TD*%
%TO.P,C5,1*%
%TO.N,GND*%
X163430000Y-99550000D03*
%TO.P,C5,2*%
%TO.N,3V3*%
X163430000Y-98450000D03*
%TD*%
D10*
%TO.P,R3,1*%
%TO.N,3V3*%
X159880000Y-95170000D03*
%TO.P,R3,2*%
%TO.N,Net-(U2-EN)*%
X159880000Y-94310000D03*
%TD*%
D18*
%TO.P,C4,1*%
%TO.N,GND*%
X162220000Y-99470000D03*
%TO.P,C4,2*%
%TO.N,3V3*%
X162220000Y-98370000D03*
%TD*%
%TO.P,C1,1*%
%TO.N,GND*%
X159820000Y-99490000D03*
%TO.P,C1,2*%
%TO.N,3V3*%
X159820000Y-98390000D03*
%TD*%
D17*
%TO.P,R8,1*%
%TO.N,Net-(U1-VFB)*%
X172040000Y-98430000D03*
%TO.P,R8,2*%
%TO.N,GND*%
X172900000Y-98430000D03*
%TD*%
D21*
%TO.P,L1,1,1_1*%
%TO.N,Net-(U1-SW)*%
X163150000Y-92760000D03*
%TO.P,L1,2,2_2*%
%TO.N,3V3*%
X163150000Y-96360000D03*
%TD*%
D22*
%TO.P,Q1,1,SN_1*%
%TO.N,GND*%
X170860000Y-102600000D03*
%TO.P,Q1,2,GN_2*%
%TO.N,/S21_TX_CORE*%
X170860000Y-101950000D03*
%TO.P,Q1,3,SP_3*%
%TO.N,Net-(Q1B-SP)*%
X170860000Y-101300000D03*
%TO.P,Q1,4,DP_4*%
%TO.N,GND*%
X169060000Y-101300000D03*
%TO.P,Q1,5,GP_5*%
%TO.N,TX1*%
X169060000Y-101950000D03*
%TO.P,Q1,6,DN_6*%
%TO.N,RX1*%
X169060000Y-102600000D03*
%TD*%
D23*
%TO.P,R6,1*%
%TO.N,3V3*%
X166930000Y-98190000D03*
%TO.P,R6,2*%
%TO.N,Net-(U1-VFB)*%
X168430000Y-98190000D03*
%TD*%
D24*
%TO.P,D5,1*%
%TO.N,V_in*%
X176200000Y-96500000D03*
%TO.P,D5,2*%
%TO.N,GND*%
X176200000Y-99300000D03*
%TD*%
D16*
%TO.P,D3,1*%
%TO.N,GND*%
X172390000Y-104170000D03*
%TO.P,D3,2*%
%TO.N,/S21_TX_CORE*%
X173030000Y-104170000D03*
%TD*%
D20*
%TO.P,C15,1*%
%TO.N,3V3*%
X165070000Y-98540000D03*
%TO.P,C15,2*%
%TO.N,GND*%
X165070000Y-100540000D03*
%TD*%
D25*
%TO.P,R5,1*%
%TO.N,Net-(U1-EN)*%
X171530000Y-96950000D03*
%TO.P,R5,2*%
%TO.N,V_in*%
X171530000Y-95450000D03*
%TD*%
D26*
%TO.P,J2,1*%
%TO.N,unconnected-(J2-Pin_1-Pad1)*%
X180500000Y-94500000D03*
D27*
%TO.P,J2,2*%
%TO.N,/S21_TX_CONN*%
X180500000Y-97000000D03*
%TO.P,J2,3*%
%TO.N,/S21_RX_CONN*%
X180500000Y-99500000D03*
%TO.P,J2,4*%
%TO.N,/12V_IN*%
X180500000Y-102000000D03*
%TO.P,J2,5*%
%TO.N,GND*%
X180500000Y-104500000D03*
%TD*%
D18*
%TO.P,C2,1*%
%TO.N,GND*%
X161010000Y-99490000D03*
%TO.P,C2,2*%
%TO.N,3V3*%
X161010000Y-98390000D03*
%TD*%
D28*
%TO.P,Matter1,1,A_1*%
%TO.N,Net-(Matter1-A)*%
X167390000Y-107290000D03*
%TO.P,Matter1,2,B_2*%
%TO.N,GND*%
X163030000Y-107290000D03*
%TD*%
D18*
%TO.P,C16,1*%
%TO.N,V_in*%
X170290000Y-94020000D03*
%TO.P,C16,2*%
%TO.N,GND*%
X170290000Y-92920000D03*
%TD*%
%TO.P,C7,1*%
%TO.N,GND*%
X166750000Y-100860000D03*
%TO.P,C7,2*%
%TO.N,3V3*%
X166750000Y-99760000D03*
%TD*%
D29*
%TO.P,R10,1*%
%TO.N,/S21_TX_CORE*%
X176825000Y-104200000D03*
%TO.P,R10,2*%
%TO.N,/S21_TX_CONN*%
X175175000Y-104200000D03*
%TD*%
D30*
%TO.N,GND*%
X159730000Y-101090000D03*
X177540000Y-107770000D03*
X171490000Y-91680000D03*
X172890000Y-90680000D03*
X158880000Y-95370000D03*
X156640000Y-104650000D03*
X177730000Y-105110000D03*
X165360000Y-102490000D03*
X162090000Y-94240000D03*
X168190000Y-99870000D03*
X158380000Y-99930000D03*
X165690000Y-95350000D03*
X174400000Y-95920000D03*
X158570000Y-100950000D03*
X155760000Y-94380000D03*
X164010000Y-102490000D03*
X155650000Y-95980000D03*
X165940000Y-96970000D03*
X160590000Y-96320000D03*
X174460000Y-106360000D03*
X156360000Y-100950000D03*
X172440000Y-106360000D03*
X173530000Y-106360000D03*
X177500000Y-108510000D03*
X162600000Y-101170000D03*
X167180000Y-94470000D03*
X156390000Y-99950000D03*
X174130000Y-104910000D03*
X177600000Y-106010000D03*
X166710000Y-103820000D03*
X174200000Y-104210000D03*
X177570000Y-107130000D03*
X177820000Y-104250000D03*
X173080000Y-97010000D03*
X161410000Y-94630000D03*
X160620000Y-97260000D03*
X174530000Y-98350000D03*
X166690000Y-102360000D03*
X158850000Y-96700000D03*
X155760000Y-104480000D03*
X167760000Y-97170000D03*
X158710000Y-98080000D03*
X172890000Y-108060000D03*
X165550000Y-103930000D03*
X155620000Y-97110000D03*
X171730000Y-90800000D03*
X162550000Y-102490000D03*
X164090000Y-103850000D03*
X164620000Y-94850000D03*
X162910000Y-103850000D03*
X173080000Y-95820000D03*
X161330000Y-101060000D03*
%TO.N,/S21_RX_CONN*%
X176900000Y-102400000D03*
%TO.N,Net-(Boot1-A)*%
X164110000Y-108600000D03*
%TO.N,/S21_TX_CORE*%
X176145000Y-103355000D03*
X174600000Y-99920000D03*
%TO.N,Net-(U2-EN)*%
X160940000Y-93970000D03*
%TO.N,3V3*%
X163350000Y-94420000D03*
%TO.N,TX1*%
X168140000Y-101950000D03*
%TO.N,RX1*%
X167970000Y-102730000D03*
%TO.N,/S21_TX_CONN*%
X175175000Y-104200000D03*
X178800000Y-99500000D03*
X178800000Y-102300000D03*
%TO.N,Net-(Matter1-A)*%
X171480000Y-108130000D03*
%TD*%
%TO.N,Net-(Q1B-SP)*%
D31*
X170060000Y-102950000D02*
X170060000Y-101400000D01*
X170060000Y-101400000D02*
X170160000Y-101300000D01*
X170160000Y-101300000D02*
X170860000Y-101300000D01*
X170070000Y-102960000D02*
X170070000Y-103640000D01*
X170860000Y-101300000D02*
X171205000Y-100955000D01*
X175175000Y-101300000D02*
X175175000Y-100955000D01*
X170060000Y-102950000D02*
X170070000Y-102960000D01*
X171205000Y-100955000D02*
X175175000Y-100955000D01*
%TO.N,Net-(Reset1-A)*%
X157750000Y-94200000D02*
X157750000Y-95610000D01*
X156600000Y-98360000D02*
X156600000Y-96190000D01*
X156600000Y-96190000D02*
X157160000Y-95630000D01*
X156600000Y-95350000D02*
X157750000Y-94200000D01*
X157160000Y-95630000D02*
X157730000Y-95630000D01*
X157750000Y-95610000D02*
X157730000Y-95630000D01*
X156600000Y-98360000D02*
X156600000Y-95350000D01*
%TO.N,/S21_RX_CONN*%
X176825000Y-101300000D02*
X176900000Y-102400000D01*
%TO.N,V_in*%
D32*
X171480000Y-95400000D02*
X171530000Y-95450000D01*
D33*
X170035000Y-94275000D02*
X170290000Y-94020000D01*
D32*
X173130000Y-94350000D02*
X175450000Y-94350000D01*
X172630000Y-94350000D02*
X171530000Y-95450000D01*
X170290000Y-94210000D02*
X171530000Y-95450000D01*
X170290000Y-94020000D02*
X170290000Y-94210000D01*
X170300000Y-94010000D02*
X170290000Y-94020000D01*
X171480000Y-94010000D02*
X171480000Y-95400000D01*
D33*
X169180000Y-94275000D02*
X170035000Y-94275000D01*
D32*
X171480000Y-94010000D02*
X170300000Y-94010000D01*
X173130000Y-94350000D02*
X171820000Y-94350000D01*
X173130000Y-94350000D02*
X172630000Y-94350000D01*
D31*
X176200000Y-96500000D02*
X176200000Y-94400000D01*
D32*
X171820000Y-94350000D02*
X171480000Y-94010000D01*
D31*
X176200000Y-94400000D02*
X175450000Y-94350000D01*
%TO.N,Net-(U1-SW)*%
X168680000Y-94275000D02*
X168680000Y-93500000D01*
X167940000Y-92760000D02*
X166510000Y-92760000D01*
X166950000Y-95460000D02*
X166510000Y-95020000D01*
X166510000Y-95020000D02*
X166510000Y-92760000D01*
X166510000Y-92760000D02*
X163150000Y-92760000D01*
X168680000Y-93500000D02*
X167940000Y-92760000D01*
%TO.N,Net-(U1-VBST)*%
X167335000Y-96560000D02*
X168180000Y-95715000D01*
X166950000Y-96560000D02*
X167335000Y-96560000D01*
%TO.N,Net-(U1-EN)*%
D34*
X171440000Y-96950000D02*
X171530000Y-96950000D01*
X169492500Y-95002500D02*
X171440000Y-96950000D01*
X168680000Y-95065000D02*
X168742500Y-95002500D01*
X168680000Y-95715000D02*
X168680000Y-95065000D01*
X168742500Y-95002500D02*
X169492500Y-95002500D01*
%TO.N,Net-(U1-VFB)*%
D31*
X170030000Y-97300000D02*
X171160000Y-98430000D01*
X169180000Y-95715000D02*
X169180000Y-96610000D01*
X171160000Y-98430000D02*
X172040000Y-98430000D01*
X169180000Y-96610000D02*
X169870000Y-97300000D01*
X169320000Y-97300000D02*
X168430000Y-98190000D01*
X168430000Y-98190000D02*
X168430000Y-97360000D01*
X169870000Y-97300000D02*
X170030000Y-97300000D01*
X169870000Y-97300000D02*
X169320000Y-97300000D01*
X168430000Y-97360000D02*
X169180000Y-96610000D01*
%TO.N,Net-(Boot1-A)*%
X161400000Y-108680000D02*
X160140000Y-107420000D01*
X164110000Y-108600000D02*
X161400000Y-108680000D01*
%TO.N,/S21_TX_CORE*%
X173240000Y-99920000D02*
X175330000Y-99920000D01*
X173015000Y-103355000D02*
X176145000Y-103355000D01*
X170860000Y-101950000D02*
X171610000Y-101950000D01*
X176825000Y-104200000D02*
X176145000Y-103355000D01*
X171610000Y-101950000D02*
X173015000Y-103355000D01*
X173030000Y-104170000D02*
X173030000Y-103370000D01*
X173030000Y-103370000D02*
X173015000Y-103355000D01*
%TO.N,Net-(D4-A)*%
X172400000Y-99920000D02*
X171200000Y-99920000D01*
X171200000Y-99920000D02*
X171180000Y-99900000D01*
%TO.N,/12V_IN*%
X180300000Y-103000000D02*
X180500000Y-102000000D01*
X177800000Y-91700000D02*
X177800000Y-103000000D01*
X177800000Y-103000000D02*
X180300000Y-103000000D01*
X176200000Y-91600000D02*
X177800000Y-91700000D01*
%TO.N,Net-(U2-EN)*%
X158720000Y-94310000D02*
X158610000Y-94200000D01*
X160940000Y-93940000D02*
X159490000Y-92490000D01*
X158610000Y-94200000D02*
X158610000Y-93370000D01*
X158610000Y-93370000D02*
X159490000Y-92490000D01*
X159880000Y-94310000D02*
X158720000Y-94310000D01*
X159880000Y-94310000D02*
X159880000Y-92880000D01*
X159880000Y-92880000D02*
X159490000Y-92490000D01*
X160940000Y-93970000D02*
X160940000Y-93940000D01*
%TO.N,3V3*%
X166930000Y-98190000D02*
X164980000Y-98190000D01*
X166750000Y-99760000D02*
X166750000Y-98370000D01*
X163350000Y-96160000D02*
X163150000Y-96360000D01*
X159880000Y-98330000D02*
X159820000Y-98390000D01*
X161120000Y-98390000D02*
X163150000Y-96360000D01*
X163430000Y-98450000D02*
X163430000Y-96640000D01*
X169870000Y-98400000D02*
X169300000Y-98970000D01*
X159970000Y-95260000D02*
X162510000Y-95260000D01*
X159880000Y-95170000D02*
X159970000Y-95260000D01*
X159880000Y-95170000D02*
X159880000Y-98330000D01*
X162249045Y-96360000D02*
X163150000Y-96360000D01*
X163350000Y-98370000D02*
X163430000Y-98450000D01*
X162510000Y-95260000D02*
X163350000Y-94420000D01*
X166290000Y-99760000D02*
X165070000Y-98540000D01*
X159820000Y-98390000D02*
X161120000Y-98390000D01*
X165000000Y-96260000D02*
X164670000Y-96260000D01*
X170320000Y-99900000D02*
X170305000Y-99900000D01*
X162220000Y-98370000D02*
X162220000Y-97290000D01*
X162200000Y-98390000D02*
X162220000Y-98370000D01*
X164980000Y-98190000D02*
X163150000Y-96360000D01*
X165070000Y-98540000D02*
X165070000Y-98280000D01*
X166750000Y-99760000D02*
X167300000Y-99760000D01*
X162220000Y-97290000D02*
X163150000Y-96360000D01*
X161010000Y-98390000D02*
X162200000Y-98390000D01*
X170305000Y-99900000D02*
X169375000Y-98970000D01*
X170320000Y-99900000D02*
X170320000Y-98850000D01*
X170320000Y-98850000D02*
X169870000Y-98400000D01*
X163430000Y-98450000D02*
X164980000Y-98450000D01*
X166750000Y-98370000D02*
X166930000Y-98190000D01*
X165070000Y-98280000D02*
X163150000Y-96360000D01*
X169300000Y-98970000D02*
X168090000Y-98970000D01*
X166750000Y-99760000D02*
X166290000Y-99760000D01*
X164980000Y-98450000D02*
X165070000Y-98540000D01*
X168090000Y-98970000D02*
X167710000Y-98970000D01*
X162220000Y-98370000D02*
X163350000Y-98370000D01*
X163350000Y-94420000D02*
X163350000Y-96160000D01*
X161059045Y-95170000D02*
X162249045Y-96360000D01*
X167300000Y-99760000D02*
X168090000Y-98970000D01*
X159880000Y-95170000D02*
X161059045Y-95170000D01*
X163430000Y-96640000D02*
X163150000Y-96360000D01*
X167710000Y-98970000D02*
X166930000Y-98190000D01*
%TO.N,TX1*%
X169060000Y-101950000D02*
X168140000Y-101950000D01*
%TO.N,RX1*%
X169060000Y-102600000D02*
X168100000Y-102600000D01*
X168100000Y-102600000D02*
X167970000Y-102730000D01*
%TO.N,/S21_TX_CONN*%
X178800000Y-99500000D02*
X178800000Y-102300000D01*
%TO.N,Net-(Matter1-A)*%
X167390000Y-107290000D02*
X168230000Y-108130000D01*
X168230000Y-108130000D02*
X171480000Y-108130000D01*
%TD*%
%TA.AperFunction,Conductor*%
%TO.N,GND*%
G36*
X166118691Y-93129407D02*
G01*
X166154655Y-93178907D01*
X166159500Y-93209500D01*
X166159500Y-95066144D01*
X166180749Y-95145448D01*
X166180750Y-95145450D01*
X166180749Y-95145450D01*
X166183385Y-95155284D01*
X166183389Y-95155295D01*
X166226720Y-95230345D01*
X166229530Y-95235212D01*
X166450505Y-95456187D01*
X166478281Y-95510702D01*
X166479500Y-95526189D01*
X166479500Y-95874746D01*
X166479501Y-95874758D01*
X166490418Y-95929637D01*
X166491133Y-95933231D01*
X166501141Y-95948209D01*
X166505678Y-95954999D01*
X166522286Y-96013887D01*
X166505678Y-96065001D01*
X166491134Y-96086767D01*
X166491132Y-96086772D01*
X166479501Y-96145241D01*
X166479500Y-96145253D01*
X166479500Y-96974746D01*
X166479501Y-96974758D01*
X166491132Y-97033227D01*
X166491134Y-97033233D01*
X166535445Y-97099548D01*
X166535448Y-97099552D01*
X166601769Y-97143867D01*
X166646231Y-97152711D01*
X166660241Y-97155498D01*
X166660246Y-97155498D01*
X166660252Y-97155500D01*
X166660253Y-97155500D01*
X167239747Y-97155500D01*
X167239748Y-97155500D01*
X167298231Y-97143867D01*
X167364552Y-97099552D01*
X167408867Y-97033231D01*
X167420500Y-96974748D01*
X167420500Y-96972516D01*
X167420815Y-96971546D01*
X167420976Y-96969912D01*
X167421334Y-96969947D01*
X167439407Y-96914325D01*
X167470014Y-96886772D01*
X167473618Y-96884692D01*
X167520194Y-96857801D01*
X167550212Y-96840470D01*
X167896868Y-96493814D01*
X168021187Y-96369496D01*
X168075703Y-96341719D01*
X168091190Y-96340500D01*
X168349747Y-96340500D01*
X168349748Y-96340500D01*
X168354418Y-96339570D01*
X168410685Y-96328379D01*
X168449315Y-96328379D01*
X168510241Y-96340498D01*
X168510246Y-96340498D01*
X168510252Y-96340500D01*
X168714810Y-96340500D01*
X168773001Y-96359407D01*
X168808965Y-96408907D01*
X168808965Y-96470093D01*
X168784814Y-96509504D01*
X168149529Y-97144789D01*
X168116040Y-97202792D01*
X168116041Y-97202793D01*
X168103386Y-97224710D01*
X168096476Y-97250499D01*
X168081493Y-97306420D01*
X168079500Y-97313857D01*
X168079500Y-97463483D01*
X168060593Y-97521674D01*
X168011093Y-97557638D01*
X167999816Y-97560580D01*
X167946772Y-97571132D01*
X167946766Y-97571134D01*
X167880451Y-97615445D01*
X167880445Y-97615451D01*
X167836134Y-97681766D01*
X167836132Y-97681772D01*
X167824501Y-97740241D01*
X167824500Y-97740253D01*
X167824500Y-98349810D01*
X167817336Y-98371857D01*
X167813710Y-98394755D01*
X167808061Y-98400403D01*
X167805593Y-98408001D01*
X167786836Y-98421628D01*
X167770445Y-98438020D01*
X167762555Y-98439269D01*
X167756093Y-98443965D01*
X167732908Y-98443965D01*
X167710013Y-98447591D01*
X167702896Y-98443965D01*
X167694907Y-98443965D01*
X167655496Y-98419814D01*
X167564496Y-98328814D01*
X167536719Y-98274297D01*
X167535500Y-98258810D01*
X167535500Y-97740253D01*
X167535498Y-97740241D01*
X167532711Y-97726231D01*
X167523867Y-97681769D01*
X167479552Y-97615448D01*
X167457108Y-97600451D01*
X167413233Y-97571134D01*
X167413231Y-97571133D01*
X167413228Y-97571132D01*
X167413227Y-97571132D01*
X167354758Y-97559501D01*
X167354748Y-97559500D01*
X166505252Y-97559500D01*
X166505251Y-97559500D01*
X166505241Y-97559501D01*
X166446772Y-97571132D01*
X166446766Y-97571134D01*
X166380451Y-97615445D01*
X166380445Y-97615451D01*
X166336134Y-97681766D01*
X166336132Y-97681772D01*
X166324501Y-97740241D01*
X166324500Y-97740253D01*
X166324500Y-97740500D01*
X166324465Y-97740607D01*
X166324024Y-97745088D01*
X166323040Y-97744991D01*
X166319655Y-97755411D01*
X166319655Y-97771093D01*
X166310438Y-97783778D01*
X166305593Y-97798691D01*
X166292907Y-97807907D01*
X166283691Y-97820593D01*
X166268778Y-97825438D01*
X166256093Y-97834655D01*
X166225500Y-97839500D01*
X166031570Y-97839500D01*
X165973379Y-97820593D01*
X165937415Y-97771093D01*
X165934475Y-97759829D01*
X165933867Y-97756769D01*
X165889552Y-97690448D01*
X165876568Y-97681772D01*
X165823233Y-97646134D01*
X165823231Y-97646133D01*
X165823228Y-97646132D01*
X165823227Y-97646132D01*
X165764758Y-97634501D01*
X165764748Y-97634500D01*
X165764747Y-97634500D01*
X164961190Y-97634500D01*
X164953592Y-97632031D01*
X164945703Y-97633281D01*
X164925047Y-97622756D01*
X164902999Y-97615593D01*
X164891186Y-97605504D01*
X164765186Y-97479504D01*
X164737409Y-97424987D01*
X164746980Y-97364555D01*
X164790245Y-97321290D01*
X164835190Y-97310500D01*
X165169747Y-97310500D01*
X165169748Y-97310500D01*
X165228231Y-97298867D01*
X165294552Y-97254552D01*
X165338867Y-97188231D01*
X165350500Y-97129748D01*
X165350500Y-95590252D01*
X165338867Y-95531769D01*
X165294552Y-95465448D01*
X165281315Y-95456603D01*
X165228233Y-95421134D01*
X165228231Y-95421133D01*
X165228228Y-95421132D01*
X165228227Y-95421132D01*
X165169758Y-95409501D01*
X165169748Y-95409500D01*
X165169747Y-95409500D01*
X163799500Y-95409500D01*
X163741309Y-95390593D01*
X163705345Y-95341093D01*
X163700500Y-95310500D01*
X163700500Y-94818321D01*
X163719407Y-94760130D01*
X163729490Y-94748323D01*
X163750500Y-94727314D01*
X163753509Y-94722103D01*
X163816390Y-94613190D01*
X163816390Y-94613188D01*
X163816392Y-94613186D01*
X163850500Y-94485892D01*
X163850500Y-94354108D01*
X163816392Y-94226814D01*
X163816390Y-94226811D01*
X163816390Y-94226809D01*
X163750503Y-94112690D01*
X163750501Y-94112688D01*
X163750500Y-94112686D01*
X163657314Y-94019500D01*
X163657311Y-94019498D01*
X163657309Y-94019496D01*
X163543189Y-93953609D01*
X163543191Y-93953609D01*
X163493523Y-93940301D01*
X163415892Y-93919500D01*
X163284108Y-93919500D01*
X163206477Y-93940301D01*
X163156809Y-93953609D01*
X163042690Y-94019496D01*
X162949496Y-94112690D01*
X162883609Y-94226809D01*
X162849500Y-94354109D01*
X162849500Y-94383810D01*
X162830593Y-94442001D01*
X162820504Y-94453814D01*
X162393814Y-94880504D01*
X162339297Y-94908281D01*
X162323810Y-94909500D01*
X161333888Y-94909500D01*
X161280276Y-94892080D01*
X161279876Y-94892775D01*
X161276611Y-94890889D01*
X161275697Y-94890593D01*
X161274339Y-94889578D01*
X161274258Y-94889531D01*
X161274257Y-94889530D01*
X161194333Y-94843386D01*
X161105189Y-94819500D01*
X161105187Y-94819500D01*
X160426349Y-94819500D01*
X160368158Y-94800593D01*
X160332194Y-94751093D01*
X160332194Y-94689907D01*
X160335782Y-94682510D01*
X160335134Y-94682242D01*
X160338862Y-94673237D01*
X160338867Y-94673231D01*
X160350500Y-94614748D01*
X160350500Y-94319429D01*
X160369407Y-94261238D01*
X160418907Y-94225274D01*
X160480093Y-94225274D01*
X160529593Y-94261238D01*
X160535232Y-94269922D01*
X160539500Y-94277314D01*
X160632686Y-94370500D01*
X160632688Y-94370501D01*
X160632690Y-94370503D01*
X160746810Y-94436390D01*
X160746808Y-94436390D01*
X160746812Y-94436391D01*
X160746814Y-94436392D01*
X160874108Y-94470500D01*
X160874110Y-94470500D01*
X161005890Y-94470500D01*
X161005892Y-94470500D01*
X161133186Y-94436392D01*
X161133188Y-94436390D01*
X161133190Y-94436390D01*
X161247309Y-94370503D01*
X161247309Y-94370502D01*
X161247314Y-94370500D01*
X161340500Y-94277314D01*
X161369659Y-94226809D01*
X161406390Y-94163190D01*
X161406390Y-94163188D01*
X161406392Y-94163186D01*
X161440500Y-94035892D01*
X161440500Y-93904108D01*
X161422015Y-93835120D01*
X161425218Y-93774022D01*
X161463723Y-93726472D01*
X161517642Y-93710500D01*
X165169747Y-93710500D01*
X165169748Y-93710500D01*
X165228231Y-93698867D01*
X165294552Y-93654552D01*
X165338867Y-93588231D01*
X165350500Y-93529748D01*
X165350500Y-93209500D01*
X165369407Y-93151309D01*
X165418907Y-93115345D01*
X165449500Y-93110500D01*
X166060500Y-93110500D01*
X166118691Y-93129407D01*
G37*
%TD.AperFunction*%
%TA.AperFunction,Conductor*%
G36*
X160908691Y-95629407D02*
G01*
X160944655Y-95678907D01*
X160949500Y-95709500D01*
X160949500Y-97129746D01*
X160949501Y-97129758D01*
X160961132Y-97188227D01*
X160961134Y-97188233D01*
X161002740Y-97250500D01*
X161005448Y-97254552D01*
X161071769Y-97298867D01*
X161116231Y-97307711D01*
X161130241Y-97310498D01*
X161130246Y-97310498D01*
X161130252Y-97310500D01*
X161464810Y-97310500D01*
X161523001Y-97329407D01*
X161558965Y-97378907D01*
X161558965Y-97440093D01*
X161534814Y-97479504D01*
X161248814Y-97765504D01*
X161194297Y-97793281D01*
X161178810Y-97794500D01*
X160720252Y-97794500D01*
X160720251Y-97794500D01*
X160720241Y-97794501D01*
X160661772Y-97806132D01*
X160661766Y-97806134D01*
X160595451Y-97850445D01*
X160595445Y-97850451D01*
X160551134Y-97916766D01*
X160551134Y-97916767D01*
X160551133Y-97916769D01*
X160542633Y-97959501D01*
X160542571Y-97959815D01*
X160539628Y-97965069D01*
X160539628Y-97971093D01*
X160524907Y-97991354D01*
X160512673Y-98013199D01*
X160507204Y-98015719D01*
X160503664Y-98020593D01*
X160479847Y-98028331D01*
X160457108Y-98038814D01*
X160445473Y-98039500D01*
X160384527Y-98039500D01*
X160326336Y-98020593D01*
X160290372Y-97971093D01*
X160287429Y-97959815D01*
X160287367Y-97959501D01*
X160278867Y-97916769D01*
X160271136Y-97905199D01*
X160247185Y-97869354D01*
X160230500Y-97814352D01*
X160230500Y-95709500D01*
X160249407Y-95651309D01*
X160298907Y-95615345D01*
X160329500Y-95610500D01*
X160850500Y-95610500D01*
X160908691Y-95629407D01*
G37*
%TD.AperFunction*%
%TA.AperFunction,Conductor*%
G36*
X167812001Y-93129407D02*
G01*
X167823814Y-93139496D01*
X168300504Y-93616186D01*
X168328281Y-93670703D01*
X168329500Y-93686190D01*
X168329500Y-94719746D01*
X168329501Y-94719758D01*
X168341132Y-94778227D01*
X168341134Y-94778233D01*
X168375234Y-94829266D01*
X168385448Y-94844552D01*
X168385451Y-94844554D01*
X168389193Y-94848296D01*
X168398738Y-94867030D01*
X168411855Y-94883458D01*
X168411706Y-94892482D01*
X168416970Y-94902813D01*
X168414637Y-94944580D01*
X168412509Y-94952307D01*
X168411627Y-94953836D01*
X168394869Y-95016375D01*
X168394758Y-95016780D01*
X168378099Y-95042050D01*
X168361612Y-95067438D01*
X168361278Y-95067566D01*
X168361082Y-95067864D01*
X168332705Y-95078533D01*
X168304490Y-95089364D01*
X168303857Y-95089380D01*
X168303811Y-95089398D01*
X168303757Y-95089383D01*
X168299310Y-95089500D01*
X168010252Y-95089500D01*
X168010251Y-95089500D01*
X168010241Y-95089501D01*
X167951772Y-95101132D01*
X167951766Y-95101134D01*
X167885451Y-95145445D01*
X167885449Y-95145447D01*
X167885448Y-95145448D01*
X167874331Y-95162085D01*
X167841134Y-95211766D01*
X167841132Y-95211772D01*
X167829501Y-95270241D01*
X167829500Y-95270253D01*
X167829500Y-95528810D01*
X167810593Y-95587001D01*
X167800504Y-95598813D01*
X167589502Y-95809814D01*
X167534987Y-95837591D01*
X167474555Y-95828020D01*
X167431290Y-95784755D01*
X167420500Y-95739810D01*
X167420500Y-95045253D01*
X167420498Y-95045241D01*
X167416886Y-95027084D01*
X167408867Y-94986769D01*
X167364552Y-94920448D01*
X167364548Y-94920445D01*
X167298233Y-94876134D01*
X167298231Y-94876133D01*
X167298228Y-94876132D01*
X167298227Y-94876132D01*
X167239758Y-94864501D01*
X167239748Y-94864500D01*
X167239747Y-94864500D01*
X166959500Y-94864500D01*
X166901309Y-94845593D01*
X166865345Y-94796093D01*
X166860500Y-94765500D01*
X166860500Y-93209500D01*
X166879407Y-93151309D01*
X166928907Y-93115345D01*
X166959500Y-93110500D01*
X167753810Y-93110500D01*
X167812001Y-93129407D01*
G37*
%TD.AperFunction*%
%TA.AperFunction,Conductor*%
G36*
X185618665Y-90269578D02*
G01*
X185654645Y-90319066D01*
X185659500Y-90349689D01*
X185659500Y-108970500D01*
X185640593Y-109028691D01*
X185591093Y-109064655D01*
X185560500Y-109069500D01*
X164586802Y-109069500D01*
X164528611Y-109050593D01*
X164492647Y-109001093D01*
X164492647Y-108939907D01*
X164508264Y-108910228D01*
X164510502Y-108907311D01*
X164576390Y-108793190D01*
X164576390Y-108793188D01*
X164576392Y-108793186D01*
X164610500Y-108665892D01*
X164610500Y-108534108D01*
X164576392Y-108406814D01*
X164576390Y-108406811D01*
X164576390Y-108406809D01*
X164510503Y-108292690D01*
X164510501Y-108292688D01*
X164510500Y-108292686D01*
X164417314Y-108199500D01*
X164417311Y-108199498D01*
X164417309Y-108199496D01*
X164303189Y-108133609D01*
X164303191Y-108133609D01*
X164257205Y-108121287D01*
X164218376Y-108110883D01*
X164167063Y-108077560D01*
X164145136Y-108020438D01*
X164145000Y-108015257D01*
X164145000Y-107540001D01*
X164144999Y-107540000D01*
X161915001Y-107540000D01*
X161915000Y-107540001D01*
X161915000Y-108218022D01*
X161896093Y-108276213D01*
X161846593Y-108312177D01*
X161818922Y-108316979D01*
X161583582Y-108323927D01*
X161524858Y-108306745D01*
X161510656Y-108294974D01*
X161299496Y-108083814D01*
X161271719Y-108029297D01*
X161270500Y-108013810D01*
X161270500Y-106785253D01*
X161270498Y-106785241D01*
X161267711Y-106771231D01*
X161258867Y-106726769D01*
X161214552Y-106660448D01*
X161214548Y-106660445D01*
X161148233Y-106616134D01*
X161148231Y-106616133D01*
X161148228Y-106616132D01*
X161148227Y-106616132D01*
X161089758Y-106604501D01*
X161089748Y-106604500D01*
X159190252Y-106604500D01*
X159190251Y-106604500D01*
X159190241Y-106604501D01*
X159131772Y-106616132D01*
X159131766Y-106616134D01*
X159065451Y-106660445D01*
X159065445Y-106660451D01*
X159021134Y-106726766D01*
X159021132Y-106726772D01*
X159009501Y-106785241D01*
X159009500Y-106785253D01*
X159009500Y-108054746D01*
X159009501Y-108054758D01*
X159021132Y-108113227D01*
X159021134Y-108113233D01*
X159034749Y-108133609D01*
X159065448Y-108179552D01*
X159131769Y-108223867D01*
X159176231Y-108232711D01*
X159190241Y-108235498D01*
X159190246Y-108235498D01*
X159190252Y-108235500D01*
X160418810Y-108235500D01*
X160477001Y-108254407D01*
X160488814Y-108264496D01*
X161115079Y-108890761D01*
X161121921Y-108898349D01*
X161125953Y-108903313D01*
X161126003Y-108903394D01*
X161126069Y-108903457D01*
X161129828Y-108908084D01*
X161140899Y-108936799D01*
X161151828Y-108964981D01*
X161151802Y-108965077D01*
X161151839Y-108965173D01*
X161143928Y-108994869D01*
X161136194Y-109024135D01*
X161136116Y-109024198D01*
X161136090Y-109024297D01*
X161112433Y-109043510D01*
X161088776Y-109062803D01*
X161088652Y-109062826D01*
X161088596Y-109062872D01*
X161088330Y-109062886D01*
X161052982Y-109069500D01*
X155199500Y-109069500D01*
X155141309Y-109050593D01*
X155105345Y-109001093D01*
X155100500Y-108970500D01*
X155100500Y-106312175D01*
X161915000Y-106312175D01*
X161915000Y-107039999D01*
X161915001Y-107040000D01*
X162779999Y-107040000D01*
X162780000Y-107039999D01*
X162780000Y-105860001D01*
X163280000Y-105860001D01*
X163280000Y-107039999D01*
X163280001Y-107040000D01*
X164144999Y-107040000D01*
X164145000Y-107039999D01*
X164145000Y-106340253D01*
X166574500Y-106340253D01*
X166574500Y-108239746D01*
X166574501Y-108239758D01*
X166586132Y-108298227D01*
X166586134Y-108298233D01*
X166604145Y-108325188D01*
X166630448Y-108364552D01*
X166696769Y-108408867D01*
X166741231Y-108417711D01*
X166755241Y-108420498D01*
X166755246Y-108420498D01*
X166755252Y-108420500D01*
X166755253Y-108420500D01*
X168005634Y-108420500D01*
X168055135Y-108433764D01*
X168094712Y-108456614D01*
X168183856Y-108480500D01*
X171081679Y-108480500D01*
X171139870Y-108499407D01*
X171151676Y-108509490D01*
X171172686Y-108530500D01*
X171172688Y-108530501D01*
X171172690Y-108530503D01*
X171286810Y-108596390D01*
X171286808Y-108596390D01*
X171286812Y-108596391D01*
X171286814Y-108596392D01*
X171414108Y-108630500D01*
X171414110Y-108630500D01*
X171545890Y-108630500D01*
X171545892Y-108630500D01*
X171673186Y-108596392D01*
X171673188Y-108596390D01*
X171673190Y-108596390D01*
X171787309Y-108530503D01*
X171787309Y-108530502D01*
X171787314Y-108530500D01*
X171880500Y-108437314D01*
X171922508Y-108364554D01*
X171946390Y-108323190D01*
X171946390Y-108323188D01*
X171946392Y-108323186D01*
X171980500Y-108195892D01*
X171980500Y-108064108D01*
X171946392Y-107936814D01*
X171946390Y-107936811D01*
X171946390Y-107936809D01*
X171880503Y-107822690D01*
X171880501Y-107822688D01*
X171880500Y-107822686D01*
X171787314Y-107729500D01*
X171787311Y-107729498D01*
X171787309Y-107729496D01*
X171673189Y-107663609D01*
X171673191Y-107663609D01*
X171623799Y-107650375D01*
X171545892Y-107629500D01*
X171414108Y-107629500D01*
X171336200Y-107650375D01*
X171286809Y-107663609D01*
X171172690Y-107729496D01*
X171172689Y-107729497D01*
X171172686Y-107729499D01*
X171172686Y-107729500D01*
X171151680Y-107750505D01*
X171097166Y-107778281D01*
X171081679Y-107779500D01*
X168416188Y-107779500D01*
X168408590Y-107777031D01*
X168400701Y-107778281D01*
X168380047Y-107767757D01*
X168357997Y-107760593D01*
X168346184Y-107750503D01*
X168234496Y-107638814D01*
X168206719Y-107584298D01*
X168205500Y-107568811D01*
X168205500Y-106340253D01*
X168205498Y-106340241D01*
X168199915Y-106312175D01*
X168193867Y-106281769D01*
X168149552Y-106215448D01*
X168149548Y-106215445D01*
X168083233Y-106171134D01*
X168083231Y-106171133D01*
X168083228Y-106171132D01*
X168083227Y-106171132D01*
X168024758Y-106159501D01*
X168024748Y-106159500D01*
X166755252Y-106159500D01*
X166755251Y-106159500D01*
X166755241Y-106159501D01*
X166696772Y-106171132D01*
X166696766Y-106171134D01*
X166630451Y-106215445D01*
X166630445Y-106215451D01*
X166586134Y-106281766D01*
X166586132Y-106281772D01*
X166574501Y-106340241D01*
X166574500Y-106340253D01*
X164145000Y-106340253D01*
X164145000Y-106312175D01*
X164138598Y-106252629D01*
X164138596Y-106252618D01*
X164088353Y-106117911D01*
X164088352Y-106117909D01*
X164002192Y-106002815D01*
X164002184Y-106002807D01*
X163887090Y-105916647D01*
X163887088Y-105916646D01*
X163752381Y-105866403D01*
X163752370Y-105866401D01*
X163692824Y-105860000D01*
X163280001Y-105860000D01*
X163280000Y-105860001D01*
X162780000Y-105860001D01*
X162779999Y-105860000D01*
X162367176Y-105860000D01*
X162307629Y-105866401D01*
X162307618Y-105866403D01*
X162172911Y-105916646D01*
X162172909Y-105916647D01*
X162057815Y-106002807D01*
X162057807Y-106002815D01*
X161971647Y-106117909D01*
X161971646Y-106117911D01*
X161921403Y-106252618D01*
X161921401Y-106252629D01*
X161915000Y-106312175D01*
X155100500Y-106312175D01*
X155100500Y-104517824D01*
X171714999Y-104517824D01*
X171721401Y-104577370D01*
X171721403Y-104577381D01*
X171771646Y-104712088D01*
X171771647Y-104712090D01*
X171857807Y-104827184D01*
X171857815Y-104827192D01*
X171972909Y-104913352D01*
X171972911Y-104913353D01*
X172107618Y-104963596D01*
X172107629Y-104963598D01*
X172167176Y-104970000D01*
X172214999Y-104970000D01*
X172215000Y-104969999D01*
X172215000Y-104345001D01*
X172214999Y-104345000D01*
X171715001Y-104345000D01*
X171715000Y-104345001D01*
X171715000Y-104517824D01*
X171714999Y-104517824D01*
X155100500Y-104517824D01*
X155100500Y-103706023D01*
X155119407Y-103647832D01*
X155168907Y-103611868D01*
X155230093Y-103611868D01*
X155278753Y-103646694D01*
X155312807Y-103692184D01*
X155312815Y-103692192D01*
X155427909Y-103778352D01*
X155427911Y-103778353D01*
X155562618Y-103828596D01*
X155562629Y-103828598D01*
X155622176Y-103835000D01*
X156349999Y-103835000D01*
X156350000Y-103834999D01*
X156350000Y-102970001D01*
X156850000Y-102970001D01*
X156850000Y-103834999D01*
X156850001Y-103835000D01*
X157577824Y-103835000D01*
X157637370Y-103828598D01*
X157637381Y-103828596D01*
X157772088Y-103778353D01*
X157772090Y-103778352D01*
X157846265Y-103722824D01*
X158709999Y-103722824D01*
X158716401Y-103782370D01*
X158716403Y-103782381D01*
X158766646Y-103917088D01*
X158766647Y-103917090D01*
X158852807Y-104032184D01*
X158852815Y-104032192D01*
X158967909Y-104118352D01*
X158967911Y-104118353D01*
X159102618Y-104168596D01*
X159102629Y-104168598D01*
X159162176Y-104175000D01*
X159889999Y-104175000D01*
X159890000Y-104174999D01*
X159890000Y-103310001D01*
X160390000Y-103310001D01*
X160390000Y-104174999D01*
X160390001Y-104175000D01*
X161117824Y-104175000D01*
X161177370Y-104168598D01*
X161177381Y-104168596D01*
X161312088Y-104118353D01*
X161312090Y-104118352D01*
X161427184Y-104032192D01*
X161427192Y-104032184D01*
X161513352Y-103917090D01*
X161513353Y-103917088D01*
X161563596Y-103782381D01*
X161563598Y-103782370D01*
X161570000Y-103722824D01*
X161570000Y-103310001D01*
X161569999Y-103310000D01*
X160390001Y-103310000D01*
X160390000Y-103310001D01*
X159890000Y-103310001D01*
X159889999Y-103310000D01*
X158710001Y-103310000D01*
X158710000Y-103310001D01*
X158710000Y-103722824D01*
X158709999Y-103722824D01*
X157846265Y-103722824D01*
X157887184Y-103692192D01*
X157887192Y-103692184D01*
X157973352Y-103577090D01*
X157973353Y-103577088D01*
X158023596Y-103442381D01*
X158023598Y-103442370D01*
X158030000Y-103382824D01*
X158030000Y-102970001D01*
X158029999Y-102970000D01*
X156850001Y-102970000D01*
X156850000Y-102970001D01*
X156350000Y-102970001D01*
X156350000Y-101605001D01*
X156850000Y-101605001D01*
X156850000Y-102469999D01*
X156850001Y-102470000D01*
X158029999Y-102470000D01*
X158030000Y-102469999D01*
X158030000Y-102397175D01*
X158710000Y-102397175D01*
X158710000Y-102809999D01*
X158710001Y-102810000D01*
X159889999Y-102810000D01*
X159890000Y-102809999D01*
X159890000Y-101945001D01*
X160390000Y-101945001D01*
X160390000Y-102809999D01*
X160390001Y-102810000D01*
X161569999Y-102810000D01*
X161570000Y-102809999D01*
X161570000Y-102397175D01*
X161563598Y-102337629D01*
X161563596Y-102337618D01*
X161513353Y-102202911D01*
X161513352Y-102202909D01*
X161427192Y-102087815D01*
X161427184Y-102087807D01*
X161312090Y-102001647D01*
X161312088Y-102001646D01*
X161177381Y-101951403D01*
X161177370Y-101951401D01*
X161117824Y-101945000D01*
X160390001Y-101945000D01*
X160390000Y-101945001D01*
X159890000Y-101945001D01*
X159889999Y-101945000D01*
X159162176Y-101945000D01*
X159102629Y-101951401D01*
X159102618Y-101951403D01*
X158967911Y-102001646D01*
X158967909Y-102001647D01*
X158852815Y-102087807D01*
X158852807Y-102087815D01*
X158766647Y-102202909D01*
X158766646Y-102202911D01*
X158716403Y-102337618D01*
X158716401Y-102337629D01*
X158710000Y-102397175D01*
X158030000Y-102397175D01*
X158030000Y-102057175D01*
X158023598Y-101997629D01*
X158023596Y-101997618D01*
X157973353Y-101862911D01*
X157973352Y-101862909D01*
X157887192Y-101747815D01*
X157887184Y-101747807D01*
X157772090Y-101661647D01*
X157772088Y-101661646D01*
X157637381Y-101611403D01*
X157637370Y-101611401D01*
X157577824Y-101605000D01*
X156850001Y-101605000D01*
X156850000Y-101605001D01*
X156350000Y-101605001D01*
X156349999Y-101605000D01*
X155622176Y-101605000D01*
X155562629Y-101611401D01*
X155562618Y-101611403D01*
X155427911Y-101661646D01*
X155427909Y-101661647D01*
X155312815Y-101747807D01*
X155312806Y-101747816D01*
X155278752Y-101793306D01*
X155228743Y-101828558D01*
X155167564Y-101827684D01*
X155118583Y-101791015D01*
X155100500Y-101733976D01*
X155100500Y-101292824D01*
X163894999Y-101292824D01*
X163901401Y-101352370D01*
X163901403Y-101352381D01*
X163951646Y-101487088D01*
X163951647Y-101487090D01*
X164037807Y-101602184D01*
X164037815Y-101602192D01*
X164152909Y-101688352D01*
X164152911Y-101688353D01*
X164287618Y-101738596D01*
X164287629Y-101738598D01*
X164347176Y-101745000D01*
X164819999Y-101745000D01*
X164820000Y-101744999D01*
X164820000Y-100790001D01*
X164819999Y-100790000D01*
X163895001Y-100790000D01*
X163895000Y-100790001D01*
X163895000Y-101292824D01*
X163894999Y-101292824D01*
X155100500Y-101292824D01*
X155100500Y-99932824D01*
X159049999Y-99932824D01*
X159056401Y-99992370D01*
X159056403Y-99992381D01*
X159106646Y-100127088D01*
X159106647Y-100127090D01*
X159192807Y-100242184D01*
X159192815Y-100242192D01*
X159307909Y-100328352D01*
X159307911Y-100328353D01*
X159442618Y-100378596D01*
X159442629Y-100378598D01*
X159502176Y-100385000D01*
X159569999Y-100385000D01*
X159570000Y-100384999D01*
X159570000Y-99740001D01*
X160070000Y-99740001D01*
X160070000Y-100384999D01*
X160070001Y-100385000D01*
X160137824Y-100385000D01*
X160197370Y-100378598D01*
X160197381Y-100378596D01*
X160332084Y-100328355D01*
X160355670Y-100310699D01*
X160413585Y-100290962D01*
X160472040Y-100309036D01*
X160474330Y-100310699D01*
X160497915Y-100328355D01*
X160632618Y-100378596D01*
X160632629Y-100378598D01*
X160692176Y-100385000D01*
X160759999Y-100385000D01*
X160760000Y-100384999D01*
X160760000Y-99740001D01*
X161260000Y-99740001D01*
X161260000Y-100384999D01*
X161260001Y-100385000D01*
X161327824Y-100385000D01*
X161387370Y-100378598D01*
X161387381Y-100378596D01*
X161522084Y-100328355D01*
X161569028Y-100293213D01*
X161626943Y-100273476D01*
X161685398Y-100291550D01*
X161687687Y-100293213D01*
X161707913Y-100308354D01*
X161707912Y-100308354D01*
X161842618Y-100358596D01*
X161842629Y-100358598D01*
X161902176Y-100365000D01*
X161969999Y-100365000D01*
X161970000Y-100364999D01*
X161970000Y-99720001D01*
X162470000Y-99720001D01*
X162470000Y-100364999D01*
X162470001Y-100365000D01*
X162537824Y-100365000D01*
X162597370Y-100358598D01*
X162597378Y-100358596D01*
X162734138Y-100307588D01*
X162795267Y-100304968D01*
X162828065Y-100321093D01*
X162917912Y-100388354D01*
X163052618Y-100438596D01*
X163052629Y-100438598D01*
X163112176Y-100445000D01*
X163179999Y-100445000D01*
X163180000Y-100444999D01*
X163180000Y-99800001D01*
X163179999Y-99800000D01*
X162654000Y-99800000D01*
X162595809Y-99781093D01*
X162559845Y-99731593D01*
X162558575Y-99723576D01*
X162554999Y-99720000D01*
X162470001Y-99720000D01*
X162470000Y-99720001D01*
X161970000Y-99720001D01*
X161969999Y-99720000D01*
X161876341Y-99720000D01*
X161839480Y-99738781D01*
X161823993Y-99740000D01*
X161260001Y-99740000D01*
X161260000Y-99740001D01*
X160760000Y-99740001D01*
X160759999Y-99740000D01*
X160070001Y-99740000D01*
X160070000Y-99740001D01*
X159570000Y-99740001D01*
X159569999Y-99740000D01*
X159050001Y-99740000D01*
X159050000Y-99740001D01*
X159050000Y-99932824D01*
X159049999Y-99932824D01*
X155100500Y-99932824D01*
X155100500Y-97725253D01*
X155469500Y-97725253D01*
X155469500Y-98994746D01*
X155469501Y-98994758D01*
X155481132Y-99053227D01*
X155481134Y-99053233D01*
X155512049Y-99099500D01*
X155525448Y-99119552D01*
X155591769Y-99163867D01*
X155636231Y-99172711D01*
X155650241Y-99175498D01*
X155650246Y-99175498D01*
X155650252Y-99175500D01*
X155650253Y-99175500D01*
X157549747Y-99175500D01*
X157549748Y-99175500D01*
X157608231Y-99163867D01*
X157674552Y-99119552D01*
X157718867Y-99053231D01*
X157730500Y-98994748D01*
X157730500Y-97725252D01*
X157718867Y-97666769D01*
X157674552Y-97600448D01*
X157674548Y-97600445D01*
X157608233Y-97556134D01*
X157599224Y-97552403D01*
X157599842Y-97550910D01*
X157556300Y-97526524D01*
X157530686Y-97470959D01*
X157530000Y-97459325D01*
X157530000Y-96930001D01*
X157930000Y-96930001D01*
X157930000Y-97524998D01*
X157930001Y-97524999D01*
X158031483Y-97524999D01*
X158031485Y-97524998D01*
X158125141Y-97510166D01*
X158125151Y-97510163D01*
X158238043Y-97452641D01*
X158327641Y-97363043D01*
X158385163Y-97250151D01*
X158385164Y-97250147D01*
X158400000Y-97156484D01*
X158400000Y-96930001D01*
X158399999Y-96930000D01*
X157930001Y-96930000D01*
X157930000Y-96930001D01*
X157530000Y-96930001D01*
X157530000Y-96829000D01*
X157548907Y-96770809D01*
X157598407Y-96734845D01*
X157629000Y-96730000D01*
X157729999Y-96730000D01*
X157730000Y-96729999D01*
X157730000Y-96629000D01*
X157748907Y-96570809D01*
X157798407Y-96534845D01*
X157829000Y-96530000D01*
X158399998Y-96530000D01*
X158399999Y-96529999D01*
X158399999Y-96303516D01*
X158399998Y-96303514D01*
X158385166Y-96209858D01*
X158385163Y-96209848D01*
X158327641Y-96096956D01*
X158232535Y-96001850D01*
X158234297Y-96000087D01*
X158205339Y-95960209D01*
X158200500Y-95929637D01*
X158200500Y-95215253D01*
X158200498Y-95215241D01*
X158194423Y-95184700D01*
X158188867Y-95156769D01*
X158144552Y-95090448D01*
X158144495Y-95090410D01*
X158144428Y-95090325D01*
X158137658Y-95083555D01*
X158138459Y-95082753D01*
X158106618Y-95042360D01*
X158100500Y-95008097D01*
X158100500Y-94746349D01*
X158119407Y-94688158D01*
X158168907Y-94652194D01*
X158230093Y-94652194D01*
X158237489Y-94655782D01*
X158237758Y-94655134D01*
X158246764Y-94658863D01*
X158246769Y-94658867D01*
X158291231Y-94667711D01*
X158305241Y-94670498D01*
X158305246Y-94670498D01*
X158305252Y-94670500D01*
X158305253Y-94670500D01*
X158914747Y-94670500D01*
X158914748Y-94670500D01*
X158955459Y-94662401D01*
X158974773Y-94660500D01*
X159333651Y-94660500D01*
X159391842Y-94679407D01*
X159427806Y-94728907D01*
X159427806Y-94790093D01*
X159424217Y-94797489D01*
X159424866Y-94797758D01*
X159421132Y-94806772D01*
X159409501Y-94865241D01*
X159409500Y-94865253D01*
X159409500Y-95474746D01*
X159409501Y-95474758D01*
X159421132Y-95533227D01*
X159421134Y-95533233D01*
X159465448Y-95599553D01*
X159465449Y-95599554D01*
X159485500Y-95612951D01*
X159523380Y-95661000D01*
X159529500Y-95695267D01*
X159529500Y-97716070D01*
X159510593Y-97774261D01*
X159478896Y-97799250D01*
X159479876Y-97800716D01*
X159405451Y-97850445D01*
X159405445Y-97850451D01*
X159361134Y-97916766D01*
X159361132Y-97916772D01*
X159349501Y-97975241D01*
X159349500Y-97975253D01*
X159349500Y-98570957D01*
X159330593Y-98629148D01*
X159309829Y-98650210D01*
X159192815Y-98737807D01*
X159192807Y-98737815D01*
X159106647Y-98852909D01*
X159106646Y-98852911D01*
X159056403Y-98987618D01*
X159056401Y-98987629D01*
X159050000Y-99047175D01*
X159050000Y-99239999D01*
X159050001Y-99240000D01*
X161353659Y-99240000D01*
X161390520Y-99221219D01*
X161406007Y-99220000D01*
X162996000Y-99220000D01*
X163054191Y-99238907D01*
X163090155Y-99288407D01*
X163091424Y-99296423D01*
X163095001Y-99300000D01*
X163331000Y-99300000D01*
X163389191Y-99318907D01*
X163425155Y-99368407D01*
X163430000Y-99399000D01*
X163430000Y-99549999D01*
X163430001Y-99550000D01*
X163581000Y-99550000D01*
X163639191Y-99568907D01*
X163675155Y-99618407D01*
X163680000Y-99649000D01*
X163680000Y-100444999D01*
X163680001Y-100445000D01*
X163747825Y-100445000D01*
X163790000Y-100440465D01*
X163790000Y-100389000D01*
X163808907Y-100330809D01*
X163858407Y-100294845D01*
X163889000Y-100290000D01*
X164971000Y-100290000D01*
X165029191Y-100308907D01*
X165065155Y-100358407D01*
X165070000Y-100389000D01*
X165070000Y-100539999D01*
X165070001Y-100540000D01*
X165221000Y-100540000D01*
X165279191Y-100558907D01*
X165315155Y-100608407D01*
X165320000Y-100639000D01*
X165320000Y-101744999D01*
X165320001Y-101745000D01*
X165792824Y-101745000D01*
X165852370Y-101738598D01*
X165852381Y-101738596D01*
X165987087Y-101688354D01*
X166046491Y-101643884D01*
X166104406Y-101624147D01*
X166162861Y-101642221D01*
X166165151Y-101643884D01*
X166237912Y-101698354D01*
X166372618Y-101748596D01*
X166372629Y-101748598D01*
X166432176Y-101755000D01*
X166499999Y-101755000D01*
X166500000Y-101754999D01*
X166500000Y-101110001D01*
X167000000Y-101110001D01*
X167000000Y-101754999D01*
X167000001Y-101755000D01*
X167067824Y-101755000D01*
X167127370Y-101748598D01*
X167127381Y-101748596D01*
X167262088Y-101698353D01*
X167262090Y-101698352D01*
X167377184Y-101612192D01*
X167377192Y-101612184D01*
X167463352Y-101497090D01*
X167463353Y-101497088D01*
X167513596Y-101362381D01*
X167513598Y-101362370D01*
X167520000Y-101302824D01*
X167520000Y-101110001D01*
X167519999Y-101110000D01*
X167000001Y-101110000D01*
X167000000Y-101110001D01*
X166500000Y-101110001D01*
X166500000Y-101052175D01*
X168110000Y-101052175D01*
X168110000Y-101099999D01*
X168110001Y-101100000D01*
X168859999Y-101100000D01*
X168860000Y-101099999D01*
X168860000Y-100600001D01*
X168859999Y-100600000D01*
X168562176Y-100600000D01*
X168502629Y-100606401D01*
X168502618Y-100606403D01*
X168367911Y-100656646D01*
X168367909Y-100656647D01*
X168252815Y-100742807D01*
X168252807Y-100742815D01*
X168166647Y-100857909D01*
X168166646Y-100857911D01*
X168116403Y-100992618D01*
X168116401Y-100992629D01*
X168110000Y-101052175D01*
X166500000Y-101052175D01*
X166500000Y-100959000D01*
X166518907Y-100900809D01*
X166568407Y-100864845D01*
X166599000Y-100860000D01*
X166749999Y-100860000D01*
X166750000Y-100859999D01*
X166750000Y-100709000D01*
X166768907Y-100650809D01*
X166818407Y-100614845D01*
X166849000Y-100610000D01*
X167519999Y-100610000D01*
X167520000Y-100609999D01*
X167520000Y-100417175D01*
X167513598Y-100357629D01*
X167513596Y-100357618D01*
X167463353Y-100222911D01*
X167463352Y-100222908D01*
X167450489Y-100205726D01*
X167430751Y-100147812D01*
X167448824Y-100089356D01*
X167480239Y-100060660D01*
X167515212Y-100040470D01*
X168206186Y-99349496D01*
X168260703Y-99321719D01*
X168276190Y-99320500D01*
X169188810Y-99320500D01*
X169247001Y-99339407D01*
X169258814Y-99349496D01*
X169805504Y-99896186D01*
X169833281Y-99950703D01*
X169834500Y-99966190D01*
X169834500Y-100189746D01*
X169834501Y-100189758D01*
X169846132Y-100248227D01*
X169846134Y-100248233D01*
X169890445Y-100314548D01*
X169890448Y-100314552D01*
X169956769Y-100358867D01*
X170001231Y-100367711D01*
X170015241Y-100370498D01*
X170015246Y-100370498D01*
X170015252Y-100370500D01*
X170015253Y-100370500D01*
X170624747Y-100370500D01*
X170624748Y-100370500D01*
X170683231Y-100358867D01*
X170694997Y-100351004D01*
X170753885Y-100334395D01*
X170805002Y-100351004D01*
X170816769Y-100358867D01*
X170861231Y-100367711D01*
X170875241Y-100370498D01*
X170875246Y-100370498D01*
X170875252Y-100370500D01*
X170875253Y-100370500D01*
X171484747Y-100370500D01*
X171484748Y-100370500D01*
X171543231Y-100358867D01*
X171609552Y-100314552D01*
X171609587Y-100314498D01*
X171609667Y-100314435D01*
X171616446Y-100307657D01*
X171617248Y-100308459D01*
X171657637Y-100276619D01*
X171691903Y-100270500D01*
X171901392Y-100270500D01*
X171959583Y-100289407D01*
X171983707Y-100314498D01*
X171987719Y-100320503D01*
X172000448Y-100339552D01*
X172066769Y-100383867D01*
X172111231Y-100392711D01*
X172125241Y-100395498D01*
X172125246Y-100395498D01*
X172125252Y-100395500D01*
X172125253Y-100395500D01*
X172674747Y-100395500D01*
X172674748Y-100395500D01*
X172733231Y-100383867D01*
X172764997Y-100362640D01*
X172823885Y-100346031D01*
X172875002Y-100362640D01*
X172906769Y-100383867D01*
X172951231Y-100392711D01*
X172965241Y-100395498D01*
X172965246Y-100395498D01*
X172965252Y-100395500D01*
X172965253Y-100395500D01*
X173060781Y-100395500D01*
X173062712Y-100396127D01*
X173064669Y-100395576D01*
X173091638Y-100405525D01*
X173118972Y-100414407D01*
X173120166Y-100416050D01*
X173122072Y-100416754D01*
X173138034Y-100440643D01*
X173154936Y-100463907D01*
X173154936Y-100465939D01*
X173156064Y-100467628D01*
X173154936Y-100496338D01*
X173154936Y-100525093D01*
X173153741Y-100526736D01*
X173153662Y-100528766D01*
X173135871Y-100551332D01*
X173118972Y-100574593D01*
X173115802Y-100576801D01*
X173102646Y-100585593D01*
X173099319Y-100587816D01*
X173044318Y-100604500D01*
X171158856Y-100604500D01*
X171154165Y-100605756D01*
X171136658Y-100610447D01*
X171136658Y-100610448D01*
X171103185Y-100619417D01*
X171069711Y-100628386D01*
X170989785Y-100674532D01*
X170793813Y-100870504D01*
X170739297Y-100898281D01*
X170723810Y-100899500D01*
X170390252Y-100899500D01*
X170390251Y-100899500D01*
X170390241Y-100899501D01*
X170331772Y-100911132D01*
X170331766Y-100911134D01*
X170299320Y-100932815D01*
X170250149Y-100949328D01*
X170247234Y-100949500D01*
X170113856Y-100949500D01*
X170076194Y-100959591D01*
X170066131Y-100960185D01*
X170045799Y-100954880D01*
X170024819Y-100953780D01*
X170016850Y-100947326D01*
X170006928Y-100944738D01*
X169993599Y-100928497D01*
X169977270Y-100915274D01*
X169968578Y-100898011D01*
X169968111Y-100897442D01*
X169968087Y-100897035D01*
X169967542Y-100895953D01*
X169953353Y-100857911D01*
X169953352Y-100857909D01*
X169867192Y-100742815D01*
X169867184Y-100742807D01*
X169752090Y-100656647D01*
X169752088Y-100656646D01*
X169617381Y-100606403D01*
X169617370Y-100606401D01*
X169557824Y-100600000D01*
X169260001Y-100600000D01*
X169260000Y-100600001D01*
X169260000Y-101201000D01*
X169241093Y-101259191D01*
X169191593Y-101295155D01*
X169161000Y-101300000D01*
X169060001Y-101300000D01*
X169060000Y-101300001D01*
X169060000Y-101401000D01*
X169041093Y-101459191D01*
X168991593Y-101495155D01*
X168961000Y-101500000D01*
X168388105Y-101500000D01*
X168338607Y-101486738D01*
X168333186Y-101483608D01*
X168296910Y-101473888D01*
X168205892Y-101449500D01*
X168074108Y-101449500D01*
X167999272Y-101469552D01*
X167946809Y-101483609D01*
X167832690Y-101549496D01*
X167739496Y-101642690D01*
X167673609Y-101756809D01*
X167654619Y-101827684D01*
X167639500Y-101884108D01*
X167639500Y-102015892D01*
X167663106Y-102103992D01*
X167673609Y-102143190D01*
X167702053Y-102192455D01*
X167714775Y-102252303D01*
X167689889Y-102308199D01*
X167665821Y-102327689D01*
X167662690Y-102329496D01*
X167569496Y-102422690D01*
X167503609Y-102536809D01*
X167503608Y-102536814D01*
X167469500Y-102664108D01*
X167469500Y-102795892D01*
X167494343Y-102888608D01*
X167503609Y-102923190D01*
X167569496Y-103037309D01*
X167569498Y-103037311D01*
X167569500Y-103037314D01*
X167662686Y-103130500D01*
X167662688Y-103130501D01*
X167662690Y-103130503D01*
X167776810Y-103196390D01*
X167776808Y-103196390D01*
X167776812Y-103196391D01*
X167776814Y-103196392D01*
X167904108Y-103230500D01*
X167904110Y-103230500D01*
X168035890Y-103230500D01*
X168035892Y-103230500D01*
X168163186Y-103196392D01*
X168163188Y-103196390D01*
X168163190Y-103196390D01*
X168277309Y-103130503D01*
X168277309Y-103130502D01*
X168277314Y-103130500D01*
X168370500Y-103037314D01*
X168382728Y-103016133D01*
X168428196Y-102975193D01*
X168489046Y-102968797D01*
X168523466Y-102983319D01*
X168531769Y-102988867D01*
X168568353Y-102996144D01*
X168590241Y-103000498D01*
X168590246Y-103000498D01*
X168590252Y-103000500D01*
X168590253Y-103000500D01*
X169529747Y-103000500D01*
X169529748Y-103000500D01*
X169588231Y-102988867D01*
X169588232Y-102988865D01*
X169589846Y-102988545D01*
X169589907Y-102988502D01*
X169590067Y-102988502D01*
X169597793Y-102986965D01*
X169598099Y-102988502D01*
X169616804Y-102988502D01*
X169643611Y-102986392D01*
X169647054Y-102988502D01*
X169651093Y-102988502D01*
X169672855Y-103004313D01*
X169695780Y-103018362D01*
X169697324Y-103022091D01*
X169700593Y-103024466D01*
X169708904Y-103050047D01*
X169719195Y-103074890D01*
X169719500Y-103082657D01*
X169719500Y-103211732D01*
X169707369Y-103251723D01*
X169709866Y-103252757D01*
X169706132Y-103261772D01*
X169694501Y-103320241D01*
X169694500Y-103320253D01*
X169694500Y-103959746D01*
X169694501Y-103959758D01*
X169706132Y-104018227D01*
X169706134Y-104018233D01*
X169725850Y-104047739D01*
X169750448Y-104084552D01*
X169816769Y-104128867D01*
X169861231Y-104137711D01*
X169875241Y-104140498D01*
X169875246Y-104140498D01*
X169875252Y-104140500D01*
X169875253Y-104140500D01*
X170010957Y-104140500D01*
X170069148Y-104159407D01*
X170090210Y-104180171D01*
X170177807Y-104297184D01*
X170177815Y-104297192D01*
X170292909Y-104383352D01*
X170292911Y-104383353D01*
X170427618Y-104433596D01*
X170427629Y-104433598D01*
X170487176Y-104440000D01*
X170534999Y-104440000D01*
X170535000Y-104439999D01*
X170535000Y-103815001D01*
X170885000Y-103815001D01*
X170885000Y-104439999D01*
X170885001Y-104440000D01*
X170932824Y-104440000D01*
X170992370Y-104433598D01*
X170992381Y-104433596D01*
X171127088Y-104383353D01*
X171127090Y-104383352D01*
X171242184Y-104297192D01*
X171242189Y-104297187D01*
X171281510Y-104244663D01*
X171281511Y-104244661D01*
X171328352Y-104182090D01*
X171328353Y-104182088D01*
X171378596Y-104047381D01*
X171378598Y-104047370D01*
X171385000Y-103987824D01*
X171385000Y-103822175D01*
X171715000Y-103822175D01*
X171715000Y-103994999D01*
X171715001Y-103995000D01*
X172214999Y-103995000D01*
X172215000Y-103994999D01*
X172215000Y-103370001D01*
X172214999Y-103370000D01*
X172167176Y-103370000D01*
X172107629Y-103376401D01*
X172107618Y-103376403D01*
X171972911Y-103426646D01*
X171972909Y-103426647D01*
X171857815Y-103512807D01*
X171857807Y-103512815D01*
X171771647Y-103627909D01*
X171771646Y-103627911D01*
X171721403Y-103762618D01*
X171721401Y-103762629D01*
X171715000Y-103822175D01*
X171385000Y-103822175D01*
X171385000Y-103815001D01*
X171384999Y-103815000D01*
X170885001Y-103815000D01*
X170885000Y-103815001D01*
X170535000Y-103815001D01*
X170535000Y-102840001D01*
X170885000Y-102840001D01*
X170885000Y-103464999D01*
X170885001Y-103465000D01*
X171384999Y-103465000D01*
X171385000Y-103464999D01*
X171385000Y-103292175D01*
X171378598Y-103232629D01*
X171378596Y-103232618D01*
X171328353Y-103097911D01*
X171328352Y-103097909D01*
X171242192Y-102982815D01*
X171242184Y-102982807D01*
X171127090Y-102896647D01*
X171127088Y-102896646D01*
X170992381Y-102846403D01*
X170992370Y-102846401D01*
X170932824Y-102840000D01*
X170885001Y-102840000D01*
X170885000Y-102840001D01*
X170535000Y-102840001D01*
X170534999Y-102840000D01*
X170509500Y-102840000D01*
X170451309Y-102821093D01*
X170415345Y-102771593D01*
X170410500Y-102741000D01*
X170410500Y-102449500D01*
X170429407Y-102391309D01*
X170478907Y-102355345D01*
X170509500Y-102350500D01*
X171329747Y-102350500D01*
X171329748Y-102350500D01*
X171388231Y-102338867D01*
X171389584Y-102337962D01*
X171392181Y-102337230D01*
X171397242Y-102335134D01*
X171397489Y-102335732D01*
X171448471Y-102321353D01*
X171505875Y-102342529D01*
X171514591Y-102350273D01*
X172536004Y-103371686D01*
X172563781Y-103426203D01*
X172565000Y-103441690D01*
X172565000Y-104969999D01*
X172565001Y-104970000D01*
X172612824Y-104970000D01*
X172672370Y-104963598D01*
X172672381Y-104963596D01*
X172807088Y-104913353D01*
X172807090Y-104913352D01*
X172922184Y-104827192D01*
X172922192Y-104827184D01*
X173009790Y-104710171D01*
X173059799Y-104674918D01*
X173089043Y-104670500D01*
X173224747Y-104670500D01*
X173224748Y-104670500D01*
X173283231Y-104658867D01*
X173349552Y-104614552D01*
X173393867Y-104548231D01*
X173405500Y-104489748D01*
X173405500Y-103850252D01*
X173400241Y-103823813D01*
X173407432Y-103763054D01*
X173448965Y-103718123D01*
X173497339Y-103705500D01*
X174488359Y-103705500D01*
X174546550Y-103724407D01*
X174582514Y-103773907D01*
X174586140Y-103819987D01*
X174574500Y-103893477D01*
X174574500Y-104506520D01*
X174574501Y-104506523D01*
X174589352Y-104600299D01*
X174589354Y-104600304D01*
X174646950Y-104713342D01*
X174736658Y-104803050D01*
X174849696Y-104860646D01*
X174943481Y-104875500D01*
X175406518Y-104875499D01*
X175406520Y-104875499D01*
X175406521Y-104875498D01*
X175453411Y-104868072D01*
X175500299Y-104860647D01*
X175500299Y-104860646D01*
X175500304Y-104860646D01*
X175613342Y-104803050D01*
X175703050Y-104713342D01*
X175760646Y-104600304D01*
X175775500Y-104506519D01*
X175775499Y-103893482D01*
X175775499Y-103893479D01*
X175775499Y-103891069D01*
X175794406Y-103832878D01*
X175843906Y-103796914D01*
X175905092Y-103796914D01*
X175906234Y-103797293D01*
X175915511Y-103800432D01*
X175951814Y-103821392D01*
X176074901Y-103854372D01*
X176077910Y-103855391D01*
X176100007Y-103871859D01*
X176123111Y-103886863D01*
X176202628Y-103985674D01*
X176224380Y-104042860D01*
X176224500Y-104047739D01*
X176224500Y-104506520D01*
X176224501Y-104506523D01*
X176239352Y-104600299D01*
X176239354Y-104600304D01*
X176296950Y-104713342D01*
X176386658Y-104803050D01*
X176499696Y-104860646D01*
X176593481Y-104875500D01*
X177056518Y-104875499D01*
X177056520Y-104875499D01*
X177056521Y-104875498D01*
X177103411Y-104868072D01*
X177150299Y-104860647D01*
X177150299Y-104860646D01*
X177150304Y-104860646D01*
X177263342Y-104803050D01*
X177353050Y-104713342D01*
X177410646Y-104600304D01*
X177425500Y-104506519D01*
X177425499Y-103893482D01*
X177419484Y-103855500D01*
X177410647Y-103799700D01*
X177410646Y-103799698D01*
X177410646Y-103799696D01*
X177353050Y-103686658D01*
X177263342Y-103596950D01*
X177150304Y-103539354D01*
X177150305Y-103539354D01*
X177056522Y-103524500D01*
X177056519Y-103524500D01*
X176778707Y-103524500D01*
X176766066Y-103520392D01*
X176752792Y-103521048D01*
X176737684Y-103511171D01*
X176720516Y-103505593D01*
X176701580Y-103487567D01*
X176667373Y-103445060D01*
X176645620Y-103387872D01*
X176645500Y-103382993D01*
X176645500Y-103289109D01*
X176638175Y-103261772D01*
X176611392Y-103161814D01*
X176611390Y-103161811D01*
X176611390Y-103161809D01*
X176545503Y-103047690D01*
X176545501Y-103047688D01*
X176545500Y-103047686D01*
X176452314Y-102954500D01*
X176452311Y-102954498D01*
X176452309Y-102954496D01*
X176338189Y-102888609D01*
X176338191Y-102888609D01*
X176288799Y-102875375D01*
X176210892Y-102854500D01*
X176079108Y-102854500D01*
X176001200Y-102875375D01*
X175951809Y-102888609D01*
X175837690Y-102954496D01*
X175837689Y-102954497D01*
X175837686Y-102954499D01*
X175837686Y-102954500D01*
X175816680Y-102975505D01*
X175762166Y-103003281D01*
X175746679Y-103004500D01*
X173201190Y-103004500D01*
X173142999Y-102985593D01*
X173131186Y-102975504D01*
X172483371Y-102327689D01*
X171825212Y-101669530D01*
X171745288Y-101623386D01*
X171656144Y-101599500D01*
X171656142Y-101599500D01*
X171609500Y-101599500D01*
X171594588Y-101594655D01*
X171578907Y-101594655D01*
X171566221Y-101585438D01*
X171551309Y-101580593D01*
X171542092Y-101567907D01*
X171529407Y-101558691D01*
X171524561Y-101543778D01*
X171515345Y-101531093D01*
X171510500Y-101500500D01*
X171510500Y-101404500D01*
X171529407Y-101346309D01*
X171578907Y-101310345D01*
X171609500Y-101305500D01*
X172920446Y-101305500D01*
X172978637Y-101324407D01*
X173014601Y-101373907D01*
X173017543Y-101385185D01*
X173021132Y-101403227D01*
X173021135Y-101403235D01*
X173028996Y-101415000D01*
X173045604Y-101473888D01*
X173028996Y-101525000D01*
X173021135Y-101536764D01*
X173021132Y-101536772D01*
X173009501Y-101595241D01*
X173009500Y-101595253D01*
X173009500Y-102204746D01*
X173009501Y-102204758D01*
X173021132Y-102263227D01*
X173021134Y-102263233D01*
X173065413Y-102329500D01*
X173065448Y-102329552D01*
X173131769Y-102373867D01*
X173176231Y-102382711D01*
X173190241Y-102385498D01*
X173190246Y-102385498D01*
X173190252Y-102385500D01*
X173190253Y-102385500D01*
X173769747Y-102385500D01*
X173769748Y-102385500D01*
X173828231Y-102373867D01*
X173894552Y-102329552D01*
X173938867Y-102263231D01*
X173950500Y-102204748D01*
X173950500Y-101595252D01*
X173938867Y-101536769D01*
X173931004Y-101525002D01*
X173914395Y-101466115D01*
X173921417Y-101433190D01*
X173925260Y-101423594D01*
X173938867Y-101403231D01*
X173944244Y-101376198D01*
X173947652Y-101367690D01*
X173961664Y-101350887D01*
X173972354Y-101331801D01*
X173980848Y-101327885D01*
X173986840Y-101320701D01*
X174008051Y-101315344D01*
X174027919Y-101306186D01*
X174039554Y-101305500D01*
X174475501Y-101305500D01*
X174533692Y-101324407D01*
X174569656Y-101373907D01*
X174574501Y-101404500D01*
X174574501Y-101606523D01*
X174589352Y-101700299D01*
X174589354Y-101700304D01*
X174646950Y-101813342D01*
X174736658Y-101903050D01*
X174849696Y-101960646D01*
X174943481Y-101975500D01*
X175406518Y-101975499D01*
X175406520Y-101975499D01*
X175406521Y-101975498D01*
X175453411Y-101968072D01*
X175500299Y-101960647D01*
X175500299Y-101960646D01*
X175500304Y-101960646D01*
X175613342Y-101903050D01*
X175703050Y-101813342D01*
X175760646Y-101700304D01*
X175775500Y-101606519D01*
X175775499Y-100993482D01*
X175768189Y-100947326D01*
X175760647Y-100899700D01*
X175760646Y-100899698D01*
X175760646Y-100899696D01*
X175703050Y-100786658D01*
X175613342Y-100696950D01*
X175500304Y-100639354D01*
X175500305Y-100639354D01*
X175406522Y-100624500D01*
X175406519Y-100624500D01*
X175308820Y-100624500D01*
X175283198Y-100621127D01*
X175266329Y-100616607D01*
X175221144Y-100604500D01*
X175221143Y-100604500D01*
X174731174Y-100604500D01*
X174672983Y-100585593D01*
X174637019Y-100536093D01*
X174637019Y-100474907D01*
X174672983Y-100425407D01*
X174705548Y-100409874D01*
X174793186Y-100386392D01*
X174793188Y-100386390D01*
X174793190Y-100386390D01*
X174907309Y-100320503D01*
X174907309Y-100320502D01*
X174907314Y-100320500D01*
X174928319Y-100299494D01*
X174982834Y-100271719D01*
X174998321Y-100270500D01*
X175376142Y-100270500D01*
X175376144Y-100270500D01*
X175461965Y-100247504D01*
X175523064Y-100250706D01*
X175539560Y-100258871D01*
X175580881Y-100284358D01*
X175747306Y-100339506D01*
X175850013Y-100349999D01*
X175950000Y-100349999D01*
X175950000Y-99550001D01*
X176450000Y-99550001D01*
X176450000Y-100349998D01*
X176450001Y-100349999D01*
X176549986Y-100349999D01*
X176652687Y-100339507D01*
X176652699Y-100339504D01*
X176819124Y-100284356D01*
X176968340Y-100192319D01*
X177092319Y-100068340D01*
X177184356Y-99919124D01*
X177239506Y-99752693D01*
X177250000Y-99649987D01*
X177250000Y-99550001D01*
X177249999Y-99550000D01*
X176450001Y-99550000D01*
X176450000Y-99550001D01*
X175950000Y-99550001D01*
X175949999Y-99550000D01*
X175148116Y-99550000D01*
X175147685Y-99550593D01*
X175125636Y-99557756D01*
X175104981Y-99568281D01*
X175089494Y-99569500D01*
X174998321Y-99569500D01*
X174940130Y-99550593D01*
X174928323Y-99540509D01*
X174907314Y-99519500D01*
X174907311Y-99519498D01*
X174907309Y-99519496D01*
X174793189Y-99453609D01*
X174793191Y-99453609D01*
X174720410Y-99434108D01*
X174665892Y-99419500D01*
X174534108Y-99419500D01*
X174479590Y-99434108D01*
X174406809Y-99453609D01*
X174292690Y-99519496D01*
X174292689Y-99519497D01*
X174292686Y-99519499D01*
X174292686Y-99519500D01*
X174271680Y-99540505D01*
X174217166Y-99568281D01*
X174201679Y-99569500D01*
X173738608Y-99569500D01*
X173680417Y-99550593D01*
X173656293Y-99525502D01*
X173639554Y-99500451D01*
X173639552Y-99500448D01*
X173639548Y-99500445D01*
X173573233Y-99456134D01*
X173573231Y-99456133D01*
X173573228Y-99456132D01*
X173573227Y-99456132D01*
X173514758Y-99444501D01*
X173514748Y-99444500D01*
X172965252Y-99444500D01*
X172965251Y-99444500D01*
X172965241Y-99444501D01*
X172906772Y-99456132D01*
X172906766Y-99456134D01*
X172875002Y-99477359D01*
X172816113Y-99493968D01*
X172764998Y-99477359D01*
X172733233Y-99456134D01*
X172733231Y-99456133D01*
X172733228Y-99456132D01*
X172733227Y-99456132D01*
X172674758Y-99444501D01*
X172674748Y-99444500D01*
X172125252Y-99444500D01*
X172125251Y-99444500D01*
X172125241Y-99444501D01*
X172066772Y-99456132D01*
X172066766Y-99456134D01*
X172000451Y-99500445D01*
X172000445Y-99500451D01*
X171983707Y-99525502D01*
X171969911Y-99536377D01*
X171959583Y-99550593D01*
X171946477Y-99554851D01*
X171935657Y-99563381D01*
X171901392Y-99569500D01*
X171718631Y-99569500D01*
X171660440Y-99550593D01*
X171636316Y-99525502D01*
X171609554Y-99485451D01*
X171609552Y-99485448D01*
X171609548Y-99485445D01*
X171543233Y-99441134D01*
X171543231Y-99441133D01*
X171543228Y-99441132D01*
X171543227Y-99441132D01*
X171484758Y-99429501D01*
X171484748Y-99429500D01*
X170875252Y-99429500D01*
X170875251Y-99429500D01*
X170875241Y-99429501D01*
X170816772Y-99441132D01*
X170816770Y-99441132D01*
X170816769Y-99441133D01*
X170816768Y-99441133D01*
X170807758Y-99444866D01*
X170806215Y-99441142D01*
X170765449Y-99452567D01*
X170708080Y-99431294D01*
X170674172Y-99380364D01*
X170670500Y-99353650D01*
X170670500Y-98803857D01*
X170670500Y-98803856D01*
X170646614Y-98714712D01*
X170636165Y-98696614D01*
X170609494Y-98650419D01*
X170596774Y-98590572D01*
X170621661Y-98534676D01*
X170674650Y-98504084D01*
X170735500Y-98510480D01*
X170735506Y-98510485D01*
X170765236Y-98530917D01*
X170879531Y-98645212D01*
X170879530Y-98645212D01*
X170944787Y-98710468D01*
X170944789Y-98710470D01*
X170992138Y-98737807D01*
X171024712Y-98756614D01*
X171113856Y-98780500D01*
X171514733Y-98780500D01*
X171572924Y-98799407D01*
X171597048Y-98824498D01*
X171610448Y-98844552D01*
X171676769Y-98888867D01*
X171721231Y-98897711D01*
X171735241Y-98900498D01*
X171735246Y-98900498D01*
X171735252Y-98900500D01*
X171735253Y-98900500D01*
X172090957Y-98900500D01*
X172149148Y-98919407D01*
X172170210Y-98940171D01*
X172257807Y-99057184D01*
X172257815Y-99057192D01*
X172372909Y-99143352D01*
X172372911Y-99143353D01*
X172507618Y-99193596D01*
X172507629Y-99193598D01*
X172567176Y-99200000D01*
X172649999Y-99200000D01*
X172650000Y-99199999D01*
X172650000Y-98680001D01*
X173150000Y-98680001D01*
X173150000Y-99199999D01*
X173150001Y-99200000D01*
X173232824Y-99200000D01*
X173292370Y-99193598D01*
X173292381Y-99193596D01*
X173427088Y-99143353D01*
X173427090Y-99143352D01*
X173542184Y-99057192D01*
X173542192Y-99057184D01*
X173622422Y-98950012D01*
X175150000Y-98950012D01*
X175150000Y-99049999D01*
X175150001Y-99050000D01*
X175949999Y-99050000D01*
X175950000Y-99049999D01*
X175950000Y-98250001D01*
X176450000Y-98250001D01*
X176450000Y-99049999D01*
X176450001Y-99050000D01*
X177249998Y-99050000D01*
X177249999Y-99049999D01*
X177249999Y-98950013D01*
X177239507Y-98847312D01*
X177239504Y-98847300D01*
X177184356Y-98680875D01*
X177092319Y-98531659D01*
X176968340Y-98407680D01*
X176819124Y-98315643D01*
X176652693Y-98260493D01*
X176549987Y-98250000D01*
X176450001Y-98250000D01*
X176450000Y-98250001D01*
X175950000Y-98250001D01*
X175950000Y-98250000D01*
X175850013Y-98250000D01*
X175850013Y-98250001D01*
X175747312Y-98260492D01*
X175747300Y-98260495D01*
X175580875Y-98315643D01*
X175431659Y-98407680D01*
X175307680Y-98531659D01*
X175215643Y-98680875D01*
X175160493Y-98847306D01*
X175150000Y-98950012D01*
X173622422Y-98950012D01*
X173628352Y-98942090D01*
X173639239Y-98912904D01*
X173639239Y-98912903D01*
X173678596Y-98807381D01*
X173678598Y-98807370D01*
X173685000Y-98747824D01*
X173685000Y-98680001D01*
X173684999Y-98680000D01*
X173150001Y-98680000D01*
X173150000Y-98680001D01*
X172650000Y-98680001D01*
X172650000Y-97660001D01*
X173150000Y-97660001D01*
X173150000Y-98179999D01*
X173150001Y-98180000D01*
X173684999Y-98180000D01*
X173685000Y-98179999D01*
X173685000Y-98112175D01*
X173678598Y-98052629D01*
X173678596Y-98052618D01*
X173628353Y-97917911D01*
X173628352Y-97917909D01*
X173542192Y-97802815D01*
X173542184Y-97802807D01*
X173427090Y-97716647D01*
X173427088Y-97716646D01*
X173292381Y-97666403D01*
X173292370Y-97666401D01*
X173232824Y-97660000D01*
X173150001Y-97660000D01*
X173150000Y-97660001D01*
X172650000Y-97660001D01*
X172649999Y-97660000D01*
X172567176Y-97660000D01*
X172507629Y-97666401D01*
X172507618Y-97666403D01*
X172372911Y-97716646D01*
X172372909Y-97716647D01*
X172257815Y-97802807D01*
X172257807Y-97802815D01*
X172170210Y-97919829D01*
X172120201Y-97955082D01*
X172090957Y-97959500D01*
X171735252Y-97959500D01*
X171735251Y-97959500D01*
X171735241Y-97959501D01*
X171676772Y-97971132D01*
X171676766Y-97971134D01*
X171610451Y-98015445D01*
X171610445Y-98015451D01*
X171597048Y-98035502D01*
X171583252Y-98046377D01*
X171572924Y-98060593D01*
X171559818Y-98064851D01*
X171548998Y-98073381D01*
X171514733Y-98079500D01*
X171346189Y-98079500D01*
X171287998Y-98060593D01*
X171276185Y-98050503D01*
X170937692Y-97712009D01*
X170909915Y-97657493D01*
X170919486Y-97597061D01*
X170962751Y-97553796D01*
X171023183Y-97544225D01*
X171026959Y-97544899D01*
X171071685Y-97553796D01*
X171080246Y-97555499D01*
X171080249Y-97555499D01*
X171080252Y-97555500D01*
X171080253Y-97555500D01*
X171979747Y-97555500D01*
X171979748Y-97555500D01*
X172038231Y-97543867D01*
X172104552Y-97499552D01*
X172148867Y-97433231D01*
X172160500Y-97374748D01*
X172160500Y-96525252D01*
X172148867Y-96466769D01*
X172104552Y-96400448D01*
X172043131Y-96359407D01*
X172038233Y-96356134D01*
X172038231Y-96356133D01*
X172038228Y-96356132D01*
X172038227Y-96356132D01*
X171979758Y-96344501D01*
X171979748Y-96344500D01*
X171979747Y-96344500D01*
X171282801Y-96344500D01*
X171275203Y-96342031D01*
X171267314Y-96343281D01*
X171246658Y-96332756D01*
X171224610Y-96325593D01*
X171212797Y-96315504D01*
X171121797Y-96224504D01*
X171094020Y-96169987D01*
X171103591Y-96109555D01*
X171146856Y-96066290D01*
X171191801Y-96055500D01*
X171979747Y-96055500D01*
X171979748Y-96055500D01*
X172038231Y-96043867D01*
X172104552Y-95999552D01*
X172148867Y-95933231D01*
X172160500Y-95874748D01*
X172160500Y-95497609D01*
X172179407Y-95439418D01*
X172189490Y-95427611D01*
X172336404Y-95280697D01*
X172390919Y-95252921D01*
X172425720Y-95253603D01*
X172435252Y-95255500D01*
X172435253Y-95255500D01*
X173824747Y-95255500D01*
X173824748Y-95255500D01*
X173883231Y-95243867D01*
X173949552Y-95199552D01*
X173993867Y-95133231D01*
X174005500Y-95074748D01*
X174005500Y-94899500D01*
X174024407Y-94841309D01*
X174073907Y-94805345D01*
X174104500Y-94800500D01*
X175036395Y-94800500D01*
X175094586Y-94819407D01*
X175129839Y-94866802D01*
X175172207Y-94987883D01*
X175252845Y-95097144D01*
X175252847Y-95097146D01*
X175252850Y-95097150D01*
X175252853Y-95097152D01*
X175252855Y-95097154D01*
X175362116Y-95177792D01*
X175362117Y-95177792D01*
X175362118Y-95177793D01*
X175490301Y-95222646D01*
X175520725Y-95225499D01*
X175520727Y-95225500D01*
X175520734Y-95225500D01*
X175750500Y-95225500D01*
X175808691Y-95244407D01*
X175844655Y-95293907D01*
X175849500Y-95324500D01*
X175849500Y-95670142D01*
X175830593Y-95728333D01*
X175783198Y-95763586D01*
X175687117Y-95797207D01*
X175687116Y-95797207D01*
X175577855Y-95877845D01*
X175577845Y-95877855D01*
X175497207Y-95987116D01*
X175452355Y-96115296D01*
X175452353Y-96115305D01*
X175449500Y-96145725D01*
X175449500Y-96854274D01*
X175452353Y-96884692D01*
X175452354Y-96884700D01*
X175497207Y-97012883D01*
X175577845Y-97122144D01*
X175577847Y-97122146D01*
X175577850Y-97122150D01*
X175577853Y-97122152D01*
X175577855Y-97122154D01*
X175687116Y-97202792D01*
X175687117Y-97202792D01*
X175687118Y-97202793D01*
X175815301Y-97247646D01*
X175845725Y-97250499D01*
X175845727Y-97250500D01*
X175845734Y-97250500D01*
X176554273Y-97250500D01*
X176554273Y-97250499D01*
X176584699Y-97247646D01*
X176712882Y-97202793D01*
X176822150Y-97122150D01*
X176902793Y-97012882D01*
X176931950Y-96929553D01*
X176947646Y-96884700D01*
X176947647Y-96884692D01*
X176950499Y-96854274D01*
X176950500Y-96854273D01*
X176950500Y-96145727D01*
X176950499Y-96145725D01*
X176947646Y-96115305D01*
X176947646Y-96115301D01*
X176902793Y-95987118D01*
X176882933Y-95960209D01*
X176822154Y-95877855D01*
X176822152Y-95877853D01*
X176822150Y-95877850D01*
X176822146Y-95877847D01*
X176822144Y-95877845D01*
X176712883Y-95797207D01*
X176616802Y-95763586D01*
X176568121Y-95726520D01*
X176550500Y-95670142D01*
X176550500Y-95324500D01*
X176569407Y-95266309D01*
X176618907Y-95230345D01*
X176649500Y-95225500D01*
X176879273Y-95225500D01*
X176879273Y-95225499D01*
X176909699Y-95222646D01*
X177037882Y-95177793D01*
X177147150Y-95097150D01*
X177227793Y-94987882D01*
X177257056Y-94904252D01*
X177294121Y-94855573D01*
X177352721Y-94837976D01*
X177410473Y-94858184D01*
X177445317Y-94908479D01*
X177449500Y-94936951D01*
X177449500Y-100644101D01*
X177430593Y-100702292D01*
X177381093Y-100738256D01*
X177319907Y-100738256D01*
X177280498Y-100714106D01*
X177263342Y-100696950D01*
X177150304Y-100639354D01*
X177150305Y-100639354D01*
X177056522Y-100624500D01*
X176593479Y-100624500D01*
X176593476Y-100624501D01*
X176499700Y-100639352D01*
X176499695Y-100639354D01*
X176386659Y-100696949D01*
X176296949Y-100786659D01*
X176239354Y-100899695D01*
X176224500Y-100993477D01*
X176224500Y-101606520D01*
X176224501Y-101606523D01*
X176239352Y-101700299D01*
X176239354Y-101700304D01*
X176296950Y-101813342D01*
X176386658Y-101903050D01*
X176466336Y-101943648D01*
X176509599Y-101986911D01*
X176519170Y-102047343D01*
X176502233Y-102086772D01*
X176502744Y-102087067D01*
X176500253Y-102091379D01*
X176499939Y-102092113D01*
X176499501Y-102092683D01*
X176433609Y-102206809D01*
X176421419Y-102252303D01*
X176399500Y-102334108D01*
X176399500Y-102465892D01*
X176429579Y-102578151D01*
X176433609Y-102593190D01*
X176499496Y-102707309D01*
X176499498Y-102707311D01*
X176499500Y-102707314D01*
X176592686Y-102800500D01*
X176592688Y-102800501D01*
X176592690Y-102800503D01*
X176706810Y-102866390D01*
X176706808Y-102866390D01*
X176706812Y-102866391D01*
X176706814Y-102866392D01*
X176834108Y-102900500D01*
X176834110Y-102900500D01*
X176965890Y-102900500D01*
X176965892Y-102900500D01*
X177093186Y-102866392D01*
X177093188Y-102866390D01*
X177093190Y-102866390D01*
X177207309Y-102800503D01*
X177207309Y-102800502D01*
X177207314Y-102800500D01*
X177280498Y-102727315D01*
X177335013Y-102699540D01*
X177395445Y-102709111D01*
X177438710Y-102752376D01*
X177449500Y-102797321D01*
X177449500Y-102953856D01*
X177449500Y-103046144D01*
X177472104Y-103130503D01*
X177473387Y-103135290D01*
X177508851Y-103196715D01*
X177519531Y-103215212D01*
X177584788Y-103280469D01*
X177664712Y-103326614D01*
X177753856Y-103350500D01*
X179376305Y-103350500D01*
X179434496Y-103369407D01*
X179470460Y-103418907D01*
X179470460Y-103480093D01*
X179446309Y-103519504D01*
X179345277Y-103620535D01*
X179220375Y-103792447D01*
X179123904Y-103981784D01*
X179058241Y-104183877D01*
X179047768Y-104249999D01*
X179047769Y-104250000D01*
X180095854Y-104250000D01*
X180057370Y-104316657D01*
X180025000Y-104437465D01*
X180025000Y-104562535D01*
X180057370Y-104683343D01*
X180095854Y-104750000D01*
X179047769Y-104750000D01*
X179058241Y-104816122D01*
X179123904Y-105018215D01*
X179220375Y-105207552D01*
X179345277Y-105379464D01*
X179495535Y-105529722D01*
X179667447Y-105654624D01*
X179856784Y-105751095D01*
X180058878Y-105816759D01*
X180250000Y-105847029D01*
X180250000Y-104904145D01*
X180316657Y-104942630D01*
X180437465Y-104975000D01*
X180562535Y-104975000D01*
X180683343Y-104942630D01*
X180750000Y-104904145D01*
X180750000Y-105847028D01*
X180941121Y-105816759D01*
X181143215Y-105751095D01*
X181332552Y-105654624D01*
X181504464Y-105529722D01*
X181654722Y-105379464D01*
X181779624Y-105207552D01*
X181876095Y-105018215D01*
X181941758Y-104816122D01*
X181952231Y-104750000D01*
X180904146Y-104750000D01*
X180942630Y-104683343D01*
X180975000Y-104562535D01*
X180975000Y-104437465D01*
X180942630Y-104316657D01*
X180904146Y-104250000D01*
X181952231Y-104250000D01*
X181952231Y-104249999D01*
X181941758Y-104183877D01*
X181876095Y-103981784D01*
X181779624Y-103792447D01*
X181654722Y-103620535D01*
X181504464Y-103470277D01*
X181332552Y-103345375D01*
X181143215Y-103248904D01*
X180956694Y-103188300D01*
X180907194Y-103152336D01*
X180888287Y-103094145D01*
X180907194Y-103035954D01*
X180949400Y-103002682D01*
X181122598Y-102930941D01*
X181294655Y-102815977D01*
X181440977Y-102669655D01*
X181555941Y-102497598D01*
X181635130Y-102306420D01*
X181675500Y-102103465D01*
X181675500Y-101896535D01*
X181635130Y-101693580D01*
X181555941Y-101502402D01*
X181440977Y-101330345D01*
X181294655Y-101184023D01*
X181294651Y-101184020D01*
X181122597Y-101069058D01*
X180931418Y-100989869D01*
X180728467Y-100949500D01*
X180728465Y-100949500D01*
X180271535Y-100949500D01*
X180271532Y-100949500D01*
X180068581Y-100989869D01*
X179877402Y-101069058D01*
X179705348Y-101184020D01*
X179559020Y-101330348D01*
X179444058Y-101502402D01*
X179364869Y-101693581D01*
X179346598Y-101785440D01*
X179316701Y-101838824D01*
X179261136Y-101864440D01*
X179201126Y-101852503D01*
X179159594Y-101807573D01*
X179150500Y-101766126D01*
X179150500Y-99898321D01*
X179152505Y-99892147D01*
X179151299Y-99885771D01*
X179161000Y-99866003D01*
X179169407Y-99840130D01*
X179177430Y-99830447D01*
X179178449Y-99829364D01*
X179200500Y-99807314D01*
X179202533Y-99803791D01*
X179209573Y-99796317D01*
X179232228Y-99783904D01*
X179253522Y-99769269D01*
X179258695Y-99769404D01*
X179263233Y-99766918D01*
X179288858Y-99770192D01*
X179314687Y-99770868D01*
X179318792Y-99774018D01*
X179323924Y-99774674D01*
X179342727Y-99792382D01*
X179363230Y-99808114D01*
X179367205Y-99815435D01*
X179368466Y-99816623D01*
X179368795Y-99818364D01*
X179373105Y-99826302D01*
X179378833Y-99840130D01*
X179444058Y-99997597D01*
X179491327Y-100068340D01*
X179559023Y-100169655D01*
X179705345Y-100315977D01*
X179877402Y-100430941D01*
X180068580Y-100510130D01*
X180271535Y-100550500D01*
X180271536Y-100550500D01*
X180728464Y-100550500D01*
X180728465Y-100550500D01*
X180931420Y-100510130D01*
X181122598Y-100430941D01*
X181294655Y-100315977D01*
X181440977Y-100169655D01*
X181555941Y-99997598D01*
X181635130Y-99806420D01*
X181675500Y-99603465D01*
X181675500Y-99396535D01*
X181635130Y-99193580D01*
X181555941Y-99002402D01*
X181440977Y-98830345D01*
X181294655Y-98684023D01*
X181288636Y-98680001D01*
X181122597Y-98569058D01*
X180931418Y-98489869D01*
X180728467Y-98449500D01*
X180728465Y-98449500D01*
X180271535Y-98449500D01*
X180271532Y-98449500D01*
X180068581Y-98489869D01*
X179877402Y-98569058D01*
X179705348Y-98684020D01*
X179559020Y-98830348D01*
X179444058Y-99002402D01*
X179373107Y-99173694D01*
X179333370Y-99220219D01*
X179273875Y-99234503D01*
X179217347Y-99211088D01*
X179203102Y-99196077D01*
X179200502Y-99192689D01*
X179200501Y-99192688D01*
X179200500Y-99192686D01*
X179107314Y-99099500D01*
X179107311Y-99099498D01*
X179107309Y-99099496D01*
X178993189Y-99033609D01*
X178993191Y-99033609D01*
X178943799Y-99020375D01*
X178865892Y-98999500D01*
X178734108Y-98999500D01*
X178656200Y-99020375D01*
X178606809Y-99033609D01*
X178492690Y-99099496D01*
X178399496Y-99192690D01*
X178335236Y-99303992D01*
X178289766Y-99344933D01*
X178228916Y-99351329D01*
X178175928Y-99320736D01*
X178151042Y-99264840D01*
X178150500Y-99254492D01*
X178150500Y-96896532D01*
X179324500Y-96896532D01*
X179324500Y-97103467D01*
X179364869Y-97306418D01*
X179444058Y-97497597D01*
X179557248Y-97666999D01*
X179559023Y-97669655D01*
X179705345Y-97815977D01*
X179877402Y-97930941D01*
X180068580Y-98010130D01*
X180271535Y-98050500D01*
X180271536Y-98050500D01*
X180728464Y-98050500D01*
X180728465Y-98050500D01*
X180931420Y-98010130D01*
X181122598Y-97930941D01*
X181294655Y-97815977D01*
X181440977Y-97669655D01*
X181555941Y-97497598D01*
X181635130Y-97306420D01*
X181675500Y-97103465D01*
X181675500Y-96896535D01*
X181635130Y-96693580D01*
X181555941Y-96502402D01*
X181440977Y-96330345D01*
X181294655Y-96184023D01*
X181294651Y-96184020D01*
X181122597Y-96069058D01*
X180931418Y-95989869D01*
X180728467Y-95949500D01*
X180728465Y-95949500D01*
X180271535Y-95949500D01*
X180271532Y-95949500D01*
X180068581Y-95989869D01*
X179877402Y-96069058D01*
X179705348Y-96184020D01*
X179559020Y-96330348D01*
X179444058Y-96502402D01*
X179364869Y-96693581D01*
X179324500Y-96896532D01*
X178150500Y-96896532D01*
X178150500Y-93845725D01*
X179324500Y-93845725D01*
X179324500Y-95154274D01*
X179327353Y-95184694D01*
X179327354Y-95184700D01*
X179372207Y-95312883D01*
X179452845Y-95422144D01*
X179452847Y-95422146D01*
X179452850Y-95422150D01*
X179452853Y-95422152D01*
X179452855Y-95422154D01*
X179562116Y-95502792D01*
X179562117Y-95502792D01*
X179562118Y-95502793D01*
X179690301Y-95547646D01*
X179720725Y-95550499D01*
X179720727Y-95550500D01*
X179720734Y-95550500D01*
X181279273Y-95550500D01*
X181279273Y-95550499D01*
X181309699Y-95547646D01*
X181437882Y-95502793D01*
X181547150Y-95422150D01*
X181627793Y-95312882D01*
X181672646Y-95184699D01*
X181675499Y-95154273D01*
X181675500Y-95154273D01*
X181675500Y-93845727D01*
X181675499Y-93845725D01*
X181672646Y-93815305D01*
X181672646Y-93815301D01*
X181627793Y-93687118D01*
X181627108Y-93686190D01*
X181547154Y-93577855D01*
X181547152Y-93577853D01*
X181547150Y-93577850D01*
X181547146Y-93577847D01*
X181547144Y-93577845D01*
X181437883Y-93497207D01*
X181309703Y-93452355D01*
X181309694Y-93452353D01*
X181279274Y-93449500D01*
X181279266Y-93449500D01*
X179720734Y-93449500D01*
X179720725Y-93449500D01*
X179690305Y-93452353D01*
X179690296Y-93452355D01*
X179562116Y-93497207D01*
X179452855Y-93577845D01*
X179452845Y-93577855D01*
X179372207Y-93687116D01*
X179327355Y-93815296D01*
X179327353Y-93815305D01*
X179324500Y-93845725D01*
X178150500Y-93845725D01*
X178150500Y-91710943D01*
X178152696Y-91675809D01*
X178150500Y-91664941D01*
X178150500Y-91653856D01*
X178142179Y-91622803D01*
X178140784Y-91616863D01*
X178134417Y-91585349D01*
X178129483Y-91575421D01*
X178126614Y-91564712D01*
X178109010Y-91534222D01*
X178106900Y-91529977D01*
X178093349Y-91502705D01*
X178093344Y-91502699D01*
X178092563Y-91501813D01*
X178081059Y-91485809D01*
X178080470Y-91484790D01*
X178080469Y-91484788D01*
X178057758Y-91462076D01*
X178057758Y-91462077D01*
X178055576Y-91459895D01*
X178032288Y-91433502D01*
X178023051Y-91427370D01*
X178015212Y-91419531D01*
X178015211Y-91419530D01*
X177987395Y-91403470D01*
X177984722Y-91401926D01*
X177955398Y-91382461D01*
X177944892Y-91378930D01*
X177936313Y-91373977D01*
X177936312Y-91373976D01*
X177935296Y-91373389D01*
X177935284Y-91373384D01*
X177904257Y-91365070D01*
X177904257Y-91365069D01*
X177901256Y-91364265D01*
X177867918Y-91353061D01*
X177856855Y-91352369D01*
X177847288Y-91349806D01*
X177846148Y-91349500D01*
X177846144Y-91349500D01*
X177814030Y-91349500D01*
X177807854Y-91349307D01*
X177368324Y-91321835D01*
X177311426Y-91299335D01*
X177278620Y-91247688D01*
X177275500Y-91223028D01*
X177275500Y-91170727D01*
X177275499Y-91170725D01*
X177272646Y-91140305D01*
X177272646Y-91140301D01*
X177227793Y-91012118D01*
X177147150Y-90902850D01*
X177147146Y-90902847D01*
X177147144Y-90902845D01*
X177037883Y-90822207D01*
X176909703Y-90777355D01*
X176909694Y-90777353D01*
X176879274Y-90774500D01*
X176879266Y-90774500D01*
X175520734Y-90774500D01*
X175520725Y-90774500D01*
X175490305Y-90777353D01*
X175490296Y-90777355D01*
X175362116Y-90822207D01*
X175252855Y-90902845D01*
X175252845Y-90902855D01*
X175172207Y-91012116D01*
X175127355Y-91140296D01*
X175127353Y-91140305D01*
X175124500Y-91170725D01*
X175124500Y-92029274D01*
X175127353Y-92059694D01*
X175127355Y-92059703D01*
X175172207Y-92187883D01*
X175252845Y-92297144D01*
X175252847Y-92297146D01*
X175252850Y-92297150D01*
X175252853Y-92297152D01*
X175252855Y-92297154D01*
X175362116Y-92377792D01*
X175362117Y-92377792D01*
X175362118Y-92377793D01*
X175490301Y-92422646D01*
X175520725Y-92425499D01*
X175520727Y-92425500D01*
X175520734Y-92425500D01*
X176879273Y-92425500D01*
X176879273Y-92425499D01*
X176909699Y-92422646D01*
X177037882Y-92377793D01*
X177147150Y-92297150D01*
X177227793Y-92187882D01*
X177257056Y-92104252D01*
X177294121Y-92055573D01*
X177352721Y-92037976D01*
X177410473Y-92058184D01*
X177445317Y-92108479D01*
X177449500Y-92136951D01*
X177449500Y-93863048D01*
X177430593Y-93921239D01*
X177381093Y-93957203D01*
X177319907Y-93957203D01*
X177270407Y-93921239D01*
X177257056Y-93895746D01*
X177235169Y-93833197D01*
X177227793Y-93812118D01*
X177227790Y-93812114D01*
X177147154Y-93702855D01*
X177147152Y-93702853D01*
X177147150Y-93702850D01*
X177147146Y-93702847D01*
X177147144Y-93702845D01*
X177037883Y-93622207D01*
X176909703Y-93577355D01*
X176909694Y-93577353D01*
X176879274Y-93574500D01*
X176879266Y-93574500D01*
X175520734Y-93574500D01*
X175520725Y-93574500D01*
X175490305Y-93577353D01*
X175490296Y-93577355D01*
X175362116Y-93622207D01*
X175252855Y-93702845D01*
X175252845Y-93702855D01*
X175172208Y-93812114D01*
X175172207Y-93812118D01*
X175164830Y-93833198D01*
X175127767Y-93881878D01*
X175071387Y-93899500D01*
X174104500Y-93899500D01*
X174046309Y-93880593D01*
X174010345Y-93831093D01*
X174005500Y-93800500D01*
X174005500Y-93625253D01*
X174005498Y-93625241D01*
X174001522Y-93605252D01*
X173993867Y-93566769D01*
X173949552Y-93500448D01*
X173928208Y-93486186D01*
X173883233Y-93456134D01*
X173883231Y-93456133D01*
X173883228Y-93456132D01*
X173883227Y-93456132D01*
X173824758Y-93444501D01*
X173824748Y-93444500D01*
X172435252Y-93444500D01*
X172435251Y-93444500D01*
X172420435Y-93447447D01*
X172376769Y-93456133D01*
X172376767Y-93456133D01*
X172368030Y-93457872D01*
X172307269Y-93450681D01*
X172262338Y-93409148D01*
X172249858Y-93355453D01*
X172250000Y-93352814D01*
X172250000Y-93160001D01*
X172249999Y-93160000D01*
X171146714Y-93160000D01*
X171129480Y-93168781D01*
X171113993Y-93170000D01*
X169520001Y-93170000D01*
X169520000Y-93170001D01*
X169520000Y-93362824D01*
X169519999Y-93362824D01*
X169526401Y-93422370D01*
X169526403Y-93422381D01*
X169577110Y-93558333D01*
X169579730Y-93619462D01*
X169545919Y-93670457D01*
X169488591Y-93691838D01*
X169429644Y-93675440D01*
X169429351Y-93675245D01*
X169408232Y-93661134D01*
X169408233Y-93661134D01*
X169408231Y-93661133D01*
X169408228Y-93661132D01*
X169408227Y-93661132D01*
X169349758Y-93649501D01*
X169349748Y-93649500D01*
X169349747Y-93649500D01*
X169129500Y-93649500D01*
X169071309Y-93630593D01*
X169035345Y-93581093D01*
X169030500Y-93550500D01*
X169030500Y-93453857D01*
X169030098Y-93452355D01*
X169006614Y-93364712D01*
X168960470Y-93284788D01*
X168155212Y-92479530D01*
X168151133Y-92477175D01*
X169520000Y-92477175D01*
X169520000Y-92669999D01*
X169520001Y-92670000D01*
X170039999Y-92670000D01*
X170040000Y-92669999D01*
X170040000Y-92025001D01*
X170540000Y-92025001D01*
X170540000Y-92669999D01*
X170540001Y-92670000D01*
X170623286Y-92670000D01*
X170640520Y-92661219D01*
X170656007Y-92660000D01*
X171229999Y-92660000D01*
X171230000Y-92659999D01*
X171230000Y-92015001D01*
X171730000Y-92015001D01*
X171730000Y-92659999D01*
X171730001Y-92660000D01*
X172249999Y-92660000D01*
X172250000Y-92659999D01*
X172250000Y-92467175D01*
X172243598Y-92407629D01*
X172243596Y-92407618D01*
X172193353Y-92272911D01*
X172193352Y-92272909D01*
X172107192Y-92157815D01*
X172107184Y-92157807D01*
X171992090Y-92071647D01*
X171992088Y-92071646D01*
X171857381Y-92021403D01*
X171857370Y-92021401D01*
X171797824Y-92015000D01*
X171730001Y-92015000D01*
X171730000Y-92015001D01*
X171230000Y-92015001D01*
X171229999Y-92015000D01*
X171162176Y-92015000D01*
X171102629Y-92021401D01*
X171102618Y-92021403D01*
X170967912Y-92071645D01*
X170937648Y-92094301D01*
X170879733Y-92114037D01*
X170821278Y-92095962D01*
X170818991Y-92094300D01*
X170802086Y-92081645D01*
X170802087Y-92081645D01*
X170667381Y-92031403D01*
X170667370Y-92031401D01*
X170607824Y-92025000D01*
X170540001Y-92025000D01*
X170540000Y-92025001D01*
X170040000Y-92025001D01*
X170039999Y-92025000D01*
X169972176Y-92025000D01*
X169912629Y-92031401D01*
X169912618Y-92031403D01*
X169777911Y-92081646D01*
X169777909Y-92081647D01*
X169662815Y-92167807D01*
X169662807Y-92167815D01*
X169576647Y-92282909D01*
X169576646Y-92282911D01*
X169526403Y-92417618D01*
X169526401Y-92417629D01*
X169520000Y-92477175D01*
X168151133Y-92477175D01*
X168075288Y-92433386D01*
X167986144Y-92409500D01*
X167986142Y-92409500D01*
X165449500Y-92409500D01*
X165391309Y-92390593D01*
X165355345Y-92341093D01*
X165350500Y-92310500D01*
X165350500Y-91990253D01*
X165350498Y-91990241D01*
X165341588Y-91945448D01*
X165338867Y-91931769D01*
X165294552Y-91865448D01*
X165294548Y-91865445D01*
X165228233Y-91821134D01*
X165228231Y-91821133D01*
X165228228Y-91821132D01*
X165228227Y-91821132D01*
X165169758Y-91809501D01*
X165169748Y-91809500D01*
X161130252Y-91809500D01*
X161130251Y-91809500D01*
X161130241Y-91809501D01*
X161071772Y-91821132D01*
X161071766Y-91821134D01*
X161005451Y-91865445D01*
X161005445Y-91865451D01*
X160961134Y-91931766D01*
X160961132Y-91931772D01*
X160949501Y-91990241D01*
X160949500Y-91990253D01*
X160949500Y-93214810D01*
X160930593Y-93273001D01*
X160881093Y-93308965D01*
X160819907Y-93308965D01*
X160780496Y-93284814D01*
X160169496Y-92673814D01*
X160141719Y-92619297D01*
X160140500Y-92603810D01*
X160140500Y-92070253D01*
X160140499Y-92070244D01*
X160134203Y-92038595D01*
X160141393Y-91977834D01*
X160177389Y-91938891D01*
X160176420Y-91937597D01*
X160297184Y-91847192D01*
X160297192Y-91847184D01*
X160383352Y-91732090D01*
X160383353Y-91732088D01*
X160433596Y-91597381D01*
X160433598Y-91597370D01*
X160440000Y-91537824D01*
X160440000Y-91340001D01*
X160439999Y-91340000D01*
X158540001Y-91340000D01*
X158540000Y-91340001D01*
X158540000Y-91537824D01*
X158539999Y-91537824D01*
X158546401Y-91597370D01*
X158546403Y-91597381D01*
X158596646Y-91732088D01*
X158596647Y-91732090D01*
X158682807Y-91847184D01*
X158682815Y-91847192D01*
X158803579Y-91937597D01*
X158802466Y-91939083D01*
X158838154Y-91976866D01*
X158845999Y-92037546D01*
X158845797Y-92038592D01*
X158839500Y-92070246D01*
X158839500Y-92603810D01*
X158820593Y-92662001D01*
X158810504Y-92673813D01*
X158329529Y-93154788D01*
X158292151Y-93219530D01*
X158292151Y-93219531D01*
X158287768Y-93227121D01*
X158283386Y-93234711D01*
X158259500Y-93323857D01*
X158259500Y-93653650D01*
X158240593Y-93711841D01*
X158191093Y-93747805D01*
X158129907Y-93747805D01*
X158122508Y-93744223D01*
X158122242Y-93744866D01*
X158113233Y-93741134D01*
X158113231Y-93741133D01*
X158113227Y-93741132D01*
X158054758Y-93729501D01*
X158054748Y-93729500D01*
X157445252Y-93729500D01*
X157445251Y-93729500D01*
X157445241Y-93729501D01*
X157386772Y-93741132D01*
X157386766Y-93741134D01*
X157320451Y-93785445D01*
X157320445Y-93785451D01*
X157276134Y-93851766D01*
X157276132Y-93851772D01*
X157264501Y-93910241D01*
X157264500Y-93910253D01*
X157264500Y-94148810D01*
X157245593Y-94207001D01*
X157235504Y-94218814D01*
X156319529Y-95134789D01*
X156290713Y-95184700D01*
X156273386Y-95214710D01*
X156249500Y-95303857D01*
X156249500Y-97445500D01*
X156230593Y-97503691D01*
X156181093Y-97539655D01*
X156150500Y-97544500D01*
X155650252Y-97544500D01*
X155650251Y-97544500D01*
X155650241Y-97544501D01*
X155591772Y-97556132D01*
X155591766Y-97556134D01*
X155525451Y-97600445D01*
X155525445Y-97600451D01*
X155481134Y-97666766D01*
X155481132Y-97666772D01*
X155469501Y-97725241D01*
X155469500Y-97725253D01*
X155100500Y-97725253D01*
X155100500Y-90359309D01*
X155119407Y-90301118D01*
X155168907Y-90265154D01*
X155199464Y-90260309D01*
X158540071Y-90259251D01*
X158598264Y-90278139D01*
X158634244Y-90327627D01*
X158634263Y-90388813D01*
X158619353Y-90417578D01*
X158596646Y-90447910D01*
X158596646Y-90447911D01*
X158546403Y-90582618D01*
X158546401Y-90582629D01*
X158540000Y-90642175D01*
X158540000Y-90839999D01*
X158540001Y-90840000D01*
X160439999Y-90840000D01*
X160440000Y-90839999D01*
X160440000Y-90642175D01*
X160433598Y-90582629D01*
X160433596Y-90582618D01*
X160383353Y-90447911D01*
X160383352Y-90447908D01*
X160360197Y-90416978D01*
X160340459Y-90359064D01*
X160358532Y-90300608D01*
X160407513Y-90263940D01*
X160439410Y-90258649D01*
X185560470Y-90250689D01*
X185618665Y-90269578D01*
G37*
%TD.AperFunction*%
%TD*%
M02*
