%TF.GenerationSoftware,KiCad,Pcbnew,10.0.4*%
%TF.CreationDate,2026-07-18T15:57:24-07:00*%
%TF.ProjectId,esp32c6_daikin,65737033-3263-4365-9f64-61696b696e2e,rev?*%
%TF.SameCoordinates,Original*%
%TF.FileFunction,Copper,L2,Bot*%
%TF.FilePolarity,Positive*%
%FSLAX46Y46*%
G04 Gerber Fmt 4.6, Leading zero omitted, Abs format (unit mm)*
G04 Created by KiCad (PCBNEW 10.0.4) date 2026-07-18 15:57:24*
%MOMM*%
%LPD*%
G01*
G04 APERTURE LIST*
G04 Aperture macros list*
%AMRoundRect*
0 Rectangle with rounded corners*
0 $1 Rounding radius*
0 $2 $3 $4 $5 $6 $7 $8 $9 X,Y pos of 4 corners*
0 Add a 4 corners polygon primitive as box body*
4,1,4,$2,$3,$4,$5,$6,$7,$8,$9,$2,$3,0*
0 Add four circle primitives for the rounded corners*
1,1,$1+$1,$2,$3*
1,1,$1+$1,$4,$5*
1,1,$1+$1,$6,$7*
1,1,$1+$1,$8,$9*
0 Add four rect primitives between the rounded corners*
20,1,$1+$1,$2,$3,$4,$5,0*
20,1,$1+$1,$4,$5,$6,$7,0*
20,1,$1+$1,$6,$7,$8,$9,0*
20,1,$1+$1,$8,$9,$2,$3,0*%
G04 Aperture macros list end*
%TA.AperFunction,ComponentPad*%
%ADD10RoundRect,0.250000X-0.725000X0.600000X-0.725000X-0.600000X0.725000X-0.600000X0.725000X0.600000X0*%
%TD*%
%TA.AperFunction,ComponentPad*%
%ADD11O,1.950000X1.700000*%
%TD*%
%TA.AperFunction,SMDPad,CuDef*%
%ADD12R,1.400000X2.500000*%
%TD*%
%TA.AperFunction,SMDPad,CuDef*%
%ADD13R,1.700000X1.400000*%
%TD*%
%TA.AperFunction,ViaPad*%
%ADD14C,0.600000*%
%TD*%
%TA.AperFunction,Conductor*%
%ADD15C,0.300000*%
%TD*%
G04 APERTURE END LIST*
D10*
%TO.P,J2,1*%
%TO.N,unconnected-(J2-Pin_1-Pad1)*%
X180500000Y-94500000D03*
D11*
%TO.P,J2,2*%
%TO.N,/S21_TX_CONN*%
X180500000Y-97000000D03*
%TO.P,J2,3*%
%TO.N,/S21_RX_CONN*%
X180500000Y-99500000D03*
%TO.P,J2,4*%
%TO.N,/12V_IN*%
X180500000Y-102000000D03*
%TO.P,J2,5*%
%TO.N,GND*%
X180500000Y-104500000D03*
%TD*%
D12*
%TO.P,U2,1,GPIO0_1*%
%TO.N,unconnected-(U2-GPIO0-Pad1)*%
X156110000Y-92170000D03*
%TO.P,U2,2,GPIO1_2*%
%TO.N,unconnected-(U2-GPIO1-Pad2)*%
X158110000Y-92170000D03*
%TO.P,U2,3,EN_3*%
%TO.N,Net-(U2-EN)*%
X160110000Y-92170000D03*
%TO.P,U2,4,GPIO2_4*%
%TO.N,unconnected-(U2-GPIO2-Pad4)*%
X162110000Y-92170000D03*
%TO.P,U2,5,GPIO4_5*%
%TO.N,unconnected-(U2-GPIO4-Pad5)*%
X164110000Y-92170000D03*
%TO.P,U2,6,GPIO5_6*%
%TO.N,unconnected-(U2-GPIO5-Pad6)*%
X166110000Y-92170000D03*
%TO.P,U2,7,GPIO6_7*%
%TO.N,unconnected-(U2-GPIO6-Pad7)*%
X168110000Y-92170000D03*
%TO.P,U2,8,3V3_8*%
%TO.N,3V3*%
X170110000Y-92170000D03*
%TO.P,U2,9,GND_9*%
%TO.N,GND*%
X170110000Y-107270000D03*
%TO.P,U2,10,GPIO7_10*%
%TO.N,unconnected-(U2-GPIO7-Pad10)*%
X168110000Y-107270000D03*
%TO.P,U2,11,GPIO8_11*%
%TO.N,unconnected-(U2-GPIO8-Pad11)*%
X166110000Y-107270000D03*
%TO.P,U2,12,GPIO9_12*%
%TO.N,Net-(Boot1-A)*%
X164110000Y-107270000D03*
%TO.P,U2,13,GPIO10_13*%
%TO.N,unconnected-(U2-GPIO10-Pad13)*%
X162110000Y-107270000D03*
%TO.P,U2,14,GPIO3_14*%
%TO.N,unconnected-(U2-GPIO3-Pad14)*%
X160110000Y-107270000D03*
%TO.P,U2,15,RXD_15*%
%TO.N,RX0*%
X158110000Y-107270000D03*
%TO.P,U2,16,TXD_16*%
%TO.N,TX0*%
X156110000Y-107270000D03*
D13*
%TO.P,U2,17,GPIO18_17*%
%TO.N,unconnected-(U2-GPIO18-Pad17)*%
X171410000Y-94720000D03*
%TO.P,U2,18,GPIO19_18*%
%TO.N,unconnected-(U2-GPIO19-Pad18)*%
X171410000Y-96720000D03*
%TO.P,U2,19,GPIO20_19*%
%TO.N,RX1*%
X171410000Y-98720000D03*
%TO.P,U2,20,GPIO21_20*%
%TO.N,TX1*%
X171410000Y-100720000D03*
%TO.P,U2,21,GPIO22_21*%
%TO.N,unconnected-(U2-GPIO22-Pad21)*%
X171410000Y-102720000D03*
%TO.P,U2,22,GPIO23_22*%
%TO.N,Net-(Matter1-A)*%
X171410000Y-104720000D03*
%TD*%
D14*
%TO.N,GND*%
X159730000Y-101090000D03*
X177540000Y-107770000D03*
X171490000Y-91680000D03*
X172890000Y-90680000D03*
X158880000Y-95370000D03*
X156640000Y-104650000D03*
X177730000Y-105110000D03*
X165360000Y-102490000D03*
X162090000Y-94240000D03*
X168190000Y-99870000D03*
X158380000Y-99930000D03*
X165690000Y-95350000D03*
X174400000Y-95920000D03*
X158570000Y-100950000D03*
X155760000Y-94380000D03*
X164010000Y-102490000D03*
X155650000Y-95980000D03*
X165940000Y-96970000D03*
X160590000Y-96320000D03*
X174460000Y-106360000D03*
X156360000Y-100950000D03*
X172440000Y-106360000D03*
X173530000Y-106360000D03*
X177500000Y-108510000D03*
X162600000Y-101170000D03*
X167180000Y-94470000D03*
X156390000Y-99950000D03*
X174130000Y-104910000D03*
X177600000Y-106010000D03*
X166710000Y-103820000D03*
X174200000Y-104210000D03*
X177570000Y-107130000D03*
X177820000Y-104250000D03*
X173080000Y-97010000D03*
X161410000Y-94630000D03*
X160620000Y-97260000D03*
X174530000Y-98350000D03*
X166690000Y-102360000D03*
X158850000Y-96700000D03*
X155760000Y-104480000D03*
X167760000Y-97170000D03*
X158710000Y-98080000D03*
X172890000Y-108060000D03*
X165550000Y-103930000D03*
X155620000Y-97110000D03*
X171730000Y-90800000D03*
X162550000Y-102490000D03*
X164090000Y-103850000D03*
X164620000Y-94850000D03*
X162910000Y-103850000D03*
X173080000Y-95820000D03*
X161330000Y-101060000D03*
%TO.N,/S21_RX_CONN*%
X176900000Y-102400000D03*
%TO.N,Net-(Boot1-A)*%
X164110000Y-108600000D03*
%TO.N,/S21_TX_CORE*%
X176145000Y-103355000D03*
X174600000Y-99920000D03*
%TO.N,Net-(U2-EN)*%
X160940000Y-93970000D03*
%TO.N,3V3*%
X163350000Y-94420000D03*
%TO.N,TX1*%
X168140000Y-101950000D03*
%TO.N,RX1*%
X167970000Y-102730000D03*
%TO.N,/S21_TX_CONN*%
X175175000Y-104200000D03*
X178800000Y-99500000D03*
X178800000Y-102300000D03*
%TO.N,Net-(Matter1-A)*%
X171480000Y-108130000D03*
%TD*%
%TO.N,/S21_RX_CONN*%
D15*
X176900000Y-102400000D02*
X180500000Y-99500000D01*
%TO.N,Net-(Boot1-A)*%
X162900000Y-109030000D02*
X164110000Y-108600000D01*
X164110000Y-107820000D02*
X162900000Y-109030000D01*
X164110000Y-107270000D02*
X164110000Y-107820000D01*
%TO.N,/S21_TX_CORE*%
X174600000Y-99920000D02*
X176145000Y-103355000D01*
%TO.N,Net-(U2-EN)*%
X160110000Y-92170000D02*
X160940000Y-93000000D01*
X160940000Y-93000000D02*
X160940000Y-93970000D01*
%TO.N,3V3*%
X170110000Y-92720000D02*
X170110000Y-92170000D01*
X163930000Y-93840000D02*
X168990000Y-93840000D01*
X163350000Y-94420000D02*
X163930000Y-93840000D01*
X168990000Y-93840000D02*
X170110000Y-92720000D01*
%TO.N,TX1*%
X168140000Y-101950000D02*
X169370000Y-100720000D01*
X169370000Y-100720000D02*
X171410000Y-100720000D01*
%TO.N,RX1*%
X167510000Y-102270000D02*
X167510000Y-101689045D01*
X167510000Y-101689045D02*
X170479045Y-98720000D01*
X170479045Y-98720000D02*
X171410000Y-98720000D01*
X167970000Y-102730000D02*
X167510000Y-102270000D01*
%TO.N,/S21_TX_CONN*%
X178800000Y-102300000D02*
X175800000Y-104500000D01*
X175800000Y-104500000D02*
X175175000Y-104200000D01*
X180500000Y-97000000D02*
X178800000Y-99500000D01*
%TO.N,Net-(Matter1-A)*%
X171410000Y-108060000D02*
X171410000Y-104720000D01*
X171480000Y-108130000D02*
X171410000Y-108060000D01*
%TD*%
%TA.AperFunction,Conductor*%
%TO.N,GND*%
G36*
X185618665Y-90269578D02*
G01*
X185654645Y-90319066D01*
X185659500Y-90349689D01*
X185659500Y-108970500D01*
X185640593Y-109028691D01*
X185591093Y-109064655D01*
X185560500Y-109069500D01*
X164586802Y-109069500D01*
X164528611Y-109050593D01*
X164492647Y-109001093D01*
X164492647Y-108939907D01*
X164500539Y-108921924D01*
X164506531Y-108911282D01*
X164510500Y-108907314D01*
X164576392Y-108793186D01*
X164579440Y-108781809D01*
X164585570Y-108770924D01*
X164599337Y-108758257D01*
X164609526Y-108742566D01*
X164621309Y-108738042D01*
X164630597Y-108729497D01*
X164649179Y-108727341D01*
X164666646Y-108720636D01*
X164671833Y-108720500D01*
X164829747Y-108720500D01*
X164829748Y-108720500D01*
X164888231Y-108708867D01*
X164954552Y-108664552D01*
X164998867Y-108598231D01*
X165010500Y-108539748D01*
X165010500Y-106000253D01*
X165209500Y-106000253D01*
X165209500Y-108539746D01*
X165209501Y-108539758D01*
X165221132Y-108598227D01*
X165221134Y-108598233D01*
X165252020Y-108644456D01*
X165265448Y-108664552D01*
X165331769Y-108708867D01*
X165376231Y-108717711D01*
X165390241Y-108720498D01*
X165390246Y-108720498D01*
X165390252Y-108720500D01*
X165390253Y-108720500D01*
X166829747Y-108720500D01*
X166829748Y-108720500D01*
X166888231Y-108708867D01*
X166954552Y-108664552D01*
X166998867Y-108598231D01*
X167010500Y-108539748D01*
X167010500Y-106000253D01*
X167209500Y-106000253D01*
X167209500Y-108539746D01*
X167209501Y-108539758D01*
X167221132Y-108598227D01*
X167221134Y-108598233D01*
X167252020Y-108644456D01*
X167265448Y-108664552D01*
X167331769Y-108708867D01*
X167376231Y-108717711D01*
X167390241Y-108720498D01*
X167390246Y-108720498D01*
X167390252Y-108720500D01*
X167390253Y-108720500D01*
X168829747Y-108720500D01*
X168829748Y-108720500D01*
X168888231Y-108708867D01*
X168954552Y-108664552D01*
X168998867Y-108598231D01*
X169010500Y-108539748D01*
X169010500Y-106000252D01*
X168998867Y-105941769D01*
X168954552Y-105875448D01*
X168912021Y-105847029D01*
X168888233Y-105831134D01*
X168888231Y-105831133D01*
X168888228Y-105831132D01*
X168888227Y-105831132D01*
X168829758Y-105819501D01*
X168829748Y-105819500D01*
X167390252Y-105819500D01*
X167390251Y-105819500D01*
X167390241Y-105819501D01*
X167331772Y-105831132D01*
X167331766Y-105831134D01*
X167265451Y-105875445D01*
X167265445Y-105875451D01*
X167221134Y-105941766D01*
X167221132Y-105941772D01*
X167209501Y-106000241D01*
X167209500Y-106000253D01*
X167010500Y-106000253D01*
X167010500Y-106000252D01*
X166998867Y-105941769D01*
X166954552Y-105875448D01*
X166912021Y-105847029D01*
X166888233Y-105831134D01*
X166888231Y-105831133D01*
X166888228Y-105831132D01*
X166888227Y-105831132D01*
X166829758Y-105819501D01*
X166829748Y-105819500D01*
X165390252Y-105819500D01*
X165390251Y-105819500D01*
X165390241Y-105819501D01*
X165331772Y-105831132D01*
X165331766Y-105831134D01*
X165265451Y-105875445D01*
X165265445Y-105875451D01*
X165221134Y-105941766D01*
X165221132Y-105941772D01*
X165209501Y-106000241D01*
X165209500Y-106000253D01*
X165010500Y-106000253D01*
X165010500Y-106000252D01*
X164998867Y-105941769D01*
X164954552Y-105875448D01*
X164912021Y-105847029D01*
X164888233Y-105831134D01*
X164888231Y-105831133D01*
X164888228Y-105831132D01*
X164888227Y-105831132D01*
X164829758Y-105819501D01*
X164829748Y-105819500D01*
X163390252Y-105819500D01*
X163390251Y-105819500D01*
X163390241Y-105819501D01*
X163331772Y-105831132D01*
X163331766Y-105831134D01*
X163265451Y-105875445D01*
X163265445Y-105875451D01*
X163221134Y-105941766D01*
X163221132Y-105941772D01*
X163209501Y-106000241D01*
X163209500Y-106000253D01*
X163209500Y-108183810D01*
X163207031Y-108191407D01*
X163208281Y-108199297D01*
X163197756Y-108219952D01*
X163190593Y-108242001D01*
X163180504Y-108253814D01*
X163179504Y-108254814D01*
X163124987Y-108282591D01*
X163064555Y-108273020D01*
X163021290Y-108229755D01*
X163010500Y-108184810D01*
X163010500Y-106000253D01*
X163010498Y-106000241D01*
X163007711Y-105986231D01*
X162998867Y-105941769D01*
X162954552Y-105875448D01*
X162912021Y-105847029D01*
X162888233Y-105831134D01*
X162888231Y-105831133D01*
X162888228Y-105831132D01*
X162888227Y-105831132D01*
X162829758Y-105819501D01*
X162829748Y-105819500D01*
X161390252Y-105819500D01*
X161390251Y-105819500D01*
X161390241Y-105819501D01*
X161331772Y-105831132D01*
X161331766Y-105831134D01*
X161265451Y-105875445D01*
X161265445Y-105875451D01*
X161221134Y-105941766D01*
X161221132Y-105941772D01*
X161209501Y-106000241D01*
X161209500Y-106000253D01*
X161209500Y-108539746D01*
X161209501Y-108539758D01*
X161221132Y-108598227D01*
X161221134Y-108598233D01*
X161252020Y-108644456D01*
X161265448Y-108664552D01*
X161331769Y-108708867D01*
X161376231Y-108717711D01*
X161390241Y-108720498D01*
X161390246Y-108720498D01*
X161390252Y-108720500D01*
X162502367Y-108720500D01*
X162508708Y-108722560D01*
X162515263Y-108721344D01*
X162537315Y-108731855D01*
X162560558Y-108739407D01*
X162564477Y-108744801D01*
X162570495Y-108747670D01*
X162582156Y-108769135D01*
X162596522Y-108788907D01*
X162596522Y-108795576D01*
X162599704Y-108801433D01*
X162596522Y-108825652D01*
X162596522Y-108850093D01*
X162591734Y-108862097D01*
X162591142Y-108863339D01*
X162587515Y-108870237D01*
X162573388Y-108894708D01*
X162573383Y-108894721D01*
X162572065Y-108899637D01*
X162569726Y-108908369D01*
X162563658Y-108921129D01*
X162557829Y-108952768D01*
X162556807Y-108956585D01*
X162547823Y-108990121D01*
X162546530Y-108989774D01*
X162523212Y-109038653D01*
X162469439Y-109067844D01*
X162451405Y-109069500D01*
X155199500Y-109069500D01*
X155141309Y-109050593D01*
X155105345Y-109001093D01*
X155100500Y-108970500D01*
X155100500Y-108738611D01*
X155119407Y-108680420D01*
X155168907Y-108644456D01*
X155230093Y-108644456D01*
X155256384Y-108660567D01*
X155257341Y-108659135D01*
X155265448Y-108664552D01*
X155331769Y-108708867D01*
X155376231Y-108717711D01*
X155390241Y-108720498D01*
X155390246Y-108720498D01*
X155390252Y-108720500D01*
X155390253Y-108720500D01*
X156829747Y-108720500D01*
X156829748Y-108720500D01*
X156888231Y-108708867D01*
X156954552Y-108664552D01*
X156998867Y-108598231D01*
X157010500Y-108539748D01*
X157010500Y-106000253D01*
X157209500Y-106000253D01*
X157209500Y-108539746D01*
X157209501Y-108539758D01*
X157221132Y-108598227D01*
X157221134Y-108598233D01*
X157252020Y-108644456D01*
X157265448Y-108664552D01*
X157331769Y-108708867D01*
X157376231Y-108717711D01*
X157390241Y-108720498D01*
X157390246Y-108720498D01*
X157390252Y-108720500D01*
X157390253Y-108720500D01*
X158829747Y-108720500D01*
X158829748Y-108720500D01*
X158888231Y-108708867D01*
X158954552Y-108664552D01*
X158998867Y-108598231D01*
X159010500Y-108539748D01*
X159010500Y-106000253D01*
X159209500Y-106000253D01*
X159209500Y-108539746D01*
X159209501Y-108539758D01*
X159221132Y-108598227D01*
X159221134Y-108598233D01*
X159252020Y-108644456D01*
X159265448Y-108664552D01*
X159331769Y-108708867D01*
X159376231Y-108717711D01*
X159390241Y-108720498D01*
X159390246Y-108720498D01*
X159390252Y-108720500D01*
X159390253Y-108720500D01*
X160829747Y-108720500D01*
X160829748Y-108720500D01*
X160888231Y-108708867D01*
X160954552Y-108664552D01*
X160998867Y-108598231D01*
X161010500Y-108539748D01*
X161010500Y-106000252D01*
X160998867Y-105941769D01*
X160954552Y-105875448D01*
X160912021Y-105847029D01*
X160888233Y-105831134D01*
X160888231Y-105831133D01*
X160888228Y-105831132D01*
X160888227Y-105831132D01*
X160829758Y-105819501D01*
X160829748Y-105819500D01*
X159390252Y-105819500D01*
X159390251Y-105819500D01*
X159390241Y-105819501D01*
X159331772Y-105831132D01*
X159331766Y-105831134D01*
X159265451Y-105875445D01*
X159265445Y-105875451D01*
X159221134Y-105941766D01*
X159221132Y-105941772D01*
X159209501Y-106000241D01*
X159209500Y-106000253D01*
X159010500Y-106000253D01*
X159010500Y-106000252D01*
X158998867Y-105941769D01*
X158954552Y-105875448D01*
X158912021Y-105847029D01*
X158888233Y-105831134D01*
X158888231Y-105831133D01*
X158888228Y-105831132D01*
X158888227Y-105831132D01*
X158829758Y-105819501D01*
X158829748Y-105819500D01*
X157390252Y-105819500D01*
X157390251Y-105819500D01*
X157390241Y-105819501D01*
X157331772Y-105831132D01*
X157331766Y-105831134D01*
X157265451Y-105875445D01*
X157265445Y-105875451D01*
X157221134Y-105941766D01*
X157221132Y-105941772D01*
X157209501Y-106000241D01*
X157209500Y-106000253D01*
X157010500Y-106000253D01*
X157010500Y-106000252D01*
X156998867Y-105941769D01*
X156954552Y-105875448D01*
X156912021Y-105847029D01*
X156888233Y-105831134D01*
X156888231Y-105831133D01*
X156888228Y-105831132D01*
X156888227Y-105831132D01*
X156829758Y-105819501D01*
X156829748Y-105819500D01*
X155390252Y-105819500D01*
X155390251Y-105819500D01*
X155390241Y-105819501D01*
X155331772Y-105831132D01*
X155331766Y-105831134D01*
X155257341Y-105880865D01*
X155255708Y-105878421D01*
X155214987Y-105899170D01*
X155154555Y-105889599D01*
X155111290Y-105846334D01*
X155100500Y-105801389D01*
X155100500Y-104000253D01*
X170359500Y-104000253D01*
X170359500Y-105439746D01*
X170359501Y-105439758D01*
X170371132Y-105498227D01*
X170371133Y-105498231D01*
X170415448Y-105564552D01*
X170481769Y-105608867D01*
X170526231Y-105617711D01*
X170540241Y-105620498D01*
X170540246Y-105620498D01*
X170540252Y-105620500D01*
X170960500Y-105620500D01*
X171018691Y-105639407D01*
X171054655Y-105688907D01*
X171059500Y-105719500D01*
X171059500Y-107830798D01*
X171046237Y-107880297D01*
X171013608Y-107936812D01*
X170990869Y-108021676D01*
X170979500Y-108064108D01*
X170979500Y-108195892D01*
X170991855Y-108242001D01*
X171013609Y-108323190D01*
X171079496Y-108437309D01*
X171079498Y-108437311D01*
X171079500Y-108437314D01*
X171172686Y-108530500D01*
X171172688Y-108530501D01*
X171172690Y-108530503D01*
X171286810Y-108596390D01*
X171286808Y-108596390D01*
X171286812Y-108596391D01*
X171286814Y-108596392D01*
X171414108Y-108630500D01*
X171414110Y-108630500D01*
X171545890Y-108630500D01*
X171545892Y-108630500D01*
X171673186Y-108596392D01*
X171673188Y-108596390D01*
X171673190Y-108596390D01*
X171787309Y-108530503D01*
X171787309Y-108530502D01*
X171787314Y-108530500D01*
X171880500Y-108437314D01*
X171946392Y-108323186D01*
X171980500Y-108195892D01*
X171980500Y-108064108D01*
X171946392Y-107936814D01*
X171946390Y-107936811D01*
X171946390Y-107936809D01*
X171880503Y-107822690D01*
X171880501Y-107822688D01*
X171880500Y-107822686D01*
X171789494Y-107731680D01*
X171761719Y-107677166D01*
X171760500Y-107661679D01*
X171760500Y-105719500D01*
X171779407Y-105661309D01*
X171828907Y-105625345D01*
X171859500Y-105620500D01*
X172279747Y-105620500D01*
X172279748Y-105620500D01*
X172338231Y-105608867D01*
X172404552Y-105564552D01*
X172448867Y-105498231D01*
X172460500Y-105439748D01*
X172460500Y-104000252D01*
X172448867Y-103941769D01*
X172404552Y-103875448D01*
X172379468Y-103858687D01*
X172338233Y-103831134D01*
X172338231Y-103831133D01*
X172338228Y-103831132D01*
X172338227Y-103831132D01*
X172279758Y-103819501D01*
X172279748Y-103819500D01*
X170540252Y-103819500D01*
X170540251Y-103819500D01*
X170540241Y-103819501D01*
X170481772Y-103831132D01*
X170481766Y-103831134D01*
X170415451Y-103875445D01*
X170415445Y-103875451D01*
X170371134Y-103941766D01*
X170371132Y-103941772D01*
X170359501Y-104000241D01*
X170359500Y-104000253D01*
X155100500Y-104000253D01*
X155100500Y-101642901D01*
X167159500Y-101642901D01*
X167159500Y-102316144D01*
X167164314Y-102334109D01*
X167170392Y-102356793D01*
X167170391Y-102356793D01*
X167183319Y-102405037D01*
X167183386Y-102405288D01*
X167229530Y-102485212D01*
X167337508Y-102593190D01*
X167440503Y-102696184D01*
X167468281Y-102750701D01*
X167469500Y-102766188D01*
X167469500Y-102795892D01*
X167483340Y-102847544D01*
X167503609Y-102923190D01*
X167569496Y-103037309D01*
X167569498Y-103037311D01*
X167569500Y-103037314D01*
X167662686Y-103130500D01*
X167662688Y-103130501D01*
X167662690Y-103130503D01*
X167776810Y-103196390D01*
X167776808Y-103196390D01*
X167776812Y-103196391D01*
X167776814Y-103196392D01*
X167904108Y-103230500D01*
X167904110Y-103230500D01*
X168035890Y-103230500D01*
X168035892Y-103230500D01*
X168163186Y-103196392D01*
X168163188Y-103196390D01*
X168163190Y-103196390D01*
X168277309Y-103130503D01*
X168277309Y-103130502D01*
X168277314Y-103130500D01*
X168370500Y-103037314D01*
X168386195Y-103010130D01*
X168436390Y-102923190D01*
X168436390Y-102923188D01*
X168436392Y-102923186D01*
X168470500Y-102795892D01*
X168470500Y-102664108D01*
X168436392Y-102536814D01*
X168411555Y-102493796D01*
X168407946Y-102487544D01*
X168395225Y-102427695D01*
X168420112Y-102371800D01*
X168444189Y-102352304D01*
X168447314Y-102350500D01*
X168540500Y-102257314D01*
X168569659Y-102206809D01*
X168606390Y-102143190D01*
X168606390Y-102143188D01*
X168606392Y-102143186D01*
X168640500Y-102015892D01*
X168640500Y-102000253D01*
X170359500Y-102000253D01*
X170359500Y-103439746D01*
X170359501Y-103439758D01*
X170371132Y-103498227D01*
X170371133Y-103498231D01*
X170415448Y-103564552D01*
X170481769Y-103608867D01*
X170526231Y-103617711D01*
X170540241Y-103620498D01*
X170540246Y-103620498D01*
X170540252Y-103620500D01*
X170540253Y-103620500D01*
X172279747Y-103620500D01*
X172279748Y-103620500D01*
X172338231Y-103608867D01*
X172404552Y-103564552D01*
X172448867Y-103498231D01*
X172460500Y-103439748D01*
X172460500Y-102000252D01*
X172460350Y-101999500D01*
X172455975Y-101977503D01*
X172448867Y-101941769D01*
X172404552Y-101875448D01*
X172341937Y-101833609D01*
X172338233Y-101831134D01*
X172338231Y-101831133D01*
X172338228Y-101831132D01*
X172338227Y-101831132D01*
X172279758Y-101819501D01*
X172279748Y-101819500D01*
X170540252Y-101819500D01*
X170540251Y-101819500D01*
X170540241Y-101819501D01*
X170481772Y-101831132D01*
X170481766Y-101831134D01*
X170415451Y-101875445D01*
X170415445Y-101875451D01*
X170371134Y-101941766D01*
X170371132Y-101941772D01*
X170359501Y-102000241D01*
X170359500Y-102000253D01*
X168640500Y-102000253D01*
X168640500Y-101986190D01*
X168659407Y-101927999D01*
X168669496Y-101916186D01*
X169486186Y-101099496D01*
X169540703Y-101071719D01*
X169556190Y-101070500D01*
X170260500Y-101070500D01*
X170318691Y-101089407D01*
X170354655Y-101138907D01*
X170359500Y-101169500D01*
X170359500Y-101439746D01*
X170359501Y-101439758D01*
X170366280Y-101473834D01*
X170371133Y-101498231D01*
X170415448Y-101564552D01*
X170481769Y-101608867D01*
X170526231Y-101617711D01*
X170540241Y-101620498D01*
X170540246Y-101620498D01*
X170540252Y-101620500D01*
X170540253Y-101620500D01*
X172279747Y-101620500D01*
X172279748Y-101620500D01*
X172338231Y-101608867D01*
X172404552Y-101564552D01*
X172448867Y-101498231D01*
X172460500Y-101439748D01*
X172460500Y-100000252D01*
X172448867Y-99941769D01*
X172404552Y-99875448D01*
X172375960Y-99856343D01*
X172372615Y-99854108D01*
X174099500Y-99854108D01*
X174099500Y-99985892D01*
X174122679Y-100072399D01*
X174133609Y-100113190D01*
X174199496Y-100227309D01*
X174199498Y-100227311D01*
X174199500Y-100227314D01*
X174292686Y-100320500D01*
X174404312Y-100384947D01*
X174445099Y-100430073D01*
X175662340Y-103136366D01*
X175668966Y-103197192D01*
X175667679Y-103202598D01*
X175655272Y-103248904D01*
X175644500Y-103289108D01*
X175644500Y-103420892D01*
X175657733Y-103470277D01*
X175678609Y-103548190D01*
X175744496Y-103662309D01*
X175744498Y-103662311D01*
X175744500Y-103662314D01*
X175837686Y-103755500D01*
X175921623Y-103803961D01*
X175925061Y-103807780D01*
X175929957Y-103809347D01*
X175945253Y-103830205D01*
X175962563Y-103849430D01*
X175963100Y-103854542D01*
X175966140Y-103858687D01*
X175966254Y-103884550D01*
X175968959Y-103910280D01*
X175966388Y-103914732D01*
X175966411Y-103919872D01*
X175951300Y-103940864D01*
X175938366Y-103963268D01*
X175930667Y-103969531D01*
X175810074Y-104057966D01*
X175751968Y-104077131D01*
X175708687Y-104067382D01*
X175690138Y-104058478D01*
X175645860Y-104016251D01*
X175641513Y-104007108D01*
X175641393Y-104006819D01*
X175641392Y-104006814D01*
X175641388Y-104006808D01*
X175641387Y-104006804D01*
X175575503Y-103892690D01*
X175575501Y-103892688D01*
X175575500Y-103892686D01*
X175482314Y-103799500D01*
X175482311Y-103799498D01*
X175482309Y-103799496D01*
X175368189Y-103733609D01*
X175368191Y-103733609D01*
X175318799Y-103720375D01*
X175240892Y-103699500D01*
X175109108Y-103699500D01*
X175031200Y-103720375D01*
X174981809Y-103733609D01*
X174867690Y-103799496D01*
X174774496Y-103892690D01*
X174708609Y-104006809D01*
X174708608Y-104006814D01*
X174674500Y-104134108D01*
X174674500Y-104265892D01*
X174704579Y-104378151D01*
X174708609Y-104393190D01*
X174774496Y-104507309D01*
X174774498Y-104507311D01*
X174774500Y-104507314D01*
X174867686Y-104600500D01*
X174867688Y-104600501D01*
X174867690Y-104600503D01*
X174981810Y-104666390D01*
X174981808Y-104666390D01*
X174981812Y-104666391D01*
X174981814Y-104666392D01*
X175109108Y-104700500D01*
X175109110Y-104700500D01*
X175240890Y-104700500D01*
X175240892Y-104700500D01*
X175312554Y-104681298D01*
X175373653Y-104684500D01*
X175381015Y-104687674D01*
X175601781Y-104793642D01*
X175601780Y-104793642D01*
X175612032Y-104798562D01*
X175616621Y-104802245D01*
X175653518Y-104818475D01*
X175654998Y-104819186D01*
X175655020Y-104819196D01*
X175689927Y-104835952D01*
X175695715Y-104837039D01*
X175701097Y-104839407D01*
X175740953Y-104845538D01*
X175780629Y-104852993D01*
X175780631Y-104852992D01*
X175780632Y-104852993D01*
X175786500Y-104852545D01*
X175792311Y-104853440D01*
X175832425Y-104849044D01*
X175833993Y-104848925D01*
X175834004Y-104848924D01*
X175872651Y-104845978D01*
X175872661Y-104845974D01*
X175878444Y-104844760D01*
X175884041Y-104843388D01*
X175884051Y-104843388D01*
X175921687Y-104828749D01*
X175959720Y-104815386D01*
X175964573Y-104812067D01*
X175970062Y-104809933D01*
X176002611Y-104786063D01*
X176035907Y-104763301D01*
X176039739Y-104758836D01*
X178684061Y-102819665D01*
X178742167Y-102800501D01*
X178742606Y-102800500D01*
X178865890Y-102800500D01*
X178865892Y-102800500D01*
X178993186Y-102766392D01*
X178993188Y-102766390D01*
X178993190Y-102766390D01*
X179107309Y-102700503D01*
X179107309Y-102700502D01*
X179107314Y-102700500D01*
X179200500Y-102607314D01*
X179266392Y-102493186D01*
X179266392Y-102493183D01*
X179268400Y-102489707D01*
X179313870Y-102448766D01*
X179374720Y-102442370D01*
X179427708Y-102472963D01*
X179440854Y-102493796D01*
X179441766Y-102493309D01*
X179444056Y-102497593D01*
X179555316Y-102664108D01*
X179559023Y-102669655D01*
X179705345Y-102815977D01*
X179877402Y-102930941D01*
X180050599Y-103002682D01*
X180097123Y-103042418D01*
X180111407Y-103101912D01*
X180087992Y-103158440D01*
X180043305Y-103188300D01*
X179856784Y-103248904D01*
X179667447Y-103345375D01*
X179495535Y-103470277D01*
X179345277Y-103620535D01*
X179220375Y-103792447D01*
X179123904Y-103981784D01*
X179058241Y-104183877D01*
X179047768Y-104249999D01*
X179047769Y-104250000D01*
X180095854Y-104250000D01*
X180057370Y-104316657D01*
X180025000Y-104437465D01*
X180025000Y-104562535D01*
X180057370Y-104683343D01*
X180095854Y-104750000D01*
X179047769Y-104750000D01*
X179058241Y-104816122D01*
X179123904Y-105018215D01*
X179220375Y-105207552D01*
X179345277Y-105379464D01*
X179495535Y-105529722D01*
X179667447Y-105654624D01*
X179856784Y-105751095D01*
X180058878Y-105816759D01*
X180250000Y-105847029D01*
X180250000Y-104904145D01*
X180316657Y-104942630D01*
X180437465Y-104975000D01*
X180562535Y-104975000D01*
X180683343Y-104942630D01*
X180750000Y-104904145D01*
X180750000Y-105847028D01*
X180941121Y-105816759D01*
X181143215Y-105751095D01*
X181332552Y-105654624D01*
X181504464Y-105529722D01*
X181654722Y-105379464D01*
X181779624Y-105207552D01*
X181876095Y-105018215D01*
X181941758Y-104816122D01*
X181952231Y-104750000D01*
X180904146Y-104750000D01*
X180942630Y-104683343D01*
X180975000Y-104562535D01*
X180975000Y-104437465D01*
X180942630Y-104316657D01*
X180904146Y-104250000D01*
X181952231Y-104250000D01*
X181952231Y-104249999D01*
X181941758Y-104183877D01*
X181876095Y-103981784D01*
X181779624Y-103792447D01*
X181654722Y-103620535D01*
X181504464Y-103470277D01*
X181332552Y-103345375D01*
X181143215Y-103248904D01*
X180956694Y-103188300D01*
X180907194Y-103152336D01*
X180888287Y-103094145D01*
X180907194Y-103035954D01*
X180949400Y-103002682D01*
X181122598Y-102930941D01*
X181294655Y-102815977D01*
X181440977Y-102669655D01*
X181555941Y-102497598D01*
X181635130Y-102306420D01*
X181675500Y-102103465D01*
X181675500Y-101896535D01*
X181635130Y-101693580D01*
X181555941Y-101502402D01*
X181440977Y-101330345D01*
X181294655Y-101184023D01*
X181168151Y-101099496D01*
X181122597Y-101069058D01*
X180931418Y-100989869D01*
X180728467Y-100949500D01*
X180728465Y-100949500D01*
X180271535Y-100949500D01*
X180271532Y-100949500D01*
X180068581Y-100989869D01*
X179877402Y-101069058D01*
X179705348Y-101184020D01*
X179559020Y-101330348D01*
X179444058Y-101502402D01*
X179364869Y-101693581D01*
X179324108Y-101898503D01*
X179294211Y-101951887D01*
X179238646Y-101977503D01*
X179178636Y-101965566D01*
X179157010Y-101949196D01*
X179107314Y-101899500D01*
X179107311Y-101899498D01*
X179107309Y-101899496D01*
X178993189Y-101833609D01*
X178993191Y-101833609D01*
X178940534Y-101819500D01*
X178865892Y-101799500D01*
X178734108Y-101799500D01*
X178659466Y-101819500D01*
X178606809Y-101833609D01*
X178492690Y-101899496D01*
X178399496Y-101992690D01*
X178333609Y-102106810D01*
X178333608Y-102106812D01*
X178309081Y-102198344D01*
X178275757Y-102249657D01*
X178272000Y-102252553D01*
X177378173Y-102908027D01*
X177238553Y-103010414D01*
X176797195Y-103334077D01*
X176739089Y-103353242D01*
X176680815Y-103334593D01*
X176644632Y-103285253D01*
X176643029Y-103279886D01*
X176611392Y-103161814D01*
X176611390Y-103161811D01*
X176611390Y-103161809D01*
X176545503Y-103047690D01*
X176545501Y-103047688D01*
X176545500Y-103047686D01*
X176452314Y-102954500D01*
X176452311Y-102954498D01*
X176452309Y-102954496D01*
X176340687Y-102890051D01*
X176299899Y-102844925D01*
X176279917Y-102800500D01*
X176070142Y-102334108D01*
X176399500Y-102334108D01*
X176399500Y-102465892D01*
X176429579Y-102578151D01*
X176433609Y-102593190D01*
X176499496Y-102707309D01*
X176499498Y-102707311D01*
X176499500Y-102707314D01*
X176592686Y-102800500D01*
X176592688Y-102800501D01*
X176592690Y-102800503D01*
X176706810Y-102866390D01*
X176706808Y-102866390D01*
X176706812Y-102866391D01*
X176706814Y-102866392D01*
X176834108Y-102900500D01*
X176834110Y-102900500D01*
X176965890Y-102900500D01*
X176965892Y-102900500D01*
X177093186Y-102866392D01*
X177207314Y-102800500D01*
X177300500Y-102707314D01*
X177306926Y-102696184D01*
X177366390Y-102593190D01*
X177366390Y-102593188D01*
X177366392Y-102593186D01*
X177398629Y-102472872D01*
X177431952Y-102421561D01*
X177432003Y-102421519D01*
X179848618Y-100474801D01*
X179905794Y-100453022D01*
X179948606Y-100460434D01*
X180068580Y-100510130D01*
X180271535Y-100550500D01*
X180271536Y-100550500D01*
X180728464Y-100550500D01*
X180728465Y-100550500D01*
X180931420Y-100510130D01*
X181122598Y-100430941D01*
X181294655Y-100315977D01*
X181440977Y-100169655D01*
X181555941Y-99997598D01*
X181635130Y-99806420D01*
X181675500Y-99603465D01*
X181675500Y-99396535D01*
X181635130Y-99193580D01*
X181555941Y-99002402D01*
X181440977Y-98830345D01*
X181294655Y-98684023D01*
X181122598Y-98569059D01*
X181122599Y-98569059D01*
X181122597Y-98569058D01*
X180931418Y-98489869D01*
X180728467Y-98449500D01*
X180728465Y-98449500D01*
X180271535Y-98449500D01*
X180271531Y-98449500D01*
X180123195Y-98479006D01*
X180062433Y-98471814D01*
X180017504Y-98430281D01*
X180005567Y-98370272D01*
X180022015Y-98326239D01*
X180180352Y-98093391D01*
X180228707Y-98055905D01*
X180266672Y-98051190D01*
X180266672Y-98050500D01*
X180728464Y-98050500D01*
X180728465Y-98050500D01*
X180931420Y-98010130D01*
X181122598Y-97930941D01*
X181294655Y-97815977D01*
X181440977Y-97669655D01*
X181555941Y-97497598D01*
X181635130Y-97306420D01*
X181675500Y-97103465D01*
X181675500Y-96896535D01*
X181635130Y-96693580D01*
X181555941Y-96502402D01*
X181440977Y-96330345D01*
X181294655Y-96184023D01*
X181122598Y-96069059D01*
X181122599Y-96069059D01*
X181122597Y-96069058D01*
X180931418Y-95989869D01*
X180728467Y-95949500D01*
X180728465Y-95949500D01*
X180271535Y-95949500D01*
X180271532Y-95949500D01*
X180068581Y-95989869D01*
X179877402Y-96069058D01*
X179705348Y-96184020D01*
X179559020Y-96330348D01*
X179444058Y-96502402D01*
X179364869Y-96693581D01*
X179324500Y-96896532D01*
X179324500Y-97103467D01*
X179364869Y-97306418D01*
X179444058Y-97497597D01*
X179552553Y-97659972D01*
X179569161Y-97718860D01*
X179552103Y-97770642D01*
X178733247Y-98974842D01*
X178684891Y-99012329D01*
X178677005Y-99014799D01*
X178606814Y-99033607D01*
X178606810Y-99033609D01*
X178492690Y-99099496D01*
X178399496Y-99192690D01*
X178333609Y-99306809D01*
X178333608Y-99306814D01*
X178299500Y-99434108D01*
X178299500Y-99565892D01*
X178314132Y-99620500D01*
X178333609Y-99693190D01*
X178399496Y-99807309D01*
X178399498Y-99807311D01*
X178399500Y-99807314D01*
X178492686Y-99900500D01*
X178492688Y-99900501D01*
X178492690Y-99900503D01*
X178606810Y-99966390D01*
X178606808Y-99966390D01*
X178606812Y-99966391D01*
X178606814Y-99966392D01*
X178734108Y-100000500D01*
X178734110Y-100000500D01*
X178865890Y-100000500D01*
X178865892Y-100000500D01*
X178993186Y-99966392D01*
X178993188Y-99966390D01*
X178993190Y-99966390D01*
X179107309Y-99900503D01*
X179107309Y-99900502D01*
X179107314Y-99900500D01*
X179200500Y-99807314D01*
X179200503Y-99807307D01*
X179203099Y-99803926D01*
X179253522Y-99769269D01*
X179314687Y-99770868D01*
X179363230Y-99808114D01*
X179373108Y-99826308D01*
X179385548Y-99856343D01*
X179390347Y-99917340D01*
X179358376Y-99969508D01*
X179356189Y-99971323D01*
X176989782Y-101877597D01*
X176932604Y-101899377D01*
X176927676Y-101899500D01*
X176834108Y-101899500D01*
X176756200Y-101920375D01*
X176706809Y-101933609D01*
X176592690Y-101999496D01*
X176499496Y-102092690D01*
X176433609Y-102206809D01*
X176422128Y-102249657D01*
X176399500Y-102334108D01*
X176070142Y-102334108D01*
X175082657Y-100138632D01*
X175076032Y-100077807D01*
X175077320Y-100072399D01*
X175078493Y-100068020D01*
X175100500Y-99985892D01*
X175100500Y-99854108D01*
X175066392Y-99726814D01*
X175066390Y-99726811D01*
X175066390Y-99726809D01*
X175000503Y-99612690D01*
X175000501Y-99612688D01*
X175000500Y-99612686D01*
X174907314Y-99519500D01*
X174907311Y-99519498D01*
X174907309Y-99519496D01*
X174793189Y-99453609D01*
X174793191Y-99453609D01*
X174741452Y-99439746D01*
X174665892Y-99419500D01*
X174534108Y-99419500D01*
X174458548Y-99439746D01*
X174406809Y-99453609D01*
X174292690Y-99519496D01*
X174199496Y-99612690D01*
X174133609Y-99726809D01*
X174133608Y-99726814D01*
X174099500Y-99854108D01*
X172372615Y-99854108D01*
X172338233Y-99831134D01*
X172338231Y-99831133D01*
X172338228Y-99831132D01*
X172338227Y-99831132D01*
X172279758Y-99819501D01*
X172279748Y-99819500D01*
X170540252Y-99819500D01*
X170540251Y-99819500D01*
X170540241Y-99819501D01*
X170481772Y-99831132D01*
X170481766Y-99831134D01*
X170415451Y-99875445D01*
X170415445Y-99875451D01*
X170371134Y-99941766D01*
X170371132Y-99941772D01*
X170359501Y-100000241D01*
X170359500Y-100000253D01*
X170359500Y-100270500D01*
X170340593Y-100328691D01*
X170291093Y-100364655D01*
X170260500Y-100369500D01*
X169564235Y-100369500D01*
X169506044Y-100350593D01*
X169470080Y-100301093D01*
X169470080Y-100239907D01*
X169494231Y-100200496D01*
X169840619Y-99854108D01*
X170215885Y-99478841D01*
X170270400Y-99451066D01*
X170330832Y-99460637D01*
X170368202Y-99493845D01*
X170385344Y-99519500D01*
X170415448Y-99564552D01*
X170481769Y-99608867D01*
X170526231Y-99617711D01*
X170540241Y-99620498D01*
X170540246Y-99620498D01*
X170540252Y-99620500D01*
X170540253Y-99620500D01*
X172279747Y-99620500D01*
X172279748Y-99620500D01*
X172338231Y-99608867D01*
X172404552Y-99564552D01*
X172448867Y-99498231D01*
X172460500Y-99439748D01*
X172460500Y-98000252D01*
X172448867Y-97941769D01*
X172404552Y-97875448D01*
X172404548Y-97875445D01*
X172338233Y-97831134D01*
X172338231Y-97831133D01*
X172338228Y-97831132D01*
X172338227Y-97831132D01*
X172279758Y-97819501D01*
X172279748Y-97819500D01*
X170540252Y-97819500D01*
X170540251Y-97819500D01*
X170540241Y-97819501D01*
X170481772Y-97831132D01*
X170481766Y-97831134D01*
X170415451Y-97875445D01*
X170415445Y-97875451D01*
X170371134Y-97941766D01*
X170371132Y-97941772D01*
X170359501Y-98000241D01*
X170359500Y-98000253D01*
X170359500Y-98327139D01*
X170340593Y-98385330D01*
X170310000Y-98412875D01*
X170263835Y-98439528D01*
X170263833Y-98439530D01*
X167229530Y-101473833D01*
X167213036Y-101502402D01*
X167183386Y-101553757D01*
X167159500Y-101642901D01*
X155100500Y-101642901D01*
X155100500Y-96000253D01*
X170359500Y-96000253D01*
X170359500Y-97439746D01*
X170359501Y-97439758D01*
X170371007Y-97497597D01*
X170371133Y-97498231D01*
X170415448Y-97564552D01*
X170481769Y-97608867D01*
X170526231Y-97617711D01*
X170540241Y-97620498D01*
X170540246Y-97620498D01*
X170540252Y-97620500D01*
X170540253Y-97620500D01*
X172279747Y-97620500D01*
X172279748Y-97620500D01*
X172338231Y-97608867D01*
X172404552Y-97564552D01*
X172448867Y-97498231D01*
X172460500Y-97439748D01*
X172460500Y-96000252D01*
X172448867Y-95941769D01*
X172404552Y-95875448D01*
X172404548Y-95875445D01*
X172338233Y-95831134D01*
X172338231Y-95831133D01*
X172338228Y-95831132D01*
X172338227Y-95831132D01*
X172279758Y-95819501D01*
X172279748Y-95819500D01*
X170540252Y-95819500D01*
X170540251Y-95819500D01*
X170540241Y-95819501D01*
X170481772Y-95831132D01*
X170481766Y-95831134D01*
X170415451Y-95875445D01*
X170415445Y-95875451D01*
X170371134Y-95941766D01*
X170371132Y-95941772D01*
X170359501Y-96000241D01*
X170359500Y-96000253D01*
X155100500Y-96000253D01*
X155100500Y-93638611D01*
X155119407Y-93580420D01*
X155168907Y-93544456D01*
X155230093Y-93544456D01*
X155256384Y-93560567D01*
X155257341Y-93559135D01*
X155265448Y-93564552D01*
X155331769Y-93608867D01*
X155376231Y-93617711D01*
X155390241Y-93620498D01*
X155390246Y-93620498D01*
X155390252Y-93620500D01*
X155390253Y-93620500D01*
X156829747Y-93620500D01*
X156829748Y-93620500D01*
X156888231Y-93608867D01*
X156954552Y-93564552D01*
X156998867Y-93498231D01*
X157010500Y-93439748D01*
X157010500Y-90900253D01*
X157209500Y-90900253D01*
X157209500Y-93439746D01*
X157209501Y-93439758D01*
X157219396Y-93489500D01*
X157221133Y-93498231D01*
X157265448Y-93564552D01*
X157331769Y-93608867D01*
X157376231Y-93617711D01*
X157390241Y-93620498D01*
X157390246Y-93620498D01*
X157390252Y-93620500D01*
X157390253Y-93620500D01*
X158829747Y-93620500D01*
X158829748Y-93620500D01*
X158888231Y-93608867D01*
X158954552Y-93564552D01*
X158998867Y-93498231D01*
X159010500Y-93439748D01*
X159010500Y-90900253D01*
X159209500Y-90900253D01*
X159209500Y-93439746D01*
X159209501Y-93439758D01*
X159219396Y-93489500D01*
X159221133Y-93498231D01*
X159265448Y-93564552D01*
X159331769Y-93608867D01*
X159376231Y-93617711D01*
X159390241Y-93620498D01*
X159390246Y-93620498D01*
X159390252Y-93620500D01*
X160392383Y-93620500D01*
X160450574Y-93639407D01*
X160486538Y-93688907D01*
X160486538Y-93750093D01*
X160478118Y-93769002D01*
X160473609Y-93776810D01*
X160473608Y-93776814D01*
X160439500Y-93904108D01*
X160439500Y-94035892D01*
X160469579Y-94148151D01*
X160473609Y-94163190D01*
X160539496Y-94277309D01*
X160539498Y-94277311D01*
X160539500Y-94277314D01*
X160632686Y-94370500D01*
X160632688Y-94370501D01*
X160632690Y-94370503D01*
X160746810Y-94436390D01*
X160746808Y-94436390D01*
X160746812Y-94436391D01*
X160746814Y-94436392D01*
X160874108Y-94470500D01*
X160874110Y-94470500D01*
X161005890Y-94470500D01*
X161005892Y-94470500D01*
X161133186Y-94436392D01*
X161133188Y-94436390D01*
X161133190Y-94436390D01*
X161247309Y-94370503D01*
X161247309Y-94370502D01*
X161247314Y-94370500D01*
X161263706Y-94354108D01*
X162849500Y-94354108D01*
X162849500Y-94485892D01*
X162879579Y-94598151D01*
X162883609Y-94613190D01*
X162949496Y-94727309D01*
X162949498Y-94727311D01*
X162949500Y-94727314D01*
X163042686Y-94820500D01*
X163042688Y-94820501D01*
X163042690Y-94820503D01*
X163156810Y-94886390D01*
X163156808Y-94886390D01*
X163156812Y-94886391D01*
X163156814Y-94886392D01*
X163284108Y-94920500D01*
X163284110Y-94920500D01*
X163415890Y-94920500D01*
X163415892Y-94920500D01*
X163543186Y-94886392D01*
X163543188Y-94886390D01*
X163543190Y-94886390D01*
X163657309Y-94820503D01*
X163657309Y-94820502D01*
X163657314Y-94820500D01*
X163750500Y-94727314D01*
X163816392Y-94613186D01*
X163850500Y-94485892D01*
X163850500Y-94456190D01*
X163869407Y-94397999D01*
X163879496Y-94386186D01*
X164046186Y-94219496D01*
X164100703Y-94191719D01*
X164116190Y-94190500D01*
X169036142Y-94190500D01*
X169036144Y-94190500D01*
X169125288Y-94166614D01*
X169143071Y-94156347D01*
X169205212Y-94120470D01*
X169325429Y-94000253D01*
X170359500Y-94000253D01*
X170359500Y-95439746D01*
X170359501Y-95439758D01*
X170371132Y-95498227D01*
X170371134Y-95498233D01*
X170415445Y-95564548D01*
X170415448Y-95564552D01*
X170481769Y-95608867D01*
X170526231Y-95617711D01*
X170540241Y-95620498D01*
X170540246Y-95620498D01*
X170540252Y-95620500D01*
X170540253Y-95620500D01*
X172279747Y-95620500D01*
X172279748Y-95620500D01*
X172338231Y-95608867D01*
X172404552Y-95564552D01*
X172448867Y-95498231D01*
X172460500Y-95439748D01*
X172460500Y-94000252D01*
X172448867Y-93941769D01*
X172404552Y-93875448D01*
X172360083Y-93845734D01*
X172360070Y-93845725D01*
X179324500Y-93845725D01*
X179324500Y-95154274D01*
X179327353Y-95184694D01*
X179327355Y-95184703D01*
X179372207Y-95312883D01*
X179452845Y-95422144D01*
X179452847Y-95422146D01*
X179452850Y-95422150D01*
X179452853Y-95422152D01*
X179452855Y-95422154D01*
X179562116Y-95502792D01*
X179562117Y-95502792D01*
X179562118Y-95502793D01*
X179690301Y-95547646D01*
X179720725Y-95550499D01*
X179720727Y-95550500D01*
X179720734Y-95550500D01*
X181279273Y-95550500D01*
X181279273Y-95550499D01*
X181309699Y-95547646D01*
X181437882Y-95502793D01*
X181547150Y-95422150D01*
X181627793Y-95312882D01*
X181672646Y-95184699D01*
X181675499Y-95154273D01*
X181675500Y-95154273D01*
X181675500Y-93845727D01*
X181675499Y-93845725D01*
X181674131Y-93831134D01*
X181672646Y-93815301D01*
X181627793Y-93687118D01*
X181624343Y-93682444D01*
X181547154Y-93577855D01*
X181547152Y-93577853D01*
X181547150Y-93577850D01*
X181547146Y-93577847D01*
X181547144Y-93577845D01*
X181437883Y-93497207D01*
X181309703Y-93452355D01*
X181309694Y-93452353D01*
X181279274Y-93449500D01*
X181279266Y-93449500D01*
X179720734Y-93449500D01*
X179720725Y-93449500D01*
X179690305Y-93452353D01*
X179690296Y-93452355D01*
X179562116Y-93497207D01*
X179452855Y-93577845D01*
X179452845Y-93577855D01*
X179372207Y-93687116D01*
X179327355Y-93815296D01*
X179327353Y-93815305D01*
X179324500Y-93845725D01*
X172360070Y-93845725D01*
X172338233Y-93831134D01*
X172338231Y-93831133D01*
X172338228Y-93831132D01*
X172338227Y-93831132D01*
X172279758Y-93819501D01*
X172279748Y-93819500D01*
X170540252Y-93819500D01*
X170540251Y-93819500D01*
X170540241Y-93819501D01*
X170481772Y-93831132D01*
X170481766Y-93831134D01*
X170415451Y-93875445D01*
X170415445Y-93875451D01*
X170371134Y-93941766D01*
X170371132Y-93941772D01*
X170359501Y-94000241D01*
X170359500Y-94000253D01*
X169325429Y-94000253D01*
X169590695Y-93734987D01*
X169676187Y-93649496D01*
X169730703Y-93621719D01*
X169746190Y-93620500D01*
X170829747Y-93620500D01*
X170829748Y-93620500D01*
X170888231Y-93608867D01*
X170954552Y-93564552D01*
X170998867Y-93498231D01*
X171010500Y-93439748D01*
X171010500Y-90900252D01*
X170998867Y-90841769D01*
X170954552Y-90775448D01*
X170910981Y-90746334D01*
X170888233Y-90731134D01*
X170888231Y-90731133D01*
X170888228Y-90731132D01*
X170888227Y-90731132D01*
X170829758Y-90719501D01*
X170829748Y-90719500D01*
X169390252Y-90719500D01*
X169390251Y-90719500D01*
X169390241Y-90719501D01*
X169331772Y-90731132D01*
X169331766Y-90731134D01*
X169265451Y-90775445D01*
X169265445Y-90775451D01*
X169221134Y-90841766D01*
X169221132Y-90841772D01*
X169209501Y-90900241D01*
X169209500Y-90900253D01*
X169209500Y-93083810D01*
X169207031Y-93091407D01*
X169208281Y-93099297D01*
X169197756Y-93119952D01*
X169190593Y-93142001D01*
X169180504Y-93153814D01*
X169179504Y-93154814D01*
X169124987Y-93182591D01*
X169064555Y-93173020D01*
X169021290Y-93129755D01*
X169010500Y-93084810D01*
X169010500Y-90900253D01*
X169010498Y-90900241D01*
X169007711Y-90886231D01*
X168998867Y-90841769D01*
X168954552Y-90775448D01*
X168910981Y-90746334D01*
X168888233Y-90731134D01*
X168888231Y-90731133D01*
X168888228Y-90731132D01*
X168888227Y-90731132D01*
X168829758Y-90719501D01*
X168829748Y-90719500D01*
X167390252Y-90719500D01*
X167390251Y-90719500D01*
X167390241Y-90719501D01*
X167331772Y-90731132D01*
X167331766Y-90731134D01*
X167265451Y-90775445D01*
X167265445Y-90775451D01*
X167221134Y-90841766D01*
X167221132Y-90841772D01*
X167209501Y-90900241D01*
X167209500Y-90900253D01*
X167209500Y-93390500D01*
X167204655Y-93405411D01*
X167204655Y-93421093D01*
X167195438Y-93433778D01*
X167190593Y-93448691D01*
X167177907Y-93457907D01*
X167168691Y-93470593D01*
X167153778Y-93475438D01*
X167141093Y-93484655D01*
X167110500Y-93489500D01*
X167109500Y-93489500D01*
X167051309Y-93470593D01*
X167015345Y-93421093D01*
X167010500Y-93390500D01*
X167010500Y-90900253D01*
X167010498Y-90900241D01*
X167007711Y-90886231D01*
X166998867Y-90841769D01*
X166954552Y-90775448D01*
X166910981Y-90746334D01*
X166888233Y-90731134D01*
X166888231Y-90731133D01*
X166888228Y-90731132D01*
X166888227Y-90731132D01*
X166829758Y-90719501D01*
X166829748Y-90719500D01*
X165390252Y-90719500D01*
X165390251Y-90719500D01*
X165390241Y-90719501D01*
X165331772Y-90731132D01*
X165331766Y-90731134D01*
X165265451Y-90775445D01*
X165265445Y-90775451D01*
X165221134Y-90841766D01*
X165221132Y-90841772D01*
X165209501Y-90900241D01*
X165209500Y-90900253D01*
X165209500Y-93390500D01*
X165204655Y-93405411D01*
X165204655Y-93421093D01*
X165195438Y-93433778D01*
X165190593Y-93448691D01*
X165177907Y-93457907D01*
X165168691Y-93470593D01*
X165153778Y-93475438D01*
X165141093Y-93484655D01*
X165110500Y-93489500D01*
X165109500Y-93489500D01*
X165051309Y-93470593D01*
X165015345Y-93421093D01*
X165010500Y-93390500D01*
X165010500Y-90900253D01*
X165010498Y-90900241D01*
X165007711Y-90886231D01*
X164998867Y-90841769D01*
X164954552Y-90775448D01*
X164910981Y-90746334D01*
X164888233Y-90731134D01*
X164888231Y-90731133D01*
X164888228Y-90731132D01*
X164888227Y-90731132D01*
X164829758Y-90719501D01*
X164829748Y-90719500D01*
X163390252Y-90719500D01*
X163390251Y-90719500D01*
X163390241Y-90719501D01*
X163331772Y-90731132D01*
X163331766Y-90731134D01*
X163265451Y-90775445D01*
X163265445Y-90775451D01*
X163221134Y-90841766D01*
X163221132Y-90841772D01*
X163209501Y-90900241D01*
X163209500Y-90900253D01*
X163209500Y-93439746D01*
X163209501Y-93439758D01*
X163219396Y-93489500D01*
X163221133Y-93498231D01*
X163265448Y-93564552D01*
X163331769Y-93608867D01*
X163376231Y-93617711D01*
X163390241Y-93620498D01*
X163390246Y-93620498D01*
X163390252Y-93620500D01*
X163414810Y-93620500D01*
X163436857Y-93627663D01*
X163459755Y-93631290D01*
X163465403Y-93636938D01*
X163473001Y-93639407D01*
X163486628Y-93658163D01*
X163503020Y-93674555D01*
X163504269Y-93682444D01*
X163508965Y-93688907D01*
X163508965Y-93712092D01*
X163512591Y-93734987D01*
X163508965Y-93742103D01*
X163508965Y-93750093D01*
X163484814Y-93789504D01*
X163383814Y-93890504D01*
X163329297Y-93918281D01*
X163313810Y-93919500D01*
X163284108Y-93919500D01*
X163206200Y-93940375D01*
X163156809Y-93953609D01*
X163042690Y-94019496D01*
X162949496Y-94112690D01*
X162883609Y-94226809D01*
X162883608Y-94226814D01*
X162849500Y-94354108D01*
X161263706Y-94354108D01*
X161340500Y-94277314D01*
X161369659Y-94226809D01*
X161406390Y-94163190D01*
X161406390Y-94163188D01*
X161406392Y-94163186D01*
X161440500Y-94035892D01*
X161440500Y-93904108D01*
X161406392Y-93776814D01*
X161401882Y-93769002D01*
X161389159Y-93709154D01*
X161414044Y-93653258D01*
X161467031Y-93622664D01*
X161487617Y-93620500D01*
X162829747Y-93620500D01*
X162829748Y-93620500D01*
X162888231Y-93608867D01*
X162954552Y-93564552D01*
X162998867Y-93498231D01*
X163010500Y-93439748D01*
X163010500Y-90900252D01*
X162998867Y-90841769D01*
X162954552Y-90775448D01*
X162910981Y-90746334D01*
X162888233Y-90731134D01*
X162888231Y-90731133D01*
X162888228Y-90731132D01*
X162888227Y-90731132D01*
X162829758Y-90719501D01*
X162829748Y-90719500D01*
X161390252Y-90719500D01*
X161390251Y-90719500D01*
X161390241Y-90719501D01*
X161331772Y-90731132D01*
X161331766Y-90731134D01*
X161265451Y-90775445D01*
X161265445Y-90775451D01*
X161221134Y-90841766D01*
X161221132Y-90841772D01*
X161209501Y-90900241D01*
X161209500Y-90900253D01*
X161209500Y-92534811D01*
X161202336Y-92556858D01*
X161198710Y-92579756D01*
X161193061Y-92585404D01*
X161190593Y-92593002D01*
X161171836Y-92606629D01*
X161155445Y-92623021D01*
X161147555Y-92624270D01*
X161141093Y-92628966D01*
X161117908Y-92628966D01*
X161095013Y-92632592D01*
X161087896Y-92628966D01*
X161079907Y-92628966D01*
X161040498Y-92604816D01*
X161039495Y-92603813D01*
X161011719Y-92549298D01*
X161010500Y-92533811D01*
X161010500Y-90900253D01*
X161010498Y-90900241D01*
X161007711Y-90886231D01*
X160998867Y-90841769D01*
X160954552Y-90775448D01*
X160910981Y-90746334D01*
X160888233Y-90731134D01*
X160888231Y-90731133D01*
X160888228Y-90731132D01*
X160888227Y-90731132D01*
X160829758Y-90719501D01*
X160829748Y-90719500D01*
X159390252Y-90719500D01*
X159390251Y-90719500D01*
X159390241Y-90719501D01*
X159331772Y-90731132D01*
X159331766Y-90731134D01*
X159265451Y-90775445D01*
X159265445Y-90775451D01*
X159221134Y-90841766D01*
X159221132Y-90841772D01*
X159209501Y-90900241D01*
X159209500Y-90900253D01*
X159010500Y-90900253D01*
X159010500Y-90900252D01*
X158998867Y-90841769D01*
X158954552Y-90775448D01*
X158910981Y-90746334D01*
X158888233Y-90731134D01*
X158888231Y-90731133D01*
X158888228Y-90731132D01*
X158888227Y-90731132D01*
X158829758Y-90719501D01*
X158829748Y-90719500D01*
X157390252Y-90719500D01*
X157390251Y-90719500D01*
X157390241Y-90719501D01*
X157331772Y-90731132D01*
X157331766Y-90731134D01*
X157265451Y-90775445D01*
X157265445Y-90775451D01*
X157221134Y-90841766D01*
X157221132Y-90841772D01*
X157209501Y-90900241D01*
X157209500Y-90900253D01*
X157010500Y-90900253D01*
X157010500Y-90900252D01*
X156998867Y-90841769D01*
X156954552Y-90775448D01*
X156910981Y-90746334D01*
X156888233Y-90731134D01*
X156888231Y-90731133D01*
X156888228Y-90731132D01*
X156888227Y-90731132D01*
X156829758Y-90719501D01*
X156829748Y-90719500D01*
X155390252Y-90719500D01*
X155390251Y-90719500D01*
X155390241Y-90719501D01*
X155331772Y-90731132D01*
X155331766Y-90731134D01*
X155257341Y-90780865D01*
X155255708Y-90778421D01*
X155214987Y-90799170D01*
X155154555Y-90789599D01*
X155111290Y-90746334D01*
X155100500Y-90701389D01*
X155100500Y-90359309D01*
X155119407Y-90301118D01*
X155168907Y-90265154D01*
X155199464Y-90260309D01*
X185560470Y-90250689D01*
X185618665Y-90269578D01*
G37*
%TD.AperFunction*%
%TD*%
M02*
